<svg xmlns="http://www.w3.org/2000/svg" viewBox="0 0 16 32"><defs><style>.cls-1{fill:none;}.cls-2{fill:#701c74;}.cls-3{fill:#f7f7f7;}</style></defs><g id="Capa_2" data-name="Capa 2"><g id="Capa_1-2" data-name="Capa 1"><rect class="cls-1" width="16" height="32"/><path class="cls-2" d="M11,9l-4,4a1.4,1.4,0,0,1-2,0,1.39,1.39,0,0,1,0-2L7,9l.05-.05L8,8,7,7,5,5A1.4,1.4,0,0,1,7,3l4,4A1.4,1.4,0,0,1,11,9Z"/><path class="cls-3" d="M11,25,7,29a1.38,1.38,0,0,1-2,0,1.35,1.35,0,0,1-.41-1A1.38,1.38,0,0,1,5,27l2-2,.05,0L8,24,5,21a1.4,1.4,0,0,1,0-2,1.4,1.4,0,0,1,2,0l4,4A1.4,1.4,0,0,1,11,25Z"/></g></g></svg>