<svg xmlns="http://www.w3.org/2000/svg" viewBox="0 0 408.09 408.09"><defs><style>.cls-1{fill:#ffc629;}</style></defs><g id="Capa_2" data-name="Capa 2"><g id="Capa_1-2" data-name="Capa 1"><path class="cls-1" d="M230.77,1.75,14.49,128.42A204.1,204.1,0,0,1,204,0,200.13,200.13,0,0,1,230.77,1.75Z"/><path class="cls-1" d="M334.3,47.05,3.35,240.89A202.61,202.61,0,0,1,0,204c0-6.73.33-13.34,1-19.91L286,17.18A201.48,201.48,0,0,1,334.3,47.05Z"/><path class="cls-1" d="M390.13,120.3,40,325.37A203.11,203.11,0,0,1,15.3,281.7L364,77.41A203,203,0,0,1,390.13,120.3Z"/><path class="cls-1" d="M167,404.74l230.2-134.87A204.34,204.34,0,0,1,167,404.74Z"/><path class="cls-1" d="M408.09,204q0,6-.37,11.88l-293,171.6a203.05,203.05,0,0,1-46.23-31L403.35,160.34A203,203,0,0,1,408.09,204Z"/></g></g></svg>