<svg id="Capa_1" data-name="Capa 1" xmlns="http://www.w3.org/2000/svg" viewBox="0 0 1000 1000"><defs><style>.cls-1,.cls-3{fill:#fdc331;}.cls-2{fill:#6c2c73;}.cls-3{font-size:370px;font-family:Verdana-Bold, Verdana;font-weight:700;letter-spacing:-0.03em;}.cls-4{letter-spacing:-0.02em;}.cls-5{font-size:200px;fill:#fff;letter-spacing:-0.03em;}</style></defs><rect class="cls-1" width="1000" height="1000" rx="110"/><rect class="cls-2" x="37.5" y="37.5" width="925" height="925" rx="101.75"/><text class="cls-3" transform="translate(114.21 415.64)">F<tspan class="cls-4" x="229.54" y="0">E</tspan><tspan x="474.89" y="0">D</tspan><tspan class="cls-5"><tspan x="15" y="175">RURAL</tspan></tspan></text><path class="cls-1" d="M349.77,828.81a13.35,13.35,0,0,1,3.35-7.53c7.42-7.89,14.77-15.85,22.16-23.77,4.76-5.11,9.47-10.27,14.35-15.26,1.89-1.93,1.54-3.18-.21-4.89-12.6-12.28-25.06-24.71-37.73-36.92-3.23-3.12-4.79-6.5-3.91-10.9a7.37,7.37,0,0,1,4.94-5.85c2.54-.9,4.56.37,6.29,2.06q26.17,25.49,52.35,51c2,1.92,2,3.17.17,5.15Q387.2,807.91,363,834c-2.16,2.33-4.46,4.51-8.18,3S350.45,832.15,349.77,828.81Z" transform="translate(-0.33 0.44)"/><path class="cls-1" d="M361.22,780.42c0,10.13-8.17,18.13-18.62,18.13-10.18,0-18.53-8-18.61-17.83a18,18,0,0,1,18-18.36C353.16,762.28,361.17,769.8,361.22,780.42Z" transform="translate(-0.33 0.44)"/><path class="cls-1" d="M476.4,685.83a9.38,9.38,0,0,1-2.33,6.4Q447,724.75,420,757.37c-1.59,1.94-2.37,1-3.48-.17Q404,743.34,391.42,729.49,376.23,712.84,361,696.24c-2.48-2.71-4.71-5.5-3.63-9.61,1.68-6.37,9.58-9.11,14.36-4.5,6,5.82,11.53,12.17,17.19,18.35,8.5,9.29,16.9,18.66,25.41,27.93,3.3,3.59,3.83,3.36,6.92-.37q18.15-22,36.49-43.78a39.07,39.07,0,0,1,4.75-5.11c2.86-2.38,6.12-2.61,9.49-.95A7.65,7.65,0,0,1,476.4,685.83Z" transform="translate(-0.33 0.44)"/><path class="cls-1" d="M470.84,879c-2.88.21-5.19-1.24-7.16-3.39q-20.49-22.49-41-45c-3.19-3.5-4-3.47-7,.22q-19.2,23.16-38.37,46.35c-3.27,3.94-7,5.45-10.65,4.26-6.14-2-8-8.3-3.84-13.81,3.73-4.92,7.77-9.61,11.72-14.37q19.32-23.31,38.66-46.58c.67-.81,1.36-1.61,2.06-2.39,3.53-4,3.5-3.93,7-.09q26.88,29.46,53.79,58.9c4.57,5,4.9,9.6,1,13.53A8.06,8.06,0,0,1,470.84,879Z" transform="translate(-0.33 0.44)"/><path class="cls-1" d="M486.36,729.66a13.35,13.35,0,0,1-3.35,7.53c-7.42,7.89-14.77,15.84-22.15,23.76-4.77,5.11-9.48,10.28-14.36,15.27-1.89,1.92-1.54,3.17.21,4.89,12.6,12.28,25.07,24.7,37.73,36.92,3.23,3.12,4.79,6.5,3.92,10.89a7.4,7.4,0,0,1-4.94,5.86c-2.54.89-4.57-.38-6.3-2.06q-26.17-25.49-52.35-51c-2-1.92-2-3.17-.17-5.16q24.33-26,48.55-52.17c2.17-2.32,4.47-4.5,8.19-2.95S485.68,726.32,486.36,729.66Z" transform="translate(-0.33 0.44)"/><path class="cls-1" d="M416.79,683.92c-10.32,0-18.27-7.61-18.3-17.5,0-10.49,7.69-18,18.48-18,10.17,0,18.17,7.75,18.26,17.67S427.19,683.93,416.79,683.92Z" transform="translate(-0.33 0.44)"/><path class="cls-1" d="M483.17,777.93c0-10.13,8.17-18.13,18.62-18.13,10.18,0,18.53,8,18.61,17.83a18.06,18.06,0,0,1-18,18.37C491.23,796.07,483.22,788.56,483.17,777.93Z" transform="translate(-0.33 0.44)"/><path class="cls-1" d="M401.94,889a17.51,17.51,0,0,1,18.79-17.73c10.53.5,17.5,7.35,17.7,17.81.19,9.93-8,17.55-18.36,17.51S401.91,899.05,401.94,889Z" transform="translate(-0.33 0.44)"/><path class="cls-1" d="M509,827.66a13.36,13.36,0,0,1,3.36-7.53c7.42-7.89,14.76-15.85,22.15-23.77,4.76-5.11,9.47-10.27,14.36-15.26,1.88-1.92,1.54-3.18-.22-4.89-12.6-12.28-25.06-24.7-37.72-36.92-3.24-3.12-4.8-6.5-3.92-10.89a7.39,7.39,0,0,1,4.94-5.86c2.54-.9,4.56.38,6.29,2.06q26.17,25.49,52.35,51c2,1.92,2,3.17.17,5.16q-24.33,26-48.54,52.17c-2.17,2.32-4.47,4.5-8.19,3S509.63,831,509,827.66Z" transform="translate(-0.33 0.44)"/><path class="cls-1" d="M520.4,779.27c.05,10.13-8.16,18.13-18.62,18.14-10.18,0-18.53-8-18.61-17.84a18.06,18.06,0,0,1,18-18.36C512.34,761.13,520.35,768.65,520.4,779.27Z" transform="translate(-0.33 0.44)"/><path class="cls-1" d="M635.58,684.68a9.37,9.37,0,0,1-2.33,6.41q-27.09,32.5-54,65.13c-1.59,1.94-2.37,1.06-3.48-.17q-12.56-13.86-25.13-27.71-15.2-16.65-30.45-33.25c-2.48-2.71-4.71-5.5-3.63-9.6,1.68-6.38,9.59-9.12,14.36-4.51,6,5.82,11.53,12.17,17.19,18.36,8.5,9.28,16.9,18.66,25.41,27.93,3.3,3.59,3.83,3.35,6.92-.38q18.17-22,36.49-43.78a39,39,0,0,1,4.75-5.1c2.86-2.39,6.12-2.62,9.49-1A7.64,7.64,0,0,1,635.58,684.68Z" transform="translate(-0.33 0.44)"/><path class="cls-1" d="M630,877.83c-2.87.22-5.19-1.24-7.15-3.39q-20.5-22.49-41-45c-3.19-3.5-4-3.46-7,.22Q555.69,852.85,536.5,876c-3.26,3.94-7,5.45-10.65,4.26-6.14-2-8-8.3-3.84-13.81,3.73-4.92,7.78-9.61,11.72-14.37q19.32-23.29,38.67-46.58c.67-.81,1.35-1.6,2.05-2.39,3.53-4,3.5-3.93,7-.08q26.88,29.46,53.8,58.89c4.56,5,4.89,9.6,1,13.53A8,8,0,0,1,630,877.83Z" transform="translate(-0.33 0.44)"/><path class="cls-1" d="M645.55,728.51a13.36,13.36,0,0,1-3.36,7.53c-7.42,7.89-14.76,15.85-22.15,23.77-4.76,5.11-9.47,10.27-14.36,15.26-1.89,1.92-1.54,3.18.22,4.89,12.59,12.28,25.06,24.7,37.72,36.92,3.23,3.12,4.8,6.5,3.92,10.89a7.39,7.39,0,0,1-4.94,5.86c-2.54.9-4.57-.38-6.29-2.06q-26.17-25.49-52.36-51c-2-1.92-2-3.17-.16-5.16,16.22-17.35,32.34-34.79,48.54-52.17,2.17-2.32,4.47-4.5,8.19-2.95S644.86,725.17,645.55,728.51Z" transform="translate(-0.33 0.44)"/><path class="cls-1" d="M576,682.77c-10.31,0-18.27-7.61-18.3-17.5,0-10.49,7.69-18,18.48-18,10.17,0,18.17,7.75,18.26,17.67S586.37,682.78,576,682.77Z" transform="translate(-0.33 0.44)"/><path class="cls-1" d="M642.35,776.79c0-10.14,8.17-18.14,18.62-18.14,10.18,0,18.53,8,18.61,17.84a18,18,0,0,1-18,18.36C650.42,794.93,642.4,787.41,642.35,776.79Z" transform="translate(-0.33 0.44)"/><path class="cls-1" d="M561.12,887.81a17.52,17.52,0,0,1,18.79-17.74c10.53.5,17.51,7.35,17.7,17.81.19,9.93-8,17.55-18.36,17.51S561.1,897.9,561.12,887.81Z" transform="translate(-0.33 0.44)"/></svg>