<svg id="Capa_1" data-name="Capa 1" xmlns="http://www.w3.org/2000/svg" viewBox="0 0 1000 1000"><defs><style>.cls-1{fill:#fdc331;}.cls-2{fill:#6c2c73;}.cls-3{fill:#fff;}.cls-4{fill:#fcc33a;}.cls-5{fill:#97bd2d;}</style></defs><rect class="cls-1" width="1000" height="1000" rx="110"/><rect class="cls-2" x="37.5" y="37.5" width="925" height="925" rx="101.75"/><path class="cls-3" d="M183.58,787.11V904.19H149.17V787.11Z" transform="translate(-0.33 0.44)"/><path class="cls-3" d="M199.32,904.19V787.11h41.05c12.32,26.37,30.15,62,35.08,76.42H276c-1.3-12.16-1.59-32.84-1.59-51.51V787.11h31.26V904.19H266.58c-9.93-21.2-31.11-65.13-36.61-80.58h-.46c1.09,11,1.19,33.68,1.19,54.29v26.29Z" transform="translate(-0.33 0.44)"/><path class="cls-3" d="M345.75,812.54H312.28V787.11h101v25.43H380.09v91.65H345.75Z" transform="translate(-0.33 0.44)"/><path class="cls-3" d="M505.3,856.81H452v22H511.5l-3.83,25.43H419V787.11h88.61v25.43H452v18.84H505.3Z" transform="translate(-0.33 0.44)"/><path class="cls-3" d="M628.57,904.19h-23a86.9,86.9,0,0,1-2.16-10.66c-6.62,8.72-18,13.06-34.26,13.06-35.85,0-53.92-27.1-53.92-59.59,0-35.91,20.92-62.07,59.94-62.07,35.36,0,51.6,20.2,53.72,38.19h-34c-1.69-6.21-6-14-19.91-14-19.58,0-24.4,18-24.4,36.71,0,18.49,5.59,36.39,24.51,36.39,17.28,0,20.32-12.66,20.32-20.39V861H573.93V837h54.64Z" transform="translate(-0.33 0.44)"/><path class="cls-3" d="M675.64,860v44.24H642.33V787.11h58c27.57,0,40.91,14.76,40.91,32.42,0,16.17-9.45,24.44-17.57,27.77,7.38,2.58,15.26,10.39,15.26,30.21v4.88c0,7.28.23,16.73,1.52,21.8H707.77c-2-5-2.49-13.53-2.49-25.57v-3c0-10.11-2.41-15.65-17.55-15.65Zm0-23.91h15.87c11.42,0,15.59-4.75,15.59-12.62s-5-12.4-15.43-12.4h-16Z" transform="translate(-0.33 0.44)"/><path class="cls-3" d="M783.26,881.42l-6.78,22.77H743.06l37-117.08h44.41l38.47,117.08H827.11L820,881.42ZM814,856c-5.5-18.39-10-34.75-12.65-46.16h-.47c-2.71,12.61-7.19,29.32-11.93,46.16Z" transform="translate(-0.33 0.44)"/><path class="cls-1" d="M680.24,400c-8.14,22.06-24,39.39-38.54,56.74-12.91,15.45-24.74,31.73-37.63,47.16-23.77,28.47-52.84,50.29-85.29,67.28-10.52,5.5-14,10.73-12.7,22,4.81,40,9,80,13.33,120,1.57,14.62,3.41,28.75-19.27,27.95-17.36-.62-31.37,1.09-28.93-25,3-31.52.67-63.53.78-95.33.1-32,.17-32-31.51-34.17-22.25-1.53-43.62-6.83-64.79-13.81-37.47-12.36-63.17-39.65-86-69.22-29.78-38.5-43.89-83.18-44.81-132.16-.26-14.25,5.25-23.32,18.14-26.22,11.57-2.61,22.36-3.91,32.49,9,13.5,17.2,30.21,31.52,56.49,28.21,11.22-1.41,15-11.59,23.73-12.88,18.52-2.72,36.91.33,54.13,7.53,10.34,4.32,9.44,14.38,7.19,23.14-4.48,17.5,5.57,22.76,19.72,24.2,26,2.65,49.11-6.87,71.22-19.11,3-1.64,4.51-6.24,8.74-2.28-18.73,25.07-62.94,43.18-94.28,35.27-13.43-3.4-14.87-.38-15.76,11-3.21,41.12,22,68.71,45.46,97.07,6.6,8,15.3,3.34,22.55.72,49.67-18,89.5-49.72,124-89q22.86-26,47-50.94c3.69-3.81,8.19-9,15.2-6.56Z" transform="translate(-0.33 0.44)"/><path class="cls-1" d="M360.84,231c9.49-23.8,28.82-40.65,46.33-57.12,35.16-33,71.13-65.21,120.53-78.93,36.21-10.06,68.94-5.22,97.6,14.09,30.8,20.76,49.38,53.38,67.11,89.13-22.06-1.1-26.3-18.08-35.59-27.49C600.63,113.77,556,111.47,488.31,142.65c-43,19.81-81.44,49.2-114.24,84.4" transform="translate(-0.33 0.44)"/><path class="cls-1" d="M550.62,170c-5.78,15.69-21.79,10.84-33,15-30.9,11.4-54.73,32.9-78,53.94-36.35,33-78.46,58.28-114.6,91.25-4.34,4-9.6,2.76-15,1.63,1.16-16.53,17.29-19.57,26.35-28.44,41.08-40.19,84-78.6,131.94-110.41C492.52,176.91,518.55,159.3,550.62,170Z" transform="translate(-0.33 0.44)"/><path class="cls-1" d="M473.19,504.12C545.92,472.26,594,413,648.09,361.05q18-17.3,36.52-34.08c3.53-3.22,8.9-4.49,11.73-.44,4,5.75-3.9,6-5.74,9-20.72,34.67-52.79,59.41-79.74,88.28C579,458,544,490.74,498.52,508.29,488.92,512,481.65,510.57,473.19,504.12Z" transform="translate(-0.33 0.44)"/><path class="cls-1" d="M447.37,276.44c24.19-22.89,51.92-38.56,85.89-39.95,26.75-1.09,41.92,9.29,49.75,35.65-48.06-30.37-92.5-21.57-135.76,4.71C447.25,276.83,447.37,276.44,447.37,276.44Z" transform="translate(-0.33 0.44)"/><path class="cls-1" d="M533.81,270.77c-37.51-.51-67.65,25.3-103.77,28.66C463.6,285.72,494.8,263.81,533.81,270.77Z" transform="translate(-0.33 0.44)"/><path class="cls-1" d="M560.13,368.32c-12.37,16.38-33.33,19.07-48.89,30.44-1.3.95-5-1.38-7.58-2.18,1.2-2.48,2.09-6.88,3.66-7.14,19.2-3.18,31.65-23.37,52.95-20.89Z" transform="translate(-0.33 0.44)"/><path class="cls-1" d="M360.84,231" transform="translate(-0.33 0.44)"/><path class="cls-4" d="M680.22,400l.63.62" transform="translate(-0.33 0.44)"/><path class="cls-5" d="M476.24,548.22C443.65,562.38,415.83,549.93,389,533c-18.32-11.58-32.78-27.81-50.41-40.54,13.22,44.52,49.85,67.53,86.39,90.61-67.59-3.4-112.67-41.73-147.89-93.65C252.56,453.25,241.2,412.59,240.32,369c-.26-13,3.82-22.37,16.39-25.72,12.8-3.42,24.35-5.25,35.74,8.31,14.16,16.86,31.18,33.24,58.13,27.76,6.06-1.23,11.11-2,16.14-6.21,12-10.06,57.51-7.05,67.76,3.73,4.56,4.8,4.9,10.63,4.42,16.74-.58,7.43-1,14.86-1.47,22.27-5,4.21-6.69,9.5-5.36,15.78-13.5,35.78,2.83,64.54,24,91.12C462.76,531.21,469.81,539.5,476.24,548.22Z" transform="translate(-0.33 0.44)"/><path class="cls-4" d="M560.13,368.32l.14.23" transform="translate(-0.33 0.44)"/></svg>