<svg id="Capa_1" data-name="Capa 1" xmlns="http://www.w3.org/2000/svg" viewBox="0 0 1000 1000"><defs><style>.cls-1{fill:#fdc331;}.cls-2{fill:#6c2c73;}.cls-3{fill:#fff;}</style></defs><rect class="cls-1" width="1000" height="1000" rx="110"/><rect class="cls-2" x="37.5" y="37.5" width="925" height="925" rx="101.75"/><path class="cls-1" d="M147.25,323.21,107.17,206.13h36.45l14.45,50.29c4.56,15.61,7.24,26.43,9.9,39.51h.52c2.26-12.12,5.26-23,10.1-39.17l14.95-50.63h35.15l-41,117.08Z" transform="translate(-0.33 0.44)"/><path class="cls-1" d="M266.33,206.13V323.21H231.92V206.13Z" transform="translate(-0.33 0.44)"/><path class="cls-1" d="M310.1,323.21,270,206.13h36.44l14.45,50.29c4.57,15.61,7.24,26.43,9.9,39.51h.52c2.26-12.12,5.27-23,10.11-39.17l14.94-50.63h35.16l-41,117.08Z" transform="translate(-0.33 0.44)"/><path class="cls-1" d="M429.19,206.13V323.21H394.78V206.13Z" transform="translate(-0.33 0.44)"/><path class="cls-1" d="M531.27,275.83H477.94v21.95h59.53l-3.82,25.43H444.93V206.13h88.61v25.42h-55.6V250.4h53.33Z" transform="translate(-0.33 0.44)"/><path class="cls-1" d="M544.54,323.21V206.13H585.6c12.32,26.37,30.15,62,35.07,76.41h.58c-1.3-12.16-1.6-32.83-1.6-51.51v-24.9h31.27V323.21H611.8c-9.92-21.2-31.11-65.13-36.61-80.58h-.46c1.09,11,1.19,33.67,1.19,54.28v26.3Z" transform="translate(-0.33 0.44)"/><path class="cls-1" d="M666.6,206.13h50.3c37.26,0,58.88,23.57,58.88,57.25s-21.06,59.83-59.42,59.83H666.6ZM701,298.36h13.14c18.62,0,26.25-13.06,26.25-35,0-19.39-7.12-32.41-25.84-32.41H701Z" transform="translate(-0.33 0.44)"/><path class="cls-1" d="M813.14,300.43l-6.77,22.78H773l37-117.08h44.41l38.46,117.08H857l-7.11-22.78ZM843.87,275c-5.5-18.4-10-34.75-12.65-46.17h-.47c-2.71,12.62-7.19,29.32-11.94,46.17Z" transform="translate(-0.33 0.44)"/><path class="cls-3" d="M186.74,483.36v59.85H141.67V384.81h78.49c37.3,0,55.35,20,55.35,43.86,0,21.87-12.79,33.06-23.77,37.57,10,3.48,20.65,14.05,20.65,40.87v6.6c0,9.85.31,22.63,2.06,29.5H230.21c-2.68-6.82-3.37-18.31-3.37-34.59v-4.09c0-13.68-3.26-21.17-23.74-21.17Zm0-32.35h21.47c15.46,0,21.09-6.43,21.09-17.08s-6.69-16.78-20.87-16.78H186.74Z" transform="translate(-0.33 0.44)"/><path class="cls-3" d="M333.74,384.81v97.38c0,22.69,11.18,30.46,25.25,30.46,15.23,0,24.08-9.29,24.08-30.46V384.81H429.7v92.71c0,52.64-31.14,68.63-71.5,68.63-41.83,0-70.93-16.94-70.93-68.41V384.81Z" transform="translate(-0.33 0.44)"/><path class="cls-3" d="M494.47,483.36v59.85H449.41V384.81h78.48c37.31,0,55.36,20,55.36,43.86,0,21.87-12.79,33.06-23.78,37.57,10,3.48,20.65,14.05,20.65,40.87v6.6c0,9.85.31,22.63,2.06,29.5H537.94c-2.68-6.82-3.37-18.31-3.37-34.59v-4.09c0-13.68-3.26-21.17-23.74-21.17Zm0-32.35h21.47c15.46,0,21.1-6.43,21.1-17.08s-6.69-16.78-20.88-16.78H494.47Z" transform="translate(-0.33 0.44)"/><path class="cls-3" d="M640.08,512.4l-9.17,30.81H585.69l50.06-158.4h60.09l52,158.4H699.41l-9.62-30.81ZM681.65,478c-7.45-24.89-13.54-47-17.13-62.46h-.63c-3.67,17.07-9.72,39.67-16.14,62.46Z" transform="translate(-0.33 0.44)"/><path class="cls-3" d="M753,384.81h46.55v124h74.66l-5,34.4H753Z" transform="translate(-0.33 0.44)"/><path class="cls-3" d="M360.57,840.44a12.28,12.28,0,0,1,3.07-6.9c6.81-7.24,13.55-14.54,20.32-21.8,4.37-4.69,8.69-9.42,13.17-14,1.73-1.77,1.41-2.92-.19-4.48-11.56-11.27-23-22.67-34.61-33.87-3-2.86-4.4-6-3.59-10a6.77,6.77,0,0,1,4.53-5.37c2.33-.83,4.19.34,5.77,1.88q24,23.39,48,46.76c1.82,1.75,1.86,2.9.15,4.73q-22.31,23.86-44.52,47.85c-2,2.13-4.1,4.13-7.51,2.7S361.19,843.51,360.57,840.44Z" transform="translate(-0.33 0.44)"/><path class="cls-3" d="M371.07,796.06c0,9.3-7.49,16.63-17.08,16.63-9.34,0-17-7.33-17.07-16.35a16.57,16.57,0,0,1,16.49-16.85C363.67,779.42,371,786.32,371.07,796.06Z" transform="translate(-0.33 0.44)"/><path class="cls-3" d="M476.71,709.3a8.57,8.57,0,0,1-2.14,5.88Q449.73,745,425,774.92c-1.46,1.78-2.18,1-3.19-.16q-11.52-12.71-23.05-25.41-13.93-15.29-27.93-30.5c-2.27-2.49-4.32-5.05-3.33-8.81,1.54-5.85,8.79-8.36,13.17-4.13,5.52,5.34,10.58,11.16,15.77,16.83,7.79,8.52,15.5,17.12,23.31,25.62,3,3.29,3.51,3.08,6.34-.34q16.65-20.14,33.47-40.16a35.23,35.23,0,0,1,4.36-4.68,7.5,7.5,0,0,1,8.7-.87A7,7,0,0,1,476.71,709.3Z" transform="translate(-0.33 0.44)"/><path class="cls-3" d="M471.62,886.46c-2.64.2-4.77-1.13-6.57-3.11l-37.58-41.26c-2.92-3.21-3.64-3.18-6.44.2q-17.61,21.24-35.2,42.51c-3,3.62-6.41,5-9.76,3.91-5.63-1.83-7.35-7.62-3.52-12.67,3.42-4.51,7.13-8.81,10.75-13.18q17.71-21.37,35.46-42.72c.62-.74,1.24-1.47,1.88-2.19,3.24-3.64,3.22-3.61,6.44-.08q24.65,27,49.34,54c4.19,4.59,4.48,8.81.87,12.42A7.39,7.39,0,0,1,471.62,886.46Z" transform="translate(-0.33 0.44)"/><path class="cls-3" d="M485.86,749.5a12.39,12.39,0,0,1-3.08,6.91c-6.81,7.23-13.55,14.53-20.32,21.8-4.37,4.68-8.69,9.42-13.17,14-1.73,1.76-1.41,2.91.2,4.48,11.55,11.27,23,22.66,34.6,33.87,3,2.86,4.4,6,3.59,10a6.78,6.78,0,0,1-4.53,5.37c-2.33.82-4.18-.35-5.77-1.89q-24-23.37-48-46.75c-1.82-1.76-1.85-2.91-.15-4.73q22.31-23.88,44.52-47.85c2-2.13,4.1-4.13,7.51-2.71S485.23,746.44,485.86,749.5Z" transform="translate(-0.33 0.44)"/><path class="cls-3" d="M422,707.55c-9.46,0-16.76-7-16.79-16,0-9.63,7.06-16.53,16.95-16.52A16.4,16.4,0,0,1,439,691.19C439,700.33,431.57,707.55,422,707.55Z" transform="translate(-0.33 0.44)"/><path class="cls-3" d="M482.93,793.78c-.05-9.29,7.49-16.63,17.07-16.63,9.34,0,17,7.33,17.07,16.36a16.56,16.56,0,0,1-16.48,16.84C490.32,810.42,483,803.52,482.93,793.78Z" transform="translate(-0.33 0.44)"/><path class="cls-3" d="M408.42,895.61a16.07,16.07,0,0,1,17.23-16.27c9.66.46,16.06,6.75,16.24,16.34.17,9.11-7.37,16.1-16.84,16.06S408.39,904.87,408.42,895.61Z" transform="translate(-0.33 0.44)"/><path class="cls-3" d="M506.57,839.39a12.29,12.29,0,0,1,3.08-6.91c6.8-7.23,13.54-14.53,20.32-21.79,4.37-4.69,8.69-9.43,13.17-14,1.73-1.77,1.41-2.92-.2-4.49-11.55-11.27-23-22.66-34.6-33.86-3-2.87-4.4-6-3.6-10a6.79,6.79,0,0,1,4.54-5.37c2.32-.82,4.18.35,5.77,1.89q24,23.39,48,46.75c1.81,1.76,1.85,2.91.15,4.73-14.88,15.92-29.67,31.92-44.53,47.85-2,2.14-4.1,4.13-7.51,2.71S507.2,842.45,506.57,839.39Z" transform="translate(-0.33 0.44)"/><path class="cls-3" d="M517.07,795c0,9.29-7.49,16.63-17.07,16.63-9.34,0-17-7.33-17.07-16.36a16.56,16.56,0,0,1,16.48-16.84C509.68,778.37,517,785.26,517.07,795Z" transform="translate(-0.33 0.44)"/><path class="cls-3" d="M622.72,708.25a8.55,8.55,0,0,1-2.14,5.87Q595.74,743.94,571,773.87c-1.47,1.77-2.18,1-3.2-.16Q556.3,761,544.77,748.29q-13.93-15.27-27.92-30.5c-2.28-2.48-4.33-5-3.33-8.8,1.53-5.85,8.79-8.37,13.16-4.13,5.52,5.34,10.58,11.16,15.77,16.83,7.8,8.52,15.5,17.11,23.31,25.62,3,3.29,3.52,3.08,6.34-.34q16.67-20.15,33.48-40.17a35.7,35.7,0,0,1,4.35-4.67,7.53,7.53,0,0,1,8.71-.88A7,7,0,0,1,622.72,708.25Z" transform="translate(-0.33 0.44)"/><path class="cls-3" d="M617.62,885.41c-2.64.2-4.76-1.14-6.56-3.11Q592.25,861.68,573.48,841c-2.93-3.21-3.65-3.17-6.45.2l-35.19,42.52c-3,3.61-6.41,5-9.77,3.91-5.63-1.83-7.35-7.62-3.52-12.67,3.42-4.52,7.13-8.82,10.75-13.18q17.72-21.37,35.47-42.73c.61-.74,1.24-1.47,1.88-2.19,3.24-3.63,3.21-3.6,6.43-.08q24.66,27,49.34,54c4.19,4.59,4.49,8.81.88,12.41A7.38,7.38,0,0,1,617.62,885.41Z" transform="translate(-0.33 0.44)"/><path class="cls-3" d="M631.86,748.45a12.23,12.23,0,0,1-3.08,6.9c-6.8,7.24-13.54,14.54-20.32,21.8-4.36,4.69-8.68,9.43-13.17,14-1.73,1.77-1.41,2.92.2,4.49,11.56,11.27,23,22.66,34.6,33.86,3,2.86,4.4,6,3.6,10a6.79,6.79,0,0,1-4.53,5.38c-2.33.82-4.19-.35-5.78-1.89q-24-23.38-48-46.75c-1.81-1.76-1.85-2.91-.15-4.73,14.88-15.92,29.67-31.92,44.53-47.85,2-2.14,4.1-4.13,7.51-2.71S631.23,745.39,631.86,748.45Z" transform="translate(-0.33 0.44)"/><path class="cls-3" d="M568.05,706.5c-9.47,0-16.77-7-16.79-16.06,0-9.62,7-16.53,17-16.52A16.41,16.41,0,0,1,585,690.14C585.05,699.28,577.58,706.5,568.05,706.5Z" transform="translate(-0.33 0.44)"/><path class="cls-3" d="M628.93,792.73c0-9.3,7.49-16.63,17.08-16.64,9.34,0,17,7.34,17.07,16.36a16.55,16.55,0,0,1-16.49,16.84C636.33,809.37,629,802.47,628.93,792.73Z" transform="translate(-0.33 0.44)"/><path class="cls-3" d="M554.43,894.56a16.05,16.05,0,0,1,17.23-16.27c9.66.46,16.05,6.74,16.23,16.34.18,9.1-7.37,16.09-16.84,16.06S554.4,903.81,554.43,894.56Z" transform="translate(-0.33 0.44)"/></svg>