<svg id="Capa_1" data-name="Capa 1" xmlns="http://www.w3.org/2000/svg" viewBox="0 0 1000 1000"><defs><style>.cls-1{fill:#fdc331;}.cls-2{fill:#6c2c73;}.cls-3{fill:#92c125;}</style></defs><rect class="cls-1" width="1000" height="1000" rx="110"/><rect class="cls-2" x="37.5" y="37.5" width="925" height="925" rx="101.75"/><path class="cls-1" d="M470,542c0,12.26,0,24.52,0,36.78,0,22.77-18.69,46-41.32,49.2-34,4.88-68.06,8.73-102.11,12.93a43.42,43.42,0,0,1-18.6-1.59c-9.08-2.86-11.89-9-7.8-17.69,3.56-7.57,10.13-12.72,15.74-18.63,2.62-2.76,5.55-5.23,8.08-8.07,9.27-10.36,8.61-18.6-1.84-27.66C304.6,552,284.41,540.69,265.17,528c-31.7-20.89-61.11-44.53-85.85-73.28-14.91-17.34-21.49-39-23.38-61.73-2.77-33.38-4.84-66.83-8.06-100.17-2.72-28.2,2.59-54.11,21.29-75.64,12.81-14.75,27.68-27.73,41.71-41.43q41.1-40.15,82.29-80.24c7.57-7.39,16-12.12,27.09-11.91,11.67.21,20.78,11.63,17.58,22.86a31.74,31.74,0,0,1-7.94,13.15q-34.75,36.84-69.5,73.7c-14.3,15.17-28.39,30.54-42.94,45.47C203.3,253.32,201,270.07,207,288.63c4.46,13.91,12.68,25.87,20.23,38.17q21.51,35,43.06,70.05c6.33,10.32,12.58,20.69,18.9,31a38.43,38.43,0,0,0,2.85,4c6.35,7.86,15.58,10.44,22.28,6.27,6.86-4.26,8.44-13.19,2.57-22.56q-28.62-45.71-58.09-90.87c-8.23-12.58-17.11-24.71-22.62-38.82-3.53-9-1.51-18.21,5-23.79s16.17-5.8,24.4-.63c9.1,5.73,16,14,23.42,21.51,44,44.54,88.25,88.94,131.74,134,12.74,13.21,27.33,24.88,36.42,41.55,8.27,15.18,13.11,30.93,12.85,48.25C469.81,518.51,470,530.23,470,542Z" transform="translate(-0.33 0.44)"/><path class="cls-1" d="M531.2,542.26c.69-18.19-2.09-36.52,1.6-54.61,4.51-22.14,16.46-39.89,32.15-55.72q78.78-79.5,157.2-159.37c4.59-4.65,9.13-9.47,15.2-12.21,7.35-3.32,14.95-4.24,21.61,1.21s7.92,12.19,6.13,21.05c-2.56,12.69-10.71,21.84-17.09,32.05-20.28,32.42-41.18,64.46-61.74,96.7a61.37,61.37,0,0,0-4.22,8.8c-2.78,6.43-2.22,12.44,3.43,17s11.63,3.44,17.51,0a24.82,24.82,0,0,0,8.4-8.77q37.22-60.54,74.31-121.16a80.37,80.37,0,0,0,10.48-27.32c2.61-13.87.22-26.82-9.53-37.39-17.3-18.75-35-37.11-52.54-55.69q-25.65-27.24-51.16-54.6c-6.39-6.87-14.37-12.29-18.34-21.37-5.47-12.55-.41-23.08,13.06-25.92,10.41-2.19,19.71.84,27.09,8,24.43,23.66,48.43,47.78,72.78,71.53,15.38,15,31.24,29.52,46.63,44.52,20.85,20.31,31.23,45,29.19,74.26-2.81,40.2-4.36,80.61-10.41,120.43-4.1,27-16.5,50.11-38.28,69.13q-32.28,28.2-66.38,53.83c-13.14,9.91-27.7,17.94-41.66,26.75a94.88,94.88,0,0,0-21.26,17.72c-5,5.69-6.28,11.7-1.62,18.93,5,7.74,12.27,13,18.25,19.62s14.08,13.83,9.58,23.37c-4.19,8.91-14.85,8.68-23.31,8-22-1.86-43.89-4.43-65.71-7.57-15.33-2.2-30.94-2.35-46-7-17.1-5.27-38.84-28.56-35.7-49C532.64,565.91,531.2,554,531.2,542.26Z" transform="translate(-0.33 0.44)"/><path class="cls-3" d="M391,255.79c1.23-37.66,20.63-65.68,43.53-91.88,16.79-19.22,36.52-35.33,46.62-38.55-5.32,29.7,3.72,57.42,10,85.5,8.68,38.68-10.53,68-38.72,90.67-4.15,3.34-5.71.41-7.38-2.47C437.9,286.69,435.63,273,435,259c-.64-14.31-.14-28.68-1.15-43-6.29,23.54-3.22,46.86,1.1,70.15.8,4.28,1.64,8.57,2,12.89.2,2.2,3.08,4.8.16,6.58-2.25,1.37-4.64-.81-6.92-1.55-1.8-.58-3.48-1.54-5.24-2.27-4.11-1.73-5.17-.25-5,4,.73,14.48-.26,15.12-14.36,10.28-15.15-5.2-27.87-14.67-41-23.44-2.42-1.61-4.31-4.21-8.33-4.23,9.29,8.51,19.37,14.87,29.76,20.81,16,9.16,32.8,16.7,49.83,23.75a51.27,51.27,0,0,1,5.18,2.34c1.33.74,1.93,2.15.92,3.4-.53.68-1.82.83-2.81,1a2.55,2.55,0,0,1-1.56-.37c-16.4-9.16-34.66-9.51-52.67-12.14-47.7-7-71.38-33.05-75.3-81-.73-8.93-.37-18-.32-27,0-2-.85-4.72,1.47-5.93,2.75-1.43,4.58,1,6.34,2.56C338.64,234.49,366.12,241.6,391,255.79Z" transform="translate(-0.33 0.44)"/><path class="cls-3" d="M689.87,200.82c-35,14.27-60.72,38.7-86.52,62.79C575.3,289.8,542,298.38,504.77,295.54c-7-.54-14-1.9-21-2.76-5.44-.66-6.76-3-3.19-7.4a142.51,142.51,0,0,0,16-25.5c3.79-7.44,12-10.87,18.79-15.21,13.74-8.75,27.8-17,41.46-25.93-16.31,4.25-30.36,13.07-44.36,22-.68.44-1.28,1-2,1.42-2.52,1.42-5,4.63-8,2.66-2.57-1.68-.6-4.93-.4-7.46.58-7.65.47-15.29-1.37-22.74-1.43-5.81.29-9.59,5-13.24,20.89-16.13,45-23,70.76-23.92,37.61-1.33,73.32,8.43,108.54,20.33C686.24,198.18,687.28,199.16,689.87,200.82Z" transform="translate(-0.33 0.44)"/><path class="cls-1" d="M248.85,742v39H219.46V677.76h51.19c24.33,0,36.1,13,36.1,28.6,0,14.27-8.34,21.57-15.5,24.51,6.5,2.27,13.46,9.16,13.46,26.65v4.31c0,6.42.2,14.76,1.34,19.23H277.2c-1.74-4.45-2.19-11.94-2.19-22.56v-2.66c0-8.92-2.13-13.81-15.49-13.81Zm0-21.1h14c10.08,0,13.75-4.19,13.75-11.14s-4.36-10.93-13.61-10.93H248.85Z" transform="translate(-0.33 0.44)"/><path class="cls-1" d="M392.1,739.26H345.05v19.37h52.52l-3.38,22.43H315.91V677.76H394.1v22.43H345.05v16.63H392.1Z" transform="translate(-0.33 0.44)"/><path class="cls-1" d="M403.81,677.76h44.38c32.88,0,51.95,20.8,51.95,50.51s-18.58,52.79-52.42,52.79H403.81Zm30.31,81.38h11.59c16.43,0,23.16-11.52,23.16-30.87,0-17.1-6.28-28.59-22.8-28.59H434.12Z" transform="translate(-0.33 0.44)"/><path class="cls-1" d="M532.39,749.78c1.73,9,8,12.79,17.81,12.79,9.16,0,13.38-3.21,13.38-9.2,0-6.8-4.59-9.37-20.9-13.27-30.48-7.38-36.55-18.5-36.55-32.41,0-17.33,12.74-31.85,41.49-31.85,29.89,0,42.1,15.16,43.54,31.46H561.92c-.79-5.55-3.63-11.19-14.38-11.19-6.93,0-11.18,2.62-11.18,8.21s3.78,7.77,19.71,11.68c31.83,7.94,38.15,19.41,38.15,34.1,0,19.4-15,32.88-45.29,32.88-28.56,0-43.7-13.33-46-33.2Z" transform="translate(-0.33 0.44)"/><path class="cls-1" d="M702.15,729.32c0,29.22-17.6,53.66-53,53.66-34.75,0-51.54-24.28-51.54-53.52,0-29.72,18.42-53.62,53.09-53.62C683.27,675.84,702.15,698.42,702.15,729.32ZM628.84,729c0,19,6.3,32.16,21.28,32.16,15.74,0,20.92-14,20.92-31.6,0-18.85-5.5-31.92-21.32-31.92C635,697.65,628.84,709.79,628.84,729Z" transform="translate(-0.33 0.44)"/><path class="cls-1" d="M711.31,677.76h30.36v80.87h48.69l-3.28,22.43H711.31Z" transform="translate(-0.33 0.44)"/><path class="cls-1" d="M160,916l-6,20.09H124.53l32.64-103.3h39.19l33.94,103.3H198.69L192.41,916Zm27.11-22.43c-4.85-16.23-8.82-30.66-11.16-40.74h-.42c-2.39,11.13-6.34,25.87-10.52,40.74Z" transform="translate(-0.33 0.44)"/><path class="cls-1" d="M327.55,936.06H307.22a77.68,77.68,0,0,1-1.91-9.4c-5.84,7.69-15.87,11.52-30.22,11.52-31.63,0-47.58-23.92-47.58-52.58,0-31.68,18.46-54.76,52.89-54.76,31.2,0,45.53,17.82,47.4,33.69h-30c-1.48-5.48-5.33-12.37-17.56-12.37-17.28,0-21.53,15.87-21.53,32.39,0,16.32,4.93,32.11,21.62,32.11,15.25,0,17.94-11.17,17.94-18V898H279.34V876.81h48.21Z" transform="translate(-0.33 0.44)"/><path class="cls-1" d="M369.08,897v39H339.69V832.76h51.19c24.33,0,36.1,13,36.1,28.6,0,14.27-8.34,21.57-15.51,24.51,6.51,2.27,13.47,9.16,13.47,26.65v4.31c0,6.42.2,14.76,1.34,19.23H397.43c-1.75-4.45-2.2-11.94-2.2-22.56v-2.66c0-8.92-2.12-13.81-15.48-13.81Zm0-21.1h14c10.09,0,13.76-4.19,13.76-11.14s-4.36-10.93-13.61-10.93H369.08Z" transform="translate(-0.33 0.44)"/><path class="cls-1" d="M466.5,832.76v103.3H436.14V832.76Z" transform="translate(-0.33 0.44)"/><path class="cls-1" d="M573.92,902.08c-3.79,21.6-19.64,35.9-48,35.9-33.83,0-50.17-22.83-50.17-52.81,0-29.25,16.15-54.33,51.64-54.33,30.36,0,44.18,17.65,46.21,35.53h-30c-1.38-7.46-5.69-14.26-16.87-14.26-14.71,0-19.73,14-19.73,32,0,16.38,4.18,32.55,20.07,32.55,12,0,15.4-8.74,16.69-14.58Z" transform="translate(-0.33 0.44)"/><path class="cls-1" d="M682.57,884.32c0,29.22-17.6,53.66-53,53.66-34.75,0-51.54-24.28-51.54-53.52,0-29.72,18.42-53.62,53.09-53.62C663.7,830.84,682.57,853.42,682.57,884.32Zm-73.3-.31c0,19,6.3,32.16,21.27,32.16,15.74,0,20.93-14,20.93-31.6,0-18.85-5.51-31.92-21.33-31.92C615.44,852.65,609.27,864.79,609.27,884Z" transform="translate(-0.33 0.44)"/><path class="cls-1" d="M691.74,832.76h30.35v80.87h48.69l-3.28,22.43H691.74Z" transform="translate(-0.33 0.44)"/><path class="cls-1" d="M805.88,916l-6,20.09H770.42l32.65-103.3h39.18l33.94,103.3H844.58L838.31,916ZM833,893.54c-4.86-16.23-8.83-30.66-11.17-40.74h-.41c-2.4,11.13-6.34,25.87-10.53,40.74Z" transform="translate(-0.33 0.44)"/></svg>