<svg id="Capa_1" data-name="Capa 1" xmlns="http://www.w3.org/2000/svg" viewBox="0 0 1000 1000"><defs><style>.cls-1{fill:#fdc331;}.cls-2{fill:#6c2c73;}</style></defs><rect class="cls-1" width="1000" height="1000" rx="110"/><rect class="cls-2" x="37.5" y="37.5" width="925" height="925" rx="101.75"/><path class="cls-1" d="M327.29,393.64c4.13-2.55,7.39-4.35,10.39-6.52,1.36-1,3.79-3.27,1.58-4.42-6.86-3.57-3.34-10-3.24-14.22.15-6.28,7.16-9.07,12.52-12,1.58-.85,3.18-1.68,4.77-2.53-.18,0-.43,0-.55-.11-1.16-1-2.65-1.91-3.37-3.2-1.49-2.66-.74-4.91,2.25-6,6-2.22,10.64-7.11,15.45-9.88,14.62-8.44,30.06-15.84,49.28-10.6,15.84,4.33,32.74,8.27,49.94,2.91,5.68-1.76,13.75-3.34,18.5.7,15.83,13.43,35.11,6.21,52.44,10.11,5.85,1.31,7.58-3.13,5.53-8.42-1.09-2.82-4-5.74.2-8.08s5.17,2.24,7.27,4.15q11.06,10.05,22,20.3c2.26,2.13,7.19,3.45,4.07,8-2.54,3.67-6.53,4.94-10.95,3.38-2.76-1-5.45-4.87-8.35-1.75-4.83,5.21-11.54,9.14-13.79,16.26-2.84,9,3,13.28,10.34,16,8.31,3,14.73,10,24,11,2.35.24,2.48,2.38,2.91,4.28.62,2.75,1.11,5.72,2.55,8s2.75,6.8,6.52,5.72c4.32-1.23,3.88-5.56,2.62-8.82-2.08-5.37-1.57-9.73,2.83-13.66,1.72-1.54,2.81-4.23,1.16-6-5.4-5.84-1.63-14.27-6.3-20.4-2-2.68-.7-5.06,3.38-5.62,11-1.49,20,2.91,24.47,12.91,2.74,6.06,6.33,5.83,9.87,1.37,3.75-4.73,6.67-3.38,9.78.25,9.78,11.4,21.73,20.53,32.37,31a13.91,13.91,0,0,1,3.93,7.39c1.46,7.22,2.14,14.41,11,17.48,4.36,1.5,2.2,5.56-.78,7.23-2.79,1.56-6,3.55-9.55.61-3.25-2.69-8.37-3.85-6.93-9.79,1.53-6.34-.46-7.56-6.75-5.86-4.74,1.27-10.06.38-15.11.56-1.52,0-3.32,0-3.94,1.91s.65,3.1,2.15,3.62c5,1.75,2.93,7,5.27,10.35,4.6,6.53,12.06,6,18.68,8.33-4.12,8.34-13.23,6.9-18.49,11.69-.36.33-1.69-.29-2.52-.61-2.25-.89-1.29-8.15-6.12-3.53-3.64,3.47-11.12,5.35-7,13.24,1,1.87.12,4.18-2.16,4.39-16.48,1.54-16.11,15.62-17.34,26.13-1,8.29-4.23,14.18-8.75,20.14-3.24,4.27-6.84,8.27-10.35,12.33-3.3,3.81-3.82,7.63-1,12.09,4.19,6.71,2.36,14.85,4.75,22.05a3.52,3.52,0,0,1-2.24,4.65c-1.71.48-2.71-1.15-3.56-2.49-2.84-4.51-6.16-8.63-6-14.59.11-6.15-3.74-10.7-9.64-11-6.14-.34-13.68-9-18.65,2.3-2,4.6-6,2-9.15,1.28-15.73-3.7-22.88,4-25,20-1.72,13-1.67,24.8,2.94,37,2,5.39,5,9.41,10.59,8.44,4.94-.85,11.74-.19,12.72-8.36.48-4,2-8.49,7.23-8.7,3.85-.15,10.88-2,10.87,1.85,0,6-.57,13.15-5.63,18.2a14.94,14.94,0,0,1-7.52,3.76c-1.62.38-4.75,1-3,3.37,5.58,7.32-3.83,8.24-5,12.61a2.31,2.31,0,0,1-3.92.84c-7.82-9.84-20.62-3.87-30.3-10-8.53-5.42-17-10.65-24.39-17.5-2.37-2.19-4.47-5.13-3.65-8.38,1.47-5.83-.58-10.74-3.4-15.26-7.51-12-12.13-26-24.3-35.37,3.24,8.92,6.53,17.81,9.69,26.76.95,2.66,4.77,5.93.35,8.06-3.41,1.64-4.36-3-5.75-4.9-4.87-6.65-6.28-15.25-13.07-21.17-3.18-2.77-.14-8.61-1.44-13.65C442.65,527,426.55,515,423.25,495.94c-2.73-15.82-2.57-30.48,3.81-44.92,3.71-8.42,3.92-15.82-3-22.54-1.67-1.62-3.31-3.79-2.62-5.82,3.77-11.09-1-21.38-3.88-31.3-2.77-9.6-13-13.67-21.53-17.68-10.13-4.78-20-1.18-29,4.26-10.85,6.51-24,8-34.33,15.61C331.74,394.25,329.85,393.64,327.29,393.64Z" transform="translate(-0.33 0.44)"/><path class="cls-1" d="M795.32,457.77c-9.92-20.45-18.51-40.16-30-58.34C731.32,345.91,684.09,310,623,292.72c-9.55-2.7-18.1-7-26.78-11.66-57.31-30.9-116.6-34.29-176.38-8.82C361,297.32,323.64,342.33,305.18,403.33c-.86,2.85-.58,7.74-3.9,7.59-3.73-.17-4.15-4.88-4.79-8.35-9.34-50.71,2.85-97.83,24.11-143.35a281,281,0,0,1,47-70.55c4.89-5.37,10.86-8.61,17.29-11.3,17.85-7.45,36.45-12.47,55.25-17,8-1.91,9.5.77,9.49,8.36-.06,35.67,28.75,62,63.28,55.86,27.2-4.87,45.82-22,46.92-54,.33-9.41,3.26-9.11,9.72-7.58,26.63,6.32,51.68,16.55,75.7,29.63,31.43,17.11,58.54,39.9,81.59,66.69a290,290,0,0,1,46.46,75.42c15.3,35.76,22.91,73,24.36,111.66C797.83,449.75,798.47,453.32,795.32,457.77Z" transform="translate(-0.33 0.44)"/><path class="cls-1" d="M357.54,713.91c13.92-1.55,26.67,1.36,39.52,1.76,74.1,2.29,137.71-21.74,189.72-75.12,6-6.19,13.3-10.62,20.33-15.47C675.3,578,706.89,513.17,697.53,430.71c-5.16-45.41-24.47-85.4-58.35-117.36a78.2,78.2,0,0,1-5.69-6.36,22,22,0,0,1-1.7-3.27c18,2.75,32.78,11,46.84,20.22,44.66,29.11,76.37,69.43,99.06,117.25,4.59,9.68,7.69,20,11.84,29.81,7.12,16.85,4,33.45.44,50-2.28,10.78-6.31,21.17-9.22,31.83-2,7.38-5.28,7.44-11.54,4-26.9-14.63-58.53-7.28-73.65,18.81-13.33,23-12.34,50.44,10.42,70.23,12.21,10.63,11.95,10.5.4,22C664.62,709.74,614,734.75,556.65,746.3c-67.11,13.52-131.23,3.37-192.37-26.92-1.69-.84-3.38-1.72-5-2.7C358.83,716.4,358.63,715.69,357.54,713.91Z" transform="translate(-0.33 0.44)"/><path class="cls-1" d="M567.93,647.31c-5.51,9.15-13.57,14.4-21.3,19.51-32.83,21.75-69.43,33-108.32,37.57a292.3,292.3,0,0,1-100-5c-12.71-2.91-22.1-10.39-31.72-18.16a277.69,277.69,0,0,1-24.21-22.69c-5.25-5.39-4.4-8,2.23-11.73,19.77-11,29.55-28.77,28.13-51-1.54-23.91-14.57-40.79-37.4-48.94-16.15-5.76-31.74-3.33-46.49,5.4-9,5.36-9.6,4.87-12.88-5-17.74-53.22-19.65-107.13-7.29-161.68,17.15-75.7,59.26-134.39,122.12-178.88a28.81,28.81,0,0,1,3.47-2.06c2.33-1.19,4.75-4.6,7.3-1.21,1.77,2.36-.7,4.78-2.19,6.69-17,21.76-29,46.21-38.75,71.84-17.63,46.2-18.66,93.75-7,140.87,5.07,20.48,3.27,40.79,6.47,61,9.3,58.88,38.11,105.15,87.06,138.88a192.61,192.61,0,0,0,76.44,31.59,200.49,200.49,0,0,0,93.91-5.93C560.49,647.46,563.41,646,567.93,647.31Z" transform="translate(-0.33 0.44)"/><path class="cls-1" d="M397.85,832.87c0,9.48-.22,19,.07,28.45.25,8.17-3,15.22-10.55,16.7-7.25,1.42-15.86.94-21.05-6.75q-9.27-13.71-18.23-27.61c-.95-1.47-.73-4.08-3.41-3.23-2.52.79-1.7,3.65-1.93,5.47a67.93,67.93,0,0,0-.39,16.18c1.14,9.94-2,15.58-11.31,16-10.58.53-15.13-2.41-15.35-12.08-.5-21.8-.17-43.62-.23-65.43,0-6.55,4-9.81,9.63-11.21,7.78-1.95,15.4-1.44,20.41,5.87,5.7,8.33,10.78,17.09,16.22,25.6,1.22,1.92,1.59,5.44,5.15,4.13,2.52-.92,2.13-3.59,2.23-5.74.31-6.62.43-13.25.83-19.87.53-8.9,7.24-10.58,14.08-10.76,7.23-.2,13.43,2.49,13.67,11.08.32,11,.08,22.11.08,33.17Z" transform="translate(-0.33 0.44)"/><path class="cls-1" d="M508.69,120.13c27.05.81,41.78,20.26,42,44.36.21,25.21-21.24,44.83-46.09,43.75-23.51-1-43.4-21.9-42.27-45C463.65,135.56,482,119.52,508.69,120.13Z" transform="translate(-0.33 0.44)"/><path class="cls-1" d="M211.53,600.64c.05-25.11,19.11-43.66,44.59-43.83,12.51-.08,22.31,4.93,31.24,13.33,8.55,8.05,13.78,19.83,13.27,29-.63,11.43-4.07,24.88-14.7,33.83-8.81,7.42-18.56,12.22-30,12.25A44.24,44.24,0,0,1,211.53,600.64Z" transform="translate(-0.33 0.44)"/><path class="cls-1" d="M789.12,607.08c0,24.41-19.64,43.57-44.34,43.32-24-.25-44.27-19.6-43.61-43.17.81-28.75,16.39-43.46,44.16-45.2C769.65,560.51,789.14,581.78,789.12,607.08Z" transform="translate(-0.33 0.44)"/><path class="cls-1" d="M676.49,831c0-9.8.19-19.6-.06-29.39-.23-9.06,5.29-12.37,12.92-13.22,8.33-.92,14,3.76,14.86,12.25.56,5.63.26,11.35.23,17q-.12,22.73-.36,45.46c-.06,6.33-1.1,12.62-8.43,14-7.71,1.51-16.1,2.92-21.58-5.1-6-8.84-11.53-18.06-17.44-27-2.44-3.68-4.38-7.65-7.34-9.65,0,9.75.42,21.06-.16,32.3-.37,7.17-5.66,10.22-12.46,10.37s-12.73-1-14.57-9c-1.59-6.91-.65-13.86-.67-20.8,0-14.22,0-28.45.05-42.68,0-7.83,1.63-14.39,10.85-16.35,9-1.93,16.45.18,21.43,8,7.18,11.27,13.92,22.82,20.84,34.25Z" transform="translate(-0.33 0.44)"/><path class="cls-1" d="M304.3,833.36c.08,28.78-17.34,46.38-45.85,46.31-27.55-.06-45.45-17.62-45.65-44.77-.22-30,16.46-47.41,45.53-47.49S304.23,804.11,304.3,833.36Zm-30.16,1.78c-.12-2.83-.1-5.69-.4-8.5-1.11-10.44-5.56-15.25-14.27-15.58-9.39-.36-14.81,4.34-16,14.85a69.4,69.4,0,0,0,.19,17c1.52,10.79,9.22,14.83,19.46,11.7S274,843.6,274.14,835.14Z" transform="translate(-0.33 0.44)"/><path class="cls-1" d="M165.42,789.33c9.3-1,20.09-1.1,29.33,7.11a22.13,22.13,0,0,1,7.66,14.67c.62,5.16-.7,9.71-5.26,12.32-5,2.86-10.39,2.79-15.16-.83-2.47-1.88-4.46-4.37-6.79-6.45-9.1-8.09-21.69-4.38-25,7.17a33.44,33.44,0,0,0,1.81,24c4.61,9.91,16.62,11.74,24,3.61.86-.93,1.53-2,2.37-3,6.28-7.18,14.89-8.41,20.78-3,5.16,4.74,5.31,14.49-.23,20.73a38.05,38.05,0,0,1-19.76,12.35c-12.12,3-24,1.61-35.6-1.58s-18.21-13.1-21.31-23.61c-5.67-19.22-4.86-37.88,9.89-54.12C141.16,788.94,152.16,789.19,165.42,789.33Z" transform="translate(-0.33 0.44)"/><path class="cls-1" d="M751.1,812.87c-9.56,0-17.36,0-25.15,0-7.18,0-11.24-2.88-11.53-10.59s3.23-12.28,10.89-12.42c18-.33,36.09-.76,54.1-.06,12.14.47,16.54,11.74,8.61,22-8.11,10.49-17.37,20.09-26,30.14-2.24,2.6-5.93,5.36-4.84,8.75,1.31,4.06,6,2.23,9.27,2.45,4.4.3,8.85-.15,13.25.14,7.16.47,13.24,2.44,13.24,11.42,0,8-4.15,12.3-13.25,12.69-9.5.41-19,0-28.57.16-7.25.16-14.51.13-21.75-.19-5.87-.26-12.89.2-15.71-6.44-3-7.07-.26-13.5,4.71-19.12,8.15-9.25,16.16-18.61,24.16-28C745.09,820.77,747.46,817.51,751.1,812.87Z" transform="translate(-0.33 0.44)"/><path class="cls-1" d="M839.69,787.91c7.36-.2,13.12,2.57,15.77,9.69,7.61,20.45,15.54,40.8,22.27,61.54,4.46,13.74-3.44,21.81-16.69,18.59-1.89-.46-4.1-.7-4.81-2.59-5.3-14-17.28-7.78-26.76-8.89-3.21-.37-5,1.93-6.32,4.77-3.66,7.83-10.48,9-17.59,6.58-7.82-2.66-9.17-9.79-6.93-16.52,7.28-21.89,14.92-43.68,23.13-65.24C824.68,788.15,832.58,788.07,839.69,787.91Zm3.7,53.84c-1.85-3.19.12-9.52-5.22-9.43-4.62.07-5.14,5.38-5.32,9.43-.17,3.61,1.62,6.18,5.36,6.08C841.66,847.73,843.87,845.75,843.39,841.75Z" transform="translate(-0.33 0.44)"/><path class="cls-1" d="M570.75,788.17c7.32-.55,13,.84,15.51,7.63,8,21.58,16.07,43.16,23.66,64.89,1.76,5.06,1.83,11-3.23,14.77a14.23,14.23,0,0,1-15.21,1.76c-1.39-.64-3.25-1.47-3.75-2.68-5.42-13.15-16.91-7.47-26.14-8.5-3.7-.41-5.22,2.6-6.85,5.5-3.84,6.84-10,8.12-17.1,6.13-7.44-2.07-7.88-8.06-7.54-14.22a26.59,26.59,0,0,1,1.73-7.22c6.4-18.12,13.36-36.06,19.15-54.37C554.39,791.08,561.17,787.37,570.75,788.17Zm5.52,53.07c-1.84-3.75-1.2-10.77-5.6-10.9-7.68-.21-5.64,12.29-5.64,12.29-1.06.68,2.08,4.69,4.78,3.82C572.25,845.65,576.33,845.83,576.27,841.24Z" transform="translate(-0.33 0.44)"/><path class="cls-1" d="M412.44,834c0-9.81-.28-19.63.08-29.42.41-10.85,4.56-14.79,15.31-14.91,13-.15,25.93.14,38.9,0,8.33-.08,12.21,4.53,12.41,12.11.2,8-5.11,10.89-12.39,11-6.32.07-12.65.11-19,.06-4,0-6.38.93-6.23,5.87.13,4.5,2.39,5.25,5.94,5.25,4.11,0,8.26-.33,12.32.14,7,.81,12,4,11.76,12.06-.21,7.68-5.09,10.08-11.8,10.82-5.85.65-13.6-2.66-17.06,2-2.79,3.75-1.3,10.92-1.14,16.56.25,9.57-5.59,12.71-14.28,13.08a14.29,14.29,0,0,1-14.72-13.54C411.94,854.74,412.43,844.35,412.44,834Z" transform="translate(-0.33 0.44)"/><path class="cls-1" d="M488.51,833.65c0-10.74-.31-21.49.09-32.21.32-8.42,5.77-13.15,14.09-13.28,9.12-.13,14.44,4.38,14.56,13.42q.39,31.27,0,62.54c-.1,9.62-5.44,14.14-15.16,13.84s-13.52-4.09-13.6-14C488.47,853.87,488.53,843.76,488.51,833.65Z" transform="translate(-0.33 0.44)"/></svg>