<svg id="Capa_1" data-name="Capa 1" xmlns="http://www.w3.org/2000/svg" viewBox="0 0 1000 1000"><defs><style>.cls-1{fill:#fdc331;}.cls-2{fill:#6c2c73;}.cls-3{fill:#f2e3ef;}.cls-4{fill:#fff;}</style></defs><rect class="cls-1" width="1000" height="1000" rx="110"/><rect class="cls-2" x="37.5" y="37.5" width="925" height="925" rx="101.75"/><path class="cls-1" d="M582.44,228.55c9-1,12.6,2.27,16.29,6.48,10.83,12.37,14.12,28.84,23.57,42,8.44,11.76,14.78,24.8,20.24,38.31,2.9,7.19,3.06,11.91-4.13,17-17.21,12.15-36.65,20-55,29.94-21.64,11.78-43.22,23.67-65,35.22-14.55,7.73-22.71,5.54-30.57-9q-30.7-56.68-60.64-113.77c-5.45-10.34-2-21.44,8.23-28.47,18.27-12.56,38.93-20.55,58.53-30.57,21.89-11.2,43.43-23,65.22-34.42,14.26-7.45,28.47-15,43.1-21.7,9.27-4.22,17.58,0,22.33,8,6.58,11,15,12.54,25.75,8.1,8.15-3.37,13.62-2.26,18.44,6.33,8,14.18,11.64,15.13,27.26,8.44,10.16-4.35,17.46-1,21.63,7.55,8.37,17.21,11.16,16.43,27,9.14,12.1-5.57,18.23-2.63,22.94,8.19,2.71,6.23,7.25,8,13.66,6.6,4.38-1,9-1.06,13.27-2.29,10.06-2.91,15.12,2.64,17.74,10.82s-4.39,11.21-9.8,14.11c-17.44,9.36-35.11,18.3-52.68,27.41-24.56,12.74-47.44,28.47-72.74,40-14.64,6.67-18.42,5.29-26.2-8.93s-13.56-29.25-23.25-42.92c-9.8-13.82-16.35-30.8-23.94-46.59-4.37-9.11-9.24-9.43-17.78-5.18-33.76,16.8-65.75,37-100.24,52.38a46.94,46.94,0,0,0-11.11,7.41c-4.79,4.13-6.08,9.23-2.42,15,12.16,19.23,22.28,39.57,32.48,59.89,6.36,12.66,10.21,13.41,22.95,7.1,15.73-7.8,31.56-15.41,47.37-23,24-11.57,25.57-39.45,3-54.73-5.55-3.77-11.11-.72-15.71,1.86-5.62,3.16-10,8.29-9.18,15.53.51,4.39.63,9,3.06,13,4.71,7.83,1.47,14.15-5.16,18.23s-14.81,7.54-21-.88c-10.2-13.88-18.69-28.77-23.36-45.53-1.26-4.5.18-8.28,4.38-10.49,21.82-11.5,43.65-23,65.59-34.24A14.13,14.13,0,0,1,582.44,228.55Z" transform="translate(-0.33 0.44)"/><path class="cls-3" d="M317,105.47c5-1.26,7.67,2.91,9.69,6.7Q355,165.24,383,218.56c3.65,6.93,7,14,10.73,20.91,9.4,17.15,5.26,17.66-9.77,26-30.5,16.84-62.25,31.32-92.44,48.81-7.48,4.33-6.31,8-2.86,14.34,17.68,32.34,34.86,64.95,52.25,97.45,3,5.56,6.41,10.79,8.87,16.73,2.25,5.41,7,8.49,13.73,4.74,23.83-13.24,47.59-26.61,71.84-39,7.17-3.67,7.15-7.63,4.34-13.15-8.11-16-16.5-31.79-24.76-47.68-3.61-6.94-7.4-13.79-10.74-20.85-4.76-10.1-9.8-11.78-19.3-6.32s-18.72,10.94-28.46,15.64c-5.17,2.5-7.59,4.62-3.42,9.78a13.36,13.36,0,0,1,1.08,2c13.87,25.83,7.68,27.57,35.29,12,4.26-2.4,9-2.44,11.31.81,4.08,5.61,6.95,12.21,9.6,18.69,1.17,2.88-.65,5.58-3.87,7.19-14.69,7.31-29.38,14.65-43.89,22.31-7.36,3.89-11.52,2.29-14.7-5.52-4.23-10.37-10.2-19.86-16.06-29.47-7.87-12.91-13.87-27-20.5-40.63-4.23-8.69,2.36-12.5,8.19-15.68,19.4-10.57,39-20.71,58.59-31,7.24-3.8,15.21-6.62,21.65-11.48,7.85-5.93,12.87-2.92,16.4,3.72,15.59,29.27,30.65,58.81,46,88.18C468,378.21,474,389.4,480.36,400.32c7.59,12.95,6.92,17.65-5.86,24.54-41.21,22.22-82.54,44.2-123.83,66.26-7.27,3.89-12.18,1-15.66-5.62q-21.93-41.64-43.83-83.3c-15.68-29.7-31.34-59.41-47.24-89-3.51-6.52-2.89-10.72,3.65-14.95,6.79-4.39,18.64-4.95,19.49-13.37.69-6.77-6.37-14.19-9.46-21.54-2.29-5.44-2-10.4,5.27-12.11,1.78-.42,4-.94,5.05-2.2,4.46-5.27,14.89-4.75,14.91-13.75,0-6.66-6-11.46-8.64-17.53-4.33-9.91-1.45-13.69,7.31-16.73,3.84-1.33,7.16-4.08,10.93-5.66,6.09-2.53,6-7,4.27-12.06-.59-1.71-2.09-3.1-2.8-4.8-7.77-18.62-13.61-16.59,7.47-27.31,12.46-6.34,12.57-7.69,5.46-21.32C298.88,114.6,302.35,105.54,317,105.47Z" transform="translate(-0.33 0.44)"/><path class="cls-3" d="M640.2,389.12c-8.77,3.92-18.15,7.57-27,12.21C597,409.8,581.24,419.1,565,427.55c-6.78,3.53-6.8,7.46-3.67,13.5,12.15,23.48,23.84,47.21,36.08,70.64,2.83,5.41,6.26,8.57,14.38,5.15,11.76-5,20.82-14.6,33.39-17.68,4.65-1.14,4.82-4,2.56-7.57a16.42,16.42,0,0,1-1.07-2c-11.2-26.08-11.23-26.14-36.9-13.36-5,2.47-9,1.29-11.79-2.81-2.91-4.3-5-9.15-7.23-13.89-1.8-3.93-1.08-7.2,3.14-9.39q21.84-11.32,43.58-22.83c7.13-3.76,11.8-1.72,15.42,5.41,11.28,22.18,22.9,44.2,34.38,66.28,3.41,6.56,5,12.59-3.38,17-29.38,15.52-58.62,31.31-88,46.72-6.45,3.37-10.19-2.28-12.45-6.55-15-28.38-29.62-57-44.22-85.56-7.62-14.93-14.66-30.17-22.57-44.95-3.9-7.3-1.2-10.63,5.13-13.86q38.38-19.59,76.55-39.62c15.51-8.09,31.12-16,46.28-24.71,11.88-6.81,16.87-5.66,23,6.18q33.63,64.86,67.63,129.53c7.09,13.55,14.3,27,21.51,40.52,3.19,6,2.86,10.7-4,13.73-1.69.74-3.1,2.12-4.74,3-19.27,10.55-19.9,11.51-7.7,30.08,5.54,8.43,4.72,12.43-4.88,15.49-4.87,1.55-9.29,4.66-13.77,7.31-6.27,3.71-6,9.08-2.82,14.52,2.25,3.88,4.94,7.42,6.12,11.91,1.77,6.69.74,11.86-6.27,14.68a33.55,33.55,0,0,0-5,2.5c-14.83,9.06-14.95,9.58-6.39,25,6.33,11.38,4.5,17.09-7,22-16.41,7-17.62,10.86-8.25,26.38,6.58,10.89,4.83,16.33-6.3,20.94-5.81,2.41-9.21,1.73-12.44-4.56-22.42-43.66-45.3-87.08-68-130.59-6.86-13.16-4.49-18.09,9.16-25,31.24-15.85,62.07-32.51,93.3-48.38,7.13-3.62,8-6.72,4.19-13.74-18.2-33.87-35.73-68.1-53.71-102.09C654.2,399.37,650.1,391.58,640.2,389.12Z" transform="translate(-0.33 0.44)"/><path class="cls-1" d="M476.89,484.5c-13.87,1.32-28.18,9.64-41.87,18.84-6.88,4.62-13.6,9-21.49,11.8-10.17,3.6-12.41,9.09-8.33,19.31,1.52,3.78,4.15,7.11,5.95,10.8,11.56,23.6,10.43,20.51,34.57,9.83,5-2.2,5.56-5.58,3.26-10-1.22-2.33-2.57-4.59-3.82-6.9-9.42-17.38-4.43-26.59,15.52-29,4.38-.53,7.33,1.06,9.39,4.59,8.12,13.88,16.91,27.45,20.65,43.43,1.35,5.74.07,10.15-5,13.6-22.19,15-46.83,25.08-71.22,35.61-8.53,3.68-13-2.83-16.92-9.11-15.59-25.14-26.82-52.58-41.18-78.37-5.25-9.42-.36-15.23,7.2-19.21q59.1-31.17,118.51-61.79c15.4-8,24.34-4.36,30.82,11.67a195.92,195.92,0,0,0,18.78,35.75c10.51,15.68,15.06,34.19,24,50.67,5.12,9.45,12.56,17.59,15.15,28.57,3.46,14.65,1.82,19.93-11.32,26.13-54.17,25.56-106.58,54.58-160,81.61-11.24,5.68-16.79,5.09-23.17-6.5-6-11-12.6-14.3-24.08-8.4-9.15,4.71-17.19,3.76-22.34-7-4.4-9.15-12.79-11.68-21.91-9.18-13.83,3.8-24.39,1-30.94-12.39-4.17-8.51-10.21-8.32-17.75-4.85-16.85,7.74-20,6.92-28.53-8.82-4.73-8.71-10.32-10.92-19.06-5.89-3.16,1.82-7,2.6-10.61,3.44-5.86,1.35-10.68-.51-12.68-6.38-1.87-5.46-2.56-11.32,3.22-15.21,8.64-5.82,16.69-12.78,26.68-16.23,16.8-5.8,32-14.51,46.91-24,17.72-11.27,37.78-17.94,56-28.36,12.92-7.38,21.41-3.41,28.48,10.23,14.24,27.5,28.18,55.16,42.14,82.81,8.25,16.33,9.32,16.68,25.31,8.27,29.8-15.69,60.05-30.57,89.36-47.12,18.7-10.56,20.39-18.52,12.35-38.6-6.84-17.08-19.22-31.2-26.11-48.34C490.77,484.87,485.2,484.24,476.89,484.5Z" transform="translate(-0.33 0.44)"/><path class="cls-4" d="M113.43,829.54v28.63H91.88V782.41h37.54c17.84,0,26.47,9.55,26.47,21,0,10.46-6.12,15.81-11.37,18,4.77,1.67,9.88,6.72,9.88,19.55v3.15c0,4.71.15,10.83,1,14.11H134.22c-1.28-3.26-1.61-8.76-1.61-16.54v-2c0-6.54-1.56-10.13-11.35-10.13Zm0-15.47H123.7c7.4,0,10.09-3.07,10.09-8.17s-3.2-8-10-8H113.43Z" transform="translate(-0.33 0.44)"/><path class="cls-4" d="M216.28,827.51H181.77v14.21h38.52l-2.47,16.45H160.41V782.41h57.34v16.45h-36v12.2h34.51Z" transform="translate(-0.33 0.44)"/><path class="cls-4" d="M222.67,782.41h32.54c24.12,0,38.1,15.26,38.1,37.05s-13.62,38.71-38.44,38.71h-32.2Zm22.22,59.68h8.51c12,0,17-8.45,17-22.63,0-12.55-4.6-21-16.72-21h-8.77Z" transform="translate(-0.33 0.44)"/><path class="cls-4" d="M383.22,833.25c-2.78,15.84-14.4,26.33-35.19,26.33-24.82,0-36.8-16.75-36.8-38.73,0-21.45,11.84-39.85,37.87-39.85,22.26,0,32.4,13,33.89,26.06H361c-1-5.47-4.17-10.46-12.37-10.46-10.79,0-14.47,10.24-14.47,23.47,0,12,3.06,23.87,14.72,23.87,8.82,0,11.29-6.41,12.24-10.69Z" transform="translate(-0.33 0.44)"/><path class="cls-4" d="M460.7,820.22c0,21.43-12.91,39.36-38.86,39.36-25.48,0-37.8-17.81-37.8-39.25C384,798.53,397.55,781,423,781,446.85,781,460.7,797.56,460.7,820.22ZM406.94,820c0,13.91,4.62,23.58,15.6,23.58,11.54,0,15.34-10.27,15.34-23.17,0-13.83-4-23.41-15.63-23.41C411.46,797,406.94,805.9,406.94,820Z" transform="translate(-0.33 0.44)"/><path class="cls-4" d="M465.21,858.17V782.41h26.57c8,17.06,19.51,40.12,22.69,49.45h.38c-.85-7.87-1-21.25-1-33.33V782.41H534v75.76H508.73C502.31,844.45,488.6,816,485,806h-.29c.7,7.13.77,21.79.77,35.13v17Z" transform="translate(-0.33 0.44)"/><path class="cls-4" d="M542,782.41h56.65v16.45h-34.9v14.73h32.67v16.53H563.74v28H542Z" transform="translate(-0.33 0.44)"/><path class="cls-4" d="M624.31,782.41v75.76H602.05V782.41Z" transform="translate(-0.33 0.44)"/><path class="cls-4" d="M651.44,843.43l-4.39,14.74H625.43l23.94-75.76h28.74L703,858.17H679.82l-4.6-14.74ZM671.32,827c-3.56-11.9-6.47-22.48-8.19-29.87h-.3c-1.75,8.16-4.65,19-7.72,29.87Z" transform="translate(-0.33 0.44)"/><path class="cls-4" d="M703.25,858.17V782.41h26.56c8,17.06,19.51,40.12,22.7,49.45h.37c-.84-7.87-1-21.25-1-33.33V782.41h20.23v75.76H746.77C740.34,844.45,726.64,816,723.08,806h-.3c.71,7.13.77,21.79.77,35.13v17Z" transform="translate(-0.33 0.44)"/><path class="cls-4" d="M774.93,844.34l37.74-45.48h-36V782.41h61.36V798.1l-35.74,43.62h38.32l-2.44,16.45H774.93Z" transform="translate(-0.33 0.44)"/><path class="cls-4" d="M864.4,843.43,860,858.17H838.39l23.94-75.76h28.74L916,858.17H892.77l-4.6-14.74ZM884.28,827c-3.56-11.9-6.47-22.48-8.19-29.87h-.3c-1.76,8.16-4.65,19-7.72,29.87Z" transform="translate(-0.33 0.44)"/></svg>