<svg id="Capa_1" data-name="Capa 1" xmlns="http://www.w3.org/2000/svg" viewBox="0 0 1000 1000"><defs><style>.cls-1{fill:#fdc331;}.cls-2{fill:#6c2c73;}.cls-3{fill:#f8f5f9;}.cls-4{fill:#d99535;}.cls-5{fill:#489f9d;}.cls-6{fill:#e2b649;}.cls-7{fill:#982883;}</style></defs><rect class="cls-1" width="1000" height="1000" rx="110"/><rect class="cls-2" x="37.5" y="37.5" width="925" height="925" rx="101.75"/><path class="cls-3" d="M396.54,841.16c3.28-5.77,3.79-12.54,5.34-18.81,7.09-28.64,17-56.41,25.73-84.53,1.08-3.46,3-4.76,6.41-4.75,13.54,0,27.09.06,40.63,0,6.46,0,6,4.88,6.2,8.84.82,14,1.23,28,2,42,2.06,36.56,4.13,73.12,6.46,109.67.39,6.18-1.57,8.57-7.74,8.32-7.38-.3-14.79-.37-22.16,0-6.81.36-9-2.44-9-9.1.11-37.65-3.87-75.19-3.17-112.87a68,68,0,0,0-.77-6.94c-4.68,16.23-8.69,30.76-13.07,45.17-7.72,25.37-15.66,50.68-23.51,76-1.07,3.45-3.16,5.19-7.05,5.06q-10-.35-19.95,0c-4.26.16-6.05-1.75-7.11-5.68-8-29.91-16.2-59.77-24.28-89.66-1.16-4.27-2-8.61-3-12.92-.33-1.41-.43-3.2-2.44-3-1.76.12-2.24,1.68-2.44,3.17-.24,1.7-.4,3.42-.47,5.14-1.36,33.17-2.76,66.33-3.95,99.51-.18,4.79-1.86,6.55-6.68,6.32-6.88-.33-13.78-.12-20.68-.08-9.3.07-9.65-.35-9.06-9.31,1.23-18.64,2.36-37.3,3.51-56,2-32.63,4.07-65.26,5.92-97.9.26-4.44,1.85-6,6.26-5.94,13.79.19,27.6.37,41.37-.06,5.29-.17,6.14,3,7.17,6.55,8.49,29,17.44,57.91,23.9,87.48,1,4.71,2.33,9.35,3.51,14Z"/><path class="cls-4" d="M306.71,293.43a19.73,19.73,0,0,1,13.52,4.92q68.61,57.16,137.47,114c4.08,3.37,2.22,5-.36,7.36q-29.25,26.5-58.48,53Q363.72,504.84,328.68,537c-5.72,5.23-11.6,9.94-20.27,7.66-13.45-3.54-19.24-20.23-9.5-30.3,12.29-12.7,25.68-24.34,38.73-36.28,19.6-17.94,39.38-35.67,58.95-53.64,7.58-7,7.08-8.08-.79-14.59q-46.35-38.33-92.41-77c-3.76-3.15-7.64-6.28-10.76-10-5-6-5.52-12.92-2-20C293.93,296.13,299.46,293.27,306.71,293.43Z"/><path class="cls-3" d="M742.65,822.56c15.35,8.49,18.85,23.37,23,37.8,3.46,12,6.38,24.27,10.07,36.25,1.46,4.75.16,5.57-4.19,5.48-9.36-.21-18.72-.23-28.08,0-4.66.11-7.09-1.69-8.64-6.15-4.46-12.8-7-26.09-10.68-39.08-5.16-18.29-15.37-20-31.72-21.37-4.34-.37-4.47,2.59-4.45,5.83.06,17.49-.16,35,.13,52.47.1,6-1.63,8.5-7.93,8.15-7.86-.45-15.77-.3-23.64,0-5.29.18-7.61-1.72-7.6-7.21q.14-76.49,0-153c0-4.62,1.4-7.44,6.55-7.83,24.53-1.89,48.94-4.36,73.59-.27,30.8,5.1,47.35,28.18,40.34,58.37-2.68,11.55-9.86,20.12-19.77,26.44C747.6,819.72,745.48,820.89,742.65,822.56ZM688,784.1c0,6.14.06,12.28,0,18.41,0,2.88.79,4.86,4,4.89,10.5.13,20.92.44,30.44-5.58,12.32-7.8,13.66-28.88,1.61-35.61-9.85-5.5-20.65-6.8-31.86-4.65-3.46.67-4.29,2.46-4.2,5.61C688.11,772.81,688,778.46,688,784.1Z"/><path class="cls-5" d="M714.35,305.16c.46,6.07-2.61,11-7.15,15.1q-47.46,43.26-95,86.48c-7.39,6.72-7.31,8.38.46,14.82q48.9,40.5,97.82,81c8.32,6.88,11.5,14.75,9,22.47-4.21,13-17.53,16.91-29.15,8.11-10.39-7.88-20.28-16.41-30.33-24.74q-49.18-40.77-98.31-81.6-2.55-2.13-5-4.33c-8.36-7.46-8.3-7.4-.18-14.81q62.18-56.73,124.29-113.53c10.55-9.64,20.27-10.32,28.56-2C712.92,295.65,714.43,299.85,714.35,305.16Z"/><path class="cls-3" d="M517.21,817.28c0-25.61.17-51.22-.14-76.82-.08-6,1.79-7.59,7.58-7.54,29.78.24,59.57.29,89.36,0,6.59-.07,8.77,2.05,8.19,8.49a101.22,101.22,0,0,0,0,17c.42,5.44-2,6.69-6.87,6.64-16.74-.19-33.49.28-50.22-.24-6.76-.21-8.48,2-8,8.34a207.88,207.88,0,0,1,0,22.88c-.22,5.25,1.9,6.82,6.91,6.74,15.26-.24,30.53.09,45.78-.24,5.62-.12,7.42,2,7.11,7.33a156.17,156.17,0,0,0,0,17.71c.29,5.18-1.69,6.88-6.83,6.79-15-.27-30,.11-45-.24-6.1-.15-8.08,1.83-7.95,8,.37,17.22-.13,34.47.28,51.69.15,6.62-2.21,8.72-8.56,8.38a211.49,211.49,0,0,0-23.62,0c-6.24.37-8.12-2-8.06-8C517.36,868.49,517.21,842.88,517.21,817.28Z"/><path class="cls-6" d="M399.21,272.4c6,.89,11.35,2.8,15.89,7.08,16.65,15.66,33.45,31.16,50.16,46.75,10.79,10,21.68,20,32.21,30.3,4.07,4,6.71,3.25,10.32-.45,25.93-26.59,52.14-52.9,77.93-79.62,6.58-6.82,13.71-10.12,23-8.27,6,1.19,10.32,4.67,12.35,10.43,1.9,5.35-.79,9.63-4.34,13.28q-53.79,55.25-107.57,110.49c-4,4.18-6.69,4.26-10.88.35Q443.33,351.4,388.16,300.29c-4.9-4.58-9.5-9.43-6.23-17.28S392.17,273.84,399.21,272.4Z"/><path class="cls-3" d="M235.1,816.82c0-25.59.16-51.18-.12-76.77-.06-5.62,1.81-7.34,7.21-7.11,8.35.36,16.73.32,25.09.07,5-.14,7,1.42,7,6.72q-.22,77.52,0,155c0,5.49-2,7.49-7.4,7.31-8.11-.27-16.25-.42-24.35,0-6.1.35-7.53-2.22-7.49-7.77C235.21,868.5,235.1,842.66,235.1,816.82Z"/><path class="cls-4" d="M302.69,419.23c0,21.77-16.07,38.57-36.95,38.63-22.14.07-38-16.23-38-39,0-21.46,16.36-38.34,37.3-38.54S302.7,397.29,302.69,419.23Z"/><path class="cls-6" d="M501.1,279.13c-21.39.1-38.27-17.23-38.28-39.29,0-21.49,16.88-39.11,37.64-39.27a38.09,38.09,0,0,1,38.76,37.93C539.38,262.12,523.52,279,501.1,279.13Z"/><path class="cls-5" d="M735.4,450.57c-21.73-.06-38.5-17.1-37.43-39.65,1.06-22.22,15.52-36.95,37.6-37.36,20.95-.4,37,17,36.95,38.75C772.44,434.41,756.7,450.63,735.4,450.57Z"/><path class="cls-7" d="M608.47,560.68c-6-.9-11.35-2.81-15.89-7.08-16.65-15.66-33.45-31.17-50.16-46.75-10.79-10.06-21.68-20-32.21-30.31-4.07-4-6.71-3.25-10.32.46C474,503.58,447.75,529.89,422,556.61c-6.58,6.83-13.71,10.12-23,8.28-6-1.19-10.32-4.67-12.35-10.43-1.9-5.36.79-9.63,4.34-13.28q53.79-55.24,107.57-110.49c4.05-4.18,6.69-4.27,10.88-.35q54.94,51.35,110.11,102.45c4.9,4.57,9.5,9.43,6.23,17.28S615.51,559.24,608.47,560.68Z"/><path class="cls-7" d="M506.34,536.51c21.39-.09,38.27,17.24,38.28,39.3,0,21.49-16.88,39.1-37.64,39.27a38.09,38.09,0,0,1-38.76-37.93C468.06,553.53,483.92,536.62,506.34,536.51Z"/></svg>