<svg id="Capa_1" data-name="Capa 1" xmlns="http://www.w3.org/2000/svg" viewBox="0 0 999.94 353.92"><defs><style>.cls-1{fill:#fffefe;}.cls-2{fill:#e07a1e;}.cls-3{fill:#414040;}.cls-4{fill:#47b14d;}.cls-5{fill:#424242;}.cls-6{fill:#92c344;}.cls-7{fill:#e07c20;}.cls-8{fill:#0f7a3a;}.cls-9{fill:#c02334;}.cls-10{fill:#f6f6f6;}.cls-11{fill:#4c4b4b;}.cls-12{fill:#494848;}.cls-13{fill:#454545;}.cls-14{fill:#505050;}.cls-15{fill:#1a6a40;}.cls-16{fill:#f8f8f8;}</style></defs><path class="cls-1" d="M500,676.92q-249,0-498,0C.39,677,0,676.6,0,675Q.09,500,0,325C0,323.4.39,323,2,323q498,.06,996.06,0c1.58,0,1.94.36,1.94,1.95q-.06,175,0,350c0,1.59-.36,2-1.94,2Q749,676.9,500,676.92Zm28-245-.43.45,0,0c-.77,0-1-.18-1-1.09.12-4.16.07-8.32.07-12.49,0-2.62-.32-3-2.9-3H502c-2.68,0-2.83.15-2.83,2.92q0,74.26,0,148.53c0,2,.57,2.7,2.64,2.66,7.33-.1,14.67-.08,22,0,2.87,0,2.92.09,2.92-2.75v-69c0-2.68,0-5.36,0-8l0-.68a2,2,0,0,0,.13-2.53l0-.89a12.5,12.5,0,0,0,.86-7.14l.23-.88a72.19,72.19,0,0,0,1.89-7.29c.44-3,2-5.78,2.85-8.7l0-.07a1.34,1.34,0,0,0,.75-1.35l.14-.38a25.64,25.64,0,0,0,3.3-5.09,2.3,2.3,0,0,1,1-1.21c1.61-.4,2-2,3-3s2.76-1.48,3.19-3.16l.8-.61,9.35-5.51h0a13.63,13.63,0,0,0,4.67-1.64l.64-.11a56.52,56.52,0,0,1,18.17,0l1.09.24a12.23,12.23,0,0,0,5.09,2.35h0a1.22,1.22,0,0,0,1.3.84l.38.2a9.1,9.1,0,0,0,3.84,3.19v0c.46.66.69,1.53,1.62,1.75l0,0c0,.41.18.72.62.8l.26.36,2.54,4.27h0q1.19,3.61,2.39,7.23a.15.15,0,0,1,.05.24c0,4.18,1.13,8.27.93,12.46a.84.84,0,0,0,.52.83,2.49,2.49,0,0,1,.12,1.74,3.2,3.2,0,0,0-.22,1.86q0,44.54-.05,89.08c0,2.12.74,2.62,2.71,2.59,7.34-.09,14.68,0,22,0,2.84,0,2.84,0,2.84-2.79q0-33.43,0-66.87a23.87,23.87,0,0,1,.06-2.54c.49-4.61.6-9.23.73-13.86l.09-1.14a51.38,51.38,0,0,0,1.59-9.93l.12-.66a3.81,3.81,0,0,0,.73-2.67.18.18,0,0,1,.06-.28,60.54,60.54,0,0,0,3.45-8.62l.39-.69a7,7,0,0,0,1.62-2.62l0,0a2,2,0,0,0,1.42-2.06l.3-.38a9,9,0,0,0,3-3.49l0,0a1.14,1.14,0,0,0,.91-1l.32-.3a1.14,1.14,0,0,0,.93-.83h0a1.18,1.18,0,0,0,1.31-1.23l.47-.43c2.14-.44,3.54-2,5-3.41h0a.74.74,0,0,0,.82-.5l0,0a5.34,5.34,0,0,0,2.19-1.22h0c4.1-1,7.93-2.81,12.3-3.18a47.59,47.59,0,0,1,14.74,1.12c2.63.59,4.82,2.23,7.26,3.3h0l6.78,6.79h0l3.33,7.22.3.89c-.52,1.24,0,2.29.6,3.34a1.7,1.7,0,0,1,.25,1.3c-.86,1.87,0,3.72.24,5.52.25,2.24,0,4.55.76,6.72l0,.78c0,.35,0,.7,0,1v90.16c0,.28,0,.56,0,.84.07,1.44.75,1.9,2.09,1.28l.69-.11h0a.24.24,0,0,1,.2.13,3,3,0,0,0,.79.24q11.09,0,22.16,0c.52,0,1,0,1.25-.58a.19.19,0,0,1,0-.26c.54-.68.31-1.49.31-2.24q0-43.92,0-87.85c0-.73.28-1.56-.41-2.19l0-1.21a20,20,0,0,0,0-2.68c-.19-1.51.64-3.17-.62-4.54,0-.31,0-.62,0-.93.61-3.24-.28-6.41-.84-9.51-.85-4.73-2.35-9.34-3.59-14-.22-.82-.48-1.65-1.48-1.88a.23.23,0,0,1-.09-.3,17.61,17.61,0,0,0-4.93-8.55l-.24-.39-.68-.84-.66-.8,0-.06-.24-.35a2.9,2.9,0,0,0-1.83-2.19l-.33-.32a2.45,2.45,0,0,0-2.15-2.23h0l-.45-.41h0a6.4,6.4,0,0,0-3-2.54l-.78-.56-.53-.38a.17.17,0,0,1-.24-.12c-.09-.57-.53-.67-1-.74a.21.21,0,0,1-.29-.15,3.15,3.15,0,0,0-1.68-1.81c-4.72-2.33-9.48-4.6-14.67-5.68-3.39-.7-6.82-1.41-10.34-.89l-6,0a23,23,0,0,0-11,1.72l-.16,0a28.76,28.76,0,0,0-11.67,4.29h0a1.45,1.45,0,0,0-1.29.7l-.07.1-.13,0-.58.3-.42.2c-.76.09-1.49.22-1.74,1.1l-.38.17-.89.57a.26.26,0,0,1-.32.19,9.15,9.15,0,0,0-3.89,2.65l0,0c-.67.31-1.47.46-1.71,1.33l-.42.35c-1.48.3-2.18,1.5-3,2.57l-.4.39c-1.26.44-2.34,1.05-2.55,2.53h0a2.31,2.31,0,0,0-1.25,1.3h0l-.44.45-.69.84a.82.82,0,0,0-.2.25l-.09.09c-.52.06-.83.48-1.24.73-1.59,1-2,2.77-2.93,4.17-1.38,2-1.57,1.92-2.69-.16-.34-.65-.41-1.55-1.35-1.74l-.14-.43c-.27-1-.49-2-1.53-2.57l-.11-.07v-.13a17.27,17.27,0,0,0-5.81-7.39.24.24,0,0,1-.23-.26.59.59,0,0,0-.53-.52.22.22,0,0,1-.26-.21c-1.57-2.68-4.37-3.79-6.83-5.33a1.93,1.93,0,0,1-1.21-.7c-.12-.49-.48-.6-.92-.56l-.38-.16A25.06,25.06,0,0,0,587,414.57l-.64-.12a25.73,25.73,0,0,0-13.06-1.82h-3.06c-2.23-.66-4.44-.14-6.63.19-5.35.81-10.66,1.75-15.34,4.74l-.67.26c-.71.08-1.49,0-1.85.85a.21.21,0,0,1-.29.12c-1,.25-2.29,0-2.69,1.45l-1.19.64a3.1,3.1,0,0,0-2.18,1.29l0,0a14.91,14.91,0,0,0-5.12,3.78h0l-.83.75-.71.57a3,3,0,0,0-1.82,1.69l-.34.35a1.88,1.88,0,0,0-1.85,1.91.19.19,0,0,1-.25.17l-.52.52ZM689.35,618.22l-.39-.34c-.08-.69-.56-.72-1.08-.61-.74.15-.45.78-.46,1.2,0,3.1,0,6.19,0,9.29,0,.56-.26,1.39.81,1.32.91-.07.59-.81.61-1.3.1-2.17-.17-4.36.31-6.52.29-1.3.83-2.4,2.27-2.72.6-.14,1.74.24,1.45-.81-.23-.82-1.3-.57-2-.27C690.33,617.67,689.85,618,689.35,618.22Zm-573.18,0-.38-.32c-.09-.67-.53-.72-1.07-.62s-.47.59-.47,1c0,3.22,0,6.45,0,9.67,0,.53-.15,1.19.75,1.18s.68-.69.7-1.2c.08-2,0-4.07.23-6.08.19-1.72.76-3.37,3-3.26a.72.72,0,0,0,.85-.7c0-.55-.52-.56-.93-.61C117.82,617.12,117,617.78,116.17,618.2ZM947.44,505.86c.54-.19.43-.67.43-1.06,0-8.37,0-16.74,0-25.12,0-1.47-.8-1.33-1.73-1.33l-23.65,0c-.6,0-1.3-.23-1.73.46-3,2.53-5.57,5.4-8.67,8.59h12.79c-4.41,4.53-8.76,9-13.12,13.51a4.63,4.63,0,0,0-.83-.13c-17.07,0-34.13,0-51.2,0-1.52,0-1.68.62-1.68,1.88q0,25.17,0,50.34c0,.41-.32,1,.7,1.38,3.79-3.89,7.65-7.9,11.6-11.83a4,4,0,0,0,1.22-3.17c0-7.75,0-15.51,0-23.27,0-1.46.39-1.9,1.88-1.89,7.76.08,15.52,0,23.27.07a4.24,4.24,0,0,0,3.34-1.37c3.85-3.91,7.79-7.75,11.69-11.61,0,3.51.16,7,0,10.52-.08,2,.38,2.68,2.5,2.59,3.63-.16,7.28.05,10.92.1-4,4-7.91,8-11.91,12a4.28,4.28,0,0,0-1.38,3.34c.06,7.62,0,15.24.06,22.85,0,1.47-.36,1.91-1.86,1.9-6.84-.08-13.69.16-20.52-.12a8.92,8.92,0,0,0-7.69,3.2c-3.14,3.48-6.62,6.65-9.94,10,.59.68,1.12.42,1.57.43,16.57,0,33.15,0,49.72.05,1.76,0,2.22-.48,2.21-2.22-.07-16.37-.05-32.73-.06-49.09a4.94,4.94,0,0,0-.23-2.29l13.36-13.16.5.24v12.19l.52.25ZM373.83,435.72c-.38-.09-.46-.08-.5-.12a4.6,4.6,0,0,1-.47-.41c-17.5-18.34-39.18-25-63.84-21.78-26.76,3.48-46,18.45-59,41.57-9.26,16.49-10.83,34.4-7.91,52.88,5.11,32.27,34.24,62.69,70.36,65.13,21.49,1.45,40.54-4.23,56.93-18.35,1.41-1.22,2.79-2.47,4.46-3.95,0,5.95,0,11.5,0,17,0,1.38.35,1.77,1.75,1.75q11.31-.11,22.64,0c1.42,0,1.77-.4,1.77-1.79q0-74.7,0-149.4c0-1.43-.32-2-1.87-1.95q-11.21.12-22.43,0c-1.46,0-1.9.36-1.88,1.86C373.89,424,373.83,429.78,373.83,435.72ZM437,504.83h0c0,20.88,0,41.76,0,62.63,0,1.75.54,2,2.12,2,7.19-.08,14.39,0,21.59,0,2.95,0,2.73.54,2.73-2.65q0-62.1,0-124.21c0-1.9.47-2.41,2.39-2.38,8.47.12,16.94,0,25.4.09,1.59,0,2-.43,2-2q-.12-9.94,0-19.89c0-1.52-.34-2.05-2-2-8.46.08-16.93,0-25.39.08-2,0-2.44-.56-2.43-2.47.07-16.5,0-33,.09-49.51,0-1.72-.46-2.11-2.1-2.09-7.41.09-14.82.11-22.22,0-1.81,0-2.17.49-2.16,2.21.07,16.51,0,33,.08,49.52,0,1.75-.29,2.39-2.25,2.35-7.13-.14-14.25,0-21.38-.08-1.43,0-1.94.32-1.92,1.84q.12,10.16,0,20.32c0,1.4.39,1.78,1.77,1.77,7.2-.07,14.39,0,21.59-.08,1.76,0,2.19.42,2.18,2.19Q436.91,473.61,437,504.83ZM96.08,437.63c0-5.63-.06-10.63,0-15.62,0-1.63-.46-2.23-2.13-2.22-6.63.06-13.26,0-19.89,0-1.43,0-2,.41-2,1.93q.06,24.65,0,49.3a2,2,0,0,0,1.47,2.17,200.53,200.53,0,0,1,22.34,9.51c1.11.57,1.63.35,1.85-.9a48.23,48.23,0,0,1,2.79-9.72A57.92,57.92,0,1,1,207,517.58c-.79,1.7-.64,2.43,1.18,3.23a36.65,36.65,0,0,1,14.42,11.13c1.24,1.6,1.76,1.39,2.63-.27,12.23-23.48,13.42-47.49,2.7-71.69-14.4-32.53-48.25-51.24-83.64-46.79a79.44,79.44,0,0,0-36.76,14.5A95.43,95.43,0,0,0,96.08,437.63Zm707.61-7.39c0-4.45-.05-8.24,0-12,0-1.33-.25-1.86-1.72-1.84q-11.62.11-23.27,0c-1.54,0-1.83.53-1.83,1.95q.06,74.57,0,149.15c0,1.52.3,2,2,2,7.55-.09,15.1-.1,22.64,0,1.73,0,2.25-.38,2.24-2.17q-.11-22.86,0-45.7c.08-15.72-.1-31.45,1.95-47.09,1.21-9.2,4.11-17.86,9.81-25.28,4.66-6,10.58-10.32,18.61-10.71,3.87-.19,7.27,1.43,10.68,2.95.9.39,1.42.43,2-.54q6-9.93,12.22-19.78c.54-.87.45-1.24-.44-1.79-14-8.71-28-9.08-42.16-.24A62.47,62.47,0,0,0,803.69,430.24ZM56.35,477.48h-.09l.48,5.9c1.11,13.91,3.75,27.48,8.95,40.48,3.79,9.46,8.74,18.25,16.59,24.93,18.42,15.66,40,23.53,64,25.22,1.94.14,2.56-.34,2.43-2.36a138.22,138.22,0,0,0-8.18-40,66.43,66.43,0,0,0-24.62-32A182.83,182.83,0,0,0,80,480.43a231.06,231.06,0,0,0-22.17-7.64c-1.44-.42-1.8,0-1.7,1.32C56.24,475.23,56.29,476.36,56.35,477.48ZM740.07,493q0,37.23,0,74.47c0,1.71.47,2.07,2.11,2,7.4-.09,14.81-.1,22.21,0,1.8,0,2.17-.51,2.17-2.23-.06-21.37,0-42.74,0-64.1,0-28.07,0-56.13.06-84.2,0-2.14-.57-2.68-2.68-2.64-7.12.14-14.25.11-21.37,0-1.84,0-2.48.34-2.48,2.38Q740.14,455.86,740.07,493ZM152.84,566.64c1.36-2.81,2.17-5.73,3.45-8.47,5.51-11.86,15-19.23,27.11-23.24,7.69-2.54,15.4-2,22.2,3,5.24,3.82,8.83,8.85,8.71,15.61-.21,11-11.12,19.19-22.39,17-7.72-1.51-10.85-6-9-13,1.15-4.32,6.65-8.42,11.61-4.89a46.7,46.7,0,0,1,5.22,4.59c.65.63,1.23,1.41,2.34.89,5-2.33,7.34-10.62,3.5-14.58-5.6-5.77-16.64-7.36-23.48-3.11-7.92,4.93-11.33,13.91-8.77,23.13,3.26,11.72,11.67,18,23.8,17.82,11.67-.2,22.74-8.56,26.4-19.76,2.62-8,2.41-15.84-1.91-23.06-6.48-10.83-16.6-16.12-28.94-17.34-9.48-.94-18.34,1.42-26.73,5.67-6,3.07-11.73,6.74-16.33,11.86a3.73,3.73,0,0,0-1.1,3.95A96.21,96.21,0,0,1,151.67,558C152,560.85,152.45,563.75,152.84,566.64ZM72.2,545.85c0-.24,0,.09,0,.42q0,40.51,0,81c0,1.62.71,1.83,2,1.83,6.7,0,13.4-.06,20.1,0,1.56,0,1.86-.56,1.85-2q-.06-30.46,0-60.93A3.62,3.62,0,0,0,94,562.62a89,89,0,0,1-15.55-11.26C76.31,549.46,74.16,547.58,72.2,545.85Zm74.6-10.58a52.58,52.58,0,0,1,12.41-9.74c10.73-6.38,22.16-10.06,34.82-8.7,1.42.15,1.48-.57,1.54-1.57a119.88,119.88,0,0,0-2.65-33c-.36-1.64-1-1.76-2.42-1.19a101.88,101.88,0,0,0-20.62,10.63c-11.36,7.76-20.22,17.4-24.09,31C144.55,527.16,144.09,531.23,146.8,535.27ZM753.17,395a19.26,19.26,0,1,0-19.07-19.31A19.26,19.26,0,0,0,753.17,395ZM157.46,569.51c2.55-1.52,4.89-3,7.33-4.36s4.15-2.89,3.45-6.33c-.74-3.69.37-7.42,1.84-11.28C164.09,551.62,158,562.33,157.46,569.51Zm366.61,44.13-.48-.11-6.3,12.62c-2.23-4.49-4.27-8.61-6.3-12.72-1.08,4.93-1.79,9.73-2.47,14.53-.06.43-.27,1,.52,1.13s1-.32,1-1c0-.35.05-.7.1-1.05.41-2.91.82-5.81,1.31-9.3,2,4.18,3.81,7.74,5.75,11.69l5.9-11.7c.52,3.86,1,7.07,1.38,10.28.07.59.17,1.16,1,1.08.94-.08.61-.76.54-1.27C525.38,623.1,524.72,618.37,524.07,613.64ZM135.22,630.1a6.48,6.48,0,0,0,7.3,3.11c2.6-.56,4.27-2.05,4.4-4.45.2-3.51.12-7,.18-10.57,0-.56-.08-1-.76-1s-.7.29-.72.78c0,.29.17.73-.37.8-3-2.18-6.37-2.08-8.6.25a6,6,0,0,0-.52,7.75,6.14,6.14,0,0,0,3.53,2.16c2.25.57,4.06-.47,5.87-1.69,0,3-.76,4.23-3.05,4.65-1.92.35-3.84.27-5.28-1.34A1.58,1.58,0,0,0,135.22,630.1Zm38.53-11.57c-.57-.28-.17-1.57-1.27-1.28s-.54,1.17-.55,1.76c-.06,2.89,0,5.78,0,8.66,0,.53-.37,1.4.71,1.4s.67-.87.7-1.39c.12-2.11-.19-4.23.34-6.31a3.53,3.53,0,0,1,3.66-2.84c2,.19,2.48,1.61,2.53,3.28.06,2,0,3.94.07,5.91,0,.56-.31,1.41.76,1.36s.63-.91.66-1.44c.11-2.17-.24-4.37.38-6.51a3.49,3.49,0,0,1,3.84-2.6c1.85.33,2.26,1.72,2.29,3.29.06,2.11,0,4.23,0,6.34,0,.55.06,1,.77.94s.65-.4.65-.85a64,64,0,0,0-.16-7.59c-.43-3.33-3.94-4.52-6.54-2.38a11.08,11.08,0,0,0-1.36,1.66C179.15,616.79,176.85,616.44,173.75,618.53Zm605.09,2.77v3.38c0,4.9,0,4.93,4.9,4.41a4.62,4.62,0,0,0,4.34-3.41,3.93,3.93,0,0,0-1.92-4.87c-1.1-.63-.46-.93,0-1.5,1.72-2.31.87-4.64-1.88-5.57-1.39-.48-2.78-.18-4.16-.33-1.1-.12-1.28.43-1.26,1.36C778.87,617,778.84,619.13,778.84,621.3Zm-555,6.22c.37.59-.23,1.65,1,1.59s.77-1,.77-1.59q0-6.45,0-12.9c0-.61.43-1.58-.73-1.61-1.37,0-.78,1.09-.81,1.72-.08,1.42,0,2.85,0,4.51-3.69-2.68-6.86-2.59-9.18,0a5.93,5.93,0,0,0-.06,7.74C217,629.59,220.37,629.83,223.81,627.52Zm529.31-8.37c-3.83-2.57-6.84-2.5-9.18.1a6,6,0,0,0-.09,7.74c2.18,2.59,5.44,2.82,9.13.62.42.42-.33,1.52.88,1.51.85,0,.83-.57.83-1.15,0-4.64,0-9.28,0-13.93,0-.64-.12-1.1-.92-1s-.64.61-.64,1.07C753.11,615.72,753.12,617.38,753.12,619.15Zm-566.3-57.94c0,2.37,2.23,4.49,3.93,3.68,1.9-.9,3.69-2,5.53-3,.75-.42,1.05-.91.28-1.62-1.29-1.18-2.49-2.49-3.87-3.54-2.09-1.59-3.89-1.08-5.14,1.26A7.49,7.49,0,0,0,186.82,561.21Zm484.66,67.64-5.35-7.17,2.25-.52a3.58,3.58,0,0,0,3.08-3.71c0-2-1.05-3.2-3.26-3.77-1.88-.49-3.78-.13-5.67-.26-.84,0-.86.48-.86,1.09,0,4.5,0,9,0,13.52,0,.47-.12,1,.65,1.06.93,0,.74-.64.75-1.17,0-1.55,0-3.1,0-4.64,0-.57-.41-1.39.37-1.69s1,.56,1.39,1c1.43,1.84,2.85,3.68,4.19,5.57A1.68,1.68,0,0,0,671.48,628.85Zm-408.07,0-7.53-15.82L248.27,629c1,.21,1.71.3,2.13-.81s1.19-2.39,1.74-3.6a1.44,1.44,0,0,1,1.4-1c5.27-.43,5.27-.45,7.63,4.19a3.29,3.29,0,0,1,.17.39C261.71,629.17,262.39,629.35,263.41,628.88Zm87.83-10c-3.28-2.3-6.55-2.19-8.86.21a5.94,5.94,0,0,0-.41,7.71c2.3,2.77,5.53,3,9.26.78.51.37-.33,1.55.86,1.5s.72-1,.73-1.58q.09-4.32,0-8.64c0-.57.51-1.56-.69-1.62S351.68,618.32,351.24,618.89Zm91.45,0c-3.38-2.31-6.72-2.15-9,.35a6,6,0,0,0-.31,7.55c2.29,2.79,5.59,3.08,9.27.79.5.4-.29,1.76,1.05,1.51,1-.18.55-1,.56-1.53.05-2.95,0-5.9,0-8.85,0-.53.4-1.4-.66-1.45C442.33,617.18,443.09,618.28,442.69,618.88Zm198.93,0c-3.33-2.21-6.48-2.13-8.78.21a5.93,5.93,0,0,0-.65,7.54A6.16,6.16,0,0,0,635.8,629a7.43,7.43,0,0,0,5.86-1.43c.36.58-.34,1.69,1,1.56,1-.11.61-1,.62-1.48,0-2.88,0-5.76,0-8.64,0-.58.54-1.54-.58-1.71C641.28,617.05,642.13,618.41,641.62,618.83Zm-38.11,0c-3.51-2.23-6.62-2.1-8.92.38a5.94,5.94,0,0,0-.37,7.56c2.22,2.8,5.27,3.08,9.4.85.27.51-.36,1.58.89,1.48,1.07-.08.61-1,.62-1.47q.07-4.3,0-8.63c0-.58.52-1.53-.57-1.72C603.19,617,604,618.39,603.51,618.81Zm-139.68,8.75c.41.56-.31,1.68,1,1.52,1-.12.59-1,.6-1.49q.07-4.32,0-8.64c0-.59.49-1.53-.62-1.7-1.36-.21-.44,1.19-1,1.57-3.36-2.25-6.65-2.1-8.92.39a5.84,5.84,0,0,0-.21,7.71C456.9,629.56,460.21,629.81,463.83,627.56Zm25.39-8.65c-3.22-2.33-6.54-2.21-8.84.21a5.91,5.91,0,0,0-.52,7.54c2.18,2.86,5.44,3.19,9.39.94.47.4-.36,1.56.86,1.5s.71-1,.72-1.6q.07-4.32,0-8.64c0-.57.51-1.57-.7-1.61S489.67,618.33,489.22,618.91Zm312,0c-3.13-2.27-6.4-2.22-8.72.06a5.82,5.82,0,0,0-.61,7.71c2.15,2.85,5.31,3.16,9.33,1,.51.38-.38,1.59.95,1.45,1-.11.65-.94.65-1.51,0-2.89,0-5.78,0-8.67,0-.58.5-1.58-.67-1.65S801.64,618.31,801.22,618.91Zm-598.65,0c-3.11-2.26-6.42-2.19-8.68.11a5.94,5.94,0,0,0-.57,7.7c2.2,2.84,5.46,3.15,9.37.89.44.41-.41,1.58.85,1.5s.69-1,.71-1.62c.05-2.88,0-5.76,0-8.64,0-.58.46-1.56-.74-1.58S203.15,618.38,202.57,618.89Zm502.17,8.62c.31.62-.29,1.71,1,1.57,1-.11.59-1,.6-1.5,0-2.89,0-5.78,0-8.67,0-.58.52-1.53-.65-1.67s-.41,1.25-1,1.61c-3.22-2.26-6.56-2.13-8.83.29a5.89,5.89,0,0,0-.3,7.72C697.83,629.58,701,629.84,704.74,627.51Zm-537.63-8.6c-3.23-2.3-6.56-2.21-8.83.16a5.83,5.83,0,0,0-.45,7.69c2.24,2.81,5.54,3.11,9.25.82.49.4-.29,1.75,1,1.5,1-.19.55-1,.56-1.55.05-2.87.06-5.75,0-8.63,0-.56.51-1.57-.67-1.64S167.5,618.3,167.11,618.91Zm210.62,4.27c1.34,0,2.68-.06,4,0s1.62-.23,1.24-1.55a6,6,0,1,0-6.63,7.46,6.19,6.19,0,0,0,5.85-2.62c.2-.34.78-.75.05-1.22a.73.73,0,0,0-1.19.28,4.35,4.35,0,0,1-.63.85,4.49,4.49,0,0,1-4.43,1.32,4.33,4.33,0,0,1-3.21-3.31c-.26-.89-.11-1.29.92-1.24C375.05,623.23,376.39,623.18,377.73,623.18Zm386.63,0h0c1.27,0,2.55-.09,3.8,0,1.69.15,1.68-.64,1.28-1.88a6.06,6.06,0,0,0-11.61.46,6,6,0,0,0,2.93,6.64,6.22,6.22,0,0,0,7.5-1.33c.39-.45,1.5-1,.46-1.83s-1.12.44-1.47.83c-2.32,2.58-6.15,2.25-7.57-.71-.86-1.8-.64-2.19,1.31-2.21Zm-43.92,0a35.61,35.61,0,0,1,3.58,0c1.75.17,1.84-.6,1.37-2a6,6,0,1,0-8.76,7.12,6.21,6.21,0,0,0,7.53-1.17c.43-.48,1.42-1.07.62-1.84-1-1-1.22.39-1.61.83-2.45,2.68-6.56,2-7.7-1.27-.41-1.17-.4-1.88,1.17-1.75C717.9,623.26,719.17,623.17,720.44,623.18Zm-419.43,0a16.47,16.47,0,0,0,2.11,0c1-.13,2.47.63,2.88-.41.5-1.26-.43-2.55-1.32-3.6a5.85,5.85,0,0,0-3.26-1.82,6,6,0,0,0-4.14,11.11,6.24,6.24,0,0,0,7.78-1.72c.25-.37,1-.82.28-1.41s-1.09,0-1.46.53a4.71,4.71,0,0,1-.69.79,4.4,4.4,0,0,1-4.33,1,4.31,4.31,0,0,1-3-3.23c-.26-.93-.06-1.31.95-1.27C298.19,623.22,299.6,623.18,301,623.18Zm533.64,0h0c1.19,0,2.39-.07,3.58,0,1.54.12,2-.34,1.48-1.9a6,6,0,0,0-6.19-4.07,5.9,5.9,0,0,0-5.45,4.77,6,6,0,0,0,3,6.42,6.14,6.14,0,0,0,7.48-1.35c.38-.46,1.53-1,.45-1.82s-1.14.42-1.52.86a4.48,4.48,0,0,1-7.54-.75c-.85-1.8-.62-2.17,1.34-2.18Zm-599.41,0h0c1.27,0,2.54-.08,3.8,0,1.44.12,1.69-.44,1.33-1.71a6,6,0,0,0-6.06-4.26,5.88,5.88,0,0,0-5.61,4.57,6,6,0,0,0,3,6.62,6.17,6.17,0,0,0,7.49-1.35c.4-.47,1.31-1,.61-1.71-.93-.92-1.26.23-1.7.75a4.47,4.47,0,0,1-7.53-.76c-.85-1.79-.62-2.16,1.35-2.17ZM102,621.25c0,2.32,0,4.64,0,7,0,.59.15.92.81.89s.65-.41.65-.86v-3.59c0-3.09,0-3.07,3-3.18a15,15,0,0,0,2.28-.34,3.47,3.47,0,0,0,3-3.5,3.59,3.59,0,0,0-2.87-3.88c-1.87-.55-3.77-.2-5.66-.33-1-.08-1.31.28-1.28,1.29C102,616.89,102,619.07,102,621.25Zm18.63,1.83a6.06,6.06,0,1,0,6.15-5.85A6,6,0,0,0,120.6,623.08Zm445.55,0a6,6,0,1,0-5.92,6.06A5.9,5.9,0,0,0,566.15,623.05ZM402.29,618.8c-.52-.53,0-1.72-1.15-1.56s-.61,1.11-.62,1.68c-.06,3,0,5.91,0,8.86,0,.57-.28,1.39.81,1.31.9-.07.63-.78.64-1.28a36.25,36.25,0,0,1,.26-5.89,4,4,0,0,1,4.17-3.39c2.18.18,2.72,1.68,2.77,3.54q.08,3.06.11,6.11c0,.57.12,1,.81.92s.62-.45.62-.87c0-2.39.09-4.8-.14-7.17a4,4,0,0,0-4.24-3.83A6.3,6.3,0,0,0,402.29,618.8Zm179.39-.07c-.39-.48,0-1.82-1.21-1.46-1,.28-.45,1.2-.46,1.8-.06,2.89,0,5.77,0,8.66,0,.54-.34,1.39.74,1.35s.69-.89.7-1.42a33.09,33.09,0,0,1,.29-5.89,4,4,0,0,1,4.09-3.25c2.17.15,2.77,1.62,2.82,3.49s.07,3.94.12,5.91c0,.51-.19,1.2.74,1.18s.68-.75.68-1.24c0-2.11.1-4.23-.06-6.33-.27-3.48-3-5.16-6.31-3.91A18.93,18.93,0,0,0,581.68,618.73Zm-270.78,0c-.63-.36-.07-1.81-1.32-1.47-1,.28-.48,1.19-.49,1.79-.06,3,0,5.91,0,8.86,0,.53-.2,1.19.72,1.19s.74-.67.74-1.19a34.58,34.58,0,0,1,.27-6.1,4,4,0,0,1,4.06-3.28c2.18.13,2.8,1.57,2.85,3.46s.09,4.08.13,6.11c0,.5-.05,1,.71,1s.72-.5.72-1c0-2.25.1-4.52-.1-6.75a4.27,4.27,0,0,0-5.65-4A9.74,9.74,0,0,0,310.9,618.72Zm497.35.13c-.59-.54.06-1.77-1.15-1.6s-.62,1.11-.63,1.69c-.06,3,0,5.93,0,8.89,0,.49-.3,1.22.64,1.26s.8-.73.83-1.33c.06-1.9,0-3.82.23-5.7a3.93,3.93,0,0,1,4-3.53c1.95.08,2.74,1,2.9,3.62.12,2,.08,4,.11,5.92,0,.5,0,1,.71,1s.73-.45.73-1c0-2.25.08-4.52-.09-6.76a4.1,4.1,0,0,0-4-4.14A5.9,5.9,0,0,0,808.25,618.85Zm-197.68,0c-.63-.46,0-1.72-1.14-1.57s-.63,1.1-.64,1.67c-.06,3,0,5.92,0,8.88,0,.48-.31,1.22.62,1.28,1.1.06.77-.78.8-1.33.11-2,.07-4,.32-5.9a3.89,3.89,0,0,1,4-3.33c2.22.06,2.83,1.54,2.92,3.39s0,3.8.12,5.7c0,.52-.44,1.42.63,1.46,1.25,0,.73-1,.76-1.54.06-1.55,0-3.1,0-4.65,0-2.12-.27-4.17-2.44-5.21S612.42,617.36,610.57,618.82Zm65.59,2.54h0v-3.17c0-.51,0-1-.74-1s-.75.51-.74,1c0,2.32,0,4.65.18,7s2.14,3.85,4.73,3.92,4.55-1.27,5.05-3.77c.45-2.3.15-4.64.22-7,0-.56,0-1.19-.82-1.15s-.68.72-.69,1.22c0,2,0,3.95-.06,5.92a3.55,3.55,0,0,1-7.08.15C676.09,623.48,676.16,622.42,676.16,621.36Zm-347.68,7.75a6.63,6.63,0,0,0,4.16-1.28c.45-.38,1.53-.71.88-1.56s-1.17,0-1.71.43a5.22,5.22,0,0,1-6.92-.37,4.48,4.48,0,0,1,0-6.29,5.14,5.14,0,0,1,7-.31c.58.48,1.13,1.1,1.7.3s-.41-1.09-.83-1.44a7.08,7.08,0,0,0-8.11-.19,6,6,0,0,0-2.39,6.52A6.43,6.43,0,0,0,328.48,629.11Zm211.26,0a6.86,6.86,0,0,0,4.18-1.64c.34-.3.94-.65.47-1.19s-1-.45-1.44.09a4,4,0,0,1-1,.77,5,5,0,0,1-7.24-2.34,4.58,4.58,0,0,1,1.47-5.29,5.3,5.3,0,0,1,6.6.3c.53.41,1.05,1,1.59.28s-.25-1-.62-1.33c-1.94-1.83-5.58-2-8.07-.51a6,6,0,0,0-2.59,6.61C533.81,627.33,536.36,629.08,539.74,629.11Zm-115.06,0a6.84,6.84,0,0,0,4-1.52c.38-.31,1.13-.67.58-1.33s-1-.37-1.44.13a4.23,4.23,0,0,1-1.17.88,5.3,5.3,0,0,1-6.05-.91,4.52,4.52,0,0,1-.72-5.44c1.52-2.71,5-3.22,7.83-1.09.54.42,1.07.91,1.58.24s-.29-1-.66-1.33c-2-1.83-5.6-2-8.08-.47A6,6,0,0,0,418,624.9C418.69,627.35,421.26,629.09,424.68,629.11Zm-32.72,0a6.12,6.12,0,0,0,3.24-.74c.84-.47,2.42-1,1.79-2.06s-1.5.36-2.19.76a5.23,5.23,0,0,1-6.09-.46,4.32,4.32,0,0,1-1.3-5.14c1.22-3.14,5.09-3.92,8.12-1.62.55.42,1.07.9,1.58.2s-.31-1-.67-1.34c-1.95-1.8-5.7-2-8.1-.45a6.07,6.07,0,0,0-2.57,6.63A6.34,6.34,0,0,0,392,629.11Zm231.32-1.29c2.32-3.71,4.38-7,6.62-10.59-2.66,0-5,0-7.26,0-.53,0-1.24-.16-1.17.74s.7.5,1.14.53c1.48.13,3-.22,4.66.25l-6.51,10.34c2.85,0,5.36,0,7.87,0,.4,0,1.06.29,1-.57s-.51-.69-1-.69Zm29.09-2a3.05,3.05,0,0,0-1.48-2.61c-.69-.48-1.45-.86-2.17-1.29-1-.61-2-1.39-1.14-2.67.7-1.08,1.78-.93,2.79-.29.23.15.45.33.69.48.4.26.68-.05.89-.29s.11-.61-.2-.86a3.8,3.8,0,0,0-3.5-1,2.86,2.86,0,0,0-2.31,2.45,3.08,3.08,0,0,0,1.58,3.19c.66.4,1.37.73,2,1.13,1,.59,1.79,1.33,1.13,2.55a2.13,2.13,0,0,1-3.07.88,4.31,4.31,0,0,1-.89-.56c-.48-.39-.75-.08-1,.27a.57.57,0,0,0,.2.89,4.28,4.28,0,0,0,4.16.76A3.33,3.33,0,0,0,652.37,625.85Zm-287.8-4.09c0,2,0,3.94,0,5.91,0,.66-.2,1.5,1,1.43s.68-.9.68-1.43c0-3.24.06-6.48,0-9.71,0-1.93-.34-3.93,2.71-3.27.42.09.85-.05.8-.66a.58.58,0,0,0-.67-.6h-7.18c-.36,0-.7.06-.74.53s.3.83.75.73c3.06-.66,2.77,1.35,2.69,3.27C364.53,619.22,364.57,620.49,364.57,621.76ZM825.92,626a3.17,3.17,0,0,0-1.66-2.85c-.82-.53-1.69-1-2.52-1.52a1.56,1.56,0,0,1-.72-2.16,1.72,1.72,0,0,1,2.37-.73,9.34,9.34,0,0,1,1.23.77c.42.26.65-.08.88-.32a.44.44,0,0,0,0-.71,4.15,4.15,0,0,0-3.25-1.2,3,3,0,0,0-2.58,1.92,2.75,2.75,0,0,0,.81,3.25c.88.68,1.9,1.19,2.83,1.8s1.57,1.34,1,2.44a2.15,2.15,0,0,1-2.89,1,4.46,4.46,0,0,1-1.07-.67c-.48-.37-.75-.06-1,.29s-.08.68.22.89a4.28,4.28,0,0,0,4.15.71A3.31,3.31,0,0,0,825.92,626Zm-544.56-8.78c-1.55.14-2.69.68-3.14,2a2.8,2.8,0,0,0,1,3.39c.79.57,1.68,1,2.52,1.52s1.75,1.4,1.07,2.58a2.13,2.13,0,0,1-3.09.8,5.07,5.07,0,0,1-.87-.58c-.38-.29-.66-.08-.9.17a.6.6,0,0,0,0,.93,4.31,4.31,0,0,0,3.52,1.06,3.37,3.37,0,0,0,2.85-2.2,2.68,2.68,0,0,0-.81-3.24,26.58,26.58,0,0,0-2.84-1.78c-.92-.57-1.61-1.37-1-2.43s1.69-1.06,2.77-.54c.54.27,1.18,1.29,1.68.23s-.68-1.14-1.27-1.48A6.45,6.45,0,0,0,281.36,617.18Zm449.59,12a3.55,3.55,0,0,0,3.41-2.56c.47-1.6-.34-2.7-1.63-3.52-.83-.53-1.69-1-2.51-1.54a1.51,1.51,0,0,1-.58-2.18,1.7,1.7,0,0,1,2.22-.68,5.56,5.56,0,0,1,1.24.77c.39.27.66.05.9-.21s.34-.55,0-.85a3.94,3.94,0,0,0-3.49-1.06,2.86,2.86,0,0,0-2.35,2.15,2.94,2.94,0,0,0,1.3,3.3c.81.54,1.69,1,2.51,1.52s1.41,1.26.93,2.29a2.11,2.11,0,0,1-2.65,1.15,3.81,3.81,0,0,1-1.26-.72.66.66,0,0,0-1.06.15c-.36.47-.1.78.26,1.05A5,5,0,0,0,731,629.14Zm-233.72-12c-1.52.15-2.67.69-3.12,2a2.81,2.81,0,0,0,1,3.4c.79.57,1.69,1,2.51,1.52s1.8,1.3,1.1,2.55a2.18,2.18,0,0,1-3.09.86,4.41,4.41,0,0,1-.88-.57.55.55,0,0,0-.88.13.66.66,0,0,0-.05.92c.88,1.23,3.77,1.44,5.24.34a3,3,0,0,0,.48-4.57,12.43,12.43,0,0,0-3-1.93c-.92-.57-1.63-1.34-1.05-2.4s1.64-1.15,2.74-.61c.54.27,1.15,1.34,1.69.3s-.68-1.15-1.25-1.49A6.49,6.49,0,0,0,497.23,617.18Zm-228.75,0c-1.3.32-2.54.72-3,2.08a2.83,2.83,0,0,0,1,3.4c.86.6,1.81,1.08,2.69,1.66s1.49,1.17,1,2.25a2.1,2.1,0,0,1-2.63,1.2,5.37,5.37,0,0,1-1.46-.8c-.41-.27-.65,0-.88.23a.58.58,0,0,0,.09.91,4.26,4.26,0,0,0,3.74,1,3.3,3.3,0,0,0,2.68-2.67,2.84,2.84,0,0,0-1.36-3.08c-.82-.56-1.72-1-2.55-1.51s-1.52-1.41-.83-2.46,1.61-.94,2.63-.47c.53.25,1.14,1.36,1.69.33s-.64-1.18-1.24-1.51A8,8,0,0,0,268.48,617.13Zm-108.18-44c1,0,1.47,0,2,0,2-.24,4.06-.46,6.07-.79,3.62-.59,3.58-.61,2-3.93-.39-.86-.68-1.09-1.52-.57C166.13,569.54,163.39,571.21,160.3,573.12Zm128.46,50.6h0c0,1.34,0,2.68,0,4,0,.54-.36,1.37.74,1.37s.83-.75.83-1.34c0-2.54,0-5.08,0-7.62,0-1.06.07-1.82,1.42-1.62.39.05.87.07.93-.55s-.46-.81-.95-.74c-1.44.22-1.42-.7-1.37-1.67,0-.5,0-1,0-1.48s-.09-1.1-.89-1.09-.7.51-.7,1v1.27c0,1,.33,2.23-1.43,2-.39-.06-.65.23-.64.66a.56.56,0,0,0,.69.59c1.61-.24,1.39.87,1.39,1.83C288.75,621.46,288.76,622.59,288.76,623.72Zm281,0h0c0,1.34,0,2.68,0,4,0,.57-.27,1.4.8,1.33s.6-.8.61-1.28c0-2.46,0-4.93,0-7.4,0-1.14-.08-2.17,1.58-1.89.4.07.85,0,.91-.57.06-.81-.53-.72-1-.68-1,.08-1.6-.1-1.52-1.33s.34-1.78,1.6-1.63c.37,0,.9.27,1-.41s-.39-.67-.81-.8a2.37,2.37,0,0,0-3.16,2.29c-.06.79.49,2-1.12,1.9-.34,0-.43.28-.44.58s.16.68.59.65c1.15-.08,1,.74,1,1.42C569.74,621.19,569.73,622.46,569.73,623.72Zm273.89.1c0,1.34,0,2.68,0,4,0,.48-.34,1.22.63,1.25s.78-.76.79-1.34c0-2.53,0-5.07,0-7.6,0-1,.05-1.82,1.41-1.66.42,0,1,.23,1.08-.57s-.54-.7-1-.67c-1,.07-1.59-.1-1.5-1.34s.39-1.76,1.62-1.61c.4,0,.92.22.91-.46,0-.52-.43-.67-.85-.79a2.35,2.35,0,0,0-3.09,2.17c-.09.85.52,2-1.2,2.12-.55,0-.62,1,.13,1.1,1.42.09,1.05,1,1.07,1.79C843.64,621.43,843.62,622.63,843.62,623.82Zm-693.82-.46c0,1.41,0,2.81,0,4.21,0,.57-.48,1.57.78,1.52,1.1-.05.61-.93.63-1.44a38.88,38.88,0,0,1,.3-6.29c.29-1.36.8-2.58,2.39-2.82.58-.09,1.55.16,1.41-.71s-1.12-.68-1.78-.49a6.86,6.86,0,0,0-1.49.73c-.32.17-.72.68-.79-.16s-.54-.75-1-.63-.42.65-.42,1C149.79,620,149.8,621.68,149.8,623.36Zm397.48-.4c0,1.62,0,3.23,0,4.84,0,.61-.17,1.36.85,1.29s.57-.82.59-1.29c.13-2.23-.2-4.49.36-6.7a3,3,0,0,1,2.19-2.55c.61-.14,1.75.27,1.51-.79-.2-.91-1.28-.56-2-.34a5,5,0,0,0-1.27.7c-.4.27-.75.46-.77-.27s-.4-.64-.86-.61c-.77,0-.59.64-.59,1.09C547.27,619.88,547.28,621.42,547.28,623ZM474.74,621c0,2.18,0,4.36,0,6.53,0,.6-.36,1.55.83,1.53s.71-.88.71-1.41q0-6.63,0-13.27c0-.53.36-1.38-.69-1.42s-.84.91-.85,1.52C474.72,616.69,474.74,618.87,474.74,621Zm236.09-.12c0-2.18,0-4.36,0-6.54,0-.55.3-1.37-.75-1.39s-.83.72-.83,1.33q0,6.75,0,13.5c0,.65-.1,1.33.89,1.29s.7-.72.71-1.23C710.85,625.56,710.84,623.24,710.83,620.92Zm-295.91,2.43c0-1.69,0-3.37,0-5.05,0-.45.17-1-.62-1.06s-.8.35-.8.92c0,3.36,0,6.73,0,10.09,0,.45.06.8.64.84s.79-.36.79-.91C414.91,626.57,414.92,625,414.92,623.35Zm-78-.43c0,1.69,0,3.38,0,5.08,0,.46-.13,1,.62,1.08s.79-.4.79-.94V618.2c0-.53,0-1-.76-1s-.65.55-.65,1Zm238.74,0c0,1.62,0,3.23,0,4.85,0,.51-.24,1.22.65,1.27s.76-.65.76-1.17c0-3.17,0-6.34,0-9.51,0-.5.23-1.23-.73-1.15s-.66.76-.67,1.27C575.61,620,575.63,621.48,575.63,623Zm-45.15.42c0-1.62,0-3.25,0-4.87,0-.47.32-1.21-.62-1.26s-.76.62-.76,1.16q0,4.76,0,9.51c0,.56-.15,1.21.75,1.16s.64-.76.65-1.27C530.5,626.34,530.48,624.86,530.48,623.38Zm-254.82-.12h0c0-1.62,0-3.24,0-4.86,0-.51.22-1.22-.74-1.16-.73,0-.67.59-.67,1.07q0,4.86,0,9.72c0,.46-.09,1,.67,1.05.91,0,.74-.65.75-1.18C275.67,626.35,275.66,624.8,275.66,623.26Zm575.27.09c0-1.68,0-3.37,0-5.06,0-.48.08-1-.67-1s-.74.47-.74,1q0,5,0,9.91c0,.54.05,1,.77.94s.62-.63.62-1.09C850.94,626.45,850.93,624.9,850.93,623.35Zm-470.76-11c-2.94-.78-3.08,1.73-4.55,3.25C378.18,615.47,378.71,613.45,380.17,612.33Zm-43.86,1.92c.06.72.4,1.25,1.14,1.28a1.17,1.17,0,0,0,1.28-1.34A1.12,1.12,0,0,0,337.5,613C336.77,613,336.39,613.53,336.31,614.25Zm-60.22.1A1.17,1.17,0,0,0,275,613c-.87-.08-1.29.52-1.28,1.31a1.12,1.12,0,0,0,1.18,1.21A1.17,1.17,0,0,0,276.09,614.35Zm139.28.08a1.24,1.24,0,0,0-1.09-1.41c-.85-.1-1.31.49-1.32,1.29a1.12,1.12,0,0,0,1.18,1.22A1.15,1.15,0,0,0,415.37,614.43ZM529.66,613a1.24,1.24,0,0,0-1.16,1.21,1.22,1.22,0,1,0,2.43.17C531,613.54,530.45,613.13,529.66,613Zm47.83,1.37a1.18,1.18,0,0,0-1.11-1.33,1.17,1.17,0,0,0-1.3,1.32,1.13,1.13,0,0,0,1.21,1.19C577,615.54,577.41,615.05,577.49,614.35Zm273.89,0a1.18,1.18,0,0,0-1.11-1.31,1.13,1.13,0,0,0-1.31,1.09,1.15,1.15,0,0,0,1.2,1.4A1.17,1.17,0,0,0,851.38,614.35Z" transform="translate(-0.03 -323.04)"/><path class="cls-2" d="M668,412.69l6,0c2.38.26,4.76.45,7.12.81a53.14,53.14,0,0,1,19.57,7.57.21.21,0,0,0,.29.15,1.11,1.11,0,0,0,1,.74.17.17,0,0,0,.24.12c.09.24.19.49.53.38l.78.56a8.57,8.57,0,0,0,3,2.54h0l.45.41h0a5.09,5.09,0,0,0,2.15,2.23l.33.32a4.72,4.72,0,0,0,1.83,2.19l.24.35,0,.11.09-.05.66.8a1,1,0,0,0,.68.84l.24.39q2.46,4.28,4.93,8.55a.23.23,0,0,0,.09.3c.29.79.55,1.59.86,2.36,3,7.39,4,15.22,5.05,23,0,.31,0,.62,0,.93.23,2.41,0,4.85.61,7.22l0,1.21v6.74q0,41.51,0,83c0,.85.06,1.69.09,2.53a.19.19,0,0,0,0,.26c-.84.07-1.67.19-2.5.2q-10.85.07-21.7.12a.24.24,0,0,0-.2-.13c0-.24,0-.26,0,0l-.69.11c-1.51-.06-1.7-1-1.69-2.28q0-42.9,0-85.82a18.76,18.76,0,0,0-.38-5.23l0-.78a56.43,56.43,0,0,0-1-12.24,1.7,1.7,0,0,0-.25-1.3,7,7,0,0,0-.6-3.34l-.3-.89a14.22,14.22,0,0,0-3.33-7.22h0a15.71,15.71,0,0,0-6.78-6.79h0a4.47,4.47,0,0,0-2-1.5,29.63,29.63,0,0,0-13.25-3.65c-6.68-.26-13.14.58-19.08,3.91h0a3.48,3.48,0,0,0-2.19,1.22l0,0a.89.89,0,0,0-.82.5h0a14.93,14.93,0,0,0-5,3.41l-.47.43a1.81,1.81,0,0,0-1.31,1.23h0a1.24,1.24,0,0,0-.93.83l-.32.3c-.57.08-.78.49-.91,1l0,0a7.45,7.45,0,0,0-3,3.49l-.3.38a3.92,3.92,0,0,0-1.42,2.06l0,0a4.54,4.54,0,0,0-1.62,2.62l-.39.69a24,24,0,0,0-3.45,8.62.18.18,0,0,0-.06.28,4.34,4.34,0,0,0-.73,2.67l-.12.66a37.18,37.18,0,0,0-1.59,9.93l-.09,1.14a2.11,2.11,0,0,0-.38,1.4c-.51,6-.88,12.09-.89,18.15,0,21.22-.09,42.44,0,63.66,0,2-.71,2.51-2.55,2.5-6.84-.07-13.68,0-20.52,0-3.23,0-3.23,0-3.23-3.25q0-36.06,0-72.12c0-5.92,0-11.84-.47-17.74a2.49,2.49,0,0,0-.12-1.74,60,60,0,0,0-1.45-13.29.15.15,0,0,0-.05-.24,16.19,16.19,0,0,0-2.39-7.23h0a7.52,7.52,0,0,0-2.54-4.27l-.26-.36a.75.75,0,0,0-.62-.8l0,0a2.64,2.64,0,0,0-1.62-1.75v0a8.48,8.48,0,0,0-3.84-3.19l-.38-.2a1.5,1.5,0,0,0-1.3-.84h0c-1.44-1.33-3.29-1.78-5.09-2.35l-1.09-.24c-1.27-.91-2.81-.88-4.24-1-4.69-.49-9.39-.72-13.93,1l-.64.11a10.32,10.32,0,0,0-4.67,1.64h0a24.43,24.43,0,0,0-9.35,5.51l-.8.61a19.19,19.19,0,0,0-6.21,6.21,2.3,2.3,0,0,0-1,1.21,12.85,12.85,0,0,0-3.3,5.09c0,.12-.09.25-.14.38a1.6,1.6,0,0,0-.75,1.35l0,.07a42,42,0,0,0-4.74,16l-.23.88a48.84,48.84,0,0,0-.86,7.14l0,.89a5.16,5.16,0,0,0-.13,2.53c0,.23,0,.45,0,.68a2.72,2.72,0,0,0-.38,1.82c-.1,4.94-.28,9.87-.29,14.8q0,30,0,60.08c0,2-.48,2.7-2.59,2.66-7-.11-14.1-.07-21.15,0-2,0-2.67-.48-2.65-2.59.1-11.57,0-23.13,0-34.69q0-56.48,0-113c0-1.6-.05-2.88,2.22-2.84,7,.13,14,.07,20.94.15,3.16,0,3.16.11,3.16,3.2v14a1.79,1.79,0,0,0,1.62-1.41l0,0,.43-.45h0c.34,0,.43-.25.52-.52a.19.19,0,0,0,.25-.17c.9-.36,1.31-1.2,1.85-1.91l.34-.35a4.42,4.42,0,0,0,1.82-1.69l.71-.57a.92.92,0,0,0,.83-.75h0a32.69,32.69,0,0,0,5.12-3.78l0,0a3.65,3.65,0,0,0,2.18-1.29l1.19-.64a6.59,6.59,0,0,0,2.69-1.45.21.21,0,0,0,.29-.12,2.74,2.74,0,0,0,1.85-.85l.67-.26a69.49,69.49,0,0,1,22-4.93h3.06a79.87,79.87,0,0,1,13.06,1.82l.64.12c3.93,1.51,7.85,3,11.63,4.88l.38.16a1,1,0,0,0,.92.56,1.93,1.93,0,0,0,1.21.7L608,426.2a.22.22,0,0,0,.26.21l.53.52a.24.24,0,0,0,.23.26l5.81,7.39v.13l.11.07a5.69,5.69,0,0,0,1.53,2.57l.14.43,2.32,5,5.89-8,.09-.09c.17,0,.29,0,.2-.25l.69-.84.44-.45h0a1.94,1.94,0,0,0,1.25-1.3h0a7.71,7.71,0,0,0,2.55-2.53l.4-.39a7.39,7.39,0,0,0,3-2.57l.42-.35a2.82,2.82,0,0,0,1.71-1.33l0,0a15.66,15.66,0,0,0,3.89-2.65.26.26,0,0,0,.32-.19.88.88,0,0,0,.89-.57l.38-.17a2.76,2.76,0,0,0,1.74-1.1l.42-.2c.3.09.45-.08.58-.3l.13,0,.07-.1a1.53,1.53,0,0,0,1.29-.7h0c3.85-1.55,7.7-3.07,11.67-4.29l.16,0C660.68,413.7,664.33,413.06,668,412.69Z" transform="translate(-0.03 -323.04)"/><path class="cls-3" d="M373.83,435.72c0-5.94.06-11.71,0-17.48,0-1.5.42-1.88,1.88-1.86q11.22.09,22.43,0c1.55,0,1.87.52,1.87,1.95q-.06,74.7,0,149.4c0,1.39-.35,1.8-1.77,1.79q-11.32-.11-22.64,0c-1.4,0-1.77-.37-1.75-1.75.08-5.55,0-11.1,0-17-1.67,1.48-3,2.73-4.46,3.95C353,568.76,333.94,574.44,312.45,573c-36.12-2.44-65.25-32.86-70.36-65.13-2.92-18.48-1.35-36.39,7.91-52.88,13-23.12,32.26-38.09,59-41.57,24.66-3.21,46.34,3.44,63.84,21.78a4.6,4.6,0,0,0,.47.41S373.45,435.63,373.83,435.72Zm-53.15,2.62a59.78,59.78,0,0,0-8,.7c-1.8.32-3.6.67-5.36,1.13-27.26,7.18-43.77,35-39.08,62,5.1,29.26,30.58,49.79,60.38,45.67,13.94-1.93,25.73-8.19,34.65-19.16,10.51-12.93,13.07-28,11.15-44.18C371.73,462.1,351.94,438.22,320.68,438.34Z" transform="translate(-0.03 -323.04)"/><path class="cls-3" d="M437,504.83q0-31.21,0-62.42c0-1.77-.42-2.21-2.18-2.19-7.2.11-14.39,0-21.59.08-1.38,0-1.79-.37-1.77-1.77q.1-10.15,0-20.32c0-1.52.49-1.85,1.92-1.84,7.13.07,14.25-.06,21.38.08,2,0,2.26-.6,2.25-2.35-.06-16.51,0-33-.08-49.52,0-1.72.35-2.24,2.16-2.21,7.4.12,14.81.1,22.22,0,1.64,0,2.1.37,2.1,2.09-.08,16.5,0,33-.09,49.51,0,1.91.45,2.49,2.43,2.47,8.46-.12,16.93,0,25.39-.08,1.64,0,2,.52,2,2q-.11,9.94,0,19.89c0,1.58-.42,2-2,2-8.46-.08-16.93,0-25.4-.09-1.92,0-2.39.48-2.39,2.38q.09,62.11,0,124.21c0,3.19.22,2.64-2.73,2.65-7.2,0-14.4,0-21.59,0-1.58,0-2.13-.29-2.12-2,.07-20.87,0-41.75,0-62.63Z" transform="translate(-0.03 -323.04)"/><path class="cls-2" d="M96.08,437.63a95.43,95.43,0,0,1,11.46-9.94,79.44,79.44,0,0,1,36.76-14.5c35.39-4.45,69.24,14.26,83.64,46.79,10.72,24.2,9.53,48.21-2.7,71.69-.87,1.66-1.39,1.87-2.63.27a36.65,36.65,0,0,0-14.42-11.13c-1.82-.8-2-1.53-1.18-3.23a57.91,57.91,0,1,0-106.44-45.51,48.23,48.23,0,0,0-2.79,9.72c-.22,1.25-.74,1.47-1.85.9a200.53,200.53,0,0,0-22.34-9.51A2,2,0,0,1,72.12,471q0-24.66,0-49.3c0-1.52.53-1.94,2-1.93,6.63.05,13.26.07,19.89,0,1.67,0,2.16.59,2.13,2.22C96,427,96.08,432,96.08,437.63Z" transform="translate(-0.03 -323.04)"/><path class="cls-3" d="M803.69,430.24a62.47,62.47,0,0,1,12.7-11.08c14.11-8.84,28.15-8.47,42.16.24.89.55,1,.92.44,1.79Q852.83,431,846.77,441c-.59,1-1.11.93-2,.54-3.41-1.52-6.81-3.14-10.68-2.95-8,.39-14,4.67-18.61,10.71-5.7,7.42-8.6,16.08-9.81,25.28-2,15.64-1.87,31.37-1.95,47.09q-.12,22.85,0,45.7c0,1.79-.51,2.19-2.24,2.17-7.54-.11-15.09-.1-22.64,0-1.65,0-2-.5-2-2q.08-74.58,0-149.15c0-1.42.29-2,1.83-1.95q11.64.11,23.27,0c1.47,0,1.75.51,1.72,1.84C803.64,422,803.69,425.79,803.69,430.24Z" transform="translate(-0.03 -323.04)"/><path class="cls-4" d="M56.35,477.48c-.06-1.12-.11-2.25-.2-3.37-.1-1.33.26-1.74,1.7-1.32A231.06,231.06,0,0,1,80,480.43a182.83,182.83,0,0,1,35.85,19.25,66.43,66.43,0,0,1,24.62,32,138.22,138.22,0,0,1,8.18,40c.13,2-.49,2.5-2.43,2.36-24-1.69-45.54-9.56-64-25.22-7.85-6.68-12.8-15.47-16.59-24.93-5.2-13-7.84-26.57-8.95-40.48l-.48-5.9Z" transform="translate(-0.03 -323.04)"/><path class="cls-5" d="M740.07,493q0-37.12-.05-74.25c0-2,.64-2.4,2.48-2.38,7.12.1,14.25.13,21.37,0,2.11,0,2.68.5,2.68,2.64-.08,28.07,0,56.13-.06,84.2,0,21.36,0,42.73,0,64.1,0,1.72-.37,2.26-2.17,2.23-7.4-.11-14.81-.1-22.21,0-1.64,0-2.11-.34-2.11-2Q740.12,530.22,740.07,493Z" transform="translate(-0.03 -323.04)"/><path class="cls-6" d="M152.84,566.64c-.39-2.89-.8-5.79-1.17-8.69a96.21,96.21,0,0,0-3.12-15.31,3.73,3.73,0,0,1,1.1-3.95c4.6-5.12,10.28-8.79,16.33-11.86,8.39-4.25,17.25-6.61,26.73-5.67,12.34,1.22,22.46,6.51,28.94,17.34,4.32,7.22,4.53,15.06,1.91,23.06-3.66,11.2-14.73,19.56-26.4,19.76-12.13.2-20.54-6.1-23.8-17.82-2.56-9.22.85-18.2,8.77-23.13,6.84-4.25,17.88-2.66,23.48,3.11,3.84,4,1.53,12.25-3.5,14.58-1.11.52-1.69-.26-2.34-.89a46.7,46.7,0,0,0-5.22-4.59c-5-3.53-10.46.57-11.61,4.89-1.87,7,1.26,11.51,9,13,11.27,2.21,22.18-6,22.39-17,.12-6.76-3.47-11.79-8.71-15.61-6.8-4.95-14.51-5.51-22.2-3-12.1,4-21.6,11.38-27.11,23.24C155,560.91,154.2,563.83,152.84,566.64Z" transform="translate(-0.03 -323.04)"/><path class="cls-7" d="M72.2,545.85c2,1.73,4.11,3.61,6.23,5.51A89,89,0,0,0,94,562.62a3.62,3.62,0,0,1,2.12,3.63q-.09,30.46,0,60.93c0,1.41-.29,2-1.85,2-6.7-.08-13.4-.06-20.1,0-1.33,0-2.05-.21-2-1.83q.06-40.51,0-81C72.16,545.94,72.23,545.61,72.2,545.85Z" transform="translate(-0.03 -323.04)"/><path class="cls-8" d="M146.8,535.27c-2.71-4-2.25-8.11-1-12.5,3.87-13.65,12.73-23.29,24.09-31a101.88,101.88,0,0,1,20.62-10.63c1.44-.57,2.06-.45,2.42,1.19a119.88,119.88,0,0,1,2.65,33c-.06,1-.12,1.72-1.54,1.57-12.66-1.36-24.09,2.32-34.82,8.7A52.58,52.58,0,0,0,146.8,535.27Z" transform="translate(-0.03 -323.04)"/><path class="cls-3" d="M753.17,395A19.26,19.26,0,1,1,772.52,376,19.19,19.19,0,0,1,753.17,395Z" transform="translate(-0.03 -323.04)"/><path class="cls-9" d="M911.79,501.29c-3.9,3.86-7.84,7.7-11.69,11.61a4.24,4.24,0,0,1-3.34,1.37c-7.75-.06-15.51,0-23.27-.07-1.49,0-1.89.43-1.88,1.89.07,7.76,0,15.52,0,23.27a4,4,0,0,1-1.22,3.17c-4,3.93-7.81,7.94-11.6,11.83-1-.38-.7-1-.7-1.38q0-25.17,0-50.34c0-1.26.16-1.88,1.68-1.88,17.07.06,34.13,0,51.2,0a4.63,4.63,0,0,1,.83.13A.88.88,0,0,1,911.79,501.29Z" transform="translate(-0.03 -323.04)"/><path class="cls-9" d="M925.19,514.51a4.94,4.94,0,0,1,.23,2.29c0,16.36,0,32.72.06,49.09,0,1.74-.45,2.22-2.21,2.22-16.57-.07-33.15,0-49.72-.05-.45,0-1,.25-1.57-.43,3.32-3.3,6.8-6.47,9.94-10a8.92,8.92,0,0,1,7.69-3.2c6.83.28,13.68,0,20.52.12,1.5,0,1.88-.43,1.86-1.9-.07-7.61,0-15.23-.06-22.85a4.28,4.28,0,0,1,1.38-3.34c4-4,8-8,11.91-12Z" transform="translate(-0.03 -323.04)"/><path class="cls-8" d="M925.19,514.51h0c-3.64,0-7.29-.26-10.92-.1-2.12.09-2.58-.62-2.5-2.59.15-3.5,0-7,0-10.52a.88.88,0,0,0,0-.36c4.36-4.49,8.71-9,13.12-13.51H912.14c3.1-3.19,5.71-6.06,8.67-8.59,8.17,0,16.34.05,24.51,0,1.65,0,2.17.44,2.16,2.13-.09,8.31,0,16.62,0,24.93L939.57,514l-.52-.25V501.59l-.5-.24Z" transform="translate(-0.03 -323.04)"/><path class="cls-10" d="M527.56,432.31a1.79,1.79,0,0,1-1.62,1.41v-14c0-3.09,0-3.16-3.16-3.2-7-.08-14,0-20.94-.15-2.27,0-2.22,1.24-2.22,2.84q0,56.48,0,113c0,11.56.06,23.12,0,34.69,0,2.11.69,2.62,2.65,2.59,7.05-.1,14.11-.14,21.15,0,2.11,0,2.59-.69,2.59-2.66q-.09-30,0-60.08c0-4.93.19-9.86.29-14.8a2.72,2.72,0,0,1,.38-1.82c0,2.68,0,5.36,0,8v69c0,2.84,0,2.77-2.92,2.75-7.33-.07-14.67-.09-22,0-2.07,0-2.64-.64-2.64-2.66q.08-74.26,0-148.53c0-2.77.15-2.92,2.83-2.92h21.79c2.58,0,2.9.33,2.9,3,0,4.17.05,8.33-.07,12.49C526.58,432.13,526.79,432.33,527.56,432.31Z" transform="translate(-0.03 -323.04)"/><path class="cls-10" d="M598.43,476.35c.5,5.9.47,11.82.47,17.74q0,36.06,0,72.12c0,3.23,0,3.24,3.23,3.25,6.84,0,13.68,0,20.52,0,1.84,0,2.55-.45,2.55-2.5-.05-21.22,0-42.44,0-63.66,0-6.06.38-12.11.89-18.15a2.11,2.11,0,0,1,.38-1.4c-.13,4.63-.24,9.25-.73,13.86a23.87,23.87,0,0,0-.06,2.54q0,33.44,0,66.87c0,2.79,0,2.79-2.84,2.79-7.33,0-14.67-.05-22,0-2,0-2.71-.47-2.71-2.59q.11-44.53.05-89.08A3.2,3.2,0,0,1,598.43,476.35Z" transform="translate(-0.03 -323.04)"/><path class="cls-8" d="M157.46,569.51c.52-7.18,6.63-17.89,12.62-22-1.47,3.86-2.58,7.59-1.84,11.28.7,3.44-.87,4.93-3.45,6.33S160,568,157.46,569.51Z" transform="translate(-0.03 -323.04)"/><path class="cls-11" d="M524.07,613.64c.65,4.73,1.31,9.46,1.95,14.19.07.51.4,1.19-.54,1.27-.78.08-.88-.49-1-1.08-.42-3.21-.86-6.42-1.38-10.28l-5.9,11.7c-1.94-4-3.7-7.51-5.75-11.69-.49,3.49-.9,6.39-1.31,9.3-.05.35-.08.7-.1,1.05,0,.67-.33,1.07-1,1s-.58-.7-.52-1.13c.68-4.8,1.39-9.6,2.47-14.53,2,4.11,4.07,8.23,6.3,12.72l6.3-12.62Z" transform="translate(-0.03 -323.04)"/><path class="cls-12" d="M135.22,630.1a1.58,1.58,0,0,1,2,.48c1.44,1.61,3.36,1.69,5.28,1.34,2.29-.42,3.07-1.67,3.05-4.65-1.81,1.22-3.62,2.26-5.87,1.69a6.14,6.14,0,0,1-3.53-2.16,6,6,0,0,1,.52-7.75c2.23-2.33,5.56-2.43,8.6-.25.54-.07.36-.51.37-.8,0-.49.14-.8.72-.78s.77.41.76,1c-.06,3.53,0,7.06-.18,10.57-.13,2.4-1.8,3.89-4.4,4.45A6.48,6.48,0,0,1,135.22,630.1Zm5.91-2.28a4.38,4.38,0,0,0,4.53-4.69,4.5,4.5,0,0,0-4.45-4.61,4.74,4.74,0,0,0-4.8,5A4.46,4.46,0,0,0,141.13,627.82Z" transform="translate(-0.03 -323.04)"/><path class="cls-10" d="M697.71,476.23a18.76,18.76,0,0,1,.38,5.23q0,42.92,0,85.82c0,1.31.18,2.22,1.69,2.28-1.34.62-2,.16-2.09-1.28,0-.28,0-.56,0-.84V477.28C697.68,476.93,697.7,476.58,697.71,476.23Z" transform="translate(-0.03 -323.04)"/><path class="cls-13" d="M173.75,618.53c3.1-2.09,5.4-1.74,7.51,1.41a11.08,11.08,0,0,1,1.36-1.66c2.6-2.14,6.11-.95,6.54,2.38a64,64,0,0,1,.16,7.59c0,.45-.06.83-.65.85s-.77-.39-.77-.94c0-2.11,0-4.23,0-6.34,0-1.57-.44-3-2.29-3.29a3.49,3.49,0,0,0-3.84,2.6c-.62,2.14-.27,4.34-.38,6.51,0,.53.4,1.4-.66,1.44s-.75-.8-.76-1.36c-.05-2,0-3.94-.07-5.91-.05-1.67-.52-3.09-2.53-3.28a3.53,3.53,0,0,0-3.66,2.84c-.53,2.08-.22,4.2-.34,6.31,0,.52.4,1.4-.7,1.39s-.7-.87-.71-1.4c0-2.88,0-5.77,0-8.66,0-.59-.5-1.48.55-1.76S173.18,618.25,173.75,618.53Z" transform="translate(-0.03 -323.04)"/><path class="cls-13" d="M778.84,621.3c0-2.17,0-4.35,0-6.53,0-.93.16-1.48,1.26-1.36,1.38.15,2.77-.15,4.16.33,2.75.93,3.6,3.26,1.88,5.57-.42.57-1.06.87,0,1.5a3.93,3.93,0,0,1,1.92,4.87,4.62,4.62,0,0,1-4.34,3.41c-4.9.52-4.9.49-4.9-4.41Zm1.33,3.07c.75,1.14-1.36,3.64,2,3.49,3-.15,4.41-1,4.45-3.29S785,621.16,782.1,621C778.94,620.86,780.87,623.24,780.17,624.37Zm.1-7c.24,1-.76,2.65,1.6,2.47,2.19-.16,3.56-1.1,3.46-2.81-.13-2.13-1.7-2.16-3.33-2.32C779.57,614.43,780.45,616.15,780.27,617.33Z" transform="translate(-0.03 -323.04)"/><path class="cls-14" d="M223.81,627.52c-3.44,2.31-6.83,2.07-9.07-.52a5.93,5.93,0,0,1,.06-7.74c2.32-2.61,5.49-2.7,9.18,0,0-1.66,0-3.09,0-4.51,0-.63-.56-1.75.81-1.72,1.16,0,.72,1,.73,1.61q0,6.45,0,12.9c0,.61.41,1.53-.77,1.59S224.18,628.11,223.81,627.52Zm-4.35-9a4.64,4.64,0,1,0,.14,9.28,4.64,4.64,0,0,0-.14-9.28Z" transform="translate(-0.03 -323.04)"/><path class="cls-14" d="M753.12,619.15c0-1.77,0-3.43,0-5.09,0-.46-.13-1,.64-1.07s.92.41.92,1c0,4.65,0,9.29,0,13.93,0,.58,0,1.14-.83,1.15-1.21,0-.46-1.09-.88-1.51-3.69,2.2-7,2-9.13-.62a6,6,0,0,1,.09-7.74C746.28,616.65,749.29,616.58,753.12,619.15Zm-4.52-.62a4.64,4.64,0,1,0,.14,9.27,4.64,4.64,0,0,0-.14-9.27Z" transform="translate(-0.03 -323.04)"/><path class="cls-7" d="M186.82,561.21a7.49,7.49,0,0,1,.73-3.25c1.25-2.34,3-2.85,5.14-1.26,1.38,1,2.58,2.36,3.87,3.54.77.71.47,1.2-.28,1.62-1.84,1-3.63,2.13-5.53,3C189.05,565.7,186.85,563.58,186.82,561.21Z" transform="translate(-0.03 -323.04)"/><path class="cls-13" d="M671.48,628.85a1.68,1.68,0,0,1-2.4-.68c-1.34-1.89-2.76-3.73-4.19-5.57-.35-.45-.59-1.31-1.39-1s-.35,1.12-.37,1.69c-.08,1.54,0,3.09,0,4.64,0,.53.18,1.2-.75,1.17-.77,0-.65-.59-.65-1.06,0-4.51,0-9,0-13.52,0-.61,0-1.14.86-1.09,1.89.13,3.79-.23,5.67.26,2.21.57,3.29,1.76,3.26,3.77a3.58,3.58,0,0,1-3.08,3.71l-2.25.52ZM663.07,617c0,3.19,0,3.19,2.78,3.18s4-.87,4-2.84-1.27-2.47-4.58-2.72C662.72,614.45,663,615.85,663.07,617Z" transform="translate(-0.03 -323.04)"/><path class="cls-12" d="M263.41,628.88c-1,.47-1.7.29-2.07-.72a3.29,3.29,0,0,0-.17-.39c-2.36-4.64-2.36-4.62-7.63-4.19a1.44,1.44,0,0,0-1.4,1c-.55,1.21-1.26,2.36-1.74,3.6s-1.12,1-2.13.81l7.61-15.9Zm-7.49-12a23.6,23.6,0,0,0-2.45,5.4h4.77c0-.27.07-.51,0-.67C257.51,620.07,256.76,618.57,255.92,616.85Z" transform="translate(-0.03 -323.04)"/><path class="cls-12" d="M351.24,618.89c.44-.57-.36-1.7.9-1.64s.67,1,.69,1.62q.07,4.32,0,8.64c0,.56.49,1.54-.73,1.58s-.35-1.13-.86-1.5c-3.73,2.26-7,2-9.26-.78a5.94,5.94,0,0,1,.41-7.71C344.69,616.7,348,616.59,351.24,618.89Zm-4.41,8.93a4.65,4.65,0,0,0,.2-9.3,4.63,4.63,0,0,0-4.83,4.53A4.71,4.71,0,0,0,346.83,627.82Z" transform="translate(-0.03 -323.04)"/><path class="cls-12" d="M442.69,618.88c.4-.6-.36-1.7.92-1.63,1.06,0,.65.92.66,1.45,0,2.95,0,5.9,0,8.85,0,.52.43,1.35-.56,1.53-1.34.25-.55-1.11-1.05-1.51-3.68,2.29-7,2-9.27-.79a6,6,0,0,1,.31-7.55C436,616.73,439.31,616.57,442.69,618.88Zm.2,4.37a4.47,4.47,0,0,0-4.55-4.73,4.62,4.62,0,0,0-4.7,4.65,4.7,4.7,0,0,0,4.75,4.65A4.48,4.48,0,0,0,442.89,623.25Z" transform="translate(-0.03 -323.04)"/><path class="cls-12" d="M641.62,618.83c.51-.42-.34-1.78,1-1.57,1.12.17.57,1.13.58,1.71.07,2.88.06,5.76,0,8.64,0,.52.42,1.37-.62,1.48-1.29.13-.59-1-1-1.56A7.43,7.43,0,0,1,635.8,629a6.16,6.16,0,0,1-3.61-2.38,5.93,5.93,0,0,1,.65-7.54C635.14,616.7,638.29,616.62,641.62,618.83Zm.22,4.32a4.48,4.48,0,0,0-4.65-4.63,4.63,4.63,0,0,0-4.58,4.55,4.7,4.7,0,0,0,4.63,4.75A4.46,4.46,0,0,0,641.84,623.15Z" transform="translate(-0.03 -323.04)"/><path class="cls-12" d="M603.51,618.81c.51-.42-.32-1.8,1-1.55,1.09.19.56,1.14.57,1.72q.09,4.32,0,8.63c0,.5.45,1.39-.62,1.47-1.25.1-.62-1-.89-1.48-4.13,2.23-7.18,1.95-9.4-.85a5.94,5.94,0,0,1,.37-7.56C596.89,616.71,600,616.58,603.51,618.81Zm.24,4.28a4.47,4.47,0,0,0-4.5-4.57,4.65,4.65,0,1,0-.06,9.29A4.45,4.45,0,0,0,603.75,623.09Z" transform="translate(-0.03 -323.04)"/><path class="cls-12" d="M463.83,627.56c-3.62,2.25-6.93,2-9.15-.64a5.84,5.84,0,0,1,.21-7.71c2.27-2.49,5.56-2.64,8.92-.39.56-.38-.36-1.78,1-1.57,1.11.17.61,1.11.62,1.7q.07,4.32,0,8.64c0,.52.44,1.37-.6,1.49C463.52,629.24,464.24,628.12,463.83,627.56Zm.22-4.31a4.47,4.47,0,0,0-4.54-4.73,4.65,4.65,0,0,0-.17,9.29A4.46,4.46,0,0,0,464.05,623.25Z" transform="translate(-0.03 -323.04)"/><path class="cls-12" d="M489.22,618.91c.45-.58-.3-1.7.91-1.66s.69,1,.7,1.61q.07,4.32,0,8.64c0,.58.48,1.53-.72,1.6s-.39-1.1-.86-1.5c-3.95,2.25-7.21,1.92-9.39-.94a5.91,5.91,0,0,1,.52-7.54C482.68,616.7,486,616.58,489.22,618.91Zm.23,4.35a4.48,4.48,0,0,0-4.54-4.74,4.65,4.65,0,0,0-.18,9.3A4.48,4.48,0,0,0,489.45,623.26Z" transform="translate(-0.03 -323.04)"/><path class="cls-12" d="M801.22,618.91c.42-.6-.35-1.74.91-1.65s.66,1.07.67,1.65c.06,2.89.05,5.78,0,8.67,0,.57.33,1.4-.65,1.51-1.33.14-.44-1.07-.95-1.45-4,2.2-7.18,1.89-9.33-1a5.82,5.82,0,0,1,.61-7.71C794.82,616.69,798.09,616.64,801.22,618.91Zm.21,4.35a4.47,4.47,0,0,0-4.54-4.74,4.64,4.64,0,0,0-4.71,4.65,4.72,4.72,0,0,0,4.75,4.65A4.44,4.44,0,0,0,801.43,623.26Z" transform="translate(-0.03 -323.04)"/><path class="cls-12" d="M202.57,618.89c.58-.51-.27-1.67.94-1.64s.73,1,.74,1.58c0,2.88.05,5.76,0,8.64,0,.58.48,1.54-.71,1.62s-.41-1.09-.85-1.5c-3.91,2.26-7.17,1.95-9.37-.89a5.94,5.94,0,0,1,.57-7.7C196.15,616.7,199.46,616.63,202.57,618.89Zm.3,4.41a4.46,4.46,0,0,0-4.5-4.78,4.62,4.62,0,0,0-4.75,4.61,4.72,4.72,0,0,0,4.7,4.68A4.44,4.44,0,0,0,202.87,623.3Z" transform="translate(-0.03 -323.04)"/><path class="cls-12" d="M704.74,627.51c-3.73,2.33-6.91,2.07-9.24-.65a5.89,5.89,0,0,1,.3-7.72c2.27-2.42,5.61-2.55,8.83-.29.6-.36-.27-1.75,1-1.61s.64,1.09.65,1.67c.06,2.89.06,5.78,0,8.67,0,.52.43,1.39-.6,1.5C704.45,629.22,705.05,628.13,704.74,627.51Zm.17-4.25a4.47,4.47,0,0,0-4.53-4.75,4.65,4.65,0,1,0,0,9.3A4.46,4.46,0,0,0,704.91,623.26Z" transform="translate(-0.03 -323.04)"/><path class="cls-12" d="M167.11,618.91c.39-.61-.34-1.73.91-1.65s.65,1.08.67,1.64c.06,2.88.05,5.76,0,8.63,0,.54.42,1.36-.56,1.55-1.34.25-.56-1.1-1-1.5-3.71,2.29-7,2-9.25-.82a5.83,5.83,0,0,1,.45-7.69C160.55,616.7,163.88,616.61,167.11,618.91Zm.2,4.39a4.49,4.49,0,0,0-4.5-4.79,4.7,4.7,0,0,0-4.77,4.62,4.78,4.78,0,0,0,4.72,4.69A4.46,4.46,0,0,0,167.31,623.3Z" transform="translate(-0.03 -323.04)"/><path class="cls-12" d="M377.73,623.18c-1.34,0-2.68.05-4,0-1,0-1.18.35-.92,1.24a4.33,4.33,0,0,0,3.21,3.31,4.49,4.49,0,0,0,4.43-1.32,4.35,4.35,0,0,0,.63-.85.73.73,0,0,1,1.19-.28c.73.47.15.88-.05,1.22a6.19,6.19,0,0,1-5.85,2.62,6,6,0,1,1,6.63-7.46c.38,1.32,0,1.61-1.24,1.55S379.07,623.18,377.73,623.18Zm3.71-1.29a4.46,4.46,0,0,0-8.08-1.32c-.53.84-.6,1.37.71,1.34C376.44,621.85,378.81,621.89,381.44,621.89Z" transform="translate(-0.03 -323.04)"/><path class="cls-12" d="M764.36,623.17H761c-2,0-2.17.41-1.31,2.21,1.42,3,5.25,3.29,7.57.71.35-.39.48-1.62,1.47-.83s-.07,1.38-.46,1.83a6.22,6.22,0,0,1-7.5,1.33,6,6,0,0,1-2.93-6.64,6.06,6.06,0,0,1,11.61-.46c.4,1.24.41,2-1.28,1.88-1.25-.11-2.53,0-3.8,0Zm-.65-1.28c1,0,2,0,2.95,0,.39,0,.9.2,1.15-.21s-.18-.93-.43-1.31a4.59,4.59,0,0,0-7-.48c-.43.46-1,1-.85,1.61.23.82,1.08.33,1.64.38C762,622,762.87,621.89,763.71,621.89Z" transform="translate(-0.03 -323.04)"/><path class="cls-12" d="M720.44,623.17c-1.27,0-2.54.09-3.8,0-1.57-.13-1.58.58-1.17,1.75,1.14,3.28,5.25,4,7.7,1.27.39-.44.6-1.8,1.61-.83.8.77-.19,1.36-.62,1.84a6.21,6.21,0,0,1-7.53,1.17,6,6,0,1,1,8.76-7.12c.47,1.37.38,2.14-1.37,2C722.84,623.08,721.63,623.18,720.44,623.17Zm3.62-1.28c-.81-2.27-2.18-3.25-4.19-3.37a4.21,4.21,0,0,0-4.06,2.11c-.46.73-.62,1.29.61,1.28C718.87,621.87,721.32,621.89,724.06,621.89Z" transform="translate(-0.03 -323.04)"/><path class="cls-12" d="M301,623.18c-1.41,0-2.82,0-4.23,0-1,0-1.21.34-.95,1.27a4.31,4.31,0,0,0,3,3.23,4.4,4.4,0,0,0,4.33-1,4.71,4.71,0,0,0,.69-.79c.37-.52.71-1.14,1.46-.53s0,1-.28,1.41a6.24,6.24,0,0,1-7.78,1.72,6,6,0,0,1,4.14-11.11,5.85,5.85,0,0,1,3.26,1.82c.89,1.05,1.82,2.34,1.32,3.6-.41,1-1.89.28-2.88.41A16.47,16.47,0,0,1,301,623.18Zm-.79-1.29c1.06,0,2.11,0,3.16,0s1.15-.37.69-1.23a4.6,4.6,0,0,0-7.36-.6c-.36.43-.84.92-.68,1.46.22.74,1,.3,1.46.34C298.39,621.94,299.31,621.89,300.22,621.89Z" transform="translate(-0.03 -323.04)"/><path class="cls-12" d="M834.65,623.18h-3.38c-2,0-2.19.38-1.34,2.18a4.48,4.48,0,0,0,7.54.75c.38-.44.57-1.58,1.52-.86s-.07,1.36-.45,1.82a6.14,6.14,0,0,1-7.48,1.35,6,6,0,0,1-3-6.42,5.9,5.9,0,0,1,5.45-4.77,6,6,0,0,1,6.19,4.07c.53,1.56.06,2-1.48,1.9-1.19-.09-2.39,0-3.58,0Zm3.6-1.29a4.07,4.07,0,0,0-4-3.36,4.2,4.2,0,0,0-4.23,2.19c-.38.65-.56,1.18.54,1.17Z" transform="translate(-0.03 -323.04)"/><path class="cls-12" d="M235.24,623.18h-3.37c-2,0-2.2.38-1.35,2.17a4.47,4.47,0,0,0,7.53.76c.44-.52.77-1.67,1.7-.75.7.7-.21,1.24-.61,1.71a6.17,6.17,0,0,1-7.49,1.35,6,6,0,0,1-3-6.62,5.88,5.88,0,0,1,5.61-4.57,6,6,0,0,1,6.06,4.26c.36,1.27.11,1.83-1.33,1.71-1.26-.1-2.53,0-3.8,0Zm-.67-1.29c1,0,2,0,2.94,0,.39,0,.91.21,1.15-.21s-.18-.93-.42-1.31a4.59,4.59,0,0,0-7-.48c-.44.46-1,1-.85,1.6.22.82,1.07.34,1.64.39C232.88,622,233.73,621.89,234.57,621.89Z" transform="translate(-0.03 -323.04)"/><path class="cls-13" d="M102,621.25c0-2.18,0-4.36,0-6.54,0-1,.25-1.37,1.28-1.29,1.89.13,3.79-.22,5.66.33a3.59,3.59,0,0,1,2.87,3.88,3.47,3.47,0,0,1-3,3.5,15,15,0,0,1-2.28.34c-3,.11-3,.09-3,3.18v3.59c0,.45-.06.83-.65.86s-.82-.3-.81-.89C102,625.89,102,623.57,102,621.25Zm1.45-4.22c0,3.17,0,3.17,2.07,3.17,3.35,0,4.57-.69,4.64-2.65s-1.23-2.67-4.45-2.91C103.32,614.47,103.16,615.6,103.42,617Z" transform="translate(-0.03 -323.04)"/><path class="cls-11" d="M120.6,623.08a6.06,6.06,0,1,1,5.94,6A5.9,5.9,0,0,1,120.6,623.08Zm6.08,4.74a4.61,4.61,0,0,0,4.58-4.78,4.61,4.61,0,1,0-9.21.28A4.59,4.59,0,0,0,126.68,627.82Z" transform="translate(-0.03 -323.04)"/><path class="cls-11" d="M566.15,623.05a6,6,0,1,1-6.15-5.82A5.88,5.88,0,0,1,566.15,623.05Zm-6.07,4.77a4.6,4.6,0,0,0,4.65-4.71,4.61,4.61,0,1,0-9.21.14A4.58,4.58,0,0,0,560.08,627.82Z" transform="translate(-0.03 -323.04)"/><path class="cls-12" d="M402.29,618.8a6.3,6.3,0,0,1,4-1.57,4,4,0,0,1,4.24,3.83c.23,2.37.11,4.78.14,7.17,0,.42,0,.84-.62.87s-.8-.35-.81-.92q0-3-.11-6.11c0-1.86-.59-3.36-2.77-3.54a4,4,0,0,0-4.17,3.39,36.25,36.25,0,0,0-.26,5.89c0,.5.26,1.21-.64,1.28-1.09.08-.8-.74-.81-1.31,0-2.95,0-5.91,0-8.86,0-.57-.56-1.51.62-1.68S401.77,618.27,402.29,618.8Z" transform="translate(-0.03 -323.04)"/><path class="cls-12" d="M581.68,618.73a18.93,18.93,0,0,1,2.12-1.11c3.27-1.25,6,.43,6.31,3.91.16,2.1.07,4.22.06,6.33,0,.49.26,1.21-.68,1.24s-.72-.67-.74-1.18c0-2-.07-3.94-.12-5.91s-.65-3.34-2.82-3.49a4,4,0,0,0-4.09,3.25,33.09,33.09,0,0,0-.29,5.89c0,.53.37,1.39-.7,1.42s-.74-.81-.74-1.35c0-2.89,0-5.77,0-8.66,0-.6-.52-1.52.46-1.8C581.7,616.91,581.29,618.25,581.68,618.73Z" transform="translate(-0.03 -323.04)"/><path class="cls-12" d="M310.9,618.72a9.74,9.74,0,0,1,2.61-1.33,4.27,4.27,0,0,1,5.65,4c.2,2.23.08,4.5.1,6.75,0,.49,0,1-.72,1s-.7-.51-.71-1c0-2-.07-4.07-.13-6.11s-.67-3.33-2.85-3.46a4,4,0,0,0-4.06,3.28,34.58,34.58,0,0,0-.27,6.1c0,.52.18,1.2-.74,1.19s-.71-.66-.72-1.19c0-2.95,0-5.91,0-8.86,0-.6-.53-1.51.49-1.79C310.83,616.91,310.27,618.36,310.9,618.72Z" transform="translate(-0.03 -323.04)"/><path class="cls-12" d="M808.25,618.85a5.9,5.9,0,0,1,4.31-1.62,4.1,4.1,0,0,1,4,4.14c.17,2.24.06,4.51.09,6.76,0,.52,0,1-.73,1s-.71-.53-.71-1c0-2,0-4-.11-5.92-.16-2.62-1-3.54-2.9-3.62a3.93,3.93,0,0,0-4,3.53c-.2,1.88-.17,3.8-.23,5.7,0,.6.2,1.36-.83,1.33s-.64-.77-.64-1.26c0-3-.05-5.92,0-8.89,0-.58-.52-1.52.63-1.69S807.66,618.31,808.25,618.85Z" transform="translate(-0.03 -323.04)"/><path class="cls-13" d="M610.57,618.82c1.85-1.46,3.79-2.18,5.95-1.15s2.45,3.09,2.44,5.21c0,1.55,0,3.1,0,4.65,0,.58.49,1.59-.76,1.54-1.07,0-.61-.94-.63-1.46-.08-1.9,0-3.8-.12-5.7s-.7-3.33-2.92-3.39a3.89,3.89,0,0,0-4,3.33c-.25,1.95-.21,3.94-.32,5.9,0,.55.3,1.39-.8,1.33-.93-.06-.62-.8-.62-1.28,0-3,0-5.92,0-8.88,0-.57-.52-1.53.64-1.67S609.94,618.36,610.57,618.82Z" transform="translate(-0.03 -323.04)"/><path class="cls-11" d="M676.16,621.36c0,1.06-.07,2.12,0,3.17a3.55,3.55,0,0,0,7.08-.15c.08-2,0-3.94.06-5.92,0-.5-.23-1.19.69-1.22s.83.59.82,1.15c-.07,2.31.23,4.65-.22,7-.5,2.5-2.34,3.85-5.05,3.77s-4.48-1.49-4.73-3.92-.14-4.63-.18-7c0-.5,0-1,.74-1s.75.45.74,1v3.17Z" transform="translate(-0.03 -323.04)"/><path class="cls-11" d="M328.48,629.11a6.43,6.43,0,0,1-6.21-4.19,6,6,0,0,1,2.39-6.52,7.08,7.08,0,0,1,8.11.19c.42.35,1.33.72.83,1.44s-1.12.18-1.7-.3a5.14,5.14,0,0,0-7,.31,4.48,4.48,0,0,0,0,6.29,5.22,5.22,0,0,0,6.92.37c.54-.39,1.05-1.29,1.71-.43s-.43,1.18-.88,1.56A6.63,6.63,0,0,1,328.48,629.11Z" transform="translate(-0.03 -323.04)"/><path class="cls-12" d="M539.74,629.11c-3.38,0-5.93-1.78-6.65-4.25a6,6,0,0,1,2.59-6.61c2.49-1.54,6.13-1.32,8.07.51.37.35,1.14.7.62,1.33s-1.06.13-1.59-.28a5.3,5.3,0,0,0-6.6-.3,4.58,4.58,0,0,0-1.47,5.29,5,5,0,0,0,7.24,2.34,4,4,0,0,0,1-.77c.48-.54,1-.59,1.44-.09s-.13.89-.47,1.19A6.86,6.86,0,0,1,539.74,629.11Z" transform="translate(-0.03 -323.04)"/><path class="cls-12" d="M424.68,629.11c-3.42,0-6-1.76-6.73-4.21a6,6,0,0,1,2.56-6.63c2.48-1.55,6.12-1.36,8.08.47.37.35,1.14.7.66,1.33s-1,.18-1.58-.24c-2.8-2.13-6.31-1.62-7.83,1.09a4.52,4.52,0,0,0,.72,5.44,5.3,5.3,0,0,0,6.05.91,4.23,4.23,0,0,0,1.17-.88c.48-.5,1-.65,1.44-.13s-.2,1-.58,1.33A6.84,6.84,0,0,1,424.68,629.11Z" transform="translate(-0.03 -323.04)"/><path class="cls-11" d="M392,629.11a6.34,6.34,0,0,1-6.19-4.22,6.07,6.07,0,0,1,2.57-6.63c2.4-1.53,6.15-1.35,8.1.45.36.33,1.13.7.67,1.34s-1,.22-1.58-.2c-3-2.3-6.9-1.52-8.12,1.62a4.32,4.32,0,0,0,1.3,5.14,5.23,5.23,0,0,0,6.09.46c.69-.4,1.52-1.89,2.19-.76s-.95,1.59-1.79,2.06A6.12,6.12,0,0,1,392,629.11Z" transform="translate(-0.03 -323.04)"/><path class="cls-10" d="M724.88,569c0-.84-.09-1.68-.09-2.53q0-41.51,0-83v-6.74c.69.63.41,1.46.41,2.19q0,43.94,0,87.85C725.19,567.51,725.42,568.32,724.88,569Z" transform="translate(-0.03 -323.04)"/><path class="cls-13" d="M623.28,627.82h5.38c.51,0,1,0,1,.69s-.65.57-1,.57c-2.51,0-5,0-7.87,0l6.51-10.34c-1.66-.47-3.18-.12-4.66-.25-.44,0-1.09.23-1.14-.53s.64-.74,1.17-.74c2.3,0,4.6,0,7.26,0C627.66,620.8,625.6,624.11,623.28,627.82Z" transform="translate(-0.03 -323.04)"/><path class="cls-14" d="M652.37,625.85a3.33,3.33,0,0,1-2.3,3,4.28,4.28,0,0,1-4.16-.76.57.57,0,0,1-.2-.89c.25-.35.52-.66,1-.27a4.31,4.31,0,0,0,.89.56,2.13,2.13,0,0,0,3.07-.88c.66-1.22-.17-2-1.13-2.55-.65-.4-1.36-.73-2-1.13a3.08,3.08,0,0,1-1.58-3.19,2.86,2.86,0,0,1,2.31-2.45,3.8,3.8,0,0,1,3.5,1c.31.25.48.54.2.86s-.49.55-.89.29c-.24-.15-.46-.33-.69-.48-1-.64-2.09-.79-2.79.29-.84,1.28.1,2.06,1.14,2.67.72.43,1.48.81,2.17,1.29A3.05,3.05,0,0,1,652.37,625.85Z" transform="translate(-0.03 -323.04)"/><path class="cls-13" d="M364.57,621.76c0-1.27,0-2.54,0-3.8.08-1.92.37-3.93-2.69-3.27-.45.1-.8-.16-.75-.73s.38-.53.74-.53h7.18a.58.58,0,0,1,.67.6c0,.61-.38.75-.8.66-3.05-.66-2.74,1.34-2.71,3.27.06,3.23,0,6.47,0,9.71,0,.53.39,1.36-.68,1.43s-1-.77-1-1.43C364.57,625.7,364.57,623.73,364.57,621.76Z" transform="translate(-0.03 -323.04)"/><path class="cls-14" d="M825.92,626a3.31,3.31,0,0,1-2.28,2.89,4.28,4.28,0,0,1-4.15-.71c-.3-.21-.5-.51-.22-.89s.53-.66,1-.29a4.46,4.46,0,0,0,1.07.67,2.15,2.15,0,0,0,2.89-1c.6-1.1-.09-1.86-1-2.44s-1.95-1.12-2.83-1.8a2.75,2.75,0,0,1-.81-3.25,3,3,0,0,1,2.58-1.92,4.15,4.15,0,0,1,3.25,1.2.44.44,0,0,1,0,.71c-.23.24-.46.58-.88.32a9.34,9.34,0,0,0-1.23-.77,1.72,1.72,0,0,0-2.37.73,1.56,1.56,0,0,0,.72,2.16c.83.52,1.7,1,2.52,1.52A3.17,3.17,0,0,1,825.92,626Z" transform="translate(-0.03 -323.04)"/><path class="cls-14" d="M281.36,617.18a6.45,6.45,0,0,1,1.43.45c.59.34,1.71.55,1.27,1.48s-1.14,0-1.68-.23c-1.08-.52-2.15-.6-2.77.54s.11,1.86,1,2.43a26.58,26.58,0,0,1,2.84,1.78,2.68,2.68,0,0,1,.81,3.24,3.37,3.37,0,0,1-2.85,2.2,4.31,4.31,0,0,1-3.52-1.06.6.6,0,0,1,0-.93c.24-.25.52-.46.9-.17a5.07,5.07,0,0,0,.87.58,2.13,2.13,0,0,0,3.09-.8c.68-1.18-.1-2-1.07-2.58s-1.73-1-2.52-1.52a2.8,2.8,0,0,1-1-3.39C278.67,617.86,279.81,617.32,281.36,617.18Z" transform="translate(-0.03 -323.04)"/><path class="cls-14" d="M731,629.14a5,5,0,0,1-2.81-.94c-.36-.27-.62-.58-.26-1.05a.66.66,0,0,1,1.06-.15,3.81,3.81,0,0,0,1.26.72,2.11,2.11,0,0,0,2.65-1.15c.48-1-.09-1.75-.93-2.29s-1.7-1-2.51-1.52a2.94,2.94,0,0,1-1.3-3.3,2.86,2.86,0,0,1,2.35-2.15,3.94,3.94,0,0,1,3.49,1.06c.39.3.31.57,0,.85s-.51.48-.9.21a5.56,5.56,0,0,0-1.24-.77,1.7,1.7,0,0,0-2.22.68,1.51,1.51,0,0,0,.58,2.18c.82.53,1.68,1,2.51,1.54,1.29.82,2.1,1.92,1.63,3.52A3.55,3.55,0,0,1,731,629.14Z" transform="translate(-0.03 -323.04)"/><path class="cls-11" d="M497.23,617.18a6.49,6.49,0,0,1,1.44.47c.57.34,1.75.52,1.25,1.49s-1.15,0-1.69-.3c-1.1-.54-2.15-.49-2.74.61s.13,1.83,1.05,2.4a12.43,12.43,0,0,1,3,1.93,3,3,0,0,1-.48,4.57c-1.47,1.1-4.36.89-5.24-.34a.66.66,0,0,1,.05-.92.55.55,0,0,1,.88-.13,4.41,4.41,0,0,0,.88.57,2.18,2.18,0,0,0,3.09-.86c.7-1.25-.18-2-1.1-2.55s-1.72-1-2.51-1.52a2.81,2.81,0,0,1-1-3.4C494.56,617.87,495.71,617.33,497.23,617.18Z" transform="translate(-0.03 -323.04)"/><path class="cls-11" d="M268.48,617.13a8,8,0,0,1,1.59.52c.6.33,1.75.55,1.24,1.51s-1.16-.08-1.69-.33c-1-.47-2-.52-2.63.47s-.08,1.87.83,2.46,1.73,1,2.55,1.51a2.84,2.84,0,0,1,1.36,3.08,3.3,3.3,0,0,1-2.68,2.67,4.26,4.26,0,0,1-3.74-1,.58.58,0,0,1-.09-.91c.23-.27.47-.5.88-.23a5.37,5.37,0,0,0,1.46.8,2.1,2.1,0,0,0,2.63-1.2c.53-1.08-.15-1.73-1-2.25s-1.83-1.06-2.69-1.66a2.83,2.83,0,0,1-1-3.4C265.94,617.85,267.18,617.45,268.48,617.13Z" transform="translate(-0.03 -323.04)"/><path class="cls-7" d="M160.3,573.12c3.09-1.91,5.83-3.58,8.55-5.3.84-.52,1.13-.29,1.52.57,1.54,3.32,1.58,3.34-2,3.93-2,.33-4,.55-6.07.79C161.77,573.17,161.28,573.12,160.3,573.12Z" transform="translate(-0.03 -323.04)"/><path class="cls-14" d="M288.76,623.72c0-1.13,0-2.26,0-3.39,0-1,.22-2.07-1.39-1.83a.56.56,0,0,1-.69-.59c0-.43.25-.72.64-.66,1.76.24,1.43-1,1.43-2V614c0-.49-.07-1,.7-1s.92.45.89,1.09,0,1,0,1.48c-.05,1-.07,1.89,1.37,1.67.49-.07,1,0,.95.74s-.54.6-.93.55c-1.35-.2-1.45.56-1.42,1.62.06,2.54,0,5.08,0,7.62,0,.59.21,1.34-.83,1.34s-.72-.83-.74-1.37c0-1.33,0-2.67,0-4Z" transform="translate(-0.03 -323.04)"/><path class="cls-5" d="M569.73,623.72c0-1.26,0-2.53,0-3.8,0-.68.17-1.5-1-1.42-.43,0-.62-.22-.59-.65s.1-.6.44-.58c1.61.09,1.06-1.11,1.12-1.9a2.37,2.37,0,0,1,3.16-2.29c.42.13.85.25.81.8s-.58.45-1,.41c-1.26-.15-1.54.53-1.6,1.63s.53,1.41,1.52,1.33c.46,0,1.05-.13,1,.68-.06.6-.51.64-.91.57-1.66-.28-1.6.75-1.58,1.89,0,2.47,0,4.94,0,7.4,0,.48.31,1.23-.61,1.28s-.78-.76-.8-1.33c0-1.34,0-2.68,0-4Z" transform="translate(-0.03 -323.04)"/><path class="cls-13" d="M116.17,618.2c.87-.42,1.65-1.08,2.71-1,.41,0,.93.06.93.61a.72.72,0,0,1-.85.7c-2.28-.11-2.85,1.54-3,3.26-.22,2-.15,4.05-.23,6.08,0,.51.22,1.19-.7,1.2s-.75-.65-.75-1.18c0-3.22,0-6.45,0-9.67,0-.39-.14-.87.47-1s1,0,1.07.62v.51Z" transform="translate(-0.03 -323.04)"/><path class="cls-5" d="M843.62,623.82c0-1.19,0-2.39,0-3.59,0-.76.35-1.7-1.07-1.79-.75-.05-.68-1.07-.13-1.1,1.72-.08,1.11-1.27,1.2-2.12a2.35,2.35,0,0,1,3.09-2.17c.42.12.85.27.85.79,0,.68-.51.5-.91.46-1.23-.15-1.54.5-1.62,1.61s.53,1.41,1.5,1.34c.47,0,1.05-.13,1,.67s-.66.62-1.08.57c-1.36-.16-1.43.62-1.41,1.66.05,2.53,0,5.07,0,7.6,0,.58.28,1.37-.79,1.34s-.61-.77-.63-1.25C843.6,626.5,843.62,625.16,843.62,623.82Z" transform="translate(-0.03 -323.04)"/><path class="cls-10" d="M651.14,442.45c5.94-3.33,12.4-4.17,19.08-3.91a29.63,29.63,0,0,1,13.25,3.65,4.47,4.47,0,0,1,2,1.5c-2.44-1.07-4.63-2.71-7.26-3.3a47.59,47.59,0,0,0-14.74-1.12C659.07,439.64,655.24,441.45,651.14,442.45Z" transform="translate(-0.03 -323.04)"/><path class="cls-13" d="M149.8,623.36c0-1.68,0-3.36,0-5.05,0-.38-.16-.9.42-1s1-.11,1,.63.47.33.79.16a6.86,6.86,0,0,1,1.49-.73c.66-.19,1.64-.36,1.78.49s-.83.62-1.41.71c-1.59.24-2.1,1.46-2.39,2.82a38.88,38.88,0,0,0-.3,6.29c0,.51.47,1.39-.63,1.44-1.26,0-.75-1-.78-1.52C149.76,626.17,149.8,624.77,149.8,623.36Z" transform="translate(-0.03 -323.04)"/><path class="cls-13" d="M547.28,623c0-1.54,0-3.08,0-4.63,0-.45-.18-1,.59-1.09.46,0,.84,0,.86.61s.37.54.77.27a5,5,0,0,1,1.27-.7c.72-.22,1.8-.57,2,.34.24,1.06-.9.65-1.51.79a3,3,0,0,0-2.19,2.55c-.56,2.21-.23,4.47-.36,6.7,0,.47.35,1.22-.59,1.29s-.85-.68-.85-1.29C547.27,626.19,547.28,624.58,547.28,623Z" transform="translate(-0.03 -323.04)"/><path class="cls-5" d="M689.35,618.22c.5-.26,1-.55,1.49-.76.73-.3,1.8-.55,2,.27.29,1-.85.67-1.45.81-1.44.32-2,1.42-2.27,2.72-.48,2.16-.21,4.35-.31,6.52,0,.49.3,1.23-.61,1.3-1.07.07-.81-.76-.81-1.32,0-3.1,0-6.19,0-9.29,0-.42-.28-1.05.46-1.2.52-.11,1-.08,1.08.61v.54Z" transform="translate(-0.03 -323.04)"/><path class="cls-14" d="M474.74,621c0-2.17,0-4.35,0-6.52,0-.61-.34-1.56.85-1.52s.69.89.69,1.42q0,6.63,0,13.27c0,.53.35,1.38-.71,1.41s-.82-.93-.83-1.53C474.71,625.4,474.74,623.22,474.74,621Z" transform="translate(-0.03 -323.04)"/><path class="cls-14" d="M710.83,620.92c0,2.32,0,4.64,0,7,0,.51.19,1.2-.71,1.23s-.89-.64-.89-1.29q0-6.75,0-13.5c0-.61-.18-1.35.83-1.33s.74.84.75,1.39C710.85,616.56,710.83,618.74,710.83,620.92Z" transform="translate(-0.03 -323.04)"/><path class="cls-10" d="M700.7,421.05a53.14,53.14,0,0,0-19.57-7.57c-2.36-.36-4.74-.55-7.12-.81,3.52-.52,7,.19,10.34.89,5.19,1.08,9.95,3.35,14.67,5.68A3.15,3.15,0,0,1,700.7,421.05Z" transform="translate(-0.03 -323.04)"/><path class="cls-15" d="M947.44,505.86c0-8.31-.05-16.62,0-24.93,0-1.69-.51-2.14-2.16-2.13-8.17.08-16.34,0-24.51,0,.43-.69,1.13-.45,1.73-.46l23.65,0c.93,0,1.74-.14,1.73,1.33-.07,8.38,0,16.75,0,25.12C947.87,505.19,948,505.67,947.44,505.86Z" transform="translate(-0.03 -323.04)"/><path class="cls-10" d="M724.09,467.36c-1.06-7.81-2.06-15.64-5.05-23-.31-.77-.57-1.57-.86-2.36,1,.23,1.26,1.06,1.48,1.88,1.24,4.66,2.74,9.27,3.59,14C723.81,461,724.7,464.12,724.09,467.36Z" transform="translate(-0.03 -323.04)"/><path class="cls-3" d="M414.92,623.35c0,1.61,0,3.22,0,4.83,0,.55-.07,1-.79.91s-.64-.39-.64-.84c0-3.36,0-6.73,0-10.09,0-.57.11-.95.8-.92s.61.61.62,1.06C414.93,620,414.92,621.66,414.92,623.35Z" transform="translate(-0.03 -323.04)"/><path class="cls-10" d="M570.22,412.63a69.49,69.49,0,0,0-22,4.93c4.68-3,10-3.93,15.34-4.74C565.78,412.49,568,412,570.22,412.63Z" transform="translate(-0.03 -323.04)"/><path class="cls-3" d="M336.89,622.92v-4.65c0-.49-.13-1,.65-1s.76.44.76,1v9.94c0,.54-.08,1-.79.94s-.61-.62-.62-1.08C336.88,626.3,336.89,624.61,336.89,622.92Z" transform="translate(-0.03 -323.04)"/><path class="cls-3" d="M575.63,623c0-1.48,0-3,0-4.44,0-.51-.21-1.2.67-1.27s.72.65.73,1.15c0,3.17,0,6.34,0,9.51,0,.52.16,1.22-.76,1.17s-.65-.76-.65-1.27C575.61,626.19,575.63,624.58,575.63,623Z" transform="translate(-0.03 -323.04)"/><path class="cls-3" d="M530.48,623.38c0,1.48,0,3,0,4.43,0,.51.26,1.22-.65,1.27s-.75-.6-.75-1.16q0-4.75,0-9.51c0-.54-.16-1.21.76-1.16s.61.79.62,1.26C530.5,620.13,530.48,621.76,530.48,623.38Z" transform="translate(-0.03 -323.04)"/><path class="cls-3" d="M275.66,623.26c0,1.54,0,3.09,0,4.64,0,.53.16,1.21-.75,1.18-.76,0-.67-.59-.67-1.05q0-4.86,0-9.72c0-.48-.06-1,.67-1.07,1-.06.73.65.74,1.16,0,1.62,0,3.24,0,4.86Z" transform="translate(-0.03 -323.04)"/><path class="cls-3" d="M850.93,623.35c0,1.55,0,3.1,0,4.64,0,.46.14,1-.62,1.09s-.77-.4-.77-.94q0-4.95,0-9.91c0-.52,0-1,.74-1s.67.57.67,1C850.93,620,850.93,621.67,850.93,623.35Z" transform="translate(-0.03 -323.04)"/><path class="cls-10" d="M559.47,439.83c4.54-1.74,9.24-1.51,13.93-1,1.43.15,3,.12,4.24,1A56.52,56.52,0,0,0,559.47,439.83Z" transform="translate(-0.03 -323.04)"/><path class="cls-10" d="M624.76,434.78l-5.89,8-2.32-5c.94.19,1,1.09,1.35,1.74,1.12,2.08,1.31,2.15,2.69.16,1-1.4,1.34-3.19,2.93-4.17C623.93,435.26,624.24,434.84,624.76,434.78Z" transform="translate(-0.03 -323.04)"/><path class="cls-10" d="M527.89,478a42,42,0,0,1,4.74-16c-.88,2.92-2.41,5.66-2.85,8.7A72.19,72.19,0,0,1,527.89,478Z" transform="translate(-0.03 -323.04)"/><path class="cls-10" d="M700.64,569.58q10.85-.06,21.7-.12c.83,0,1.66-.13,2.5-.2-.26.54-.73.58-1.25.58q-11.07,0-22.16,0A3,3,0,0,1,700.64,569.58Z" transform="translate(-0.03 -323.04)"/><path class="cls-10" d="M598.61,419.45c-3.78-1.86-7.7-3.37-11.63-4.88A25.06,25.06,0,0,1,598.61,419.45Z" transform="translate(-0.03 -323.04)"/><path class="cls-10" d="M596.86,461.32a60,60,0,0,1,1.45,13.29.84.84,0,0,1-.52-.83C598,469.59,596.87,465.5,596.86,461.32Z" transform="translate(-0.03 -323.04)"/><path class="cls-10" d="M696.68,463.21a56.43,56.43,0,0,1,1,12.24c-.8-2.17-.51-4.48-.76-6.72C696.72,466.93,695.82,465.08,696.68,463.21Z" transform="translate(-0.03 -323.04)"/><path class="cls-10" d="M586.34,414.45a79.87,79.87,0,0,0-13.06-1.82A25.73,25.73,0,0,1,586.34,414.45Z" transform="translate(-0.03 -323.04)"/><path class="cls-10" d="M656.87,414.44c-4,1.22-7.82,2.74-11.67,4.29A28.76,28.76,0,0,1,656.87,414.44Z" transform="translate(-0.03 -323.04)"/><path class="cls-10" d="M544.83,447.08a24.43,24.43,0,0,1,9.35-5.51Z" transform="translate(-0.03 -323.04)"/><path class="cls-10" d="M718.09,441.67q-2.48-4.28-4.93-8.55A17.61,17.61,0,0,1,718.09,441.67Z" transform="translate(-0.03 -323.04)"/><path class="cls-10" d="M614.78,434.58,609,427.19A17.27,17.27,0,0,1,614.78,434.58Z" transform="translate(-0.03 -323.04)"/><path class="cls-10" d="M685.43,443.68a15.71,15.71,0,0,1,6.78,6.79Z" transform="translate(-0.03 -323.04)"/><path class="cls-10" d="M668,412.69c-3.7.37-7.35,1-11,1.72A23,23,0,0,1,668,412.69Z" transform="translate(-0.03 -323.04)"/><path class="cls-10" d="M537.82,453.9a19.19,19.19,0,0,1,6.21-6.21c-.43,1.68-2.16,2.07-3.19,3.16S539.43,453.5,537.82,453.9Z" transform="translate(-0.03 -323.04)"/><path class="cls-11" d="M380.17,612.33c-1.46,1.12-2,3.14-4.55,3.25C377.09,614.06,377.23,611.55,380.17,612.33Z" transform="translate(-0.03 -323.04)"/><path class="cls-10" d="M626.61,482.64a37.18,37.18,0,0,1,1.59-9.93A51.38,51.38,0,0,1,626.61,482.64Z" transform="translate(-0.03 -323.04)"/><path class="cls-10" d="M629.11,469.1a24,24,0,0,1,3.45-8.62A60.54,60.54,0,0,1,629.11,469.1Z" transform="translate(-0.03 -323.04)"/><path class="cls-10" d="M608,426.2l-6.83-5.33C603.58,422.41,606.38,423.52,608,426.2Z" transform="translate(-0.03 -323.04)"/><path class="cls-10" d="M692.2,450.46a14.22,14.22,0,0,1,3.33,7.22Z" transform="translate(-0.03 -323.04)"/><path class="cls-14" d="M336.31,614.25c.08-.72.46-1.22,1.19-1.22a1.12,1.12,0,0,1,1.23,1.16,1.17,1.17,0,0,1-1.28,1.34C336.71,615.5,336.37,615,336.31,614.25Z" transform="translate(-0.03 -323.04)"/><path class="cls-14" d="M276.09,614.35a1.17,1.17,0,0,1-1.2,1.19,1.12,1.12,0,0,1-1.18-1.21c0-.79.41-1.39,1.28-1.31A1.17,1.17,0,0,1,276.09,614.35Z" transform="translate(-0.03 -323.04)"/><path class="cls-14" d="M415.37,614.43a1.15,1.15,0,0,1-1.23,1.1,1.12,1.12,0,0,1-1.18-1.22c0-.8.47-1.39,1.32-1.29A1.24,1.24,0,0,1,415.37,614.43Z" transform="translate(-0.03 -323.04)"/><path class="cls-14" d="M529.66,613c.79.15,1.31.56,1.27,1.38a1.22,1.22,0,1,1-2.43-.17A1.24,1.24,0,0,1,529.66,613Z" transform="translate(-0.03 -323.04)"/><path class="cls-14" d="M577.49,614.35c-.08.7-.45,1.19-1.2,1.18a1.13,1.13,0,0,1-1.21-1.19,1.17,1.17,0,0,1,1.3-1.32A1.18,1.18,0,0,1,577.49,614.35Z" transform="translate(-0.03 -323.04)"/><path class="cls-14" d="M851.38,614.35a1.17,1.17,0,0,1-1.22,1.18,1.15,1.15,0,0,1-1.2-1.4,1.13,1.13,0,0,1,1.31-1.09A1.18,1.18,0,0,1,851.38,614.35Z" transform="translate(-0.03 -323.04)"/><path class="cls-10" d="M594.42,453.85a16.19,16.19,0,0,1,2.39,7.23Q595.61,457.47,594.42,453.85Z" transform="translate(-0.03 -323.04)"/><path class="cls-10" d="M526.8,486a48.84,48.84,0,0,1,.86-7.14A12.5,12.5,0,0,1,526.8,486Z" transform="translate(-0.03 -323.04)"/><path class="cls-10" d="M724.75,475.51c-.63-2.37-.38-4.81-.61-7.22,1.26,1.37.43,3,.62,4.54A20,20,0,0,1,724.75,475.51Z" transform="translate(-0.03 -323.04)"/><path class="cls-10" d="M643.15,447.54a14.93,14.93,0,0,1,5-3.41C646.69,445.57,645.29,447.1,643.15,447.54Z" transform="translate(-0.03 -323.04)"/><path class="cls-10" d="M533.56,460.2a12.85,12.85,0,0,1,3.3-5.09A25.64,25.64,0,0,1,533.56,460.2Z" transform="translate(-0.03 -323.04)"/><path class="cls-10" d="M539.41,422.15a32.69,32.69,0,0,1-5.12,3.78A14.91,14.91,0,0,1,539.41,422.15Z" transform="translate(-0.03 -323.04)"/><path class="cls-10" d="M585.5,443.47a8.48,8.48,0,0,1,3.84,3.19A9.1,9.1,0,0,1,585.5,443.47Z" transform="translate(-0.03 -323.04)"/><path class="cls-10" d="M578.73,440.08c1.8.57,3.65,1,5.09,2.35A12.23,12.23,0,0,1,578.73,440.08Z" transform="translate(-0.03 -323.04)"/><path class="cls-10" d="M636.25,454.77a7.45,7.45,0,0,1,3-3.49A9,9,0,0,1,636.25,454.77Z" transform="translate(-0.03 -323.04)"/><path class="cls-10" d="M554.16,441.58a10.32,10.32,0,0,1,4.67-1.64A13.63,13.63,0,0,1,554.16,441.58Z" transform="translate(-0.03 -323.04)"/><path class="cls-10" d="M633.37,426.36a7.39,7.39,0,0,1-3,2.57C631.19,427.86,631.89,426.66,633.37,426.36Z" transform="translate(-0.03 -323.04)"/><path class="cls-10" d="M591.87,449.58a7.52,7.52,0,0,1,2.54,4.27Z" transform="translate(-0.03 -323.04)"/><path class="cls-10" d="M639.37,422.05a15.66,15.66,0,0,1-3.89,2.65A9.15,9.15,0,0,1,639.37,422.05Z" transform="translate(-0.03 -323.04)"/><path class="cls-10" d="M695.83,458.57a7,7,0,0,1,.6,3.34C695.87,460.86,695.31,459.81,695.83,458.57Z" transform="translate(-0.03 -323.04)"/><path class="cls-10" d="M630,429.32a7.71,7.71,0,0,1-2.55,2.53C627.63,430.37,628.71,429.76,630,429.32Z" transform="translate(-0.03 -323.04)"/><path class="cls-10" d="M709.14,428.17a5.09,5.09,0,0,1-2.15-2.23A2.45,2.45,0,0,1,709.14,428.17Z" transform="translate(-0.03 -323.04)"/><path class="cls-10" d="M706.56,425.54a8.57,8.57,0,0,1-3-2.54A6.4,6.4,0,0,1,706.56,425.54Z" transform="translate(-0.03 -323.04)"/><path class="cls-10" d="M530.58,429.29c-.54.71-1,1.55-1.85,1.91A1.88,1.88,0,0,1,530.58,429.29Z" transform="translate(-0.03 -323.04)"/><path class="cls-10" d="M545.44,418.79a6.59,6.59,0,0,1-2.69,1.45C543.15,418.84,544.42,419,545.44,418.79Z" transform="translate(-0.03 -323.04)"/><path class="cls-10" d="M616.41,437.35a5.69,5.69,0,0,1-1.53-2.57C615.92,435.32,616.14,436.35,616.41,437.35Z" transform="translate(-0.03 -323.04)"/><path class="cls-10" d="M711.3,430.68a4.72,4.72,0,0,1-1.83-2.19A2.9,2.9,0,0,1,711.3,430.68Z" transform="translate(-0.03 -323.04)"/><path class="cls-10" d="M526.64,489.43a5.16,5.16,0,0,1,.13-2.53A2,2,0,0,1,526.64,489.43Z" transform="translate(-0.03 -323.04)"/><path class="cls-10" d="M633,459.79a4.54,4.54,0,0,1,1.62-2.62A7,7,0,0,1,633,459.79Z" transform="translate(-0.03 -323.04)"/><path class="cls-10" d="M634.53,457.21a3.92,3.92,0,0,1,1.42-2.06A2,2,0,0,1,634.53,457.21Z" transform="translate(-0.03 -323.04)"/><path class="cls-10" d="M628.32,472.05a4.34,4.34,0,0,1,.73-2.67A3.81,3.81,0,0,1,628.32,472.05Z" transform="translate(-0.03 -323.04)"/><path class="cls-10" d="M589.33,446.64a2.64,2.64,0,0,1,1.62,1.75C590,448.17,589.79,447.3,589.33,446.64Z" transform="translate(-0.03 -323.04)"/><path class="cls-10" d="M541.56,420.88a3.65,3.65,0,0,1-2.18,1.29A3.1,3.1,0,0,1,541.56,420.88Z" transform="translate(-0.03 -323.04)"/><path class="cls-10" d="M642.7,420a2.76,2.76,0,0,1-1.74,1.1C641.21,420.24,641.94,420.11,642.7,420Z" transform="translate(-0.03 -323.04)"/><path class="cls-10" d="M641.37,449.2a1.81,1.81,0,0,1,1.31-1.23A1.18,1.18,0,0,1,641.37,449.2Z" transform="translate(-0.03 -323.04)"/><path class="cls-10" d="M547.58,417.82a2.74,2.74,0,0,1-1.85.85C546.09,417.84,546.87,417.9,547.58,417.82Z" transform="translate(-0.03 -323.04)"/><path class="cls-10" d="M648.94,443.67a3.48,3.48,0,0,1,2.19-1.22A5.34,5.34,0,0,1,648.94,443.67Z" transform="translate(-0.03 -323.04)"/><path class="cls-10" d="M532.74,427.25a4.42,4.42,0,0,1-1.82,1.69A3,3,0,0,1,532.74,427.25Z" transform="translate(-0.03 -323.04)"/><path class="cls-10" d="M635.5,424.68a2.82,2.82,0,0,1-1.71,1.33C634,425.14,634.83,425,635.5,424.68Z" transform="translate(-0.03 -323.04)"/><path class="cls-10" d="M645.19,418.74a1.53,1.53,0,0,1-1.29.7A1.45,1.45,0,0,1,645.19,418.74Z" transform="translate(-0.03 -323.04)"/><path class="cls-10" d="M583.82,442.43a1.5,1.5,0,0,1,1.3.84A1.22,1.22,0,0,1,583.82,442.43Z" transform="translate(-0.03 -323.04)"/><path class="cls-10" d="M627.41,431.86a1.94,1.94,0,0,1-1.25,1.3A2.31,2.31,0,0,1,627.41,431.86Z" transform="translate(-0.03 -323.04)"/><path class="cls-10" d="M639.22,451.3c.13-.49.34-.9.91-1A1.14,1.14,0,0,1,639.22,451.3Z" transform="translate(-0.03 -323.04)"/><path class="cls-10" d="M532.67,461.93a1.6,1.6,0,0,1,.75-1.35A1.34,1.34,0,0,1,532.67,461.93Z" transform="translate(-0.03 -323.04)"/><path class="cls-10" d="M702,421.94a1.11,1.11,0,0,1-1-.74C701.44,421.27,701.88,421.37,702,421.94Z" transform="translate(-0.03 -323.04)"/><path class="cls-10" d="M599.91,420.17a1,1,0,0,1-.92-.56C599.43,419.57,599.79,419.68,599.91,420.17Z" transform="translate(-0.03 -323.04)"/><path class="cls-10" d="M534.28,425.93a.92.92,0,0,1-.83.75Z" transform="translate(-0.03 -323.04)"/><path class="cls-10" d="M591,448.42a.75.75,0,0,1,.62.8C591.17,449.14,591,448.83,591,448.42Z" transform="translate(-0.03 -323.04)"/><path class="cls-10" d="M712.92,432.73a1,1,0,0,1-.68-.84Z" transform="translate(-0.03 -323.04)"/><path class="cls-10" d="M640.45,450a1.24,1.24,0,0,1,.93-.83A1.14,1.14,0,0,1,640.45,450Z" transform="translate(-0.03 -323.04)"/><path class="cls-10" d="M702.74,422.44c-.34.11-.44-.14-.53-.38Z" transform="translate(-0.03 -323.04)"/><path class="cls-10" d="M640.58,421.29a.88.88,0,0,1-.89.57Z" transform="translate(-0.03 -323.04)"/><path class="cls-10" d="M528.48,431.37c-.09.27-.18.51-.52.52Z" transform="translate(-0.03 -323.04)"/><path class="cls-10" d="M643.7,419.52c-.13.22-.28.39-.58.3Z" transform="translate(-0.03 -323.04)"/><path class="cls-10" d="M648.16,444.13a.89.89,0,0,1,.82-.5A.74.74,0,0,1,648.16,444.13Z" transform="translate(-0.03 -323.04)"/><path class="cls-10" d="M700.46,569.45c0-.26,0-.24,0,0Z" transform="translate(-0.03 -323.04)"/><path class="cls-10" d="M625.05,434.44c.09.21,0,.25-.2.25A.82.82,0,0,1,625.05,434.44Z" transform="translate(-0.03 -323.04)"/><path class="cls-10" d="M528,431.88l-.43.45Z" transform="translate(-0.03 -323.04)"/><path class="cls-10" d="M608.74,426.93l-.53-.52A.59.59,0,0,1,608.74,426.93Z" transform="translate(-0.03 -323.04)"/><polygon class="cls-10" points="711.55 108.05 711.46 108.1 711.51 107.99 711.55 108.05"/><path class="cls-10" d="M707,425.94l-.45-.41Z" transform="translate(-0.03 -323.04)"/><path class="cls-10" d="M626.18,433.15l-.44.45Z" transform="translate(-0.03 -323.04)"/><path class="cls-1" d="M320.68,438.34c31.26-.12,51.05,23.76,53.71,46.12,1.92,16.22-.64,31.25-11.15,44.18-8.92,11-20.71,17.23-34.65,19.16-29.8,4.12-55.28-16.41-60.38-45.67-4.69-26.94,11.82-54.78,39.08-62,1.76-.46,3.56-.81,5.36-1.13A59.78,59.78,0,0,1,320.68,438.34Z" transform="translate(-0.03 -323.04)"/><path class="cls-16" d="M141.13,627.82a4.46,4.46,0,0,1-4.72-4.32,4.74,4.74,0,0,1,4.8-5,4.5,4.5,0,0,1,4.45,4.61A4.38,4.38,0,0,1,141.13,627.82Z" transform="translate(-0.03 -323.04)"/><path class="cls-10" d="M780.17,624.37c.7-1.13-1.23-3.51,1.93-3.35,2.93.14,4.55,1.29,4.51,3.55s-1.41,3.14-4.45,3.29C778.81,628,780.92,625.51,780.17,624.37Z" transform="translate(-0.03 -323.04)"/><path class="cls-10" d="M780.27,617.33c.18-1.18-.7-2.9,1.73-2.66,1.63.16,3.2.19,3.33,2.32.1,1.71-1.27,2.65-3.46,2.81C779.51,620,780.51,618.3,780.27,617.33Z" transform="translate(-0.03 -323.04)"/><path class="cls-16" d="M219.46,618.52a4.64,4.64,0,0,1,.14,9.28,4.64,4.64,0,1,1-.14-9.28Z" transform="translate(-0.03 -323.04)"/><path class="cls-16" d="M748.6,618.53a4.64,4.64,0,0,1,.14,9.27,4.64,4.64,0,1,1-.14-9.27Z" transform="translate(-0.03 -323.04)"/><path class="cls-10" d="M663.07,617c-.11-1.17-.35-2.57,2.18-2.38,3.31.25,4.52.74,4.58,2.72s-1.16,2.84-4,2.84S663.08,620.21,663.07,617Z" transform="translate(-0.03 -323.04)"/><path class="cls-10" d="M255.92,616.85c.84,1.72,1.59,3.22,2.31,4.73.08.16,0,.4,0,.67h-4.77A23.6,23.6,0,0,1,255.92,616.85Z" transform="translate(-0.03 -323.04)"/><path class="cls-16" d="M346.83,627.82a4.71,4.71,0,0,1-4.63-4.77,4.63,4.63,0,0,1,4.83-4.53,4.65,4.65,0,0,1-.2,9.3Z" transform="translate(-0.03 -323.04)"/><path class="cls-16" d="M442.89,623.25a4.48,4.48,0,0,1-4.5,4.57,4.7,4.7,0,0,1-4.75-4.65,4.62,4.62,0,0,1,4.7-4.65A4.47,4.47,0,0,1,442.89,623.25Z" transform="translate(-0.03 -323.04)"/><path class="cls-16" d="M641.84,623.15a4.46,4.46,0,0,1-4.6,4.67,4.7,4.7,0,0,1-4.63-4.75,4.63,4.63,0,0,1,4.58-4.55A4.48,4.48,0,0,1,641.84,623.15Z" transform="translate(-0.03 -323.04)"/><path class="cls-16" d="M603.75,623.09a4.45,4.45,0,0,1-4.56,4.72,4.65,4.65,0,1,1,.06-9.29A4.47,4.47,0,0,1,603.75,623.09Z" transform="translate(-0.03 -323.04)"/><path class="cls-16" d="M464.05,623.25a4.46,4.46,0,0,1-4.71,4.56,4.65,4.65,0,0,1,.17-9.29A4.47,4.47,0,0,1,464.05,623.25Z" transform="translate(-0.03 -323.04)"/><path class="cls-16" d="M489.45,623.26a4.48,4.48,0,0,1-4.72,4.56,4.65,4.65,0,0,1,.18-9.3A4.48,4.48,0,0,1,489.45,623.26Z" transform="translate(-0.03 -323.04)"/><path class="cls-16" d="M801.43,623.26a4.44,4.44,0,0,1-4.5,4.56,4.72,4.72,0,0,1-4.75-4.65,4.64,4.64,0,0,1,4.71-4.65A4.47,4.47,0,0,1,801.43,623.26Z" transform="translate(-0.03 -323.04)"/><path class="cls-16" d="M202.87,623.3a4.44,4.44,0,0,1-4.55,4.51,4.72,4.72,0,0,1-4.7-4.68,4.62,4.62,0,0,1,4.75-4.61A4.46,4.46,0,0,1,202.87,623.3Z" transform="translate(-0.03 -323.04)"/><path class="cls-16" d="M704.91,623.26a4.46,4.46,0,0,1-4.51,4.55,4.65,4.65,0,1,1,0-9.3A4.47,4.47,0,0,1,704.91,623.26Z" transform="translate(-0.03 -323.04)"/><path class="cls-16" d="M167.31,623.3a4.46,4.46,0,0,1-4.55,4.52,4.78,4.78,0,0,1-4.72-4.69,4.7,4.7,0,0,1,4.77-4.62A4.49,4.49,0,0,1,167.31,623.3Z" transform="translate(-0.03 -323.04)"/><path class="cls-10" d="M381.44,621.89c-2.63,0-5,0-7.37,0-1.31,0-1.24-.5-.71-1.34a4.46,4.46,0,0,1,8.08,1.32Z" transform="translate(-0.03 -323.04)"/><path class="cls-10" d="M763.71,621.89c-.84,0-1.69.06-2.52,0-.56,0-1.41.44-1.64-.38-.16-.6.42-1.15.85-1.61a4.59,4.59,0,0,1,7,.48c.25.38.74.79.43,1.31s-.76.2-1.15.21C765.68,621.91,764.7,621.89,763.71,621.89Z" transform="translate(-0.03 -323.04)"/><path class="cls-10" d="M724.06,621.89c-2.74,0-5.19,0-7.64,0-1.23,0-1.07-.55-.61-1.28a4.21,4.21,0,0,1,4.06-2.11C721.88,618.64,723.25,619.62,724.06,621.89Z" transform="translate(-0.03 -323.04)"/><path class="cls-10" d="M300.22,621.89c-.91,0-1.83.05-2.73,0-.5,0-1.24.4-1.46-.34-.16-.54.32-1,.68-1.46a4.6,4.6,0,0,1,7.36.6c.46.86.44,1.28-.69,1.23S301.28,621.89,300.22,621.89Z" transform="translate(-0.03 -323.04)"/><path class="cls-16" d="M838.25,621.89H830.6c-1.1,0-.92-.52-.54-1.17a4.2,4.2,0,0,1,4.23-2.19A4.07,4.07,0,0,1,838.25,621.89Z" transform="translate(-0.03 -323.04)"/><path class="cls-16" d="M234.57,621.89c-.84,0-1.69.06-2.52,0-.57,0-1.42.43-1.64-.39-.15-.58.41-1.14.85-1.6a4.59,4.59,0,0,1,7,.48c.24.38.71.81.42,1.31s-.76.2-1.15.21C236.53,621.91,235.55,621.89,234.57,621.89Z" transform="translate(-0.03 -323.04)"/><path class="cls-10" d="M103.42,617c-.26-1.43-.1-2.56,2.26-2.39,3.22.24,4.51.88,4.45,2.91s-1.29,2.66-4.64,2.65C103.42,620.2,103.42,620.2,103.42,617Z" transform="translate(-0.03 -323.04)"/><path class="cls-10" d="M126.68,627.82a4.59,4.59,0,0,1-4.63-4.5,4.61,4.61,0,1,1,9.21-.28A4.61,4.61,0,0,1,126.68,627.82Z" transform="translate(-0.03 -323.04)"/><path class="cls-10" d="M560.08,627.82a4.58,4.58,0,0,1-4.56-4.57,4.61,4.61,0,1,1,9.21-.14A4.6,4.6,0,0,1,560.08,627.82Z" transform="translate(-0.03 -323.04)"/><path class="cls-1" d="M116.17,618.2l-.38.19v-.51Z" transform="translate(-0.03 -323.04)"/><path class="cls-1" d="M689.35,618.22l-.39.2v-.54Z" transform="translate(-0.03 -323.04)"/></svg>