<svg id="Capa_1" data-name="Capa 1" xmlns="http://www.w3.org/2000/svg" viewBox="0 0 1000 1000"><defs><style>.cls-1{fill:#fdc331;}.cls-2{fill:#6c2c73;}.cls-3{fill:#fff;}</style></defs><rect class="cls-1" width="1000" height="1000" rx="110"/><rect class="cls-2" x="37.5" y="37.5" width="925" height="925" rx="101.75"/><path class="cls-3" d="M269.7,805.34v103.3H239.34V805.34Z" transform="translate(-0.33 0.44)"/><path class="cls-3" d="M279.84,908.64V805.34h36.22c10.87,23.27,26.61,54.7,30.95,67.43h.51c-1.15-10.73-1.41-29-1.41-45.45v-22H373.7v103.3H339.18c-8.76-18.7-27.45-57.46-32.3-71.09h-.41c1,9.71,1,29.71,1,47.9v23.19Z" transform="translate(-0.33 0.44)"/><path class="cls-3" d="M383.79,908.64V805.34H420c10.87,23.27,26.6,54.7,30.95,67.43h.51c-1.15-10.73-1.41-29-1.41-45.45v-22h27.58v103.3H443.13c-8.76-18.7-27.45-57.46-32.3-71.09h-.41c1,9.71,1.05,29.71,1.05,47.9v23.19Z" transform="translate(-0.33 0.44)"/><path class="cls-3" d="M587.62,856.9c0,29.22-17.6,53.66-53,53.66-34.75,0-51.54-24.28-51.54-53.51,0-29.73,18.42-53.63,53.09-53.63C568.75,803.42,587.62,826,587.62,856.9Zm-73.31-.3c0,19,6.3,32.16,21.28,32.16,15.74,0,20.92-14,20.92-31.61,0-18.85-5.5-31.92-21.32-31.92C520.49,825.23,514.31,837.37,514.31,856.6Z" transform="translate(-0.33 0.44)"/><path class="cls-3" d="M614.92,908.64l-35.36-103.3h32.16l12.75,44.38c4,13.77,6.38,23.32,8.73,34.86h.46c2-10.69,4.64-20.28,8.92-34.56l13.18-44.68h31l-36.16,103.3Z" transform="translate(-0.33 0.44)"/><path class="cls-3" d="M701,888.55l-6,20.09H665.57l32.65-103.3H737.4l33.94,103.3H739.73l-6.27-20.09Zm27.11-22.43c-4.86-16.23-8.83-30.66-11.17-40.74h-.41c-2.39,11.14-6.34,25.88-10.53,40.74Z" transform="translate(-0.33 0.44)"/><circle class="cls-1" cx="528.49" cy="474.04" r="186.19"/><path class="cls-1" d="M528.82,206.67c-147.42,0-266.93,119.51-266.93,266.93S381.4,740.53,528.82,740.53,795.75,621,795.75,473.6,676.24,206.67,528.82,206.67Zm0,477.45c-116.27,0-210.53-94.25-210.53-210.52s94.26-210.53,210.53-210.53S739.34,357.33,739.34,473.6,645.09,684.12,528.82,684.12Z" transform="translate(-0.33 0.44)"/><path class="cls-3" d="M587,434.26c-76.24-52.82-218-117.88-276.1-75.66C270.56,387.91,255.2,442.68,263.78,505c-35.53-86-31.67-167.24,16.28-202,64-46.47,256.38,73.22,300.13,123.19Q583.74,430.16,587,434.26Z" transform="translate(-0.33 0.44)"/><path class="cls-3" d="M471.16,513.77c77.95,50.28,221.75,110.62,278.46,66.5C789,549.65,802.54,494.4,791.9,432.42c38.36,84.79,37.18,166.1-9.59,202.48-62.42,48.56-258.66-64.71-304-113.2C475.82,519.08,473.44,516.43,471.16,513.77Z" transform="translate(-0.33 0.44)"/><circle class="cls-3" cx="198.86" cy="235.53" r="83.01"/></svg>