<svg id="Capa_1" data-name="Capa 1" xmlns="http://www.w3.org/2000/svg" xmlns:xlink="http://www.w3.org/1999/xlink" viewBox="0 0 1000 474.28"><defs><style>.cls-1{fill:url(#Degradado_sin_nombre_11);}.cls-2,.cls-3{fill:#43973a;}.cls-3{font-size:207.61px;font-family:BaskOldFace, Baskerville Old Face;}.cls-4{letter-spacing:0.13em;}.cls-5{letter-spacing:0.1em;}.cls-6{font-size:138.41px;}</style><linearGradient id="Degradado_sin_nombre_11" y1="396.6" x2="804.88" y2="396.6" gradientUnits="userSpaceOnUse"><stop offset="0" stop-color="#43973a"/><stop offset="1" stop-color="#fff"/></linearGradient></defs><path class="cls-1" d="M0,308.63s33.94-9.75,45-23.8c16.06-20.48,45.87-6.39,56.86,2.65,67.33,55.37,149.83,43.89,149.83,43.89S229.32,354.92,213.78,365c-27.35,17.75-54.88,36.53-54.88,36.53s26-5.67,58.35-30.09c100.83-76.2,123.48-86.61,123.48-86.61s74.7-44.68,139.29-6.61c182.48,107.55,324.86,102.7,324.86,102.7s-111.48,53.36-314.73-52C382.6,273.15,290,340.15,290,340.15L82.43,475.69S23.36,440.54,25.12,425c8.24-72.57,91.11-12.54,84.64,1.76-.82,1.81,7.93.44,7.93.44l-4-40.11-10.58-.44-.22,5.29s-60-21.54-82.2-.88c-36.7,34.11-8.32,65.27-7.06,67,9.87,13.55,41.44,35.7,41.44,35.7L0,530.35Z" transform="translate(0 -262.86)"/><path class="cls-2" d="M82.43,475.69s60.71,37.22,31.95,91c-13.66,25.57-54.87,23.14-54.87,23.14-16.31,1.55-45.85-10.79-45.85-10.79v6.17L5.51,585,0,537s37,71.19,89,32.84c41.73-30.77-33.94-76-33.94-76Z" transform="translate(0 -262.86)"/><text class="cls-3" transform="translate(155.38 299.45)">IER<tspan class="cls-4" x="338.48" y="0">R</tspan><tspan class="cls-5" x="499.89" y="0">AS</tspan><tspan x="792.72" y="0"> </tspan><tspan class="cls-6"><tspan x="207.61" y="138.41">VERDES</tspan></tspan></text></svg>