<svg id="Capa_1" data-name="Capa 1" xmlns="http://www.w3.org/2000/svg" viewBox="0 0 998.85 402.78"><defs><style>.cls-1{fill:#0a552e;}.cls-2{fill:#fff;}.cls-3{fill:#e6f2f1;}.cls-4{fill:#164b31;}.cls-5{fill:#ee761c;}.cls-6{fill:#ed771c;}.cls-7{fill:#fbfcfc;}.cls-8{fill:#fdfdfd;}.cls-9{fill:#e9781d;}.cls-10{fill:#f7f9f7;}.cls-11{fill:#df7d21;}.cls-12{fill:#125631;}.cls-13{fill:#040404;}.cls-14{fill:#fef7e8;}.cls-15{fill:#ffefd1;}.cls-16{fill:#ee7c24;}</style></defs><path class="cls-1" d="M.68,643.55v-343H999.37v343H.68ZM781.36,339c-30.05,0-60.09,0-90.14-.22-4,0-4.48,1.23-4.47,4.69.12,38.47.08,77,.08,115.42,0,13.94,0,27.88,0,41.82,0,2.11.21,3.28,2.87,3.28q46.55-.14,93.09,0c2.41,0,2.73-1,2.67-3a89.41,89.41,0,0,1,0-10.86c.32-3.52-.88-4.39-4.38-4.36-22.6.17-45.21.1-67.81.11-2.09,0-4,.51-3.95-3,.2-18,.14-36,0-53.95,0-2.36.64-3,3-3,7.86.14,15.73,0,23.59,0,12.78,0,25.56,0,38.33-.05,1.14,0,3.37,1,3.28-1.25-.2-5.46,1.11-11-.71-16.38-1.47-2.87-3.73-.56-5.46-.58-16.68-.23-33.37-.16-50.05-.12a52.29,52.29,0,0,1-7.9-.75c-2.26-.34-3.26-1.22-3.19-3.45.4-13.33-.78-26.69.63-40,.56-5.27,1.2-5.88,6.82-6,.84,0,1.68,0,2.52,0,12.76,0,25.52-.08,38.28,0,5.57.05,11.13-.34,16.73.66s7.5-1,7.5-6.45c0-3.2,0-6.4,0-9.61C782.75,340.84,783.12,339.41,781.36,339ZM329.19,512.84a154.26,154.26,0,0,1-18.29-18.33c-9.53-11.18-14.47-23.35-11.51-38.44a55.19,55.19,0,0,0-.39-24.45c-1.31-5.07-4.11-8.23-9.35-9.56a138.09,138.09,0,0,1-26-9.5c-6.37-3.09-11-7.52-12.31-14.79-1.44-7.92-3.08-15.81-4.61-23.73s-5.44-13.75-13.38-16.44c-17.88-6.08-36.4-9.78-55.16-10-43.38-.47-86.77-.49-130.16.45-4.3.09-5.36,1.12-5.35,5.32q.2,102.92.12,205.83c0,1.45-.45,3,.72,4.5,1.9-.71,2.05-2.49,2.68-3.94,4-9.37,9.05-18.17,18.49-23,3.82-2,5.52-4.47,5.76-8.31.35-5.44,1.83-10.38,5.61-14.47,1.8-2,3.56-4,5.45-5.81,10.66-10.51,24.66-12.07,36.6-3.2,4.63,3.45,8.25,3,12.63.69a37.2,37.2,0,0,0,7.36-4.79c8-7,14.6-15.44,21.56-23.43,8.31-9.55,16.9-18.92,22.58-30.52,4.37-8.93,17.49-15.1,27.13-12.59,12.77,3.32,24.35,9.26,33.42,19.08,3.54,3.83,6.07,8.4,5.7,14-.15,2.15.76,3.19,2.9,3.84a67.78,67.78,0,0,1,17.49,8.07c10.71,6.94,19.14,15.56,20.12,29.14.15,2.1,1.08,2.79,3.1,3A229.88,229.88,0,0,0,329.19,512.84Zm123.23-84.72c-.46-1.77-2-2.37-3.14-3.25A15.26,15.26,0,0,1,443,412.69a32.25,32.25,0,0,1,1-9.51c2-8,7-17.7,18.29-18.76,10-.94,19.9-.57,29.44,3.08a14.43,14.43,0,0,1,5.81,4c1.2,1.37,1.71,2.79.84,4.59a3.94,3.94,0,0,1-4.12,2.23,14.32,14.32,0,0,1-2.9-.44c-7.5-1.8-15-3.5-22.83-2.74s-14,6.38-14.27,13c-.18,4.16,6.73,12.54,11.43,13.38,9.31,1.66,18.74,1.56,28.11.74a42.13,42.13,0,0,0,16.47-4.61c10-5.42,13.87-15.85,9.5-26.28-3.51-8.36-10.52-12.66-18.72-15.55-6.28-2.21-13-1.67-19.4-3.31-9.33-2.39-18.63-5.08-25.25-12.42-9-10-20.06-16.78-31.8-22.87-8.37-4.35-17.06-7-26.6-6.31-7.7.52-15.39,1.17-23.09,1.34-7.15.16-13.85,1.46-20.18,4.9-5.16,2.8-10.57,5.14-15.82,7.78-8.29,4.17-16.91,6.73-26.32,5.69-6-.67-12-1.36-17.94-2.17-10.21-1.38-11.74-.63-12,9.33-.27,9.26,2,18.41,15.51,19.84,7.66.81,15.32,1.55,23,2.3,3.84.38,6,3.17,5.62,7.72-.29,3.44-2.22,5.12-5.9,5-8.78-.3-17.06-2.89-25.53-4.8-8.67-2-14.69-6.41-17.58-14.84-.27-.79-.52-1.59-.86-2.35-2.3-5.15-2.39-10.84-4.06-16.12-1-3.2-2.34-7.41-6.65-7s-5.13,4.64-5.81,8.19a75,75,0,0,0-.83,22.83c1.31,11.5,6.43,20.14,17.67,24.82a70.51,70.51,0,0,0,19.32,5.44c11.39,1.24,16,10.12,17.06,19.91,1.2,11.33-.44,22.54-.3,33.82.27,21.77,16.26,37.4,34.15,41,13.35,2.69,26.8,1.52,40.24.6,12.43-.86,24.62-3.69,37.13-4.19,10.67-.43,21.34-.09,32-.59,4.51-.21,4.64-.37,2.68-4.54-6.15-13-19.16-14.54-31.59-9.37-3.62,1.5-7.08,3.37-10.62,5-26.86,12.76-52.57,3.12-70.8-12.65-6.57-5.69-6.26-17.58-.37-23.9a301.16,301.16,0,0,1,22.94-22.68c5.06-4.38,10-9.81,17-10.09,13.85-.54,27.77-1.56,41.56,1,.95.17,1.75.53,2.71-.26,4.88-4,5.2-3.89,8.64,1.24,1.32,2,1.77,4.93,5.05,4.95C446.8,428.13,449.55,428.12,452.42,428.12Zm-181.89,107c.33-1.76.48-2.83.73-3.87A71.1,71.1,0,0,0,273.7,511c-.53-11.39-7.64-19.44-18.22-19.61-5.06-.08-8.45-3.27-12.65-4.9-5.29-2-6.47-6-6.52-10.81a4.32,4.32,0,0,0-.43-1.18c-3.47-10.43-11.64-15.49-21.48-18.82-7.61-2.58-14.12-1.5-20.11,4.14A126.78,126.78,0,0,0,171,488.65c-8.5,14.7-19.37,27.08-35.58,33.54-9,3.58-18.37,6.54-27.49-.27a14.2,14.2,0,0,0-3.88-1.59c-8.93-3.14-16.46-1.05-22,6.35-3.84,5.12-5.7,11.13-6.94,17.3a5.86,5.86,0,0,1-2.39,4.11,130.49,130.49,0,0,0-16.94,14.35c-5.44,5.45-10.64,11.15-13.57,18.41-2,4.84-.13,7.47,4.89,7.47q37.28,0,74.56,0,77.29,0,154.6,0c2.85,0,4.26-.63,5-3.51,1.81-7.15,3.7-14.29,6-21.29,3.51-10.78,3.58-23,13.13-31.33a1,1,0,0,0,.2-.36c.64-1.74,2.71-3.3,1.26-5.34s-4-2.68-6.4-2.42a35.78,35.78,0,0,0-10.46,3C280.05,529.16,275.7,532.14,270.53,535.07Zm544.4-112.79c0,25.65.05,51.3-.06,77,0,3.15.37,4.84,4.15,4.79,4.47-.06,8.94.7,13.42.92,20.91,1,41.8,1.45,62.36-3.61,16.47-4.05,31.77-10.52,43.05-23.61,22.4-26,26-56.23,16.83-87.86-7.93-27.51-28.79-42.23-56.11-48.24-26.83-5.91-53.83-3.67-80.79-.58-2.79.32-2.88,1.74-2.87,3.88Q815,383.6,814.93,422.28ZM621.5,424.69c2.84-1.18,4.91-2,6.94-2.89,27.2-12,35.31-45.95,15.82-67.17-9.59-10.44-22.5-14.18-36.18-15.62C589,337,570,338.25,551,340.64c-3.41.43-4.15,1.85-4.14,5.05q.15,77,.08,153.93a11.62,11.62,0,0,1,0,1.67c-.27,2.08.71,2.59,2.66,2.55,5.34-.11,10.69-.29,16,.05,3.51.23,4-1.11,4-4.18-.13-21.33,0-42.66-.13-64,0-2.74.44-3.94,3.59-3.81,7.84.34,15.71-.22,23.55.72,11.16,1.35,19.43,6.63,24.28,16.86A79.5,79.5,0,0,1,626,464.89c2.95,12,5.53,24.1,10,35.68.56,1.45.69,3.29,3.09,3.26,7.09-.09,14.19,0,21.62,0-6.33-15.88-9.54-32.09-13.84-48C643.13,442,636.7,430.1,621.5,424.69ZM350.94,593.23c5.47,0,11,.24,16.41-.07,5.28-.29,10.63-.47,15.57-2.88a6.14,6.14,0,0,0,3.88-6.23c-.13-18.81-.09-37.62-.14-56.42,0-2.49.61-4.93.1-7.48-.56-2.82-2.38-3.79-4.79-3.54-2.69.3-5.78.44-8,1.17-6.27,2.09-12.77,2.74-19.09,4.29-4.88,1.19-9.53,3.52-14.63,3.56-8.33.08-16.72.54-25-1.16-3.38-.7-4.09.81-4.46,3.64-1.85,14.08-4.67,28-9.8,41.26-2.29,6-5.1,11.73-7.62,17.61-1.36,3.17-.27,4.62,3.25,4.63C314.8,591.69,332.84,593.47,350.94,593.23Zm121.23-67.36c-6-.79-11.27.17-16.42,1.16-5.91,1.13-10.14-.73-13.47-5.34a40.92,40.92,0,0,1-2.94-4.58c-1.28-2.37-3.25-3.18-5.86-3.29-5.44-.23-10.54,1.15-15.69,2.57-2.47.68-3.4,1.93-3.27,4.45.36,6.67.54,13.36.78,20q.84,23.39,1.65,46.76c.06,1.72.38,2.88,2.49,3.08a139.48,139.48,0,0,0,16.36,1c2.48-.06,3.54-1,3.78-3.37.28-2.78,1.41-5.35,2.33-8,.75-2.14,1.95-3,4.3-3a127.42,127.42,0,0,0,15.53-.86c4.75-.67,9.71-.18,14.65-2.06a16.59,16.59,0,0,0-14.66-5c-8.61,1.09-17.3,1.49-26,2.25-2.37.21-4-.3-3.52-3.05.43-2.31-1.89-6.11,3.14-6.14,3.65,0,7.3-.15,10.94-.08,2.73.06,3.94-1,4.38-3.79,1.37-8.79,5.08-11.88,14.12-12.1,4.67-.11,9.35,0,14.45,0-1.66-3.79-4.1-4-6.73-4.08-11.94-.31-23.71,2.43-35.68,1.78-6.65-.36-6.51-.06-6.51-6.59,0-3,1.06-3.74,3.92-3.74a124.63,124.63,0,0,0,25.48-2.46C464,530.46,468.26,529.48,472.17,525.87Zm145.42,35.3c0-1,0-1.95,0-2.92-.18-14.4-8.56-27.15-21-32-14.11-5.45-30-2.25-39.92,8.3-7.73,8.21-10,18.28-9.92,29.25.23,24.85,21.64,40.85,45.71,34C608.4,593.31,617.59,579.89,617.59,561.17Zm339.63,37c-.45-1.35-.78-2.4-1.15-3.43L933.9,533.25c-3.11-8.63-3.11-8.51-12.18-8.58-2.61,0-3.5.87-4.31,3.23-3.58,10.5-7.47,20.91-11.21,31.36-4.63,12.91-9.22,25.82-14,39.1a60.67,60.67,0,0,1,6.66,0c3,.34,4.44-.71,5.29-3.65,1.52-5.19,3.75-10.17,5.22-15.36.91-3.22,2.58-4,5.71-3.82,4.19.27,8.41.06,12.62.06,10.27,0,10.27,0,13.78,9.44.53,1.43,1,2.87,1.56,4.31C946.47,598.8,946.47,598.8,957.22,598.16Zm-269.69,0c-.46-1.36-.79-2.41-1.16-3.45L664.2,533.24c-3.11-8.62-3.1-8.5-12.19-8.57-2.63,0-3.49.91-4.29,3.24-3.59,10.51-7.47,20.91-11.22,31.36-4.63,12.91-9.22,25.83-14,39.09a61,61,0,0,1,6.68,0c3,.36,4.41-.75,5.28-3.67,1.58-5.31,3.8-10.42,5.41-15.73.79-2.58,1.93-3.55,4.68-3.42,4.76.22,9.54,0,14.31,0,9.44,0,9.45,0,12.78,9.06q.85,2.34,1.7,4.7C676.79,598.81,676.79,598.81,687.53,598.16Zm69.05.2a54.44,54.44,0,0,1,7,0c3,.42,4.1-.92,4.93-3.57,1.73-5.56,4-11,5.71-16.52.69-2.2,1.77-2.74,3.9-2.71,7.15.11,14.31.18,21.46,0,2.51-.07,3.38,1,4.09,3.07,2,5.78,4.1,11.51,6.16,17.25.47,1.31.8,2.6,2.74,2.5,2.9-.15,5.81,0,9,0-.53-1.57-.9-2.74-1.32-3.9Q809.2,563.71,798.11,533c-3-8.34-3-8.24-12-8.3-2.52,0-3.57.72-4.39,3.14-3.06,9.07-6.46,18-9.68,27C766.92,569.2,761.83,583.57,756.58,598.36Zm-34.15-44.42c-4-6.75-8.59-13.19-11.8-20.25-3.37-7.42-8.16-10.64-16.19-8.9a6.59,6.59,0,0,0-1,.45c6.9,11,13.71,22,20.68,32.85,1.36,2.12,1.62,3.66.1,5.87-3.73,5.39-7.15,11-10.67,16.51-3.7,5.82-7.35,11.67-11.28,17.89a45.36,45.36,0,0,1,6.15,0c4.15.62,6.49-1,8.47-4.72,4.61-8.63,9.76-17,14.92-25.82,5.89,9.56,11.51,18.69,17.17,27.79.69,1.11,1,2.7,2.85,2.69,3.39,0,6.78,0,10.7,0-6.17-9.62-11.27-19-17.79-27.3-6-7.58-5.9-13.4.18-20.86,6.28-7.71,11.15-16.55,17-25.46a58.87,58.87,0,0,1-6.87-.05c-3.65-.46-5.75.88-7.59,4.14C732.76,537.3,727.53,545.52,722.43,553.94ZM865,599.18a50.43,50.43,0,0,0,18.33-2.56c4.14-1.46.55-4.1.58-6.18,0-2.51-1.44-2-3.11-1.39a45.67,45.67,0,0,1-11.53,2c-19.12,1.27-31.37-9.55-32-28.5-.56-15.7,8-27,22.82-29.91A36.4,36.4,0,0,1,880,533.91c2.69,1,3.36.41,4.36-2.13,1.52-3.88,1-5.86-3.41-6.34-1.94-.22-3.82-.9-5.75-1.14-28.79-3.63-50,12.67-48.6,41.1.69,14.05,8.77,26.08,21.73,31A39.59,39.59,0,0,0,865,599.18ZM406.87,563.25h-.05c0-7,.31-13.93-.08-20.87-.44-7.74-.71-15.54-2.72-23.12-.58-2.18-1.57-4.28-4-4-2.14.28-2.67,2.6-3.09,4.52a10.29,10.29,0,0,0-.09,2.08c-.26,20.31-.6,40.62-.72,60.93-.05,7.84-1.19,6.72,6.83,7,3.19.11,4.11-.94,4-4C406.75,578.28,406.87,570.76,406.87,563.25Zm4.39-124.68c-7,0-9.22,2-8.42,8.28,1.81,14.27.06,27.74-8.26,39.92-.43.62-1.22,1.4-.34,2.21a3.11,3.11,0,0,0,3.13.69c2.9-.83,4.63-3.08,6.24-5.34,4.85-6.82,9.1-14.05,14.47-20.5a27,27,0,0,0,5-10.46c3-10.86.48-14.35-11-14.8Zm-49.05,22.92c-.21,6.72,6.14,10.84,12.37,7.95,5.68-2.63,11.12-5.9,17.64-6.16a2.49,2.49,0,0,0,2.25-1.65c2-5.38.81-10.42-2.13-15.06-2.31-3.65-6-1.92-9.18-1.75a34.65,34.65,0,0,0-6.56,1.31C368.32,448.23,362.43,454.55,362.21,461.49Zm58.15,19.19c6.69-1.9,12.16-4,17.91-5.13,13.52-2.73,23.68,3.07,27.62,16.05.44,1.46.62,3.11,2.19,3.83,4.91,2.23,10,3.76,15.41,2.27,3.87-1.07,4.82-3.38,2.95-6.9-3.2-6-8.84-9.17-14.76-11.81-12.4-5.52-25.72-7.31-39-9.2a2.94,2.94,0,0,0-2.37.48C426.76,473,423.24,475.71,420.36,480.68Zm25.23-44.82c2.41,3,4.38,4.89,7.13,5.11,14.12,1.12,28.26,2,42.2-1.6,6.4-1.67,12.28-4.27,15.89-10.52-11,.68-20.23,7.63-31.11,8.49A132,132,0,0,1,445.59,435.86ZM489,583c-5.74,3.87-11.91,3.2-18.24,2.22-5.66-.89-11.21-2.4-17-2.72-3.54-.2-5.07,1-5.5,4.5-.48,3.81,1.45,5,4.73,5.11a41.89,41.89,0,0,0,4.62,0c8.8-.66,17.59-1.42,26.39-2.07C488.58,589.66,489.84,588.05,489,583Zm2.62-59c2.86-4.53,2.57-6.21-1.44-8.82a17.81,17.81,0,0,0-10.34-2.87c-10.07.26-20.14.48-30.21.84-1.45,0-4-1-4.17,1.18a5.23,5.23,0,0,0,3.94,5.32,8.63,8.63,0,0,0,3.33.14c8.76-.86,17.51-1.71,26.25-2.69S487.68,516,491.58,523.93Zm5.74,22.3c-3.19,5-8.42,6.14-13.7,6.88a99.41,99.41,0,0,1-17.16,1,24.84,24.84,0,0,0-5,.34c-1.89.33-3.71,1.24-3.49,3.44s2,3,4.27,3a136.23,136.23,0,0,0,18.41-1.27,56.35,56.35,0,0,0,14.24-3.35C500.34,554,501.18,550.66,497.32,546.23Zm-70.71-81.91a97.11,97.11,0,0,0,16.35-.45c2.7-.33,2.47-1.23,1.44-3.14a117.34,117.34,0,0,1-6.88-16.07c-.4-1.08-.19-2.89-2-2.6-1.62.25-1.39,1.9-1.42,3.07A28.51,28.51,0,0,1,426.61,464.32Zm60.65-6.47c3.52,0,4.92-2,5.41-4.56.44-2.37-2.74-5.68-5.15-5.44-2.83.29-4.68,2-4.69,4.85A4.82,4.82,0,0,0,487.26,457.85Zm2.23,14.56c-.26-3-1.17-5.55-4.48-5.63-2.75-.07-4.69,1.3-4.83,4.53-.17,3.69,2,5.08,5.07,5.28C488,476.77,489,474.67,489.49,472.41Zm-17.4-23c-2.76-.33-4.63-.22-4.58,3.44s1.45,5.25,5.15,5.19c2.94-.05,4.65-1.53,4.66-4.18C477.33,450.67,475.69,448.59,472.09,449.44Zm-10.46,2.88c-.11-2.18.23-4.31-2.41-4.46a26.49,26.49,0,0,0-7.88.45c-2.24.54-2,1.58-.78,2.74,2.32,2.13,5.22,3,8.31,3.5C461.32,455,461.87,454,461.63,452.32Zm8.6,11.32c-2.38-.1-4,.48-4.19,2.79-.2,1.93,3.79,5.23,6.2,5.14,2.7-.1,3.27-2.56,3.19-4.15C475.28,464.32,472.43,463.94,470.23,463.64ZM109.69,344.12l-.18.42h72.08v-.42ZM499.45,453.06c2.45.12,7.65-6.86,6.76-9-.32-.8-.87-.92-1.64-.88-3.08.14-7.19,4-7.4,7A2.42,2.42,0,0,0,499.45,453.06Zm-1.66,29.22c-.15-1.2-.33-3.8-3.21-3.85s-3.82,2.5-3.81,4.93,1.22,4.51,3.93,4.39C497.22,487.64,498,485.66,497.79,482.28ZM461,464.67c.16-2.61-2.05-3.09-4.18-3.09-1.14,0-3.34,0-3.09,1.89.32,2.45,1.71,4.53,4.62,4.56C460.14,468.05,461.12,466.93,461,464.67Z" transform="translate(-0.58 -298.61)"/><path class="cls-2" d="M.68,643.55H999.37c0,18.4,0,36.8,0,55.2,0,2-.39,3-2.56,2.54a9.42,9.42,0,0,0-1.68,0q-495.15,0-990.31.1c-3.63,0-4.33-.82-4.29-4.31C.79,679.23.68,661.39.68,643.55ZM661.93,668.1c1,7.1-.55,13.33,1.07,19.47.45,1.74.17,3.17,2.69,2.87,3-.37,1.69-2.7,1.51-3.81-1.14-7.08-.78-14.25-1.61-21.32-.14-1.21,1.2-3.35-1.63-3.36-2.15,0-4.21-.41-5.13,2.58-1.87,6.11-4.15,12.09-6.23,18.05-.9-.32-1.07-1-1.35-1.89-1.86-5.72-4.14-11.33-5.72-17.13-.79-2.92-2.62-1.15-3.91-1.55-1.1-.34-2.06-.12-2.16,1.57-.46,8.09-1.08,16.16-1.64,24.24-.09,1.43-.21,2.66,2,2.66,2,0,2.37-.84,2.2-2.49-.63-6.1,1.17-12.06,1.09-18.19,2.3,6.1,4.47,12.24,6.43,18.43a2.63,2.63,0,0,0,2.5,2.22c1.61.22,1.8-.92,2.25-1.84a32,32,0,0,0,1.21-3C657.57,680.06,659.6,674.48,661.93,668.1Zm-338.47,8v5c0,9.25,0,9.26,9.2,9.25,9,0,12.68-3.63,14.67-10.68,2.25-8-1.9-18.41-12.91-17.79a73.74,73.74,0,0,1-8.41,0c-2-.11-2.68.49-2.6,2.54C323.57,668.34,323.46,672.24,323.46,676.14ZM270.37,676v5c0,9.45,0,9.53,9.43,9.41,9.67-.13,12.33-3.66,14.75-11.19,2.33-7.26-2.52-15.88-9.7-17-4.24-.68-8.67-.14-13-.21-1.89,0-1.45,1.3-1.46,2.32C270.35,668.16,270.37,672.06,270.37,676Zm-85.12.46c0,9.22,4.36,13.61,12.76,14.08s13.45-6.27,13.37-14.94c-.06-7.07-4.94-14.16-12.92-13.72C189.67,662.32,185.25,666.77,185.25,676.42Zm435.08,14c8.16.9,13.2-6.11,13.3-14.49.08-7.3-5.06-14-12.58-14.19a13.34,13.34,0,0,0-13.67,13.94C607.79,685.65,611.6,690.4,620.33,690.4Zm-157-7.14c-4.43-7.11-8.5-13.28-12.15-19.7-1.17-2.07-2.61-1.59-4.12-1.57-2.48,0-1.35,2-1.37,3.11-.11,7.23-.13,14.47,0,21.71,0,1.24-1.41,3.73,1.76,3.57,2.71-.13,1.45-2.26,1.48-3.46.13-6,.06-11.92.06-18.62,4.57,7.46,8.66,14.08,12.68,20.75,1,1.7,2.57,1.48,4,1.29,1.75-.24.94-1.77.94-2.68.08-7.66.06-15.31,0-23,0-1.26.59-2.9-1.84-2.78-2.2.11-1.48,1.64-1.49,2.69C463.33,670.55,463.36,676.49,463.36,683.26Zm-53.94,0c-4.37-7.06-8.38-13.22-12-19.6-1.22-2.14-2.8-1.83-4.47-1.7-2.05.16-1.15,1.9-1.16,2.91q-.12,11.28,0,22.55c0,1.12-.92,2.93,1.61,3s1.67-1.75,1.68-2.9c.07-6.16,0-12.31,0-19.17,4.51,7.3,8.67,13.85,12.62,20.52,1,1.76,2.45,1.63,3.91,1.48,2-.21,1.11-1.93,1.12-2.93.09-7.65.06-15.31,0-23,0-1.14.51-2.54-1.65-2.56s-1.69,1.35-1.7,2.51C409.41,670.4,409.42,676.39,409.42,683.3Zm293.29-15.06c4.61,7.56,8.67,14.22,12.72,20.89,1,1.66,2.63,1.45,4.08,1.19,1.65-.31.85-1.82.86-2.75q.11-11.49,0-23c0-1.05.7-2.58-1.49-2.68-2.45-.12-1.83,1.54-1.83,2.79,0,5.91,0,11.82,0,18.5-4.4-7-8.53-13.24-12.21-19.72-1.22-2.13-2.69-1.47-4.16-1.49-2.17,0-1.28,1.78-1.29,2.78-.07,7.65-.06,15.31,0,23,0,1.06-.71,2.59,1.49,2.7,2.43.12,1.83-1.53,1.84-2.78C702.73,681.46,702.71,675.27,702.71,668.24ZM546.86,690.05c-1.18-3.62-1.89-7.25-3.55-10.39-1.22-2.31-1.59-3.51.62-5.35a5.94,5.94,0,0,0,1.49-7.43c-1.26-2.77-3.26-4.76-6.49-4.9-3.08-.13-6.17.09-9.25-.07-1.93-.09-2.32.66-2.3,2.4.08,7.93,0,15.87,0,23.8,0,1.36,0,2.36,1.91,2.35s2.46-.51,2.35-2.34c-.14-2.5,0-5,0-7.52-.05-1.37.35-1.84,1.85-2,4.4-.36,6.84,1.71,7.38,7.18C541.2,689.51,542.46,691.43,546.86,690.05Zm252.83,0c-1.16-3.56-1.94-7.15-3.52-10.34-1.09-2.2-1.8-3.49.53-5.35a6,6,0,0,0,1.61-7.44c-1.3-2.9-3.41-4.94-6.88-5-2.94,0-5.89.09-8.83,0-1.8-.08-2.42.43-2.39,2.31.1,7.93.08,15.86,0,23.8,0,1.7.28,2.48,2.26,2.44,1.8,0,2.07-.8,2-2.27a43.77,43.77,0,0,1,0-5.84c.11-1.22-1-3.2.88-3.52s3.8-.82,5.55.77a8.51,8.51,0,0,1,2.75,6.12C793.89,689.38,795.25,691.32,799.69,690.07Zm-358.48,0c-3-8.66-6.13-17.22-8.94-25.87-.64-2-1.62-2.28-3.29-2.24s-2.92-.13-3.58,1.91c-2.63,8.15-5.42,16.24-8.17,24.34-.55,1.61-.13,2.17,1.64,2.26,2.75.14,2.8-1.44,3.41-3.52.54-1.86.17-5.37,4.05-4.9,3.42.41,8-1.85,8.83,4.19C435.6,689.48,437.18,691.54,441.21,690.05Zm131.45,0c-3-8.66-6.1-17.26-8.93-25.95-.65-2-1.78-2.15-3.4-2.14s-2.83,0-3.48,2c-2.56,8.06-5.32,16.06-8.09,24-.7,2,0,2.28,1.86,2.41,4,.3,3.2-3.3,3.53-4.93.68-3.42,2.54-3.82,5.24-3.47s6.2-1.58,6.94,3.39C566.77,688.35,567.72,692,572.66,690Zm204,.15c-3-8.73-6.12-17.43-9-26.19-.67-2-1.9-2-3.48-2s-2.77.11-3.4,2.14c-2.47,7.95-5.09,15.86-7.94,23.68-1,2.83.35,2.68,2.24,2.65,2.15,0,1.95-1.6,2.55-3,.85-2,0-5.63,4.12-5.38,3.76.23,8.37-1.27,9,4.61C771.2,690.38,773.32,691,776.65,690.18Zm-456.86-.1c-3-8.72-6-17.53-9-26.37-.59-1.76-1.83-1.78-3.28-1.77s-2.87-.14-3.44,1.58q-4.14,12.38-8.28,24.73c-.56,1.69.08,2,1.75,2.21,3.63.37,3-2.55,3.56-4.37.76-2.45,1.37-4.61,4.74-4.09,3.06.47,7.08-1.54,7.78,3.92C314.07,689.06,315.52,691.78,319.79,690.08Zm515.83,0c-3-8.71-6.07-17.45-9-26.24-.58-1.75-1.65-2-3.15-1.94s-3-.21-3.65,1.84c-2.66,8.18-5.45,16.31-8.21,24.44-.57,1.68,0,2,1.72,2.24,4,.46,3.26-3,3.71-4.75.72-2.74,1.71-4.19,4.64-3.67s6.84-1.86,7.58,3.6C829.72,688.82,831.21,691.78,835.62,690.12ZM693.44,672.7c0-2.57.26-4.57-.08-6.46-.27-1.49,1.8-4.23-1.91-4.3-4-.07-2,2.93-2.14,4.5-.53,5.18.68,10.47-.92,15.62-.82,2.66-2.41,4.49-5.28,5-3.31.59-5.37-1.41-6.27-3.95a16.26,16.26,0,0,1-1.16-6.37c.24-4.17,0-8.36.08-12.54,0-1.42-.1-2.28-2-2.3s-2.34.64-2.31,2.4c.11,5,0,10,.06,15,.1,5.82,3.11,10.76,7.14,11,6.68.4,11.93.8,14.18-8C693.77,678.84,692.88,675.47,693.44,672.7Zm-187.1,3.48c0,1,0,2,0,2.92.24,3.69-1.61,8.61.78,10.73,2.05,1.81,6.93.77,10.52.46,1.82-.16,5.24,1.9,5.34-1.47s-3.38-1.61-5.14-1.67c-7.55-.23-7.45-.1-7.36-7.46,0-2.25.72-2.87,2.85-2.71s4.48,0,6.72,0c1,0,1.49-.4,1.47-1.47s0-1.93-1.47-1.89c-2.24.05-4.5-.21-6.71.06-3.7.44-2.89-2.12-2.73-4s-1.61-4.84,2.61-4.49c2.37.2,4.76,0,7.14.06,1.32,0,2.09-.19,2-1.79,0-1.36-.67-1.61-1.81-1.58-4.59.09-10.05-1.31-13.5.7-2.51,1.46-.47,7.47-.74,11.44C506.31,674.79,506.34,675.48,506.34,676.18Zm-257-.16c0,4,0,8.06,0,12.09,0,1.39,0,2.38,1.93,2.33,4.33-.12,8.68-.08,13,0,1.39,0,2-.34,2-1.85s-.78-1.53-1.86-1.52c-2.8,0-5.61,0-8.4,0-1,0-2.09.45-2.47-1.33-1.45-6.72,0-8.68,6.87-8.69.84,0,1.68,0,2.52,0,1.3.09,1.64-.5,1.65-1.73s-.55-1.66-1.75-1.64c-2.37.05-4.76,0-7.14,0-.91,0-1.78.22-2.14-1.24-1.29-5.17.13-7.12,5.49-7.12,1.26,0,2.52.05,3.78,0s2.56.56,2.62-1.59-1.29-1.73-2.49-1.73c-3.64,0-7.29.15-10.92-.06-2.38-.15-2.76.83-2.69,2.86C249.39,668.51,249.3,672.26,249.3,676ZM174.2,662c-.7,0-1.41,0-2.11,0-4.08-.18-6.64,2.21-7.68,5.6s.2,6.27,3.71,8.2c1.3.72,2.7,1.2,4,1.9,2.57,1.4,5.89,2.26,5,6.11-.71,3-4.6,4.16-8.71,2.9a6.2,6.2,0,0,0-1.52-.43c-1,0-2.18-2.4-2.88.72-.5,2.26.58,2.7,1.89,3,3.5.71,7,1,10.54-.24,4.67-1.64,6.17-4.81,5-9.48s-5.15-5-8.39-6.71c-2-1.08-4.71-2-3.94-5.09.83-3.3,3.75-3,6.4-3.12,1.57,0,4,2.83,4.57-.5.67-4-2.95-2.48-5-2.82A4.71,4.71,0,0,0,174.2,662ZM485.69,690.4a32.24,32.24,0,0,1,3.5,0,5.55,5.55,0,0,0,4.24-1.22c.85-.69-.26-1.5-.62-2.1-1.11-1.83-2.46-.53-3.86-.23-4.19.88-8.31-.25-10.8-3.41A11.38,11.38,0,0,1,477,671.12a10.29,10.29,0,0,1,9.63-5.9c1.61,0,2.92.68,4.38.94,1.84.34,2-1.18,2.51-2.13.65-1.24-.71-1.17-1.33-1.47-4.18-2.06-14.77-.08-17.3,3.49a17.13,17.13,0,0,0-2.06,17.08C475.2,688.8,480,691.14,485.69,690.4Zm112.41.1a38.72,38.72,0,0,0,5.82-.46c.46-.09,2.39-.17,1.71-1.65-.43-.95-.61-2.64-2.45-2.16-.65.16-1.27.44-1.91.6-4.11,1-9.8-1-11.53-4.18-2.68-4.88-2.16-10.44,1.2-13.92,3.15-3.28,6.71-4.4,11.12-2.7,1.54.6,2.78,0,3.51-1.77s-.85-1.52-1.44-1.8c-4.09-1.94-14.39,0-17,3.43a16.89,16.89,0,0,0-2.31,17C587.08,688.61,591.86,691.07,598.1,690.5Zm-370.4-.1a36,36,0,0,1,4.06,0,5.1,5.1,0,0,0,3.81-1.26c.82-.63-.3-1.5-.67-2.1-.93-1.52-2.15-.75-3.51-.35-4.14,1.23-9.82-.81-11.61-3.94-2.67-4.66-2.15-10.53,1.08-13.95s6.7-4.48,11.11-2.86c1.59.58,2.74.18,3.55-1.59s-.56-1.52-1.26-1.85c-4-2-14.27-.15-17,3.27-4,5-4.59,10.79-2.57,16.59C216.8,688.42,221.57,691,227.7,690.4Zm132.84-14.58c0,4.17.07,8.34,0,12.5,0,1.63.48,2.14,2.13,2.14s2.22-.48,2.15-2.12c-.12-2.78,0-5.56-.06-8.34-.05-1.55.35-2.33,2.07-2.17a9.68,9.68,0,0,0,3.76-.05c1.7-.54,5,1.83,5-1.49s-3.36-1.47-5.15-1.69c-3-.37-6.28,1-5.84-4.54.31-3.95,1-5.46,5.07-4.8a49.55,49.55,0,0,0,5,.06c1.42.07,2-.37,1.95-1.87s-.8-1.51-1.87-1.5c-2.38,0-4.76,0-7.14,0-7,0-7,0-7,6.78Zm381.78,2c0,3.06-.09,6.12,0,9.17.06,1.35-1.1,3.41,2,3.49s2.16-1.84,2.18-3.31c.05-4.86,0-9.72.05-14.58,0-2.33-1-5.22.5-6.79,1.06-1.07,3.93-.49,6-.47,1.43,0,2-.41,1.94-1.89s-.82-1.49-1.88-1.49c-6,0-12,0-18,0-1.27,0-2.09.1-2.06,1.75s1.06,1.53,2.18,1.63c2.32.2,5.57-1.14,6.71.62s.38,4.81.42,7.3C742.34,674.77,742.32,676.29,742.32,677.82ZM243.4,676.2c0-4-.05-8,0-12.06,0-1.46-.2-2.32-2-2.23-1.45.06-2.29.16-2.27,2q.12,12.25,0,24.53c0,1.75.7,2,2.22,2,1.74,0,2.08-.66,2-2.19C243.35,684.24,243.4,680.22,243.4,676.2Zm563.82,0c0-3.88,0-7.76,0-11.64,0-1.42.19-2.65-2-2.64-2,0-2.24.8-2.23,2.46q.1,11.85,0,23.7c0,1.7.31,2.42,2.26,2.43,2.25,0,2-1.27,2-2.66C807.21,683.93,807.22,680.05,807.22,676.16Zm-426.45-.4c0,4,0,8,0,12,0,1.41-.24,2.68,2,2.67,2,0,2.26-.75,2.25-2.45-.08-7.9-.07-15.8,0-23.7,0-1.67-.24-2.44-2.23-2.45-2.23,0-2,1.23-2,2.65C380.78,668.27,380.77,672,380.77,675.76Zm116.3,0c0,4,0,8,0,12.05,0,1.44-.17,2.64,2,2.64,2,0,2.23-.84,2.22-2.48q-.1-11.85,0-23.7c0-1.72-.33-2.4-2.27-2.42-2.27,0-2,1.3-2,2.68C497.08,668.3,497.07,672,497.07,675.79Zm229.24,0c0,4,0,8,0,12.06,0,1.39-.26,2.68,2,2.66,2,0,2.27-.73,2.26-2.43-.08-7.9-.07-15.8,0-23.7,0-1.67-.23-2.45-2.23-2.46-2.22,0-2,1.22-2,2.64C726.33,668.26,726.31,672,726.31,675.75Z" transform="translate(-0.58 -298.61)"/><path class="cls-3" d="M.68,299.66c.18-.26-.43-.87.42-.84,1.12,0,2.24,0,3.37,0q495.55,0,991.11.06c1.23,0,2.86-1,3.79.78Z" transform="translate(-0.58 -298.61)"/><ellipse class="cls-4" cx="499.45" cy="1.47" rx="706.18" ry="0.59"/><path class="cls-5" d="M329.19,512.84a229.88,229.88,0,0,1-37.06-1.41c-2-.24-2.95-.93-3.1-3-1-13.58-9.41-22.2-20.12-29.14a67.78,67.78,0,0,0-17.49-8.07c-2.14-.65-3-1.69-2.9-3.84.37-5.56-2.16-10.13-5.7-14-9.07-9.82-20.65-15.76-33.42-19.08-9.64-2.51-22.76,3.66-27.13,12.59-5.68,11.6-14.27,21-22.58,30.52-7,8-13.53,16.39-21.56,23.43a37.2,37.2,0,0,1-7.36,4.79c-4.38,2.31-8,2.76-12.63-.69-11.94-8.87-25.94-7.31-36.6,3.2C79.65,510,77.89,512,76.09,514c-3.78,4.09-5.26,9-5.61,14.47-.24,3.84-1.94,6.33-5.76,8.31-9.44,4.87-14.45,13.67-18.49,23-.63,1.45-.78,3.23-2.68,3.94-1.17-1.48-.72-3.05-.72-4.5q0-102.92-.12-205.83c0-4.2,1-5.23,5.35-5.32,43.39-.94,86.78-.92,130.16-.45,18.76.2,37.28,3.9,55.16,10,7.94,2.69,11.87,8.58,13.38,16.44s3.17,15.81,4.61,23.73c1.32,7.27,5.94,11.7,12.31,14.79a138.09,138.09,0,0,0,26,9.5c5.24,1.33,8,4.49,9.35,9.56a55.19,55.19,0,0,1,.39,24.45c-3,15.09,2,27.26,11.51,38.44A154.26,154.26,0,0,0,329.19,512.84ZM208.84,392.69a21.44,21.44,0,0,0-21.25-21.8,21.65,21.65,0,0,0,.13,43.29A21.41,21.41,0,0,0,208.84,392.69Zm57,30a21.38,21.38,0,0,0-21.59,21c-.25,12,9.23,22.07,20.91,22.17a21.67,21.67,0,0,0,21.92-21.27C287.39,432.9,277.69,422.89,265.83,422.68ZM129.65,466c.06-12-9.07-21.5-20.85-21.59A21.5,21.5,0,0,0,87,465.6c-.15,11.93,10,22.23,21.67,22A21.61,21.61,0,0,0,129.65,466ZM113.6,379.92a21.34,21.34,0,0,0-21.16-21.53,21.61,21.61,0,0,0-.22,43.21A21.23,21.23,0,0,0,113.6,379.92Z" transform="translate(-0.58 -298.61)"/><path class="cls-6" d="M452.42,428.12c-2.87,0-5.62,0-8.38,0-3.28,0-3.73-3-5.05-4.95-3.44-5.13-3.76-5.25-8.64-1.24-1,.79-1.76.43-2.71.26-13.79-2.53-27.71-1.51-41.56-1-7.05.28-12,5.71-17,10.09A301.16,301.16,0,0,0,346.11,454c-5.89,6.32-6.2,18.21.37,23.9,18.23,15.77,43.94,25.41,70.8,12.65,3.54-1.68,7-3.55,10.62-5,12.43-5.17,25.44-3.66,31.59,9.37,2,4.17,1.83,4.33-2.68,4.54-10.66.5-21.33.16-32,.59-12.51.5-24.7,3.33-37.13,4.19-13.44.92-26.89,2.09-40.24-.6-17.89-3.61-33.88-19.24-34.15-41-.14-11.28,1.5-22.49.3-33.82-1-9.79-5.67-18.67-17.06-19.91a70.51,70.51,0,0,1-19.32-5.44c-11.24-4.68-16.36-13.32-17.67-24.82a75,75,0,0,1,.83-22.83c.68-3.55,1.56-7.75,5.81-8.19s5.64,3.77,6.65,7c1.67,5.28,1.76,11,4.06,16.12.34.76.59,1.56.86,2.35,2.89,8.43,8.91,12.88,17.58,14.84,8.47,1.91,16.75,4.5,25.53,4.8,3.68.13,5.61-1.55,5.9-5,.4-4.55-1.78-7.34-5.62-7.72-7.67-.75-15.33-1.49-23-2.3-13.51-1.43-15.78-10.58-15.51-19.84.29-10,1.82-10.71,12-9.33,6,.81,11.95,1.5,17.94,2.17,9.41,1,18-1.52,26.32-5.69,5.25-2.64,10.66-5,15.82-7.78,6.33-3.44,13-4.74,20.18-4.9,7.7-.17,15.39-.82,23.09-1.34,9.54-.64,18.23,2,26.6,6.31,11.74,6.09,22.82,12.9,31.8,22.87,6.62,7.34,15.92,10,25.25,12.42,6.39,1.64,13.12,1.1,19.4,3.31,8.2,2.89,15.21,7.19,18.72,15.55,4.37,10.43.52,20.86-9.5,26.28a42.13,42.13,0,0,1-16.47,4.61c-9.37.82-18.8.92-28.11-.74-4.7-.84-11.61-9.22-11.43-13.38.29-6.63,6.54-12.26,14.27-13s15.33.94,22.83,2.74a14.32,14.32,0,0,0,2.9.44,3.94,3.94,0,0,0,4.12-2.23c.87-1.8.36-3.22-.84-4.59a14.43,14.43,0,0,0-5.81-4c-9.54-3.65-19.45-4-29.44-3.08C451,385.48,446,395.22,444,403.18a32.25,32.25,0,0,0-1,9.51,15.26,15.26,0,0,0,6.28,12.18C450.46,425.75,452,426.35,452.42,428.12Zm-49.55-40.47-.07.07a1.84,1.84,0,0,0,1.58-1l1.68-1.67.8-.86,0,0a1.42,1.42,0,0,0,1-1.6l0,.08c5.09-1.81,10.54-1.17,15.76-2.28,3.53-.75,4.1-2,2.35-5.1-7.47-13.3-26.42-21-41.08-16.59-6.22,1.88-11.91,4.91-17.67,7.79s-11.19,5.9-18.4,4.32c1.36,5.42,4.83,8.13,9.11,10.22,6.21,3,12.89,2.18,19.45,2.43v0l.85.93.57.82,1.08.95a3.4,3.4,0,0,0,2.17,1.6l1.3.73.13.17.21,0,1.32.66h0a4.23,4.23,0,0,0,3.43,1.2l1.67.28,5,0,1.78-.43a6.5,6.5,0,0,0,4.6-1.7.28.28,0,0,0,.39-.2Z" transform="translate(-0.58 -298.61)"/><path class="cls-5" d="M270.53,535.07c5.17-2.93,9.52-5.91,14.36-8a35.78,35.78,0,0,1,10.46-3c2.43-.26,4.91.32,6.4,2.42s-.62,3.6-1.26,5.34a1,1,0,0,1-.2.36c-9.55,8.31-9.62,20.55-13.13,31.33-2.27,7-4.16,14.14-6,21.29-.72,2.88-2.13,3.51-5,3.51q-77.31-.14-154.6,0-37.27,0-74.56,0c-5,0-6.85-2.63-4.89-7.47,2.93-7.26,8.13-13,13.57-18.41a130.49,130.49,0,0,1,16.94-14.35A5.86,5.86,0,0,0,75.06,544c1.24-6.17,3.1-12.18,6.94-17.3,5.54-7.4,13.07-9.49,22-6.35a14.2,14.2,0,0,1,3.88,1.59c9.12,6.81,18.5,3.85,27.49.27,16.21-6.46,27.08-18.84,35.58-33.54a126.78,126.78,0,0,1,23.34-28.85c6-5.64,12.5-6.72,20.11-4.14,9.84,3.33,18,8.39,21.48,18.82a4.32,4.32,0,0,1,.43,1.18c.05,4.86,1.23,8.77,6.52,10.81,4.2,1.63,7.59,4.82,12.65,4.9,10.58.17,17.69,8.22,18.22,19.61a71.1,71.1,0,0,1-2.44,20.22C271,532.24,270.86,533.31,270.53,535.07ZM132,534c-10.42,0-18.49,7.9-18.52,18.13,0,11,7.79,19.29,18.31,19.36,10,.06,18.71-8.61,18.76-18.74A18.62,18.62,0,0,0,132,534ZM253.5,538a17.86,17.86,0,0,0-18.43,17.2c-.26,10.53,7.38,18.79,17.53,19a18.09,18.09,0,0,0,.9-36.16Z" transform="translate(-0.58 -298.61)"/><path class="cls-7" d="M814.93,422.28q0-38.67,0-77.36c0-2.14.08-3.56,2.87-3.88,27-3.09,54-5.33,80.79.58,27.32,6,48.18,20.73,56.11,48.24,9.14,31.63,5.57,61.87-16.83,87.86-11.28,13.09-26.58,19.56-43.05,23.61-20.56,5.06-41.45,4.62-62.36,3.61-4.48-.22-9-1-13.42-.92-3.78.05-4.17-1.64-4.15-4.79C815,473.58,814.93,447.93,814.93,422.28Zm26.52,65c13.84,1.55,27.68,1.65,41.35-1.11,23-4.64,40.13-16.74,48-39.41a83.61,83.61,0,0,0,2.51-46.51c-4.21-18.65-15.41-31.73-33.36-39a77.56,77.56,0,0,0-20.25-5.14c-13.55-1.56-27.06-1.6-40.49,1.19-2.82,0-1.65,2.13-1.66,3.32-.06,41,0,81.91-.11,122.87C837.46,486.66,838.34,487.88,841.45,487.26Z" transform="translate(-0.58 -298.61)"/><path class="cls-7" d="M621.5,424.69c15.2,5.41,21.63,17.31,25.35,31.1,4.3,15.92,7.51,32.13,13.84,48-7.43,0-14.53-.06-21.62,0-2.4,0-2.53-1.81-3.09-3.26-4.47-11.58-7.05-23.68-10-35.68a79.5,79.5,0,0,0-5.08-15.41c-4.85-10.23-13.12-15.51-24.28-16.86-7.84-.94-15.71-.38-23.55-.72-3.15-.13-3.6,1.07-3.59,3.81.11,21.34,0,42.67.13,64,0,3.07-.51,4.41-4,4.18-5.32-.34-10.67-.16-16-.05-2,0-2.93-.47-2.66-2.55a11.62,11.62,0,0,0,0-1.67q0-77-.08-153.93c0-3.2.73-4.62,4.14-5.05,19-2.39,38-3.62,57.08-1.63,13.68,1.44,26.59,5.18,36.18,15.62,19.49,21.22,11.38,55.17-15.82,67.17C626.41,422.7,624.34,423.51,621.5,424.69Zm-52-38.49c0,8.63.13,17.27-.07,25.9-.07,3,.46,4.14,3.8,3.95,5.73-.32,11.5-.1,17.24-.07,7.34,0,14.54-.74,21.45-3.34,13.59-5.13,20.53-15.56,20-30-.48-12.55-8.19-21.55-22-25.54-12.54-3.6-25.23-2.67-37.93-1.08-2.24.27-2.48,1.54-2.46,3.42C569.58,368.38,569.54,377.29,569.54,386.2Z" transform="translate(-0.58 -298.61)"/><path class="cls-8" d="M776.9,408.31c1.82,5.38.51,10.92.71,16.38.09,2.25-2.14,1.25-3.28,1.25-12.77.08-25.55.05-38.33.05-7.86,0-15.73.1-23.59,0-2.38,0-3,.64-3,3,.09,18,.15,36,0,53.95,0,3.49,1.86,3,3.95,3,22.6,0,45.21.06,67.81-.11,3.5,0,4.7.84,4.38,4.36a89.41,89.41,0,0,0,0,10.86c.06,2-.26,3-2.67,3q-46.54-.12-93.09,0c-2.66,0-2.88-1.17-2.87-3.28.06-13.94,0-27.88,0-41.82,0-38.47,0-76.95-.08-115.42,0-3.46.52-4.72,4.47-4.69,30,.24,60.09.18,90.14.22,0,3.89.16,7.79.1,11.68-.11,7.12,1.2,6.24-6.11,6.26q-31.12.06-62.25,0c-2.37,0-3.78.12-3.75,3.25.19,15.16.12,30.34,0,45.51,0,2.09.43,2.87,2.74,2.85C733.73,408.37,755.31,408.36,776.9,408.31Z" transform="translate(-0.58 -298.61)"/><path class="cls-6" d="M350.94,593.23c-18.1.24-36.14-1.54-54.23-1.62-3.52,0-4.61-1.46-3.25-4.63,2.52-5.88,5.33-11.64,7.62-17.61,5.13-13.3,7.95-27.18,9.8-41.26.37-2.83,1.08-4.34,4.46-3.64,8.23,1.7,16.62,1.24,25,1.16,5.1,0,9.75-2.37,14.63-3.56,6.32-1.55,12.82-2.2,19.09-4.29,2.18-.73,5.27-.87,8-1.17,2.41-.25,4.23.72,4.79,3.54.51,2.55-.11,5-.1,7.48,0,18.8,0,37.61.14,56.42a6.14,6.14,0,0,1-3.88,6.23c-4.94,2.41-10.29,2.59-15.57,2.88C361.9,593.47,356.41,593.23,350.94,593.23Zm7-28.22a16.29,16.29,0,0,0,16.65-16.3,16.49,16.49,0,0,0-16.2-16.41,16.27,16.27,0,0,0-16.57,16.38A16.07,16.07,0,0,0,357.9,565Z" transform="translate(-0.58 -298.61)"/><path class="cls-9" d="M472.17,525.87c-3.91,3.61-8.16,4.59-12.41,5.47a124.63,124.63,0,0,1-25.48,2.46c-2.86,0-3.92.76-3.92,3.74,0,6.53-.14,6.23,6.51,6.59,12,.65,23.74-2.09,35.68-1.78,2.63.07,5.07.29,6.73,4.08-5.1,0-9.78-.09-14.45,0-9,.22-12.75,3.31-14.12,12.1-.44,2.8-1.65,3.85-4.38,3.79-3.64-.07-7.29.06-10.94.08-5,0-2.71,3.83-3.14,6.14-.51,2.75,1.15,3.26,3.52,3.05,8.66-.76,17.35-1.16,26-2.25a16.59,16.59,0,0,1,14.66,5c-4.94,1.88-9.9,1.39-14.65,2.06a127.42,127.42,0,0,1-15.53.86c-2.35,0-3.55.9-4.3,3-.92,2.63-2.05,5.2-2.33,8-.24,2.37-1.3,3.31-3.78,3.37a139.48,139.48,0,0,1-16.36-1c-2.11-.2-2.43-1.36-2.49-3.08q-.78-23.39-1.65-46.76c-.24-6.67-.42-13.36-.78-20-.13-2.52.8-3.77,3.27-4.45,5.15-1.42,10.25-2.8,15.69-2.57,2.61.11,4.58.92,5.86,3.29a40.92,40.92,0,0,0,2.94,4.58c3.33,4.61,7.56,6.47,13.47,5.34C460.9,526,466.17,525.08,472.17,525.87Z" transform="translate(-0.58 -298.61)"/><path class="cls-10" d="M617.59,561.17c0,18.72-9.19,32.14-25.13,36.68-24.07,6.85-45.48-9.15-45.71-34-.1-11,2.19-21,9.92-29.25,9.93-10.55,25.81-13.75,39.92-8.3,12.44,4.8,20.82,17.55,21,32C617.6,559.22,617.59,560.2,617.59,561.17Zm-60.08.82a31.85,31.85,0,0,0,2,12.28c3.58,9.39,9.74,15.88,20.34,16.94,9,.9,16.17-2.47,21.41-9.75,8.07-11.21,7.54-30.41-1.06-41.2a23.14,23.14,0,0,0-36.4.5C559,547.06,557.56,554.34,557.51,562Z" transform="translate(-0.58 -298.61)"/><path class="cls-10" d="M957.22,598.16c-10.75.64-10.75.64-14.14-8.77-.52-1.44-1-2.88-1.56-4.31-3.51-9.43-3.51-9.44-13.78-9.44-4.21,0-8.43.21-12.62-.06-3.13-.2-4.8.6-5.71,3.82-1.47,5.19-3.7,10.17-5.22,15.36-.85,2.94-2.31,4-5.29,3.65a60.67,60.67,0,0,0-6.66,0c4.74-13.28,9.33-26.19,14-39.1,3.74-10.45,7.63-20.86,11.21-31.36.81-2.36,1.7-3.25,4.31-3.23,9.07.07,9.07,0,12.18,8.58l22.17,61.48C956.44,595.76,956.77,596.81,957.22,598.16Zm-32.78-63.38c-3.13,10.73-7.14,21-10.81,31.42-.66,1.86.27,2.08,1.8,2.07,6.7,0,13.4,0,20.48,0C932.36,556.77,927.68,546.08,924.44,534.78Z" transform="translate(-0.58 -298.61)"/><path class="cls-10" d="M687.53,598.16c-10.74.65-10.74.65-14.14-8.76q-.84-2.35-1.7-4.7c-3.33-9.05-3.34-9.05-12.78-9.06-4.77,0-9.55.17-14.31,0-2.75-.13-3.89.84-4.68,3.42-1.61,5.31-3.83,10.42-5.41,15.73-.87,2.92-2.28,4-5.28,3.67a61,61,0,0,0-6.68,0c4.73-13.26,9.32-26.18,14-39.09,3.75-10.45,7.63-20.85,11.22-31.36.8-2.33,1.66-3.27,4.29-3.24,9.09.07,9.08,0,12.19,8.57l22.17,61.47C686.74,595.75,687.07,596.8,687.53,598.16Zm-33.16-63.33c-.83,2.88-1.55,5.8-2.51,8.65-2.48,7.35-5.06,14.67-7.59,22-.42,1.2-1.6,2.76,1.1,2.76h20.89C662.59,556.76,658,546,654.37,534.83Z" transform="translate(-0.58 -298.61)"/><path class="cls-10" d="M756.58,598.36c5.25-14.79,10.34-29.16,15.47-43.51,3.22-9,6.62-18,9.68-27,.82-2.42,1.87-3.16,4.39-3.14,9,.06,9,0,12,8.3q11.08,30.74,22.14,61.49c.42,1.16.79,2.33,1.32,3.9-3.23,0-6.14-.11-9,0-1.94.1-2.27-1.19-2.74-2.5-2.06-5.74-4.2-11.47-6.16-17.25-.71-2.09-1.58-3.14-4.09-3.07-7.15.21-14.31.14-21.46,0-2.13,0-3.21.51-3.9,2.71-1.74,5.55-4,11-5.71,16.52-.83,2.65-1.93,4-4.93,3.57A54.44,54.44,0,0,0,756.58,598.36Zm32.19-63.55c-3.18,10.69-7.14,21-10.8,31.38-.66,1.86.18,2.09,1.74,2.08,6.7,0,13.41,0,20.49,0C796.68,556.79,792,546.1,788.77,534.81Z" transform="translate(-0.58 -298.61)"/><path class="cls-10" d="M722.43,553.94c5.1-8.42,10.33-16.64,15.1-25.12,1.84-3.26,3.94-4.6,7.59-4.14a58.87,58.87,0,0,0,6.87.05c-5.87,8.91-10.74,17.75-17,25.46-6.08,7.46-6.14,13.28-.18,20.86,6.52,8.29,11.62,17.68,17.79,27.3-3.92,0-7.31,0-10.7,0-1.84,0-2.16-1.58-2.85-2.69-5.66-9.1-11.28-18.23-17.17-27.79-5.16,8.85-10.31,17.19-14.92,25.82-2,3.72-4.32,5.34-8.47,4.72a45.36,45.36,0,0,0-6.15,0c3.93-6.22,7.58-12.07,11.28-17.89,3.52-5.53,6.94-11.12,10.67-16.51,1.52-2.21,1.26-3.75-.1-5.87-7-10.88-13.78-21.86-20.68-32.85a6.59,6.59,0,0,1,1-.45c8-1.74,12.82,1.48,16.19,8.9C713.84,540.75,718.42,547.19,722.43,553.94Z" transform="translate(-0.58 -298.61)"/><path class="cls-10" d="M865,599.18a39.59,39.59,0,0,1-16.76-2.77c-13-4.93-21-17-21.73-31-1.4-28.43,19.81-44.73,48.6-41.1,1.93.24,3.81.92,5.75,1.14,4.37.48,4.93,2.46,3.41,6.34-1,2.54-1.67,3.13-4.36,2.13a36.4,36.4,0,0,0-19.86-1.29c-14.87,2.87-23.38,14.21-22.82,29.91.67,19,12.92,29.77,32,28.5a45.67,45.67,0,0,0,11.53-2c1.67-.56,3.14-1.12,3.11,1.39,0,2.08,3.56,4.72-.58,6.18A50.43,50.43,0,0,1,865,599.18Z" transform="translate(-0.58 -298.61)"/><path class="cls-9" d="M406.87,563.25c0,7.51-.12,15,.07,22.54.08,3.09-.84,4.14-4,4-8-.27-6.88.85-6.83-7,.12-20.31.46-40.62.72-60.93a10.29,10.29,0,0,1,.09-2.08c.42-1.92.95-4.24,3.09-4.52,2.47-.32,3.46,1.78,4,4,2,7.58,2.28,15.38,2.72,23.12.39,6.94.08,13.91.08,20.87Z" transform="translate(-0.58 -298.61)"/><path class="cls-9" d="M411.26,438.57h.84c11.5.45,14,3.94,11,14.8a27,27,0,0,1-5,10.46c-5.37,6.45-9.62,13.68-14.47,20.5-1.61,2.26-3.34,4.51-6.24,5.34a3.11,3.11,0,0,1-3.13-.69c-.88-.81-.09-1.59.34-2.21,8.32-12.18,10.07-25.65,8.26-39.92C402,440.58,404.24,438.57,411.26,438.57Z" transform="translate(-0.58 -298.61)"/><path class="cls-9" d="M362.21,461.49c.22-6.94,6.11-13.26,14.39-15.36a34.65,34.65,0,0,1,6.56-1.31c3.16-.17,6.87-1.9,9.18,1.75,2.94,4.64,4.12,9.68,2.13,15.06a2.49,2.49,0,0,1-2.25,1.65c-6.52.26-12,3.53-17.64,6.16C368.35,472.33,362,468.21,362.21,461.49Z" transform="translate(-0.58 -298.61)"/><path class="cls-9" d="M420.36,480.68c2.88-5,6.4-7.69,9.94-10.41a2.94,2.94,0,0,1,2.37-.48c13.29,1.89,26.61,3.68,39,9.2,5.92,2.64,11.56,5.78,14.76,11.81,1.87,3.52.92,5.83-2.95,6.9-5.43,1.49-10.5,0-15.41-2.27-1.57-.72-1.75-2.37-2.19-3.83-3.94-13-14.1-18.78-27.62-16.05C432.52,476.71,427.05,478.78,420.36,480.68Z" transform="translate(-0.58 -298.61)"/><path class="cls-11" d="M445.59,435.86a132,132,0,0,0,34.11,1.48c10.88-.86,20.12-7.81,31.11-8.49-3.61,6.25-9.49,8.85-15.89,10.52-13.94,3.64-28.08,2.72-42.2,1.6C450,440.75,448,438.89,445.59,435.86Z" transform="translate(-0.58 -298.61)"/><path class="cls-11" d="M489,583c.88,5.1-.38,6.71-5,7-8.8.65-17.59,1.41-26.39,2.07a41.89,41.89,0,0,1-4.62,0c-3.28-.12-5.21-1.3-4.73-5.11.43-3.46,2-4.7,5.5-4.5,5.78.32,11.33,1.83,17,2.72C477.05,586.15,483.22,586.82,489,583Z" transform="translate(-0.58 -298.61)"/><path class="cls-11" d="M491.58,523.93c-3.9-7.94-3.89-7.88-12.64-6.9s-17.49,1.83-26.25,2.69a8.63,8.63,0,0,1-3.33-.14,5.23,5.23,0,0,1-3.94-5.32c.21-2.22,2.72-1.13,4.17-1.18,10.07-.36,20.14-.58,30.21-.84a17.81,17.81,0,0,1,10.34,2.87C494.15,517.72,494.44,519.4,491.58,523.93Z" transform="translate(-0.58 -298.61)"/><path class="cls-11" d="M497.32,546.23c3.86,4.43,3,7.76-2.45,10a56.35,56.35,0,0,1-14.24,3.35,136.23,136.23,0,0,1-18.41,1.27c-2.31,0-4-.68-4.27-3s1.6-3.11,3.49-3.44a24.84,24.84,0,0,1,5-.34,99.41,99.41,0,0,0,17.16-1C488.9,552.37,494.13,551.22,497.32,546.23Z" transform="translate(-0.58 -298.61)"/><path class="cls-4" d="M776.9,408.31c-21.59.05-43.17.06-64.76.19-2.31,0-2.75-.76-2.74-2.85.07-15.17.14-30.35,0-45.51,0-3.13,1.38-3.25,3.75-3.25q31.13.09,62.25,0c7.31,0,6,.86,6.11-6.26.06-3.89-.06-7.79-.1-11.68,1.76.42,1.39,1.85,1.4,3,0,3.21,0,6.41,0,9.61,0,5.42-1.94,7.43-7.5,6.45s-11.16-.61-16.73-.66c-12.76-.12-25.52,0-38.28,0-.84,0-1.68,0-2.52,0-5.62.13-6.26.74-6.82,6-1.41,13.31-.23,26.67-.63,40-.07,2.23.93,3.11,3.19,3.45a52.29,52.29,0,0,0,7.9.75c16.68,0,33.37-.11,50.05.12C773.17,407.75,775.43,405.44,776.9,408.31Z" transform="translate(-0.58 -298.61)"/><path class="cls-11" d="M426.61,464.32a28.51,28.51,0,0,0,7.45-19.19c0-1.17-.2-2.82,1.42-3.07,1.85-.29,1.64,1.52,2,2.6a117.34,117.34,0,0,0,6.88,16.07c1,1.91,1.26,2.81-1.44,3.14A97.11,97.11,0,0,1,426.61,464.32Z" transform="translate(-0.58 -298.61)"/><path class="cls-11" d="M487.26,457.85a4.82,4.82,0,0,1-4.43-5.15c0-2.87,1.86-4.56,4.69-4.85,2.41-.24,5.59,3.07,5.15,5.44C492.18,455.89,490.78,457.89,487.26,457.85Z" transform="translate(-0.58 -298.61)"/><path class="cls-11" d="M489.49,472.41c-.5,2.26-1.51,4.36-4.24,4.18-3.06-.2-5.24-1.59-5.07-5.28.14-3.23,2.08-4.6,4.83-4.53C488.32,466.86,489.23,469.45,489.49,472.41Z" transform="translate(-0.58 -298.61)"/><path class="cls-11" d="M472.09,449.44c3.6-.85,5.24,1.23,5.23,4.45,0,2.65-1.72,4.13-4.66,4.18-3.7.06-5.1-1.4-5.15-5.19S469.33,449.11,472.09,449.44Z" transform="translate(-0.58 -298.61)"/><path class="cls-11" d="M461.63,452.32c.24,1.67-.31,2.65-2.76,2.23-3.09-.53-6-1.37-8.31-3.5-1.26-1.16-1.46-2.2.78-2.74a26.49,26.49,0,0,1,7.88-.45C461.86,448,461.52,450.14,461.63,452.32Z" transform="translate(-0.58 -298.61)"/><path class="cls-11" d="M470.23,463.64c2.2.3,5,.68,5.2,3.78.08,1.59-.49,4.05-3.19,4.15-2.41.09-6.4-3.21-6.2-5.14C466.27,464.12,467.85,463.54,470.23,463.64Z" transform="translate(-0.58 -298.61)"/><path class="cls-12" d="M109.69,344.12h71.9v.42H109.51Z" transform="translate(-0.58 -298.61)"/><path class="cls-11" d="M499.45,453.07a2.43,2.43,0,0,1-2.28-2.89c.21-3,4.32-6.89,7.4-7,.77,0,1.32.08,1.64.88C507.1,446.2,501.9,453.18,499.45,453.07Z" transform="translate(-0.58 -298.61)"/><path class="cls-11" d="M497.79,482.28c.25,3.38-.57,5.36-3.09,5.47-2.71.12-3.92-2-3.93-4.39s.82-5,3.81-4.93S497.64,481.08,497.79,482.28Z" transform="translate(-0.58 -298.61)"/><path class="cls-11" d="M461,464.67c.15,2.26-.83,3.38-2.65,3.36-2.91,0-4.3-2.11-4.62-4.56-.25-1.92,1.95-1.9,3.09-1.89C458.92,461.58,461.13,462.06,461,464.67Z" transform="translate(-0.58 -298.61)"/><path class="cls-13" d="M661.93,668.1c-2.33,6.38-4.36,12-6.41,17.53a32,32,0,0,1-1.21,3c-.45.92-.64,2.06-2.25,1.84a2.63,2.63,0,0,1-2.5-2.22c-2-6.19-4.13-12.33-6.43-18.43.08,6.13-1.72,12.09-1.09,18.19.17,1.65-.17,2.48-2.2,2.49-2.23,0-2.11-1.23-2-2.66.56-8.08,1.18-16.15,1.64-24.24.1-1.69,1.06-1.91,2.16-1.57,1.29.4,3.12-1.37,3.91,1.55,1.58,5.8,3.86,11.41,5.72,17.13.28.85.45,1.57,1.35,1.89,2.08-6,4.36-11.94,6.23-18.05.92-3,3-2.59,5.13-2.58,2.83,0,1.49,2.15,1.63,3.36.83,7.07.47,14.24,1.61,21.32.18,1.11,1.54,3.44-1.51,3.81-2.52.3-2.24-1.13-2.69-2.87C661.38,681.43,662.92,675.2,661.93,668.1Z" transform="translate(-0.58 -298.61)"/><path class="cls-13" d="M323.46,676.14c0-3.9.11-7.8,0-11.69-.08-2.05.61-2.65,2.6-2.54a73.74,73.74,0,0,0,8.41,0c11-.62,15.16,9.8,12.91,17.79-2,7-5.66,10.67-14.67,10.68-9.2,0-9.2,0-9.2-9.25Zm4.22-.26c0,3,0,6.11,0,9.16,0,1.26.16,2,1.76,2.06,4.76.31,9.48-.18,12.15-4.4a12,12,0,0,0,.24-12.94c-2-3.55-7.42-5.86-12.59-4.33-3.49,1-.86,4.46-1.49,6.72A14.5,14.5,0,0,0,327.68,675.88Z" transform="translate(-0.58 -298.61)"/><path class="cls-13" d="M270.37,676c0-3.9,0-7.8,0-11.7,0-1-.43-2.35,1.46-2.32,4.34.07,8.77-.47,13,.21,7.18,1.16,12,9.78,9.7,17-2.42,7.53-5.08,11.06-14.75,11.19-9.43.12-9.43,0-9.43-9.41Zm4.21-.11c0,3,0,6.1,0,9.16,0,1.23.09,2,1.72,2.09,4.76.3,9.46-.18,12.16-4.38a12,12,0,0,0,.27-12.94c-2-3.56-7.32-5.84-12.57-4.35-3.57,1-.86,4.45-1.51,6.69A13.65,13.65,0,0,0,274.58,675.85Z" transform="translate(-0.58 -298.61)"/><path class="cls-13" d="M185.25,676.42c0-9.65,4.42-14.1,13.21-14.58,8-.44,12.86,6.65,12.92,13.72.08,8.67-5.1,15.41-13.37,14.94S185.24,685.64,185.25,676.42Zm4.21.21c0,5.89,3.81,10.51,8.58,10.42s9.16-5.4,9.12-10.92c0-5.73-4.35-10.79-9.2-10.83S189.45,669.94,189.46,676.63Z" transform="translate(-0.58 -298.61)"/><path class="cls-13" d="M620.33,690.4c-8.73,0-12.54-4.75-13-14.74a13.34,13.34,0,0,1,13.67-13.94c7.52.17,12.66,6.89,12.58,14.19C633.53,684.29,628.49,691.3,620.33,690.4Zm-8.64-13.74c0,5.9,3.8,10.49,8.6,10.39s9.17-5.45,9.09-10.94c-.08-5.79-4.34-10.78-9.21-10.81S611.69,670,611.69,676.66Z" transform="translate(-0.58 -298.61)"/><path class="cls-13" d="M463.36,683.26c0-6.77,0-12.71,0-18.65,0-1.05-.71-2.58,1.49-2.69,2.43-.12,1.84,1.52,1.84,2.78,0,7.65,0,15.3,0,23,0,.91.81,2.44-.94,2.68-1.46.19-3,.41-4-1.29-4-6.67-8.11-13.29-12.68-20.75,0,6.7.07,12.66-.06,18.62,0,1.2,1.23,3.33-1.48,3.46-3.17.16-1.74-2.33-1.76-3.57-.15-7.24-.13-14.48,0-21.71,0-1.09-1.11-3.08,1.37-3.11,1.51,0,3-.5,4.12,1.57C454.86,670,458.93,676.15,463.36,683.26Z" transform="translate(-0.58 -298.61)"/><path class="cls-13" d="M409.42,683.3c0-6.91,0-12.9,0-18.88,0-1.16-.44-2.54,1.7-2.51s1.65,1.42,1.65,2.56c0,7.65.06,15.31,0,23,0,1,.92,2.72-1.12,2.93-1.46.15-2.87.28-3.91-1.48-4-6.67-8.11-13.22-12.62-20.52,0,6.86,0,13,0,19.17,0,1.15.85,2.94-1.68,2.9s-1.6-1.85-1.61-3q-.12-11.28,0-22.55c0-1-.89-2.75,1.16-2.91,1.67-.13,3.25-.44,4.47,1.7C401,670.08,405.05,676.24,409.42,683.3Z" transform="translate(-0.58 -298.61)"/><path class="cls-13" d="M702.71,668.24c0,7,0,13.22,0,19.42,0,1.25.59,2.9-1.84,2.78-2.2-.11-1.48-1.64-1.49-2.7,0-7.65-.06-15.31,0-23,0-1-.88-2.81,1.29-2.78,1.47,0,2.94-.64,4.16,1.49,3.68,6.48,7.81,12.71,12.21,19.72,0-6.68,0-12.59,0-18.5,0-1.25-.62-2.91,1.83-2.79,2.19.1,1.49,1.63,1.49,2.68q.09,11.49,0,23c0,.93.79,2.44-.86,2.75-1.45.26-3.08.47-4.08-1.19C711.38,682.46,707.32,675.8,702.71,668.24Z" transform="translate(-0.58 -298.61)"/><path class="cls-13" d="M546.86,690.05c-4.4,1.38-5.66-.54-6-4.24-.54-5.47-3-7.54-7.38-7.18-1.5.13-1.9.6-1.85,2,.08,2.51-.09,5,0,7.52.11,1.83-.53,2.34-2.35,2.34s-1.91-1-1.91-2.35c0-7.93.06-15.87,0-23.8,0-1.74.37-2.49,2.3-2.4,3.08.16,6.17-.06,9.25.07,3.23.14,5.23,2.13,6.49,4.9a5.94,5.94,0,0,1-1.49,7.43c-2.21,1.84-1.84,3-.62,5.35C545,682.8,545.68,686.43,546.86,690.05ZM531.5,670.54c1.12,1.41-2,5,2.63,4.83,4-.11,7.47-2.45,7.6-5.34s-2.64-4.46-6.84-4.81C529.92,664.81,532.14,668.32,531.5,670.54Z" transform="translate(-0.58 -298.61)"/><path class="cls-13" d="M799.69,690.07c-4.44,1.25-5.8-.69-6-4.34a8.51,8.51,0,0,0-2.75-6.12c-1.75-1.59-3.79-1.07-5.55-.77s-.77,2.3-.88,3.52a43.77,43.77,0,0,0,0,5.84c.07,1.47-.2,2.23-2,2.27-2,0-2.28-.74-2.26-2.44.07-7.94.09-15.87,0-23.8,0-1.88.59-2.39,2.39-2.31,2.94.13,5.89,0,8.83,0,3.47,0,5.58,2.08,6.88,5a6,6,0,0,1-1.61,7.44c-2.33,1.86-1.62,3.15-.53,5.35C797.75,682.92,798.53,686.51,799.69,690.07Zm-12-24.75c-3-.84-4,.9-3.16,3.51.68,2.2-2.71,6.25,2.56,6.47,4,.16,7.77-2.58,7.39-5.4C794,666.34,791.43,665.06,787.71,665.32Z" transform="translate(-0.58 -298.61)"/><path class="cls-13" d="M441.21,690.05c-4,1.49-5.61-.57-6-3.83-.8-6-5.41-3.78-8.83-4.19-3.88-.47-3.51,3-4.05,4.9-.61,2.08-.66,3.66-3.41,3.52-1.77-.09-2.19-.65-1.64-2.26,2.75-8.1,5.54-16.19,8.17-24.34.66-2,2-1.87,3.58-1.91s2.65.28,3.29,2.24C435.08,672.83,438.19,681.39,441.21,690.05Zm-12.3-23.25c-1.31,3.92-2.29,6.78-3.23,9.66-.29.89-.77,2.08.78,2.17,1.8.1,4,.47,5.32-.34,1.52-.91-.23-2.81-.65-4C430.38,672.17,430,669.94,428.91,666.8Z" transform="translate(-0.58 -298.61)"/><path class="cls-13" d="M572.66,690c-4.94,2-5.89-1.68-6.33-4.59-.74-5-4.29-3.05-6.94-3.39s-4.56.05-5.24,3.47c-.33,1.63.47,5.23-3.53,4.93-1.83-.13-2.56-.41-1.86-2.41,2.77-8,5.53-16,8.09-24,.65-2,1.89-2,3.48-2s2.75.12,3.4,2.14C566.56,672.77,569.65,681.37,572.66,690Zm-12.39-23c-1.17,3.63-2,6.41-3,9.17-.3.91-1,2.17.34,2.37,1.88.28,4.13.48,5.71-.3,1.34-.67-.41-2.4-.64-3.67A60.6,60.6,0,0,0,560.27,667Z" transform="translate(-0.58 -298.61)"/><path class="cls-13" d="M776.65,690.18c-3.33.81-5.45.2-5.87-3.57-.65-5.88-5.26-4.38-9-4.61-4.16-.25-3.27,3.37-4.12,5.38-.6,1.43-.4,3-2.55,3-1.89,0-3.27.18-2.24-2.65,2.85-7.82,5.47-15.73,7.94-23.68.63-2,1.78-2.15,3.4-2.14s2.81,0,3.48,2C770.53,672.75,773.63,681.45,776.65,690.18Zm-12.33-23.32c-1.3,3.86-2.28,6.73-3.22,9.62-.29.9-.74,2.07.81,2.15,1.79.09,4,.46,5.31-.36s-.23-2.81-.67-4C765.77,672.15,765.41,669.91,764.32,666.86Z" transform="translate(-0.58 -298.61)"/><path class="cls-13" d="M319.79,690.08c-4.27,1.7-5.72-1-6.13-4.16-.7-5.46-4.72-3.45-7.78-3.92-3.37-.52-4,1.64-4.74,4.09-.56,1.82.07,4.74-3.56,4.37-1.67-.17-2.31-.52-1.75-2.21q4.16-12.36,8.28-24.73c.57-1.72,2-1.57,3.44-1.58s2.69,0,3.28,1.77C313.78,672.55,316.81,681.36,319.79,690.08ZM307.55,666.8c-1.32,3.92-2.29,6.78-3.23,9.66-.29.89-.77,2.08.78,2.17,1.79.1,4,.47,5.32-.34,1.52-.91-.23-2.81-.65-4C309,672.17,308.6,669.94,307.55,666.8Z" transform="translate(-0.58 -298.61)"/><path class="cls-13" d="M835.62,690.12c-4.41,1.66-5.9-1.3-6.34-4.48-.74-5.46-4.75-3.1-7.58-3.6s-3.92.93-4.64,3.67c-.45,1.73.28,5.21-3.71,4.75-1.7-.19-2.29-.56-1.72-2.24,2.76-8.13,5.55-16.26,8.21-24.44.66-2,2.13-1.8,3.65-1.84s2.57.19,3.15,1.94C829.55,672.67,832.62,681.41,835.62,690.12Zm-12.49-22.34a74.24,74.24,0,0,1-2.9,8.37c-.66,1.71-.57,2.44,1.57,2.59,5,.34,5.57-.07,3.79-4.54C824.75,672.11,824.41,669.88,823.13,667.78Z" transform="translate(-0.58 -298.61)"/><path class="cls-13" d="M693.44,672.7c-.56,2.77.33,6.14-.57,9.63-2.25,8.79-7.5,8.39-14.18,8-4-.23-7-5.17-7.14-11-.09-5,.05-10-.06-15,0-1.76.4-2.43,2.31-2.4s2,.88,2,2.3c0,4.18.16,8.37-.08,12.54a16.26,16.26,0,0,0,1.16,6.37c.9,2.54,3,4.54,6.27,3.95,2.87-.5,4.46-2.33,5.28-5,1.6-5.15.39-10.44.92-15.62.16-1.57-1.9-4.57,2.14-4.5,3.71.07,1.64,2.81,1.91,4.3C693.7,668.13,693.44,670.13,693.44,672.7Z" transform="translate(-0.58 -298.61)"/><path class="cls-13" d="M506.34,676.18c0-.7,0-1.39,0-2.09.27-4-1.77-10,.74-11.44,3.45-2,8.91-.61,13.5-.7,1.14,0,1.76.22,1.81,1.58.06,1.6-.71,1.82-2,1.79-2.38-.06-4.77.14-7.14-.06-4.22-.35-2.45,2.73-2.61,4.49s-1,4.41,2.73,4c2.21-.27,4.47,0,6.71-.06,1.46,0,1.45.85,1.47,1.89s-.43,1.48-1.47,1.47c-2.24,0-4.49.12-6.72,0s-2.82.46-2.85,2.71c-.09,7.36-.19,7.23,7.36,7.46,1.76.06,5.25-1.74,5.14,1.67s-3.52,1.31-5.34,1.47c-3.59.31-8.47,1.35-10.52-.46-2.39-2.12-.54-7-.78-10.73C506.29,678.13,506.34,677.15,506.34,676.18Z" transform="translate(-0.58 -298.61)"/><path class="cls-13" d="M249.3,676c0-3.76.09-7.51,0-11.26-.07-2,.31-3,2.69-2.86,3.63.21,7.28,0,10.92.06,1.2,0,2.54-.37,2.49,1.73s-1.5,1.54-2.62,1.59-2.52,0-3.78,0c-5.36,0-6.78,2-5.49,7.12.36,1.46,1.23,1.23,2.14,1.24,2.38,0,4.77,0,7.14,0,1.2,0,1.76.33,1.75,1.64s-.35,1.82-1.65,1.73c-.84,0-1.68,0-2.52,0-6.86,0-8.32,2-6.87,8.69.38,1.78,1.48,1.32,2.47,1.33,2.79.06,5.6,0,8.4,0,1.08,0,1.82.11,1.86,1.52s-.57,1.87-2,1.85c-4.34-.06-8.69-.1-13,0-1.92,0-2-.94-1.93-2.33C249.33,684.08,249.3,680.05,249.3,676Z" transform="translate(-0.58 -298.61)"/><path class="cls-13" d="M174.2,662a4.71,4.71,0,0,1,.84,0c2.05.34,5.67-1.19,5,2.82-.55,3.33-3,.45-4.57.5-2.65.08-5.57-.18-6.4,3.12-.77,3.05,1.91,4,3.94,5.09,3.24,1.71,7.24,2.18,8.39,6.71s-.31,7.84-5,9.48c-3.51,1.22-7,1-10.54.24-1.31-.27-2.39-.71-1.89-3,.7-3.12,1.93-.73,2.88-.72a6.2,6.2,0,0,1,1.52.43c4.11,1.26,8,.14,8.71-2.9.91-3.85-2.41-4.71-5-6.11-1.3-.7-2.7-1.18-4-1.9-3.51-1.93-4.74-4.84-3.71-8.2s3.6-5.78,7.68-5.6C172.79,662,173.5,662,174.2,662Z" transform="translate(-0.58 -298.61)"/><path class="cls-13" d="M485.69,690.4c-5.66.74-10.49-1.6-12.86-7.27a17.13,17.13,0,0,1,2.06-17.08c2.53-3.57,13.12-5.55,17.3-3.49.62.3,2,.23,1.33,1.47-.5,1-.67,2.47-2.51,2.13-1.46-.26-2.77-.93-4.38-.94a10.29,10.29,0,0,0-9.63,5.9,11.38,11.38,0,0,0,1.15,12.35c2.49,3.16,6.61,4.29,10.8,3.41,1.4-.3,2.75-1.6,3.86.23.36.6,1.47,1.41.62,2.1a5.55,5.55,0,0,1-4.24,1.22A32.24,32.24,0,0,0,485.69,690.4Z" transform="translate(-0.58 -298.61)"/><path class="cls-13" d="M598.1,690.5c-6.24.57-11-1.89-13.26-7.59a16.89,16.89,0,0,1,2.31-17c2.59-3.4,12.89-5.37,17-3.43.59.28,2.17,0,1.44,1.8s-2,2.37-3.51,1.77c-4.41-1.7-8-.58-11.12,2.7-3.36,3.48-3.88,9-1.2,13.92,1.73,3.15,7.42,5.22,11.53,4.18.64-.16,1.26-.44,1.91-.6,1.84-.48,2,1.21,2.45,2.16.68,1.48-1.25,1.56-1.71,1.65A38.72,38.72,0,0,1,598.1,690.5Z" transform="translate(-0.58 -298.61)"/><path class="cls-13" d="M227.7,690.4c-6.13.57-10.9-2-13-8-2-5.8-1.39-11.62,2.57-16.59,2.72-3.42,12.95-5.23,17-3.27.7.33,2,.15,1.26,1.85s-2,2.17-3.55,1.59c-4.41-1.62-8-.47-11.11,2.86s-3.75,9.29-1.08,13.95c1.79,3.13,7.47,5.17,11.61,3.94,1.36-.4,2.58-1.17,3.51.35.37.6,1.49,1.47.67,2.1a5.1,5.1,0,0,1-3.81,1.26A36,36,0,0,0,227.7,690.4Z" transform="translate(-0.58 -298.61)"/><path class="cls-13" d="M360.54,675.82v-7.09c0-6.78,0-6.78,7-6.78,2.38,0,4.76,0,7.14,0,1.07,0,1.84.08,1.87,1.5s-.53,1.94-1.95,1.87a49.55,49.55,0,0,1-5-.06c-4-.66-4.76.85-5.07,4.8-.44,5.55,2.85,4.17,5.84,4.54,1.79.22,5.16-1.78,5.15,1.69s-3.27,1-5,1.49a9.68,9.68,0,0,1-3.76.05c-1.72-.16-2.12.62-2.07,2.17.1,2.78-.06,5.56.06,8.34.07,1.64-.52,2.11-2.15,2.12s-2.17-.51-2.13-2.14C360.61,684.16,360.54,680,360.54,675.82Z" transform="translate(-0.58 -298.61)"/><path class="cls-13" d="M742.32,677.82c0-1.53,0-3.05,0-4.58,0-2.49.74-5.52-.42-7.3s-4.39-.42-6.71-.62c-1.12-.1-2.16.11-2.18-1.63s.79-1.76,2.06-1.75c6,0,12,0,18,0,1.06,0,1.85.06,1.88,1.49s-.51,1.9-1.94,1.89c-2.06,0-4.93-.6-6,.47-1.52,1.57-.46,4.46-.5,6.79-.1,4.86,0,9.72-.05,14.58,0,1.47.8,3.38-2.18,3.31s-1.91-2.14-2-3.49C742.23,683.94,742.32,680.88,742.32,677.82Z" transform="translate(-0.58 -298.61)"/><path class="cls-13" d="M243.4,676.2c0,4-.05,8,0,12.06,0,1.53-.31,2.24-2,2.19-1.52,0-2.24-.28-2.22-2q.12-12.27,0-24.53c0-1.82.82-1.92,2.27-2,1.8-.09,2,.77,2,2.23C243.35,668.16,243.4,672.18,243.4,676.2Z" transform="translate(-0.58 -298.61)"/><path class="cls-13" d="M807.22,676.16c0,3.89,0,7.77,0,11.65,0,1.39.26,2.68-2,2.66-2,0-2.28-.73-2.26-2.43q.12-11.85,0-23.7c0-1.66.23-2.46,2.23-2.46,2.22,0,2,1.22,2,2.64C807.2,668.4,807.22,672.28,807.22,676.16Z" transform="translate(-0.58 -298.61)"/><path class="cls-13" d="M380.77,675.76c0-3.75,0-7.49,0-11.23,0-1.42-.21-2.66,2-2.65,2,0,2.25.78,2.23,2.45-.06,7.9-.07,15.8,0,23.7,0,1.7-.29,2.43-2.25,2.45-2.25,0-2-1.26-2-2.67C380.78,683.8,380.77,679.78,380.77,675.76Z" transform="translate(-0.58 -298.61)"/><path class="cls-13" d="M497.07,675.79c0-3.75,0-7.49,0-11.23,0-1.38-.29-2.7,2-2.68,1.94,0,2.29.7,2.27,2.42q-.12,11.85,0,23.7c0,1.64-.2,2.47-2.22,2.48-2.21,0-2.05-1.2-2-2.64C497.09,683.83,497.07,679.81,497.07,675.79Z" transform="translate(-0.58 -298.61)"/><path class="cls-13" d="M726.31,675.75c0-3.74,0-7.49,0-11.23,0-1.42-.2-2.65,2-2.64,2,0,2.25.79,2.23,2.46-.06,7.9-.07,15.8,0,23.7,0,1.7-.3,2.42-2.26,2.43-2.25,0-2-1.27-2-2.66C726.32,683.79,726.31,679.77,726.31,675.75Z" transform="translate(-0.58 -298.61)"/><path class="cls-14" d="M208.84,392.69a21.41,21.41,0,0,1-21.12,21.49,21.65,21.65,0,1,1,21.12-21.49Zm-5.87.22a15.71,15.71,0,0,0-15.37-16.06c-8.24-.17-15.25,6.91-15.41,15.58a15.39,15.39,0,1,0,30.78.48Z" transform="translate(-0.58 -298.61)"/><path class="cls-14" d="M265.83,422.68c11.86.21,21.56,10.22,21.24,21.92a21.67,21.67,0,0,1-21.92,21.27c-11.68-.1-21.16-10.15-20.91-22.17A21.38,21.38,0,0,1,265.83,422.68Zm-.26,37a15.39,15.39,0,0,0,15.55-15.34A15.85,15.85,0,0,0,265.4,428.6c-8.23,0-15.31,7.31-15.27,15.75A15.31,15.31,0,0,0,265.57,459.72Z" transform="translate(-0.58 -298.61)"/><path class="cls-14" d="M129.65,466a21.61,21.61,0,0,1-21,21.65c-11.7.18-21.82-10.12-21.67-22a21.5,21.5,0,0,1,21.85-21.19C120.58,444.5,129.71,454,129.65,466Zm-21.27,15.43A15.42,15.42,0,0,0,123.84,466c0-8.71-7.15-16-15.61-15.79A15.38,15.38,0,0,0,93.1,466,15.14,15.14,0,0,0,108.38,481.43Z" transform="translate(-0.58 -298.61)"/><path class="cls-14" d="M113.6,379.92A21.23,21.23,0,0,1,92.22,401.6a21.61,21.61,0,0,1,.22-43.21A21.34,21.34,0,0,1,113.6,379.92Zm-5.77.37a16,16,0,0,0-15.12-16C84.4,364,76.85,371.49,76.84,380a16,16,0,0,0,15.33,15.79C100.32,395.89,107.71,388.59,107.83,380.29Z" transform="translate(-0.58 -298.61)"/><path class="cls-15" d="M377.34,383.4c-6.56-.25-13.24.61-19.45-2.43-4.28-2.09-7.75-4.8-9.11-10.22,7.21,1.58,12.75-1.5,18.4-4.32s11.45-5.91,17.67-7.79c14.66-4.41,33.61,3.29,41.08,16.59,1.75,3.1,1.18,4.35-2.35,5.1-5.22,1.11-10.67.47-15.76,2.28.2-1.68,2.79-1.76,2.52-3.74,4.22-.37,8.49-.41,12.6-1.85-2.87-6.34-9.77-12.12-16-13.36,1.5,3.19,4,5.92,3.35,9.63-2.85.14-.82,3.37-2.66,4.15.82-6.64-1.52-11.88-7.53-15a15.82,15.82,0,0,0-17.45,1.28c-5.28,3.83-6.49,9.13-4.88,15.23-1.2-.1-1.63-1.71-3-1.49-1.77-4,.27-7.72,1.53-12.09-7.71,3.19-14.19,7.68-22.15,9,4.54,4.87,9.79,6.47,19.59,6.17C373.84,382.91,376.56,382,377.34,383.4Z" transform="translate(-0.58 -298.61)"/><path class="cls-14" d="M407.65,377.44c1.84-.78-.19-4,2.66-4.15a3.09,3.09,0,0,1,0,2.51,1.58,1.58,0,0,0-.46,2.17l.51.9c.27,2-2.32,2.06-2.52,3.74l0-.08a1.52,1.52,0,0,0-1,1.6l0,0-.8.86-1.68,1.67c-.76,0-1.4.17-1.58,1l.07-.07-1,.68a.28.28,0,0,1-.39.2c-1.74,0-3.42.18-4.6,1.7l-1.78.43a4.68,4.68,0,0,0-5,0l-1.67-.28c-.66-1.75-2.17-1.11-3.43-1.2h0l-1.32-.66-.21,0-.13-.17-1.3-.73a3.4,3.4,0,0,1-2.17-1.6l-1.08-.95-.57-.82-.85-.93v0c-.78-1.45-3.5-.49-3.57-2.82l.09.08,1-.47-.09-2.7c1.36-.22,1.79,1.39,3,1.49a21.23,21.23,0,0,0,11.95,6.88C397.55,387.38,404,385,407.65,377.44Z" transform="translate(-0.58 -298.61)"/><path class="cls-15" d="M390.06,390.69a4.68,4.68,0,0,1,5,0Z" transform="translate(-0.58 -298.61)"/><path class="cls-15" d="M385,389.21c1.26.09,2.77-.55,3.43,1.2A4.23,4.23,0,0,1,385,389.21Z" transform="translate(-0.58 -298.61)"/><path class="cls-15" d="M396.85,390.23c1.18-1.52,2.86-1.67,4.6-1.7A6.5,6.5,0,0,1,396.85,390.23Z" transform="translate(-0.58 -298.61)"/><path class="cls-15" d="M406.88,384.13a1.52,1.52,0,0,1,1-1.6A1.42,1.42,0,0,1,406.88,384.13Z" transform="translate(-0.58 -298.61)"/><path class="cls-15" d="M402.8,387.72c.18-.86.82-1,1.58-1A1.84,1.84,0,0,1,402.8,387.72Z" transform="translate(-0.58 -298.61)"/><path class="cls-15" d="M383.65,388.55l1.32.66Z" transform="translate(-0.58 -298.61)"/><path class="cls-15" d="M401.84,388.33l1-.68Z" transform="translate(-0.58 -298.61)"/><path class="cls-15" d="M377.34,383.38l.85.93Z" transform="translate(-0.58 -298.61)"/><path class="cls-15" d="M406.06,385l.8-.86Z" transform="translate(-0.58 -298.61)"/><path class="cls-15" d="M378.76,385.13l1.08.95Z" transform="translate(-0.58 -298.61)"/><path class="cls-15" d="M382,387.68l1.3.73Z" transform="translate(-0.58 -298.61)"/><path class="cls-14" d="M132,534a18.62,18.62,0,0,1,18.55,18.75c0,10.13-8.73,18.8-18.76,18.74-10.52-.07-18.35-8.35-18.31-19.36C113.5,541.86,121.57,534,132,534Zm-13.42,18.42a13.29,13.29,0,1,0,26.57.42c0-7.69-5.89-13.84-13.26-13.8A13.52,13.52,0,0,0,118.57,552.38Z" transform="translate(-0.58 -298.61)"/><path class="cls-14" d="M253.5,538a18.09,18.09,0,0,1-.9,36.16c-10.15-.17-17.79-8.43-17.53-19A17.86,17.86,0,0,1,253.5,538Zm-.65,5a13.09,13.09,0,0,0,.39,26.17,13.09,13.09,0,0,0-.39-26.17Z" transform="translate(-0.58 -298.61)"/><path class="cls-1" d="M839.24,357.33c13.43-2.79,26.94-2.75,40.49-1.19A77.56,77.56,0,0,1,900,361.28c17.95,7.22,29.15,20.3,33.36,39a83.61,83.61,0,0,1-2.51,46.51c-7.9,22.67-25.05,34.77-48,39.41-13.67,2.76-27.51,2.66-41.35,1.11a1.4,1.4,0,0,0,.31-.28,1,1,0,0,0,0-.39c-3.43-.37-3.44-2.74-3.43-5.39,0-37.06-.07-74.13.16-111.2C838.57,365.82,837.42,361.45,839.24,357.33Z" transform="translate(-0.58 -298.61)"/><path class="cls-4" d="M839.24,357.33c-1.82,4.12-.67,8.49-.7,12.67-.23,37.07-.12,74.14-.16,111.2,0,2.65,0,5,3.43,5.39a1,1,0,0,1,0,.39,1.4,1.4,0,0,1-.31.28c-3.11.62-4-.6-4-3.74.1-41,0-81.91.11-122.87C837.59,359.46,836.42,357.29,839.24,357.33Z" transform="translate(-0.58 -298.61)"/><path class="cls-1" d="M569.54,386.2c0-8.91,0-17.82,0-26.73,0-1.88.22-3.15,2.46-3.42,12.7-1.59,25.39-2.52,37.93,1.08,13.85,4,21.56,13,22,25.54.55,14.41-6.39,24.84-20,30-6.91,2.6-14.11,3.37-21.45,3.34-5.74,0-11.51-.25-17.24.07-3.34.19-3.87-1-3.8-3.95C569.67,403.47,569.54,394.83,569.54,386.2Z" transform="translate(-0.58 -298.61)"/><path class="cls-14" d="M357.9,565a16.07,16.07,0,0,1-16.12-16.33,16.27,16.27,0,0,1,16.57-16.38,16.49,16.49,0,0,1,16.2,16.41A16.29,16.29,0,0,1,357.9,565Zm11.94-16.5a11.74,11.74,0,1,0-11.44,12.06A11.91,11.91,0,0,0,369.84,548.51Z" transform="translate(-0.58 -298.61)"/><path class="cls-1" d="M557.51,562c0-7.65,1.53-14.93,6.25-21.23a23.14,23.14,0,0,1,36.4-.5c8.6,10.79,9.13,30,1.06,41.2-5.24,7.28-12.41,10.65-21.41,9.75-10.6-1.06-16.76-7.55-20.34-16.94A31.85,31.85,0,0,1,557.51,562Z" transform="translate(-0.58 -298.61)"/><path class="cls-12" d="M924.44,534.78c3.24,11.3,7.92,22,11.47,33.47-7.08,0-13.78,0-20.48,0-1.53,0-2.46-.21-1.8-2.07C917.3,555.8,921.31,545.51,924.44,534.78Z" transform="translate(-0.58 -298.61)"/><path class="cls-12" d="M654.37,534.83c3.66,11.21,8.22,21.93,11.89,33.42H645.37c-2.7,0-1.52-1.56-1.1-2.76,2.53-7.34,5.11-14.66,7.59-22C652.82,540.63,653.54,537.71,654.37,534.83Z" transform="translate(-0.58 -298.61)"/><path class="cls-12" d="M788.77,534.81c3.25,11.29,7.91,22,11.43,33.44-7.08,0-13.79,0-20.49,0-1.56,0-2.4-.22-1.74-2.08C781.63,555.79,785.59,545.5,788.77,534.81Z" transform="translate(-0.58 -298.61)"/><path class="cls-2" d="M327.68,675.88a14.5,14.5,0,0,1,.05-3.73c.63-2.26-2-5.7,1.49-6.72,5.17-1.53,10.55.78,12.59,4.33a12,12,0,0,1-.24,12.94c-2.67,4.22-7.39,4.71-12.15,4.4-1.6-.1-1.78-.8-1.76-2.06C327.71,682,327.68,678.93,327.68,675.88Z" transform="translate(-0.58 -298.61)"/><path class="cls-2" d="M274.58,675.85a13.65,13.65,0,0,1,.06-3.73c.65-2.24-2.06-5.68,1.51-6.69,5.25-1.49,10.55.79,12.57,4.35a12,12,0,0,1-.27,12.94c-2.7,4.2-7.4,4.68-12.16,4.38-1.63-.1-1.74-.86-1.72-2.09C274.61,682,274.58,678.9,274.58,675.85Z" transform="translate(-0.58 -298.61)"/><path class="cls-2" d="M189.46,676.63c0-6.69,3.51-11.37,8.5-11.33s9.15,5.1,9.2,10.83c0,5.52-4.4,10.84-9.12,10.92S189.46,682.52,189.46,676.63Z" transform="translate(-0.58 -298.61)"/><path class="cls-2" d="M611.69,676.66c0-6.7,3.49-11.39,8.48-11.36s9.13,5,9.21,10.81c.08,5.49-4.37,10.85-9.09,10.94S611.7,682.56,611.69,676.66Z" transform="translate(-0.58 -298.61)"/><path class="cls-2" d="M531.5,670.54c.64-2.22-1.58-5.73,3.39-5.32,4.2.35,7,1.95,6.84,4.81s-3.63,5.23-7.6,5.34C529.47,675.49,532.62,672,531.5,670.54Z" transform="translate(-0.58 -298.61)"/><path class="cls-2" d="M787.71,665.32c3.72-.26,6.3,1,6.79,4.58.38,2.82-3.39,5.56-7.39,5.4-5.27-.22-1.88-4.27-2.56-6.47C783.76,666.22,784.76,664.48,787.71,665.32Z" transform="translate(-0.58 -298.61)"/><path class="cls-2" d="M428.91,666.8c1,3.14,1.47,5.37,2.22,7.48.42,1.2,2.17,3.1.65,4-1.36.81-3.52.44-5.32.34-1.55-.09-1.07-1.28-.78-2.17C426.62,673.58,427.6,670.72,428.91,666.8Z" transform="translate(-0.58 -298.61)"/><path class="cls-2" d="M560.27,667a60.6,60.6,0,0,1,2.43,7.57c.23,1.27,2,3,.64,3.67-1.58.78-3.83.58-5.71.3-1.3-.2-.64-1.46-.34-2.37C558.22,673.41,559.1,670.63,560.27,667Z" transform="translate(-0.58 -298.61)"/><path class="cls-2" d="M764.32,666.86c1.09,3,1.45,5.29,2.23,7.4.44,1.2,2.15,3.11.67,4s-3.52.45-5.31.36c-1.55-.08-1.1-1.25-.81-2.15C762,673.59,763,670.72,764.32,666.86Z" transform="translate(-0.58 -298.61)"/><path class="cls-2" d="M307.55,666.8c1.05,3.14,1.47,5.37,2.22,7.48.42,1.2,2.17,3.1.65,4-1.36.81-3.53.44-5.32.34-1.55-.09-1.07-1.28-.78-2.17C305.26,673.58,306.23,670.72,307.55,666.8Z" transform="translate(-0.58 -298.61)"/><path class="cls-2" d="M823.13,667.78c1.28,2.1,1.62,4.33,2.46,6.42,1.78,4.47,1.23,4.88-3.79,4.54-2.14-.15-2.23-.88-1.57-2.59A74.24,74.24,0,0,0,823.13,667.78Z" transform="translate(-0.58 -298.61)"/><path class="cls-16" d="M203,392.91a15.39,15.39,0,1,1-30.78-.48c.16-8.67,7.17-15.75,15.41-15.58A15.71,15.71,0,0,1,203,392.91Zm-16.58,10.22c3.58.11,9.6-5.26,9.71-8.66s-5.53-8.69-9.47-8.77c-3.7-.08-9.18,4.78-9.38,8.31S182.56,403,186.39,403.13Z" transform="translate(-0.58 -298.61)"/><path class="cls-16" d="M265.57,459.72a15.31,15.31,0,0,1-15.44-15.37c0-8.44,7-15.75,15.27-15.75a15.85,15.85,0,0,1,15.72,15.78A15.39,15.39,0,0,1,265.57,459.72Zm-.89-23.82c-5.65-.12-8.16,2.62-8.28,9-.09,4.87,2.63,7.16,8.64,7.25,5.4.07,7.87-2.68,8-8.92C273.15,438,270.86,436,264.68,435.9Z" transform="translate(-0.58 -298.61)"/><path class="cls-16" d="M108.38,481.43A15.14,15.14,0,0,1,93.1,466a15.38,15.38,0,0,1,15.13-15.74c8.46-.19,15.65,7.08,15.61,15.79A15.42,15.42,0,0,1,108.38,481.43Zm1-23.75c-5.94.06-8.51,2.14-8.46,6.85.08,6.37,3.12,9.93,8.34,9.77,6-.19,8.7-2.32,8.72-6.81C118,460.8,115.25,457.63,109.41,457.68Z" transform="translate(-0.58 -298.61)"/><path class="cls-16" d="M107.83,380.29c-.12,8.3-7.51,15.6-15.66,15.46A16,16,0,0,1,76.84,380c0-8.47,7.56-15.93,15.87-15.68A16,16,0,0,1,107.83,380.29ZM93,370.87c-3.61,0-9.48,5.29-9.63,8.74s5.51,8.75,9.37,8.89,9.42-5,9.53-8.64C102.4,376.46,96.68,370.92,93,370.87Z" transform="translate(-0.58 -298.61)"/><path class="cls-16" d="M407.65,377.44c-3.68,7.6-10.1,9.94-17.91,8.42A21.23,21.23,0,0,1,377.79,379c-1.61-6.1-.4-11.4,4.88-15.23a15.82,15.82,0,0,1,17.45-1.28C406.13,365.56,408.47,370.8,407.65,377.44Zm-17.32,4.27c3.22,0,8.14-4.63,8-7.47-.15-2.66-5.08-7.09-8-7.16-3.27-.08-8.12,4.29-8.13,7.31S387,381.74,390.33,381.71Z" transform="translate(-0.58 -298.61)"/><path class="cls-16" d="M374.8,377.49l.09,2.7-1,.47-.09-.08c-9.8.3-15-1.3-19.59-6.17,8-1.33,14.44-5.82,22.15-9C375.07,369.77,373,373.45,374.8,377.49Z" transform="translate(-0.58 -298.61)"/><path class="cls-16" d="M410.34,378.87l-.51-.9a2.34,2.34,0,0,0,.46-2.17,3.09,3.09,0,0,0,0-2.51c.63-3.71-1.85-6.44-3.35-9.63,6.21,1.24,13.11,7,16,13.36C418.83,378.46,414.56,378.5,410.34,378.87Z" transform="translate(-0.58 -298.61)"/><path class="cls-15" d="M410.29,375.8a2.34,2.34,0,0,1-.46,2.17A1.58,1.58,0,0,1,410.29,375.8Z" transform="translate(-0.58 -298.61)"/><path class="cls-15" d="M373.86,380.66l1-.47Z" transform="translate(-0.58 -298.61)"/><path class="cls-16" d="M118.57,552.38A13.52,13.52,0,0,1,131.88,539c7.37,0,13.28,6.11,13.26,13.8a13.29,13.29,0,1,1-26.57-.42ZM133,544.13c-3.93,0-9.38,5.31-9.25,8.94s5.67,8.66,9.61,8.53c3.74-.11,9-5.19,9-8.65C142.36,549.26,136.85,544.08,133,544.13Z" transform="translate(-0.58 -298.61)"/><path class="cls-16" d="M252.85,543A13.09,13.09,0,1,1,240,556.27,13.15,13.15,0,0,1,252.85,543ZM254,564.2c4-.07,9.45-5.29,9.29-8.89-.14-3.26-5.87-8.59-9.3-8.65-3.59-.07-9.52,5.49-9.45,8.87C244.65,559.37,250,564.27,254,564.2Z" transform="translate(-0.58 -298.61)"/><path class="cls-16" d="M369.84,548.51A11.74,11.74,0,1,1,358,536.8,11.89,11.89,0,0,1,369.84,548.51Zm-3,.09c-.11-3.73-5.65-8.86-9.42-8.71-3.6.14-9.44,5.7-9.33,8.88.13,3.47,5.87,8.71,9.54,8.7C361.48,557.45,366.89,552.25,366.79,548.6Z" transform="translate(-0.58 -298.61)"/><path class="cls-15" d="M186.39,403.13c-3.83-.12-9.34-5.62-9.14-9.12s5.68-8.39,9.38-8.31c3.94.08,9.57,5.29,9.47,8.77S190,403.24,186.39,403.13Zm6.53-8.82c0-2.08-4.23-5.9-6.44-5.82s-6.74,4.16-6.2,6a7.65,7.65,0,0,0,6.23,5.52C188.71,400.43,192.93,396.42,192.92,394.31Z" transform="translate(-0.58 -298.61)"/><path class="cls-15" d="M264.68,435.9c6.18.12,8.47,2.13,8.36,7.36-.13,6.24-2.6,9-8,8.92-6-.09-8.73-2.38-8.64-7.25C256.52,438.52,259,435.78,264.68,435.9Zm5.65,7.17c0-3.91-2.91-4.32-5.81-4.42-3.7-.14-5.28,2-5.17,6.45.1,4,3,4.24,5.9,4.27C268.58,449.4,270.41,447,270.33,443.07Z" transform="translate(-0.58 -298.61)"/><path class="cls-15" d="M109.41,457.68c5.84-.05,8.62,3.12,8.6,9.81,0,4.49-2.75,6.62-8.72,6.81-5.22.16-8.26-3.4-8.34-9.77C100.9,459.82,103.47,457.74,109.41,457.68Zm.32,13.59c2.25-.44,5.55,0,5.5-4.17s-2.27-7-5.67-6.66c-2.63.24-5.94.16-5.9,4.26S105.83,471.32,109.73,471.27Z" transform="translate(-0.58 -298.61)"/><path class="cls-15" d="M93,370.87c3.65.05,9.37,5.59,9.27,9-.11,3.68-5.72,8.77-9.53,8.64s-9.52-5.51-9.37-8.89S89.42,370.83,93,370.87Zm-.15,14.81c2.11,0,6.45-4,6.44-6s-4.48-6.07-6.56-5.63a7.5,7.5,0,0,0-6.11,5.61C86.19,381.56,90.72,385.68,92.88,385.68Z" transform="translate(-0.58 -298.61)"/><path class="cls-14" d="M390.33,381.71c-3.3,0-8.12-4.32-8.12-7.32s4.86-7.39,8.13-7.31c2.88.07,7.81,4.5,8,7.16C398.47,377.08,393.55,381.68,390.33,381.71Z" transform="translate(-0.58 -298.61)"/><path class="cls-15" d="M133,544.13c3.87,0,9.38,5.13,9.39,8.82,0,3.46-5.29,8.54-9,8.65-3.94.13-9.47-4.79-9.61-8.53S129.05,544.18,133,544.13Zm.24,3.09c-2.42-.1-6.53,3.45-6.53,5.64,0,1.78,4,5.7,6,5.88s6.54-3.58,6.75-5.57S135.67,547.32,133.22,547.22Z" transform="translate(-0.58 -298.61)"/><path class="cls-15" d="M254,564.2c-4,.07-9.39-4.83-9.46-8.67-.07-3.38,5.86-8.94,9.45-8.87,3.43.06,9.16,5.39,9.3,8.65C263.49,558.91,258,564.13,254,564.2Zm6.21-8.66c0-2.11-4.22-5.84-6.46-5.77s-6.37,4-6.19,6.05,4.26,5.58,6.26,5.6C256.1,561.45,260.29,557.6,260.25,555.54Z" transform="translate(-0.58 -298.61)"/><path class="cls-15" d="M366.79,548.6c.1,3.65-5.31,8.85-9.21,8.87-3.67,0-9.41-5.23-9.54-8.7-.11-3.18,5.73-8.74,9.33-8.88C361.14,539.74,366.68,544.87,366.79,548.6Zm-2.91.24c.1-1.91-3.63-5.6-5.88-5.83s-6.48,3.22-6.73,5.4c-.21,1.89,3.84,6,6.08,6.2C359.37,554.77,363.77,550.89,363.88,548.84Z" transform="translate(-0.58 -298.61)"/><path class="cls-16" d="M192.92,394.31c0,2.11-4.21,6.12-6.41,5.72a7.65,7.65,0,0,1-6.23-5.52c-.54-1.86,3.93-5.95,6.2-6S192.92,392.23,192.92,394.31Z" transform="translate(-0.58 -298.61)"/><path class="cls-16" d="M270.33,443.08c.08,3.91-1.75,6.32-5.08,6.29-2.86,0-5.8-.27-5.9-4.27-.11-4.46,1.47-6.59,5.17-6.45C267.42,438.75,270.29,439.16,270.33,443.08Z" transform="translate(-0.58 -298.61)"/><path class="cls-16" d="M109.73,471.27c-3.9.05-6-2.38-6.07-6.57s3.27-4,5.9-4.26c3.4-.32,5.62,2.48,5.67,6.66S112,470.83,109.73,471.27Z" transform="translate(-0.58 -298.61)"/><path class="cls-16" d="M92.88,385.68c-2.16,0-6.69-4.12-6.23-6a7.5,7.5,0,0,1,6.11-5.61c2.08-.44,6.55,3.65,6.56,5.63S95,385.68,92.88,385.68Z" transform="translate(-0.58 -298.61)"/><path class="cls-16" d="M133.22,547.22c2.45.1,6.45,3.91,6.24,5.95s-4.76,5.75-6.75,5.57-6-4.1-6-5.88C126.69,550.67,130.8,547.12,133.22,547.22Z" transform="translate(-0.58 -298.61)"/><path class="cls-16" d="M260.25,555.54c0,2.06-4.15,5.91-6.39,5.88-2,0-6.1-3.68-6.26-5.6s3.88-6,6.19-6.05S260.22,553.43,260.25,555.54Z" transform="translate(-0.58 -298.61)"/><path class="cls-16" d="M363.88,548.84c-.11,2-4.51,5.93-6.53,5.77-2.24-.17-6.29-4.31-6.08-6.2.25-2.18,4.55-5.63,6.73-5.4S364,546.93,363.88,548.84Z" transform="translate(-0.58 -298.61)"/></svg>