<svg id="Capa_1" data-name="Capa 1" xmlns="http://www.w3.org/2000/svg" viewBox="0 0 1000 1000"><defs><style>.cls-1{fill:#fdc331;}.cls-2{fill:#6c2c73;}.cls-3{fill:#fff;}</style></defs><rect class="cls-1" width="1000" height="1000" rx="110"/><rect class="cls-2" x="37.5" y="37.5" width="925" height="925" rx="101.75"/><path class="cls-1" d="M183,326.56c4.25,22.21,19.8,31.55,43.91,31.55,22.59,0,33-7.91,33-22.7,0-16.75-11.3-23.09-51.55-32.71-75.17-18.21-90.15-45.65-90.15-79.95,0-42.76,31.42-78.58,102.34-78.58,73.74,0,103.85,37.41,107.42,77.6H255.79c-2-13.67-9-27.59-35.46-27.59-17.1,0-27.6,6.45-27.6,20.24s9.34,19.17,48.63,28.81c78.53,19.6,94.12,47.89,94.12,84.13,0,47.86-36.91,81.11-111.73,81.11-70.46,0-107.8-32.9-113.44-81.91Z" transform="translate(-0.33 0.44)"/><path class="cls-1" d="M565.85,320.59c0-39.82.87-91.13,2-121.4h-2C555.2,253.84,538,329.51,519.41,403.73H459.63c-14.64-72-31.36-147.8-41.3-204.5h-2.24c2.1,30,3.46,79.71,3.46,123.37v81.13H353.08V148.91H460.57c12.56,51.56,27.26,126.32,33,164h1.28c6.55-41,23.54-108.59,38.36-164H637.6V403.73H565.85Z" transform="translate(-0.33 0.44)"/><path class="cls-1" d="M671.65,148.91h126.8c61.45,0,88.55,30.47,88.55,66.27,0,27.19-14.28,46.6-34.7,55C871.4,277,894,294.84,894,327.79c0,41.77-31.2,75.94-94.76,75.94H671.65Zm114.14,98.25c20.57,0,28.87-10.58,28.87-24.39,0-15.81-11.48-23.56-29.42-23.56H744.12v47.95Zm-41.67,106.4h38.17c24.56,0,35-10.67,35-28.9,0-16-9.87-27.33-33.61-27.33H744.12Z" transform="translate(-0.33 0.44)"/><path class="cls-3" d="M224.28,543C219.73,568.87,200.71,586,166.7,586c-40.6,0-60.22-27.41-60.22-63.38,0-35.09,19.39-65.2,62-65.2,36.43,0,53,21.18,55.46,42.64h-36c-1.65-9-6.83-17.11-20.24-17.11-17.66,0-23.68,16.76-23.68,38.4,0,19.65,5,39.06,24.08,39.06,14.44,0,18.48-10.49,20-17.49Z" transform="translate(-0.33 0.44)"/><path class="cls-3" d="M354.66,521.64c0,35.07-21.12,64.4-63.58,64.4-41.69,0-61.84-29.15-61.84-64.23,0-35.67,22.1-64.35,63.71-64.35C332,457.46,354.66,484.56,354.66,521.64Zm-88-.37c0,22.76,7.56,38.6,25.54,38.6,18.88,0,25.1-16.81,25.1-37.93,0-22.62-6.6-38.31-25.58-38.31C274.1,483.63,266.69,498.2,266.69,521.27Z" transform="translate(-0.33 0.44)"/><path class="cls-3" d="M365.66,583.73v-124h43.47c13,27.92,31.92,65.64,37.13,80.91h.61c-1.37-12.88-1.69-34.77-1.69-54.54V459.77h33.11v124H436.87c-10.51-22.44-32.94-69-38.76-85.31h-.49c1.15,11.66,1.26,35.65,1.26,57.47v27.84Z" transform="translate(-0.33 0.44)"/><path class="cls-3" d="M520.7,486.69H485.26V459.77H592.19v26.92H557.06v97H520.7Z" transform="translate(-0.33 0.44)"/><path class="cls-3" d="M634.64,459.77v124H598.21v-124Z" transform="translate(-0.33 0.44)"/><path class="cls-3" d="M765.8,583.73H741.4a92.57,92.57,0,0,1-2.28-11.29c-7,9.24-19,13.83-36.27,13.83-38,0-57.1-28.7-57.1-63.09,0-38,22.15-65.72,63.46-65.72,37.45,0,54.64,21.39,56.89,40.43h-36c-1.78-6.57-6.4-14.84-21.07-14.84-20.74,0-25.84,19.05-25.84,38.87,0,19.58,5.92,38.53,25.95,38.53,18.3,0,21.52-13.4,21.52-21.59V538H708v-25.4H765.8Z" transform="translate(-0.33 0.44)"/><path class="cls-3" d="M900.77,521.64c0,35.07-21.12,64.4-63.58,64.4-41.69,0-61.84-29.15-61.84-64.23,0-35.67,22.1-64.35,63.7-64.35C878.12,457.46,900.77,484.56,900.77,521.64Zm-88-.37c0,22.76,7.56,38.6,25.53,38.6,18.89,0,25.11-16.81,25.11-37.93,0-22.62-6.6-38.31-25.58-38.31C820.21,483.63,812.8,498.2,812.8,521.27Z" transform="translate(-0.33 0.44)"/><path class="cls-3" d="M360.57,841a12.34,12.34,0,0,1,3.07-6.91c6.81-7.23,13.55-14.53,20.32-21.8,4.37-4.68,8.69-9.42,13.17-14,1.73-1.76,1.41-2.91-.19-4.48-11.56-11.27-23-22.66-34.61-33.87-3-2.86-4.4-6-3.59-10a6.79,6.79,0,0,1,4.53-5.37c2.33-.82,4.19.35,5.77,1.89,16,15.58,32,31.22,48,46.75,1.82,1.76,1.86,2.91.15,4.73q-22.31,23.88-44.52,47.85c-2,2.13-4.1,4.13-7.51,2.71S361.19,844,360.57,841Z" transform="translate(-0.33 0.44)"/><path class="cls-3" d="M371.07,796.59c0,9.29-7.49,16.63-17.08,16.63-9.34,0-17-7.34-17.07-16.36A16.56,16.56,0,0,1,353.41,780C363.67,780,371,786.84,371.07,796.59Z" transform="translate(-0.33 0.44)"/><path class="cls-3" d="M476.71,709.82a8.55,8.55,0,0,1-2.14,5.88Q449.73,745.52,425,775.44c-1.46,1.78-2.18,1-3.19-.15q-11.52-12.72-23.05-25.42-13.93-15.27-27.93-30.5c-2.27-2.48-4.32-5-3.33-8.8,1.54-5.85,8.79-8.37,13.17-4.14,5.52,5.34,10.58,11.16,15.77,16.84,7.79,8.51,15.5,17.11,23.31,25.62,3,3.29,3.51,3.07,6.34-.35q16.65-20.14,33.47-40.16a36.51,36.51,0,0,1,4.36-4.68,7.52,7.52,0,0,1,8.7-.87A7,7,0,0,1,476.71,709.82Z" transform="translate(-0.33 0.44)"/><path class="cls-3" d="M471.62,887c-2.64.19-4.77-1.14-6.57-3.11q-18.8-20.62-37.58-41.27c-2.92-3.21-3.64-3.18-6.44.2l-35.2,42.51c-3,3.62-6.41,5-9.76,3.92-5.63-1.83-7.35-7.62-3.52-12.67,3.42-4.52,7.13-8.82,10.75-13.18Q401,842,418.76,820.66c.62-.74,1.24-1.47,1.88-2.19,3.24-3.63,3.22-3.61,6.44-.08q24.65,27,49.34,54c4.19,4.58,4.48,8.81.87,12.41A7.36,7.36,0,0,1,471.62,887Z" transform="translate(-0.33 0.44)"/><path class="cls-3" d="M485.86,750a12.37,12.37,0,0,1-3.08,6.9c-6.81,7.24-13.55,14.54-20.32,21.8-4.37,4.69-8.69,9.42-13.17,14-1.73,1.77-1.41,2.92.2,4.49,11.55,11.26,23,22.66,34.6,33.86,3,2.86,4.4,6,3.59,10a6.75,6.75,0,0,1-4.53,5.37c-2.33.83-4.18-.34-5.77-1.88q-24-23.38-48-46.76c-1.82-1.75-1.85-2.9-.15-4.72q22.31-23.88,44.52-47.86c2-2.13,4.1-4.13,7.51-2.7S485.23,747,485.86,750Z" transform="translate(-0.33 0.44)"/><path class="cls-3" d="M422,708.08c-9.46,0-16.76-7-16.79-16.06,0-9.62,7.06-16.53,16.95-16.52A16.4,16.4,0,0,1,439,691.71C439,700.85,431.57,708.08,422,708.08Z" transform="translate(-0.33 0.44)"/><path class="cls-3" d="M482.93,794.31c-.05-9.3,7.49-16.63,17.07-16.64,9.34,0,17,7.34,17.07,16.36a16.54,16.54,0,0,1-16.48,16.84C490.32,810.94,483,804.05,482.93,794.31Z" transform="translate(-0.33 0.44)"/><path class="cls-3" d="M408.42,896.14a16.06,16.06,0,0,1,17.23-16.27c9.66.46,16.06,6.74,16.24,16.34.17,9.1-7.37,16.09-16.84,16.06S408.39,905.39,408.42,896.14Z" transform="translate(-0.33 0.44)"/><path class="cls-3" d="M506.57,839.92a12.23,12.23,0,0,1,3.08-6.91c6.8-7.24,13.54-14.53,20.32-21.8,4.37-4.69,8.69-9.42,13.17-14,1.73-1.76,1.41-2.91-.2-4.48-11.55-11.27-23-22.66-34.6-33.87-3-2.86-4.4-6-3.6-10a6.77,6.77,0,0,1,4.54-5.37c2.32-.82,4.18.34,5.77,1.89q24,23.37,48,46.75c1.81,1.76,1.85,2.91.15,4.73-14.88,15.91-29.67,31.91-44.53,47.85-2,2.13-4.1,4.13-7.51,2.71S507.2,843,506.57,839.92Z" transform="translate(-0.33 0.44)"/><path class="cls-3" d="M517.07,795.53c0,9.3-7.49,16.63-17.07,16.64-9.34,0-17-7.34-17.07-16.36A16.54,16.54,0,0,1,499.41,779C509.68,778.89,517,785.79,517.07,795.53Z" transform="translate(-0.33 0.44)"/><path class="cls-3" d="M622.72,708.77a8.57,8.57,0,0,1-2.14,5.88Q595.74,744.47,571,774.39c-1.47,1.78-2.18,1-3.2-.16q-11.52-12.71-23.05-25.41-13.93-15.27-27.92-30.5c-2.28-2.49-4.33-5-3.33-8.81,1.53-5.84,8.79-8.36,13.16-4.13,5.52,5.34,10.58,11.16,15.77,16.83,7.8,8.52,15.5,17.12,23.31,25.62,3,3.3,3.52,3.08,6.34-.34q16.67-20.15,33.48-40.16a36.43,36.43,0,0,1,4.35-4.68,7.52,7.52,0,0,1,8.71-.87A7,7,0,0,1,622.72,708.77Z" transform="translate(-0.33 0.44)"/><path class="cls-3" d="M617.62,885.93c-2.64.2-4.76-1.13-6.56-3.11q-18.81-20.62-37.58-41.26c-2.93-3.21-3.65-3.18-6.45.2l-35.19,42.51c-3,3.62-6.41,5-9.77,3.91-5.63-1.83-7.35-7.61-3.52-12.66,3.42-4.52,7.13-8.82,10.75-13.19Q547,841,564.77,819.61c.61-.74,1.24-1.47,1.88-2.19,3.24-3.63,3.21-3.61,6.43-.08q24.66,27,49.34,54c4.19,4.58,4.49,8.81.88,12.41A7.37,7.37,0,0,1,617.62,885.93Z" transform="translate(-0.33 0.44)"/><path class="cls-3" d="M631.86,749a12.23,12.23,0,0,1-3.08,6.91c-6.8,7.24-13.54,14.53-20.32,21.8-4.36,4.69-8.68,9.42-13.17,14-1.73,1.76-1.41,2.91.2,4.48,11.56,11.27,23,22.66,34.6,33.87,3,2.86,4.4,6,3.6,10a6.78,6.78,0,0,1-4.53,5.37c-2.33.82-4.19-.34-5.78-1.89q-24-23.37-48-46.75c-1.81-1.76-1.85-2.91-.15-4.73,14.88-15.92,29.67-31.91,44.53-47.85,2-2.13,4.1-4.13,7.51-2.71S631.23,745.91,631.86,749Z" transform="translate(-0.33 0.44)"/><path class="cls-3" d="M568.05,707c-9.47,0-16.77-7-16.79-16,0-9.62,7-16.53,17-16.52A16.41,16.41,0,0,1,585,690.66C585.05,699.8,577.58,707,568.05,707Z" transform="translate(-0.33 0.44)"/><path class="cls-3" d="M628.93,793.25c0-9.29,7.49-16.63,17.08-16.63,9.34,0,17,7.33,17.07,16.36a16.56,16.56,0,0,1-16.49,16.84C636.33,809.89,629,803,628.93,793.25Z" transform="translate(-0.33 0.44)"/><path class="cls-3" d="M554.43,895.08a16.06,16.06,0,0,1,17.23-16.27c9.66.46,16.05,6.75,16.23,16.35.18,9.1-7.37,16.09-16.84,16.05S554.4,904.34,554.43,895.08Z" transform="translate(-0.33 0.44)"/></svg>