<svg width="2134" height="567" viewBox="0 0 2134 567" fill="none" xmlns="http://www.w3.org/2000/svg">
<g id="logo__color--blancas 1" clip-path="url(#clip0_0_1)">
<g id="group_7">
<path id="Vector" d="M2133.84 331.48C2132.54 337.11 2131.4 342.8 2129.9 348.38C2118.9 389.57 2084.84 418.93 2042.31 424.46C2014.94 428.02 1988.66 424.53 1963.44 413.46C1955.16 409.81 1955.23 409.58 1957.44 400.99C1959.96 391.07 1962.52 381.153 1965.12 371.24C1965.28 370.789 1965.49 370.356 1965.75 369.95C1985.44 381 2006.45 386.42 2029.05 385.29C2062.54 383.63 2086.58 359.29 2088.93 325.83C2091.15 294.38 2077.53 270.65 2054.83 250.6C2042.33 239.6 2028.19 230.69 2015.4 220.05C1995.64 203.61 1978.4 185.05 1968.46 160.93C1947.25 109.52 1972.03 29.93 2052.95 21.39C2075.33 19.02 2096.81 21.89 2117.18 31.96C2121.39 34.05 2122.76 36.14 2121.23 40.96C2117.8 51.8 2115.08 62.87 2112.03 73.96C2111.54 73.96 2111.03 73.96 2110.69 73.8C2097.53 65.52 2083.04 62.09 2067.62 60.99C2034.36 58.61 2007.34 82.7 2006.52 115.99C2005.96 138.65 2013.9 157.54 2030.85 172.85C2044.09 184.85 2058.95 194.58 2073.11 205.31C2091.99 219.62 2108.61 236.01 2120.11 257C2126.66 268.853 2131 281.796 2132.92 295.2C2133.03 295.97 2132.92 296.86 2133.85 297.25L2133.84 331.48Z" fill="white"/>
</g>
<g id="group_3">
<path id="Vector_2" d="M960.61 95.59C958.92 96.59 959.33 97.7 959.34 98.59C959.61 158.86 955.97 219 953.39 279.17C951.39 325.35 949.26 371.52 947.28 417.7C947.13 421.28 946.14 422.7 942.2 422.54C931.44 422.23 920.65 422.31 909.88 422.54C906.62 422.6 905.82 421.66 906.02 418.46C907.66 392.31 909.1 366.15 910.65 339.99C912.417 310.103 914.213 280.213 916.04 250.32C918.253 213.6 920.463 176.883 922.67 140.17C924.55 108.49 926.393 76.8233 928.2 45.17C928.54 39.32 928.98 33.47 929.2 27.62C929.29 25.06 930.31 24.32 932.78 24.34C947.32 24.43 961.85 24.51 976.38 24.29C980.06 24.23 980.1 26.6 980.67 28.85C988.08 58.01 995.55 87.15 1002.82 116.34C1017.33 174.55 1033.08 232.46 1046.7 290.89C1050.5 307.2 1053.62 323.66 1057.06 340.05C1057.28 341.05 1056.94 342.43 1058.95 343.05C1060.48 334.75 1061.95 326.52 1063.53 318.3C1072.69 270.3 1084.53 223 1096.24 175.64C1108.37 126.707 1120.44 77.7633 1132.43 28.81C1133.3 25.24 1134.69 24.23 1138.26 24.29C1152.13 24.5033 1166.01 24.5033 1179.89 24.29C1183.51 24.24 1184.95 25.01 1185.16 28.97C1186.77 59.97 1188.6 91.05 1190.41 122.08C1192.52 158.473 1194.65 194.867 1196.81 231.26C1198.56 261.307 1200.3 291.363 1202.03 321.43C1203.88 353.43 1205.66 385.43 1207.69 417.43C1207.95 421.43 1207.23 422.71 1202.98 422.59C1191.56 422.28 1180.12 422.38 1168.69 422.59C1165.69 422.59 1164.94 421.89 1164.8 418.85C1162.93 377.723 1160.96 336.597 1158.89 295.47C1157.03 257.76 1155.02 220.05 1153.29 182.33C1152.05 155.157 1151.72 127.97 1152.29 100.77C1152.29 99.1 1152.64 97.33 1151.47 95.19C1149.26 97.87 1149.37 100.67 1148.86 103.19C1137.86 158.24 1124.1 212.63 1109.86 266.9C1096.8 316.6 1083.87 366.33 1071.06 416.09C1070.23 419.31 1068.98 420.25 1065.82 420.16C1058.64 419.96 1051.45 419.94 1044.28 420.16C1041.07 420.26 1039.87 419.22 1039.06 416.06C1024.29 358.413 1009.42 300.79 994.45 243.19C982.05 195.83 970.51 148.28 961.75 100.1C961.47 98.62 961.03 97.24 960.61 95.59Z" fill="white"/>
</g>
<g id="group_4">
<path id="Vector_3" d="M1423.98 170.31C1423.98 123.37 1424.05 76.44 1423.88 29.51C1423.88 25.15 1425 24.06 1429.29 24.17C1441.04 24.49 1452.8 24.51 1464.55 24.17C1468.97 24.04 1469.86 25.32 1469.85 29.55C1469.72 111.683 1469.69 193.813 1469.77 275.94C1469.77 291.58 1469.77 307.2 1467.64 322.75C1464.64 345.52 1459.08 367.48 1446.44 387.07C1433.54 407.07 1415.44 419.7 1392.05 424.62C1373.36 428.55 1354.76 428.22 1336.43 422.75C1306.58 413.85 1289.53 392.34 1279.63 364.17C1272.22 343.06 1269.36 321.09 1269.28 298.88C1268.96 209.1 1269.03 119.31 1268.79 29.53C1268.79 25.18 1269.88 24.07 1274.18 24.18C1286.09 24.5 1298.01 24.5 1309.93 24.18C1314.21 24.06 1314.93 25.47 1314.93 29.36C1314.82 116.027 1314.8 202.72 1314.87 289.44C1314.87 308.35 1316.11 327.18 1321.68 345.44C1324.75 355.5 1329.05 364.95 1336.28 372.76C1356.49 394.62 1393.07 390.58 1409.1 364.76C1417.56 351.15 1420.68 335.9 1422.61 320.31C1424.01 308.97 1424.05 297.57 1424.04 286.17C1423.96 247.55 1423.94 208.93 1423.98 170.31Z" fill="white"/>
</g>
<g id="group_2">
<path id="Vector_4" d="M869.92 422.41C855.48 422.41 841.29 422.41 827.11 422.41C824.11 422.41 824.37 420.28 823.97 418.41C815.87 381.41 807.7 344.41 799.76 307.34C799.03 303.91 797.87 302.95 794.4 302.97C767.793 303.117 741.18 303.117 714.56 302.97C711.01 302.97 709.97 304.1 709.26 307.39C701.26 344.39 693.07 381.39 685.1 418.46C684.46 421.46 683.57 422.46 680.44 422.46C668.2 422.27 655.95 422.32 643.7 422.46C640.7 422.46 639.48 422.28 640.34 418.55C660.02 333.15 679.603 247.727 699.09 162.28C709.3 117.73 719.58 73.2001 729.65 28.6201C730.42 25.2001 731.56 24.1501 735.04 24.2001C749.08 24.4001 763.12 24.4001 777.16 24.2001C780.37 24.2001 781.52 25.0901 782.23 28.3101C796.31 91.8101 810.477 155.29 824.73 218.75C839.683 285.737 854.597 352.737 869.47 419.75C869.59 420.51 869.68 421.28 869.92 422.41ZM755.35 74.1401C753.35 75.8901 753.59 77.2701 753.35 78.5201C750.92 92.9501 748.83 107.44 745.98 121.79C736.647 168.497 727.17 215.163 717.55 261.79C716.8 265.43 717.55 266.18 721.13 266.15C743.317 266.023 765.51 266.023 787.71 266.15C791.39 266.15 792.05 265.15 791.3 261.72C788.21 247.42 785.38 233.07 782.43 218.72C774.43 179.88 766.04 141.11 759.95 101.9C758.57 92.8601 756.92 83.7501 755.35 74.1401Z" fill="white"/>
</g>
<g id="group_6">
<path id="Vector_5" d="M1751.92 369.62C1765.89 378.001 1781.54 383.172 1797.75 384.76C1821.32 387.28 1843.19 383.39 1859.81 364.68C1872.81 350.05 1876.2 332.17 1875.35 313.2C1874.35 291.2 1864.19 273.45 1849.11 258.09C1837.51 246.28 1823.99 236.85 1810.79 227C1790.1 211.54 1772.13 193.62 1759.46 170.73C1731.15 119.62 1753.55 35.33 1831.98 22.36C1855.57 18.46 1878.45 20.59 1900.41 30.36C1909.23 34.29 1909.18 34.43 1906.71 43.56C1903.96 53.73 1901.2 63.9 1898.32 74.56C1888.36 68.1003 1877.12 63.8641 1865.37 62.14C1848.49 59.69 1831.93 60.38 1817.37 70.37C1797.62 83.93 1791.37 103.59 1793.37 126.65C1795.21 148.88 1806.96 165.29 1823.84 178.56C1838.84 190.34 1854.56 201.22 1869.29 213.3C1891.65 231.62 1909.21 253.63 1916.62 282.22C1924.03 310.81 1922.57 339.22 1909.8 366.1C1892.27 403 1861.4 421.22 1821.61 425.29C1797.66 427.74 1774.45 423.84 1752.24 414.53C1741.43 410 1741.48 409.86 1744.38 398.72C1746.8 389.09 1749.3 379.51 1751.92 369.62Z" fill="white"/>
</g>
<g id="group_5">
<path id="Vector_6" d="M1571.59 226.8C1572.07 257.7 1574.48 290.72 1586.15 322.36C1592.15 338.74 1600.54 353.73 1613.62 365.63C1635.62 385.63 1661.62 388.77 1689.53 382.74C1694.28 381.626 1698.96 380.21 1703.53 378.5C1706.16 377.56 1707.32 377.34 1707.93 380.81C1709.77 391.21 1712.03 401.54 1714.31 411.86C1714.93 414.69 1713.95 415.86 1711.42 416.95C1700.8 421.46 1689.66 423.69 1678.28 424.86C1652.58 427.49 1627.43 425.86 1603.82 414.1C1574.94 399.72 1556.53 375.93 1544 347.02C1532.08 319.52 1526.88 290.45 1524.63 260.78C1522.36 230.67 1522.91 200.58 1527.42 170.67C1533.12 132.84 1544.32 97.1 1569.1 66.93C1605.66 22.42 1659.25 12.18 1705.31 26.39C1714.72 29.29 1714.6 29.58 1712.05 39.19C1709.84 47.52 1707.5 55.82 1705.65 64.19C1704.73 68.43 1703.46 69.03 1699.31 67.41C1676.05 58.41 1652.91 57.63 1630.55 70.22C1613.95 79.56 1602.55 93.84 1593.89 110.48C1582.89 131.55 1577.51 154.26 1574.44 177.61C1572.4 193.16 1571.66 208.76 1571.59 226.8Z" fill="white"/>
</g>
<g id="group_1">
<path id="Vector_7" d="M385.16 510.67C383.66 520.23 384.25 528.83 383.65 537.35C383.05 545.87 382.54 554.24 382.41 562.7C382.34 566.77 379.84 565.8 377.54 566.03C374.54 566.34 374.54 564.63 374.68 562.44C376.01 540.84 377.27 519.23 378.68 497.63C378.8 495.7 377.68 492.48 381.58 492.86C384.53 493.15 388.12 491.03 389.39 496.62C393.32 513.89 397.95 531 402.32 548.18C404.01 547.53 403.48 545.82 403.79 544.5C407.69 528.37 411.7 512.28 415.38 496.11C416.66 490.5 420.72 493.37 423.59 492.9C426.89 492.36 425.99 495.2 426.1 496.9C427.41 518.34 428.71 539.78 429.87 561.23C429.96 563.02 431.61 565.98 427.35 566.07C423.76 566.15 421.77 565.82 421.64 561.31C421.14 544.57 420.17 527.84 418.79 510.98C416.69 519.28 414.63 527.59 412.49 535.89C410.27 544.55 407.92 553.18 405.76 561.89C405.25 563.96 404.86 565.36 402.16 565.47C399.16 565.6 398.71 563.91 398.16 561.77C393.92 545.07 389.67 528.41 385.16 510.67Z" fill="white"/>
<path id="Vector_8" d="M836.84 520.69C836.84 512.54 837.08 504.39 836.74 496.26C836.56 492.08 839.04 492.89 841.41 492.8C843.78 492.71 845.65 492.53 845.6 496.16C845.37 511.79 845.53 527.43 845.47 543.07C845.435 546.813 844.804 550.526 843.6 554.07C840.52 563.36 835.68 566.35 824.03 566.07C817.18 565.94 812.26 561.5 809.98 553.38C808.969 549.767 808.454 546.032 808.45 542.28C808.39 527.13 808.55 511.98 808.34 496.83C808.28 493.19 809.62 492.67 812.82 492.62C816.17 492.56 817.23 493.37 817.18 496.88C816.97 511.7 817.11 526.53 817.08 541.36C816.903 545.636 817.65 549.899 819.27 553.86C819.857 555.403 820.9 556.731 822.259 557.668C823.617 558.606 825.229 559.109 826.88 559.11C830.46 559.11 833.03 557.31 834.65 554.11C836.47 550.51 836.81 546.64 836.83 542.71C836.86 535.35 836.84 528.02 836.84 520.69Z" fill="white"/>
<path id="Vector_9" d="M731.85 517.17C731.85 509.06 732.07 501.57 731.76 494.09C731.6 490.3 733.76 490.91 736.05 490.84C738.47 490.77 740.35 490.61 740.31 494.2C740.13 511.62 740.2 529.03 740.24 546.45C740.24 551.65 740.47 556.85 740.57 562.05C740.57 563.87 741.46 566.19 738.1 566.05C735.55 565.93 732.52 566.74 732.93 562.45C732.892 561.72 732.795 560.994 732.64 560.28C729.48 564.13 726.24 566.64 721.13 566.34C719.186 566.326 717.276 565.835 715.567 564.909C713.858 563.983 712.403 562.651 711.33 561.03C704.38 551.14 704.44 528.52 711.48 518.59C716.67 511.22 723.86 510.58 731.85 517.17ZM731.85 539.45C731.69 535.09 732.39 530.64 730.79 526.45C729.61 523.35 728.13 520.34 724.21 520.12C720.02 519.88 717.97 522.81 716.91 526.12C713.827 535.268 713.954 545.194 717.27 554.26C718.27 557.06 720.16 559.44 723.67 559.42C727.18 559.4 728.75 557.08 730.12 554.31C732.48 549.54 731.7 544.45 731.92 539.45H731.85Z" fill="white"/>
<path id="Vector_10" d="M1321.65 517.15C1321.65 509.05 1321.87 501.56 1321.56 494.08C1321.4 490.28 1323.62 490.92 1325.86 490.84C1328.29 490.75 1330.14 490.64 1330.11 494.22C1329.93 512.29 1330 530.36 1330.04 548.43C1330.04 552.98 1330.24 557.53 1330.34 562.09C1330.34 563.92 1331.23 566.23 1327.86 566.02C1325.34 565.87 1322.26 566.74 1322.71 562.42C1322.68 561.667 1322.58 560.917 1322.42 560.18C1319.27 564.09 1316.03 566.64 1310.91 566.31C1306.75 566.03 1303.76 564.58 1301.38 561.4C1294.02 551.52 1294.12 528.09 1301.58 518.15C1306.82 511.17 1313.64 510.7 1321.65 517.15ZM1321.65 539.7C1321.5 534.86 1322.22 529.9 1320.13 525.29C1318.89 522.56 1317.24 520.14 1313.74 520.06C1310.24 519.98 1308.23 522.17 1307.17 524.99C1303.54 534.48 1303.54 544.979 1307.17 554.47C1308.17 557.25 1310.17 559.62 1313.69 559.4C1317.21 559.18 1318.69 556.87 1320.02 554.08C1322.19 549.45 1321.52 544.54 1321.67 539.7H1321.65Z" fill="white"/>
<path id="Vector_11" d="M1117.33 516.86C1117.33 509.25 1117.43 502.46 1117.28 495.67C1117.21 492.54 1117.33 490.67 1121.53 490.67C1125.43 490.72 1125.97 492.03 1125.94 495.45C1125.78 514.34 1125.85 533.23 1125.88 552.13C1125.88 555.05 1126.35 557.99 1126.15 560.89C1126.02 562.81 1128.08 566 1123.47 566.09C1120.06 566.15 1118.1 565.54 1118.65 561.68C1118.65 561.46 1118.42 561.19 1118.07 560.5C1115.16 563.71 1112.35 566.43 1107.45 566.31C1102.22 566.18 1098.45 564.25 1096.36 559.84C1090.02 546.76 1089.94 533.34 1096.19 520.34C1100.45 511.48 1108.45 510.22 1117.33 516.86ZM1117.52 539.72C1117.31 535.72 1117.52 531.62 1116.77 527.66C1116.11 523.91 1114.3 520.38 1109.77 520.11C1105.24 519.84 1103.47 523.2 1102.39 526.68C1099.79 534.947 1099.72 543.805 1102.2 552.11C1103.26 555.76 1104.81 559.54 1109.49 559.36C1114.17 559.18 1116.05 555.3 1116.81 551.43C1117.57 547.56 1117.3 543.68 1117.52 539.71V539.72Z" fill="white"/>
<path id="Vector_12" d="M1469.74 517.19C1469.74 509.19 1470.01 501.85 1469.64 494.56C1469.42 490.23 1471.97 491.06 1474.53 490.79C1477.92 490.44 1478.53 491.88 1478.47 494.9C1478.41 517.19 1478.54 539.48 1478.47 561.77C1478.47 563.38 1479.76 566.01 1476.25 566.01C1473.67 566.01 1470.81 566.59 1470.95 562.5C1470.95 562.08 1470.61 561.64 1470.36 561.06C1467.88 562.99 1466.03 565.65 1462.72 566.15C1455.84 567.15 1451 565.2 1448.22 558.97C1442.51 546.14 1442.33 532.97 1448.56 520.34C1453.08 511.26 1461.5 510.06 1469.74 517.19ZM1469.8 539.29C1469.42 535.1 1470.44 530.82 1469.02 526.71C1467.86 523.38 1466.23 520.3 1462.14 520.09C1458.05 519.88 1456.05 522.9 1454.96 526.24C1452.01 535.092 1452.04 544.667 1455.05 553.5C1456.11 556.66 1457.96 559.5 1461.92 559.4C1465.88 559.3 1467.39 556.4 1468.69 553.27C1470.59 548.73 1469.35 543.95 1469.8 539.29Z" fill="white"/>
<path id="Vector_13" d="M26.45 493C30.22 492 31.45 493.6 32.22 496.94C36.87 518.55 41.74 540.11 46.49 561.7C46.82 563.19 48.37 565.7 45.49 565.81C43.04 565.94 39.32 567.9 38.34 563.27C37.18 558.03 35.92 552.86 34.99 547.53C34.48 544.53 33.05 543.75 30.1 543.75C18.1 543.75 18.1 543.65 15.64 555.6C15.11 558.14 14.36 560.6 13.96 563.21C13.66 565.11 12.96 565.94 10.89 566.06C5.22 566.4 4.89 566.06 6.13 560.45C10.94 539.54 15.8 518.65 20.5 497.72C21.31 494.11 22.15 491.26 26.45 493ZM26.17 503.5C24.02 514.14 22.03 523.97 20.09 533.81C19.88 534.88 18.71 536.67 20.88 536.81C24.26 537.08 27.69 536.93 31.1 536.87C32.95 536.87 32.51 535.42 32.31 534.39C30.32 524.28 28.29 514.15 26.17 503.5Z" fill="white"/>
<path id="Vector_14" d="M2021.73 492.98C2025.27 491.98 2026.35 493.71 2027.01 496.75C2031.72 518.33 2036.61 539.87 2041.3 561.45C2041.62 562.89 2043.63 565.75 2040.03 565.86C2037.56 565.94 2033.92 567.77 2033.03 563.04C2032.1 557.93 2030.84 552.87 2029.88 547.77C2029.37 545.04 2028.43 543.71 2025.17 543.77C2013.03 543.77 2013.03 543.64 2010.46 555.41C2009.87 558.11 2009.14 560.78 2008.71 563.5C2008.39 565.5 2007.36 566.02 2005.42 566.1C1999.89 566.33 1999.66 566.1 2000.91 560.72C2005.71 539.82 2010.56 518.94 2015.23 498.02C2016.12 494.16 2017.23 491.43 2021.73 492.98ZM2014.44 536.48C2017.07 537.48 2019.72 536.61 2022.25 537C2027.37 537.8 2027.69 535.54 2026.7 531.28C2024.86 523.38 2023.58 515.35 2022.02 507.38C2021.83 506.38 2022.02 505.17 2020.75 504.85C2018.65 515.41 2016.55 525.86 2014.44 536.48Z" fill="white"/>
<path id="Vector_15" d="M321.73 518.86C323.529 517.243 325.418 515.731 327.39 514.33C335.7 509.33 345.29 513.91 346.6 524.02C348.3 537.11 347.17 550.34 347.31 563.5C347.36 567.5 344.08 565.55 342.21 565.92C339.81 566.4 338.76 565.46 338.76 562.78C338.76 551.73 338.59 540.67 338.43 529.61C338.416 528.309 338.255 527.014 337.95 525.75C337.19 522.75 335.76 520.25 332.25 519.93C328.89 519.63 326.66 521.39 325.2 524.18C323.797 527.125 323.145 530.372 323.3 533.63C323.3 542.91 323.21 552.18 323.36 561.45C323.41 564.45 323.17 566.21 319.36 566.09C315.96 565.99 314.52 565.51 314.58 561.59C314.79 547.12 314.53 532.64 314.58 518.16C314.58 516.4 312.78 513.27 317.05 513.27C320.29 513.31 323.4 513.05 321.73 518.86Z" fill="white"/>
<path id="Vector_16" d="M970.76 517.56C972.04 517.48 972.51 516.28 973.37 515.62C981.81 509.12 992.1 512.86 994.37 523.27C995.106 527.272 995.394 531.344 995.23 535.41C995.23 544.41 995.03 553.32 995.31 562.26C995.42 565.96 993.62 566.06 990.87 566.06C988.12 566.06 986.35 566.06 986.46 562.32C986.73 552.4 986.52 542.47 986.57 532.54C986.674 529.769 986.281 527.002 985.41 524.37C984.52 521.95 982.93 520.19 980.11 519.97C978.888 519.834 977.651 520.043 976.542 520.573C975.432 521.104 974.493 521.934 973.83 522.97C971.83 525.97 971.41 529.29 971.41 532.75C971.41 542.35 971.3 551.96 971.48 561.55C971.54 564.76 970.95 566.21 967.27 566.11C964.04 566.03 962.78 565.46 962.78 561.85C962.78 546.73 963.42 531.6 962.24 516.49C962.11 514.75 962.16 512.88 964.59 513.42C966.41 513.82 969.48 511.42 969.9 515.42C970.01 516.23 969.74 517.14 970.76 517.56Z" fill="white"/>
<path id="Vector_17" d="M615.73 518.62C619.32 515.21 622.53 512.62 627.11 512.5C633.69 512.36 638.11 515.87 639.8 522.95C641.34 529.37 640.62 535.95 640.72 542.4C640.82 548.85 640.51 555.4 640.83 561.92C641 565.6 639.51 566.06 636.33 566.12C632.85 566.18 631.94 565.12 631.99 561.69C632.16 551.12 631.99 540.54 631.88 529.96C631.811 528.183 631.515 526.422 631 524.72C630.3 522.21 628.78 520.41 626 520.02C624.702 519.816 623.373 520.003 622.182 520.557C620.99 521.11 619.991 522.006 619.31 523.13C617.03 526.37 616.84 530.13 616.82 533.87C616.75 543.31 616.64 552.75 616.87 562.19C616.96 565.71 615.42 566.09 612.52 566.08C609.62 566.07 608.15 565.78 608.17 562.22C608.25 547.1 608.03 531.97 607.85 516.85C607.85 514.61 608.01 513.21 610.92 513.27C615.11 513.35 615.12 513.13 615.73 518.62Z" fill="white"/>
<path id="Vector_18" d="M865.39 518.05C866.85 516.723 868.4 515.501 870.03 514.39C877.61 509.89 886.03 513.27 888.72 521.7C889.78 525.03 889.72 528.43 889.72 531.85C889.72 541.95 889.57 552.06 889.8 562.15C889.88 565.63 888.46 566.15 885.51 566.08C882.71 566.03 881.01 565.85 881.1 562.23C881.34 552.47 881.23 542.69 881.1 532.91C881.137 530.307 880.885 527.708 880.35 525.16C879.73 522.56 878.27 520.4 875.17 520.01C873.783 519.787 872.36 520.006 871.104 520.636C869.848 521.266 868.821 522.275 868.17 523.52C866.545 526.365 865.774 529.618 865.95 532.89C865.95 542.5 865.81 552.12 866.04 561.73C866.12 565.11 865.23 566.22 861.73 566.12C858.55 566.03 857.16 565.52 857.2 561.87C857.36 547.05 857.2 532.22 857.2 517.4C857.2 515.75 855.89 513.16 859.46 513.34C861.9 513.46 865.02 512.34 864.85 516.69C864.96 517.168 865.142 517.627 865.39 518.05Z" fill="white"/>
<path id="Vector_19" d="M1576.05 566.14C1573.28 566.29 1570.5 565.968 1567.84 565.19C1564.67 564.34 1563.84 562.75 1564.72 559.55C1565.53 556.55 1566.58 556.32 1569.37 557.41C1576.81 560.28 1583.37 558.68 1586.5 553.73C1590.04 548.11 1588.71 540.61 1582.94 535.24C1579.85 532.36 1576.32 529.97 1573.15 527.17C1569.04 523.53 1565.84 519.17 1565.27 513.55C1564.54 506.48 1566.37 500.2 1572.35 495.88C1578.33 491.56 1585.24 491.02 1592.35 493.54C1596.35 494.95 1593.79 497.45 1593.54 499.54C1593.18 502.48 1591.48 501.39 1589.71 500.79C1583 498.53 1577.71 500 1575.04 504.69C1572.13 509.69 1573.48 515.98 1578.56 520.45C1582.71 524.11 1587.62 526.83 1591.31 531.05C1601.65 542.86 1597.44 560.97 1583.31 565.51C1580.92 566.27 1578.47 566.04 1576.05 566.14Z" fill="white"/>
<path id="Vector_20" d="M1801.45 566.15C1798.85 566.262 1796.24 565.965 1793.73 565.27C1790.43 564.4 1789.19 563 1790.36 559.39C1791.22 556.7 1792.08 556.04 1794.6 557.39C1795.94 557.994 1797.36 558.376 1798.82 558.52C1804.13 559.31 1809 558.66 1812.13 553.65C1815.03 549.02 1814.37 542.28 1810.73 537.65C1807.98 534.14 1804.18 531.84 1800.73 529.07C1794.73 524.17 1790.35 518.45 1790.73 510.07C1791.29 496.5 1805.67 487.88 1818.04 493.65C1821.92 495.46 1819.21 497.75 1819.04 499.76C1818.81 502.11 1817.36 501.61 1815.52 500.97C1808.52 498.55 1803.15 500.07 1800.52 504.9C1797.61 510.15 1799.1 516.1 1804.64 520.9C1808.57 524.32 1813.19 526.9 1816.64 530.82C1827.27 542.82 1823.09 561.07 1808.73 565.57C1806.27 566.27 1803.92 566.02 1801.45 566.15Z" fill="white"/>
<path id="Vector_21" d="M918.92 539.86C918.92 533.27 919.68 526.86 923.01 520.99C926.01 515.67 930.53 512.47 936.89 512.58C943.25 512.69 947.82 516.2 950.14 521.81C955.01 533.57 955.22 545.61 950.02 557.34C947.09 563.95 941.71 566.85 934.22 566.28C927.69 565.78 924.36 561.75 921.95 556.55C919.54 551.35 918.92 545.58 918.92 539.86ZM927.6 538.67C927.6 544.99 927.81 550.49 930.44 555.57C931.72 558.05 933.57 559.74 936.51 559.74C939.45 559.74 941.42 557.74 942.33 555.27C946.034 545.298 946.066 534.333 942.42 524.34C941.47 521.65 939.51 519.48 936.32 519.48C932.93 519.48 931.05 521.79 929.9 524.64C928.209 529.103 927.441 533.862 927.64 538.63L927.6 538.67Z" fill="white"/>
<path id="Vector_22" d="M1739.4 539.77C1739.18 546.37 1738.65 552.85 1735.17 558.65C1731.69 564.45 1726.76 566.78 1719.99 566.24C1714.18 565.77 1710.63 562.59 1708.45 557.76C1705.85 552.208 1704.49 546.162 1704.44 540.033C1704.4 533.905 1705.68 527.839 1708.19 522.25C1710.89 515.94 1715.95 512.19 1723.19 512.56C1730.43 512.93 1734.27 517.47 1736.81 523.56C1738.98 528.75 1739.24 534.3 1739.4 539.77ZM1713.4 539.34C1713.4 544.72 1713.62 550.07 1715.98 555.05C1717.23 557.7 1719.06 559.7 1722.25 559.69C1725.44 559.68 1727.35 557.54 1728.25 554.83C1731.82 544.986 1731.82 534.204 1728.25 524.36C1727.25 521.68 1725.37 519.49 1722.25 519.44C1718.84 519.39 1716.95 521.7 1715.78 524.53C1713.76 529.26 1713.32 534.27 1713.39 539.34H1713.4Z" fill="white"/>
<path id="Vector_23" d="M1864.55 539.47C1864.55 546.02 1863.89 552.47 1860.55 558.29C1857.21 564.11 1852.14 566.79 1845.16 566.29C1839.16 565.82 1835.51 562.42 1833.39 557.46C1830.95 551.953 1829.67 545.999 1829.65 539.974C1829.63 533.949 1830.86 527.985 1833.26 522.46C1835.9 516.15 1840.9 512.36 1848.11 512.61C1855.32 512.86 1859.23 517.22 1861.81 523.33C1864 528.46 1864.58 533.92 1864.55 539.47ZM1838.47 539.7C1838.75 544.88 1838.76 550.11 1841.05 554.95C1842.3 557.58 1844.05 559.61 1847.27 559.7C1850.49 559.79 1852.47 557.7 1853.41 554.99C1856.94 545.127 1856.97 534.349 1853.48 524.47C1852.56 521.78 1850.66 519.56 1847.48 519.47C1844.09 519.35 1842.2 521.64 1840.93 524.47C1838.75 529.28 1838.73 534.51 1838.47 539.7Z" fill="white"/>
<path id="Vector_24" d="M119.49 539.31C119.95 545.351 118.848 551.408 116.29 556.9C113.16 563.28 108.29 566.73 100.71 566.27C93.95 565.86 90.19 562.02 88.01 556.49C83.6597 545.813 83.6597 533.857 88.01 523.18C90.6 516.63 95.42 512.51 102.9 512.54C109.35 512.54 114.42 516.63 117.19 523.98C119.031 528.87 119.814 534.095 119.49 539.31ZM93.58 539.09C93.68 544.73 93.8 550.09 96.14 555.09C97.39 557.74 99.28 559.67 102.46 559.7C105.64 559.73 107.33 557.8 108.27 555.27C112.009 545.285 112.066 534.293 108.43 524.27C107.52 521.61 105.59 519.4 102.36 519.38C98.92 519.38 97.22 521.73 95.95 524.53C93.8 529.29 93.77 534.34 93.58 539.09Z" fill="white"/>
<path id="Vector_25" d="M305.66 539.86C305.912 544.793 305.188 549.727 303.53 554.38C300.64 562.63 295.53 566.22 287.14 566.14C280.42 566.08 275.62 562.22 273.14 554.05C270.04 543.65 269.89 533.16 274.14 522.98C276.76 516.64 281.45 512.56 288.67 512.56C295.89 512.56 300.31 516.86 302.92 523.26C305.002 528.536 305.936 534.195 305.66 539.86ZM297.01 540C297.01 532.18 296.08 526.78 294.11 523.4C291.02 518.09 285.11 517.78 282.75 523.33C278.26 533.89 278.48 544.82 282.56 555.56C282.981 556.815 283.802 557.898 284.896 558.644C285.99 559.389 287.298 559.757 288.62 559.69C291.62 559.64 293.34 557.69 294.46 555.25C296.66 550.41 297.1 545.25 297.01 540.01V540Z" fill="white"/>
<path id="Vector_26" d="M1420.64 539.78C1420.43 546.39 1419.49 553.02 1415.99 559.22C1410.64 568.71 1394.74 569.11 1389.89 558.52C1384.23 546.15 1384.17 533.58 1389.89 521.26C1391.05 518.517 1393.03 516.203 1395.57 514.64C1398.1 513.077 1401.06 512.343 1404.03 512.54C1410.49 512.72 1414.53 516.46 1417.22 521.92C1419.91 527.38 1420.5 533.44 1420.64 539.78ZM1411.92 539.97C1411.92 534.57 1411.56 529.23 1409.36 524.22C1408.21 521.6 1406.36 519.4 1403.19 519.44C1400.02 519.48 1398.03 521.44 1397.05 524.23C1393.39 534.056 1393.36 544.865 1396.97 554.71C1398.03 557.65 1400.07 559.71 1403.47 559.71C1406.87 559.71 1408.59 557.13 1409.68 554.33C1411.34 549.732 1412.1 544.856 1411.92 539.97Z" fill="white"/>
<path id="Vector_27" d="M201.76 561C198.37 563.8 195.99 566.32 191.93 566.24C183.93 566.1 179.22 562.24 178.36 554.16C177.18 543.16 183.46 535.16 194.68 532.97C197.05 532.52 201.17 534.37 200.68 529.03C200.04 522.89 197.68 519.76 192.98 519.39C190.695 519.348 188.425 519.774 186.31 520.64C185.24 521.01 183.76 523.02 183.09 520.2C182.68 518.47 180.99 516.78 183.37 515.02C193.04 507.87 207.37 513.84 208.76 525.78C209.88 535.18 209.03 544.64 209.27 554.06C209.46 556.328 209.49 558.607 209.36 560.88C209.15 562.67 211.61 565.77 207.36 566C204.13 566.17 200.8 566.69 201.76 561ZM200.84 545.77C200.76 544.798 200.76 543.822 200.84 542.85C201.55 538.62 199.37 538.32 196.08 539.12C188.72 540.92 185.26 546.73 187.08 554.37C187.78 557.37 189.47 559.52 192.54 559.84C195.32 560.14 197.54 558.69 198.93 556.19C200.79 552.93 200.92 549.37 200.84 545.77Z" fill="white"/>
<path id="Vector_28" d="M1928.76 521.63C1926.1 515.63 1926.35 515.05 1932.63 513.37C1945.45 509.94 1953.5 515.61 1954.03 528.97C1954.49 540.36 1954.29 551.77 1954.51 563.17C1954.51 565.26 1954.02 566.02 1951.83 566.06C1948.71 566.06 1945.83 566.22 1946.71 560.78C1943.29 564.2 1940.55 566.4 1936.33 566.24C1929.39 565.98 1925.87 563.6 1923.93 556.91C1920.62 545.46 1927.53 535.08 1939.76 532.91C1942.06 532.51 1945.82 534.16 1945.6 529.28C1945.36 523.78 1942.91 520.1 1938.6 519.41C1936.46 519.1 1934.27 519.58 1928.76 521.63ZM1945.76 545.99C1945.69 545.018 1945.69 544.042 1945.76 543.07C1946.44 538.7 1944.37 538.2 1940.76 539.2C1933.67 541.15 1930.33 546.72 1932.02 554.2C1932.68 557.1 1934.16 559.48 1937.31 559.85C1940.46 560.22 1942.59 558.64 1944.06 555.98C1945.78 552.86 1945.81 549.42 1945.74 545.99H1945.76Z" fill="white"/>
<path id="Vector_29" d="M588.71 561.28C583.25 566.48 576.54 567.74 571.91 564.84C566.49 561.44 564.16 552.53 566.8 545C569.35 537.72 575.17 534.63 582.2 533C584.46 532.47 588.2 534.29 588.03 529.38C587.86 523.84 585.6 520.14 581.26 519.48C578.655 519.116 576.002 519.574 573.67 520.79C572.2 521.52 570.8 522.1 570.39 519.91C570.08 518.26 568.3 516.57 571.01 514.91C581.88 508.18 595.41 513.91 596.32 526.5C597.23 539.09 596.82 551.5 597.04 564.07C597.04 565.62 596.32 566.24 595.04 565.99C593.14 565.65 590.64 567.34 589.43 564.56C589.09 563.491 588.849 562.393 588.71 561.28ZM588.36 545.98C588.36 538.18 586.85 537.23 580.5 540.14C575.5 542.45 573.01 548.29 574.5 554.14C575.3 557.24 576.94 559.76 580.28 559.88C583.45 560 585.71 558.02 586.98 555.07C588.39 551.86 588.28 548.44 588.36 545.98Z" fill="white"/>
<path id="Vector_30" d="M672.06 561.35C666.27 566.63 659.65 567.8 654.93 564.66C649.74 561.21 647.51 552.52 650.01 545.16C652.51 537.8 658.25 534.56 665.32 533.08C668.32 532.46 672.11 533.56 671.25 528.08C670.39 522.6 668.1 519.6 663.25 519.39C661.123 519.314 659.012 519.774 657.11 520.73C655.4 521.57 654.05 522.05 653.55 519.6C653.21 517.87 651.79 516.24 654.55 514.74C667.07 507.9 679.45 514.54 679.87 528.74C680.21 540.29 680.06 551.85 680.2 563.4C680.2 564.82 680.42 566.27 678.46 565.97C676.5 565.67 673.74 567.48 672.62 564.27C672.366 563.311 672.179 562.335 672.06 561.35ZM671.64 545.96C671.64 538.17 670.19 537.23 663.82 540.12C658.82 542.38 656.21 548.32 657.73 554.12C658.46 556.94 659.88 559.4 663.04 559.82C666.2 560.24 668.58 558.39 670.04 555.58C671.71 552.28 671.51 548.66 671.64 545.96Z" fill="white"/>
<path id="Vector_31" d="M458.61 540.58H452.74C446.03 540.58 445.84 540.81 447.08 547.3C449.08 557.88 453.86 560.93 464.88 558.61C466.42 558.28 467.93 557.78 468.14 560.03C468.31 561.72 470.14 563.97 467.02 564.85C457.13 567.66 445.28 567.67 440.58 554.77C436.702 544.432 437.018 532.988 441.46 522.88C444.46 515.74 450.46 512.04 457.09 512.53C463.09 512.98 467.56 517.34 469.76 524.99C469.81 525.15 469.87 525.3 469.92 525.45C473.53 539.1 472.42 540.58 458.61 540.58ZM454.61 534.04C463.61 534.04 464.22 533.35 461.61 525.66C460.52 522.42 458.9 519.46 455.15 519.35C451.59 519.24 449.93 522.11 448.66 525.04C445.11 533.2 445.65 534.04 454.58 534.04H454.61Z" fill="white"/>
<path id="Vector_32" d="M2078.01 530.43C2078.24 535.79 2078.69 541.62 2080.75 547.2C2084.18 556.47 2090.1 560.03 2099.75 558.2C2102.05 557.77 2103.29 557.42 2103.65 560.39C2103.96 562.96 2104.65 564.85 2101.07 565.78C2089.63 568.78 2078.18 564.35 2073.66 553.44C2066.88 537.09 2066.78 520.37 2074.98 504.35C2077.38 499.644 2081.34 495.915 2086.18 493.798C2091.02 491.681 2096.44 491.307 2101.53 492.74C2104.27 493.57 2104.19 495.05 2103.48 497.09C2102.85 498.93 2103.14 501.25 2099.62 500.44C2091.29 498.51 2085.62 501.57 2081.86 509.44C2079.41 514.46 2077.92 522.43 2078.01 530.43Z" fill="white"/>
<path id="Vector_33" d="M1507.92 540.58H1502.05C1495.3 540.58 1495.05 540.91 1496.5 547.79C1498.64 557.93 1503.65 561.16 1513.75 558.79C1515.75 558.33 1517.14 557.79 1517.63 560.57C1518.02 562.83 1518.44 564.57 1515.39 565.23C1502.12 568.23 1492.39 565.72 1488.69 551.1C1486.22 541.23 1486.69 531.37 1491.22 522.05C1494.22 515.85 1499.22 512.19 1506.39 512.6C1512.39 512.93 1516.63 517.12 1518.88 524.6C1518.97 524.91 1519.11 525.21 1519.2 525.52C1522.8 539.17 1521.75 540.58 1507.92 540.58ZM1503.85 534.04C1512.74 534.04 1513.67 532.86 1510.78 525.24C1509.64 522.24 1508.01 519.42 1504.48 519.34C1500.95 519.26 1499.22 522.09 1497.96 525.02C1494.45 533.15 1495.03 534.04 1503.86 534.04H1503.85Z" fill="white"/>
<path id="Vector_34" d="M1155.61 540.58H1150.23C1142.78 540.58 1142.78 540.58 1144.23 548.16C1145.97 557.51 1151.58 561.25 1160.8 558.94C1163.06 558.38 1164.47 557.6 1165.36 560.87C1166.25 564.14 1164.63 564.87 1162.18 565.35C1148.8 568.17 1139.68 565.11 1136.25 550.71C1133.98 541.16 1134.32 531.61 1138.55 522.55C1141.87 515.42 1147.74 511.85 1154.36 512.55C1160.36 513.17 1164.79 517.78 1166.79 525.34C1167.89 529.48 1167.88 533.7 1167.92 537.93C1167.92 540.21 1166.92 540.67 1164.92 540.6C1161.81 540.5 1158.71 540.57 1155.61 540.58ZM1152.08 534.04C1154.32 533.58 1158.49 535.39 1159.32 533.1C1160.45 530.01 1159.32 526.1 1157.24 522.95C1156.5 521.888 1155.61 520.944 1154.59 520.15C1154.02 519.686 1153.33 519.384 1152.6 519.275C1151.87 519.166 1151.12 519.254 1150.44 519.53C1147.14 520.66 1142.27 529.36 1143.81 532.69C1145.23 535.77 1148.73 533.33 1151.2 534.03C1151.49 534.058 1151.79 534.062 1152.08 534.04Z" fill="white"/>
<path id="Vector_35" d="M1200.27 529.74C1200.43 536.31 1200.97 542.74 1203.65 548.86C1207.15 556.86 1212.76 559.97 1221.26 558.3C1224.26 557.72 1225.26 557.85 1226.04 561.21C1226.89 564.98 1224.94 565.61 1222.42 565.91C1208.42 567.55 1197.55 564.64 1192.84 544.91C1189.93 533.289 1190.5 521.072 1194.47 509.77C1199.11 496.77 1210.47 489.95 1222.57 492.6C1225.08 493.15 1226.91 493.6 1225.75 496.95C1224.89 499.44 1224.75 501.29 1221.02 500.25C1214.25 498.36 1208.53 501.42 1204.84 508.06C1201.15 514.7 1200.41 522.24 1200.27 529.74Z" fill="white"/>
<path id="Vector_36" d="M1624.92 540.57C1622.15 540.725 1619.38 540.705 1616.62 540.51C1612.7 540.03 1612.28 542 1612.86 545.02C1613.08 546.13 1613.28 547.25 1613.51 548.37C1615.4 557.74 1620.84 561.28 1630.17 558.89C1632.59 558.27 1633.8 557.83 1634.6 561C1635.4 564.17 1634.13 564.73 1631.79 565.26C1618.25 568.32 1608.91 565.09 1605.43 550.67C1603.54 542.723 1603.77 534.419 1606.1 526.59C1606.95 523.612 1608.38 520.829 1610.3 518.4C1617.36 509.4 1629.68 510.86 1634.47 521.21C1636.94 526.53 1637.22 532.16 1637.17 537.89C1637.17 540.12 1636.17 540.66 1634.17 540.6C1631.12 540.5 1628.02 540.57 1624.92 540.57ZM1620.64 534.04C1629.97 534.04 1630.39 533.57 1627.83 525.87C1626.77 522.66 1625.2 519.55 1621.44 519.36C1617.68 519.17 1615.93 522.28 1614.64 525.36C1611.35 533.29 1611.92 534.04 1620.64 534.04Z" fill="white"/>
<path id="Vector_37" d="M1024.92 540.57H1019.05C1012.28 540.57 1012.13 540.74 1013.16 547.29C1014.73 557.29 1020.56 561.24 1030.53 558.74C1032.6 558.22 1033.89 557.95 1034.45 560.48C1034.96 562.83 1034.91 564.55 1032.01 565.21C1019.14 568.11 1009.47 565.84 1005.69 551.79C1002.96 541.66 1003.29 531.44 1008.11 521.79C1011.38 515.25 1017.11 511.86 1023.41 512.55C1030.41 513.32 1033.66 518.17 1035.6 524.27C1037 528.67 1037.15 533.21 1037.14 537.79C1037.14 539.9 1036.32 540.67 1034.23 540.58C1031.11 540.49 1028.01 540.57 1024.92 540.57ZM1020.59 534.04C1029.8 534.04 1030.32 533.46 1027.76 525.82C1026.69 522.65 1025.18 519.52 1021.41 519.35C1017.64 519.18 1015.9 522.24 1014.63 525.35C1011.35 533.17 1011.92 534.04 1020.57 534.04H1020.59Z" fill="white"/>
<path id="Vector_38" d="M769.92 540.57H764.54C757.19 540.57 757.19 540.57 758.34 547.73C759.88 557.41 765.74 561.23 775.52 558.79C777.35 558.33 778.86 557.54 779.45 560.3C779.93 562.54 780.38 564.43 777.34 565.15C764.44 568.15 754.34 565.91 750.59 551.15C748.09 541.969 748.716 532.216 752.37 523.43C754.37 518.63 757.56 514.82 762.78 513.18C768.93 511.25 774.57 513.18 778.06 518.6C781.85 524.47 782.32 531.09 782.18 537.82C782.18 539.72 781.38 540.73 779.18 540.6C776.15 540.44 773.04 540.57 769.92 540.57ZM765.92 534.04C774.82 534.04 775.66 532.92 772.6 525.04C771.5 522.21 769.95 519.53 766.6 519.35C763.25 519.17 761.49 521.73 760.15 524.48C756.23 532.46 757.19 534.04 765.92 534.04Z" fill="white"/>
<path id="Vector_39" d="M1276.97 540.57C1276.16 540.454 1275.34 540.454 1274.53 540.57C1271.41 541.57 1266 537.88 1265.29 542.95C1264.07 551.62 1269.29 558.82 1275.66 559.32C1277.93 559.55 1280.23 559.384 1282.44 558.83C1284.81 558.15 1286.18 557.72 1286.94 560.83C1287.63 563.69 1286.66 564.65 1284.15 565.22C1270.77 568.22 1261.06 565.1 1257.8 550.55C1255.55 540.55 1255.8 530.49 1260.8 521.11C1263.31 516.39 1267.17 513.28 1272.57 512.51C1278.3 511.69 1283.39 514.51 1286.25 519.95C1289.19 525.61 1289.66 531.76 1289.42 538.01C1289.35 539.82 1288.63 540.6 1286.73 540.54C1283.5 540.49 1280.24 540.57 1276.97 540.57ZM1273.09 534.04C1282.26 534.04 1283.09 532.85 1279.8 524.82C1278.64 522.02 1277.08 519.41 1273.71 519.33C1270.34 519.25 1268.71 521.8 1267.35 524.51C1263.5 532.46 1264.46 534.04 1273.09 534.04Z" fill="white"/>
<path id="Vector_40" d="M491.39 545.53C489.29 550.72 487.49 555.24 485.64 559.75C482.84 566.59 482.83 566.58 474.46 565.56C478.03 557.97 481.46 550.47 485.11 543.08C485.746 541.976 486.081 540.724 486.081 539.45C486.081 538.176 485.746 536.924 485.11 535.82C481.52 528.6 478.28 521.2 474.84 513.73C483.74 512.79 483.74 512.79 486.96 520.48L492.23 533.04C494.18 528.25 495.91 523.93 497.68 519.62C500.49 512.81 500.5 512.82 508.97 513.77C505.54 520.92 502.42 528.01 498.76 534.82C496.99 538.1 497.26 540.72 498.82 543.82C501.82 549.92 504.56 556.2 507.56 562.33C508.79 564.85 508.92 565.85 505.48 566.1C501.23 566.42 498.99 565.1 497.64 561C496.02 555.96 493.69 551.11 491.39 545.53Z" fill="white"/>
<path id="Vector_41" d="M1363.24 537.93C1363.24 533.05 1363.16 528.17 1363.24 523.3C1363.29 520.98 1362.83 519.39 1360.07 519.77C1357.31 520.15 1356.87 518.86 1356.79 516.4C1356.71 513.59 1357.95 513.02 1360.27 513.4C1363.27 513.84 1363.14 511.93 1363.27 509.83C1363.4 507.73 1361.99 505.01 1364.93 503.83C1366.93 503 1369.21 500.98 1371.15 502C1372.75 502.83 1371.96 505.65 1371.7 507.47C1371.02 512.35 1372.7 514.28 1377.7 513.47C1379.98 513.1 1382.11 513 1382.04 516.7C1381.97 520.4 1379.58 520.07 1377.45 519.76C1372.52 519.05 1371.45 521.2 1371.68 525.76C1372.04 534.2 1371.68 542.67 1371.82 551.13C1371.9 555.59 1372.6 559.75 1378.82 559.42C1381.82 559.25 1380.48 562 1380.82 563.42C1381.27 565.04 1380.37 565.98 1378.48 566.29C1369.02 567.83 1364.15 564.29 1363.41 554.6C1362.99 549.11 1363.33 543.6 1363.33 538.03L1363.24 537.93Z" fill="white"/>
<path id="Vector_42" d="M1529.16 528.02C1529.16 516.94 1529.28 505.85 1529.08 494.78C1529.02 491.52 1530 490.67 1533.16 490.78C1536.16 490.87 1537.86 490.93 1537.82 494.78C1537.63 517.1 1537.63 539.433 1537.82 561.78C1537.82 565.27 1536.75 566.11 1533.4 566.15C1530.05 566.19 1529.02 565.15 1529.09 561.76C1529.29 550.5 1529.16 539.26 1529.16 528.02Z" fill="white"/>
<path id="Vector_43" d="M1693.65 566.12C1686 566.12 1682.42 562.58 1682.25 554.12C1682.05 544.19 1682.12 534.24 1682.25 524.3C1682.25 521.41 1682.33 519.1 1678.33 519.65C1675.52 520.04 1675.9 517.85 1675.77 516.06C1675.62 513.92 1676.5 512.94 1678.59 513.32C1682.44 514.02 1682.23 511.63 1682.28 509.01C1682.28 507.11 1681.28 504.94 1684.03 503.53C1690.28 500.35 1691.31 500.62 1690.73 507.53C1690.29 512.88 1692.42 513.98 1696.99 513.34C1699.2 513.02 1700.99 513.04 1700.99 516.4C1700.99 519.48 1699.6 520.1 1697.15 519.69C1692.04 518.84 1690.52 520.84 1690.79 525.95C1691.24 534.4 1690.91 542.89 1690.92 551.37C1690.92 555.89 1691.92 559.64 1697.67 559.25C1700.51 559.05 1699.58 561.25 1699.78 562.65C1700.03 564.32 1700.1 566.05 1697.62 566.08L1693.65 566.12Z" fill="white"/>
<path id="Vector_44" d="M1054.14 566.17C1050.56 566.17 1048.5 566.08 1046.39 565.49C1042.93 564.49 1042.06 562.82 1043.51 559.49C1044.35 557.56 1045.16 556.87 1047.04 558.14C1047.6 558.486 1048.21 558.73 1048.85 558.86C1052.85 559.86 1056.73 560.28 1059.42 556.31C1061.61 553.08 1060.7 547.84 1057.29 544.77C1054.39 542.17 1050.99 540.11 1048.17 537.43C1042.55 532.09 1041.8 524.33 1046 518.43C1049.93 512.88 1057.82 510.98 1064.46 513.71C1067.14 514.82 1067.1 516.22 1066.35 518.65C1065.52 521.35 1064.5 521.35 1062.17 520.32C1058.46 518.66 1054.62 518.63 1052.35 522.7C1050.08 526.77 1052.08 530.19 1055.41 532.88C1058.41 535.33 1061.93 537.21 1064.56 540.18C1072.34 548.93 1069.13 562.56 1058.48 565.64C1057.06 565.976 1055.6 566.153 1054.14 566.17Z" fill="white"/>
<path id="Vector_45" d="M62.71 566.15C60.5943 566.215 58.4793 566 56.42 565.51C52.84 564.51 52.17 562.7 53.67 559.4C54.44 557.72 54.81 557.3 56.79 557.98C64.17 560.53 67.66 559.79 69.79 555.74C72.14 551.21 70.18 546.53 64.21 542.21C62.0494 540.758 60.0003 539.147 58.08 537.39C52.73 532.12 51.91 524.54 55.87 518.7C59.83 512.86 67.87 510.93 74.67 513.7C77.45 514.83 77.24 516.33 76.44 518.59C75.64 520.85 74.74 521.5 72.25 520.31C68.59 518.57 64.72 518.51 62.47 522.65C60.22 526.79 62.03 530.17 65.47 532.86C68.28 535.08 71.47 536.86 73.94 539.46C78.94 544.72 80.31 551.46 77.5 557.9C74.97 563.58 70.35 566.16 62.71 566.15Z" fill="white"/>
<path id="Vector_46" d="M1974.15 528.48C1974.15 539.7 1974.01 550.92 1974.23 562.14C1974.3 565.56 1973.01 566.14 1970.01 566.14C1967.01 566.14 1965.37 565.79 1965.4 562.02C1965.58 539.58 1965.58 517.137 1965.4 494.69C1965.4 490.54 1967.49 491.02 1970.21 490.83C1973.43 490.61 1974.3 491.68 1974.21 494.83C1974.03 506.03 1974.15 517.26 1974.15 528.48Z" fill="white"/>
<path id="Vector_47" d="M126.34 539.77C126.41 533.03 127.7 526.09 132.16 520.08C134.335 517.107 137.344 514.848 140.805 513.589C144.266 512.331 148.024 512.129 151.6 513.01C154.45 513.71 154.86 514.87 153.99 517.43C153.3 519.43 153.61 521.26 150.12 520.43C143.83 518.88 139.77 521.27 137.36 527.28C134.209 534.869 134.03 543.366 136.86 551.08C139.25 557.8 143.69 560.24 150.53 558.83C152.53 558.42 153.64 558.29 153.82 560.68C153.97 562.68 155.23 565.04 151.92 565.68C143.24 567.25 135.62 566.74 130.36 557.77C127.22 552.35 126.41 546.4 126.34 539.77Z" fill="white"/>
<path id="Vector_48" d="M1879.77 539.86C1879.79 543.946 1880.57 547.993 1882.05 551.8C1884.56 557.69 1889.05 560.17 1895.3 558.95C1896.91 558.64 1898.51 557.63 1898.73 560.45C1898.89 562.55 1900.48 565.09 1896.73 565.7C1887.01 567.29 1879.35 566.57 1874.63 556.26C1872.08 550.954 1870.84 545.113 1871.01 539.228C1871.19 533.344 1872.77 527.586 1875.63 522.44C1879.91 514.44 1889.36 510.71 1897.2 513.24C1899.7 514.05 1899.83 515.24 1898.91 517.18C1898.28 518.48 1899.49 520.93 1896.31 520.67C1886.39 519.84 1882.93 522.46 1880.82 532.17C1880.29 534.64 1880.11 537.25 1879.77 539.86Z" fill="white"/>
<path id="Vector_49" d="M553.29 566.15C544.55 566.15 538.9 562.52 536.02 554.65C532.345 545.123 532.466 534.549 536.36 525.11C540.21 515.7 549.5 510.79 558.31 512.93C560.9 513.55 561.97 514.55 561.22 517.25C560.59 519.52 560.32 521.14 556.93 520.32C551.09 518.9 547.13 521.13 544.76 526.67C543 530.62 542.049 534.882 541.965 539.205C541.881 543.529 542.665 547.825 544.27 551.84C546.61 557.84 551.27 560.21 557.55 558.84C559.55 558.39 560.55 558.35 560.92 560.61C561.21 562.61 562.39 564.69 559.13 565.61C557 566.2 554.92 565.98 553.29 566.15Z" fill="white"/>
<path id="Vector_50" d="M218.47 541.72C218.36 533.21 219.74 526.72 223.53 521C225.614 517.749 228.662 515.23 232.248 513.795C235.834 512.361 239.778 512.083 243.53 513C246.27 513.65 246.97 514.7 246.06 517.36C245.38 519.36 245.59 521.18 242.18 520.36C235.8 518.89 231.81 521.17 229.42 527.24C226.147 535.154 226.104 544.035 229.3 551.98C231.6 557.79 236.15 560.07 242.2 558.9C243.75 558.61 245.51 557.47 245.8 560.23C246.02 562.33 247.33 564.98 243.75 565.61C234.48 567.23 226.42 566.35 221.39 555.68C219.43 551.289 218.434 546.529 218.47 541.72Z" fill="white"/>
<path id="Vector_51" d="M1643.85 540.36C1643.35 533.822 1644.91 527.291 1648.32 521.69C1650.32 518.297 1653.34 515.621 1656.95 514.039C1660.56 512.458 1664.57 512.052 1668.42 512.88C1671.51 513.55 1671.95 515 1671.29 517.68C1670.72 519.98 1670.29 521.13 1667.19 520.35C1661.47 518.87 1657.33 521.08 1654.97 526.54C1653.22 530.491 1652.26 534.751 1652.16 539.072C1652.06 543.394 1652.82 547.692 1654.39 551.72C1656.68 557.82 1661.39 560.3 1667.56 558.83C1669.94 558.27 1670.83 558.63 1671.21 560.93C1671.59 563.23 1671.86 565.22 1668.83 565.7C1659.72 567.12 1652.37 566.43 1647.19 556.88C1644.57 551.789 1643.41 546.07 1643.85 540.36Z" fill="white"/>
<path id="Vector_52" d="M1756.66 518.8C1759.27 516.46 1761.32 513.49 1764.88 512.8C1766.45 512.51 1769.16 511.41 1769.01 514.16C1768.88 516.49 1771.75 520.43 1766.93 521.26C1760.7 522.33 1758.16 526.5 1757.42 532.04C1756.13 541.75 1756.99 551.54 1756.92 561.29C1756.92 564.53 1756.64 566.19 1752.55 566.13C1748.46 566.07 1748.2 564.41 1748.21 561.13C1748.21 546.66 1748.03 532.19 1748.06 517.71C1748.06 516.1 1746.4 513.11 1750.37 513.24C1753.17 513.34 1756.61 512.36 1755.96 517.24C1755.92 517.72 1756.34 518.16 1756.66 518.8Z" fill="white"/>
<path id="Vector_53" d="M1241.45 520.21C1244.06 516.37 1246.45 513.53 1250.45 512.74C1251.85 512.47 1254.26 511.64 1254.09 514.26C1253.94 516.62 1256.09 520.01 1252.35 521.26C1245.35 523.63 1242.55 526.72 1242.35 534.26C1242.08 543.54 1242 552.83 1242.28 562.11C1242.4 566.11 1240.28 565.92 1237.49 566.11C1234.2 566.29 1233.42 565.11 1233.49 561.99C1233.6 547.33 1233.41 532.67 1233.49 517.99C1233.49 516.19 1231.87 513.33 1236.12 513.23C1239.79 513.15 1241.65 514.05 1241.28 517.94C1241.28 518.7 1241.34 519.459 1241.45 520.21Z" fill="white"/>
<path id="Vector_54" d="M161.45 539.73C161.45 532.07 161.66 524.41 161.36 516.73C161.22 513.2 162.96 513.17 165.47 513.29C167.98 513.41 170.2 512.67 170.13 516.79C169.87 531.94 169.91 547.09 170.13 562.24C170.18 565.92 168.43 565.99 165.69 566.04C162.95 566.09 161.25 565.74 161.39 562.18C161.66 554.73 161.45 547.22 161.45 539.73Z" fill="white"/>
<path id="Vector_55" d="M253.55 539.77C253.55 532.11 253.75 524.45 253.46 516.77C253.33 513.31 254.94 513.12 257.53 513.29C259.89 513.44 262.28 512.6 262.22 516.75C261.97 532.06 262.02 547.38 262.22 562.69C262.22 566.34 260.22 566.02 257.83 565.98C255.44 565.94 253.36 566.46 253.5 562.71C253.74 555.09 253.55 547.43 253.55 539.77Z" fill="white"/>
<path id="Vector_56" d="M524.35 539.6C524.35 547.1 524.18 554.6 524.42 562.09C524.53 565.41 523.34 566.09 520.26 566.09C517.18 566.09 515.63 565.6 515.69 561.9C515.903 547.08 515.903 532.253 515.69 517.42C515.69 513.74 517.04 513.3 520.21 513.22C523.71 513.13 524.56 514.22 524.44 517.6C524.17 524.93 524.35 532.27 524.35 539.6Z" fill="white"/>
<path id="Vector_57" d="M1906.35 539.78C1906.35 532.12 1906.55 524.46 1906.26 516.78C1906.13 513.33 1907.72 513.11 1910.32 513.29C1912.68 513.45 1915.09 512.58 1915.02 516.74C1914.78 532.05 1914.83 547.37 1915.02 562.68C1915.02 566.33 1913.02 566.03 1910.64 565.98C1908.26 565.93 1906.16 566.48 1906.3 562.72C1906.55 555.1 1906.35 547.44 1906.35 539.78Z" fill="white"/>
<path id="Vector_58" d="M1341.4 539.24C1341.4 531.77 1341.65 524.24 1341.3 516.82C1341.1 512.71 1343.51 513.37 1345.92 513.34C1348.33 513.31 1350.21 512.91 1350.16 516.63C1349.93 531.897 1349.93 547.17 1350.16 562.45C1350.22 566.39 1348.16 565.92 1345.63 566.05C1342.63 566.21 1341.19 565.65 1341.32 562.15C1341.58 554.53 1341.4 546.86 1341.4 539.24Z" fill="white"/>
<path id="Vector_59" d="M910.01 540.06C910.01 547.54 909.79 555.06 910.1 562.48C910.27 566.48 907.91 565.94 905.46 566.03C903.01 566.12 901.22 566.15 901.26 562.61C901.46 547.343 901.46 532.067 901.26 516.78C901.26 513.34 902.77 513.13 905.34 513.33C907.61 513.51 910.26 512.48 910.1 516.66C909.81 524.45 910.01 532.26 910.01 540.06Z" fill="white"/>
<path id="Vector_60" d="M2055.52 566.14C2051.24 566.6 2050.17 563.71 2049.88 560.43C2049.57 556.9 2052.45 553.76 2055.67 553.95C2059.75 554.2 2061.28 556.87 2061.16 560.58C2061.04 564.08 2059.69 566.61 2055.52 566.14Z" fill="white"/>
<path id="Vector_61" d="M2122.6 560.65C2122.26 563.86 2121.28 566.29 2117.02 566.24C2112.56 566.24 2111.33 563.68 2111.36 560.04C2111.39 556.4 2113.18 554.14 2116.94 553.94C2120.28 553.77 2122.68 556.66 2122.6 560.65Z" fill="white"/>
<path id="Vector_62" d="M1286.85 492.36C1281.26 496.9 1280.57 506.57 1270.05 506.92C1273.05 501.68 1275.14 497.04 1278.05 493C1280.19 490.15 1283.76 492.6 1286.85 492.36Z" fill="white"/>
<path id="Vector_63" d="M300.7 492.49C295.25 496.99 294.47 506.49 283.99 506.85C286.93 501.69 289.06 497.16 291.94 493.16C294.02 490.27 297.55 492.39 300.7 492.49Z" fill="white"/>
<path id="Vector_64" d="M1350.82 499.86C1350.52 502.93 1349.21 505.3 1345.82 505.44C1342.07 505.59 1340.56 502.98 1340.58 499.76C1340.6 496.54 1342.34 494.37 1345.71 494.4C1349.08 494.43 1350.49 496.75 1350.82 499.86Z" fill="white"/>
<path id="Vector_65" d="M900.35 500.3C900.6 496.92 901.87 494.58 905.28 494.44C908.69 494.3 910.39 496.32 910.5 499.56C910.61 502.8 909.16 505.35 905.5 505.42C902.02 505.5 900.85 503.01 900.35 500.3Z" fill="white"/>
<path id="Vector_66" d="M1915.51 499.37C1915.51 503.11 1914.03 505.28 1910.69 505.37C1907.35 505.46 1905.69 503.55 1905.57 500.22C1905.45 496.89 1906.98 494.45 1910.57 494.45C1913.98 494.45 1915.44 496.65 1915.51 499.37Z" fill="white"/>
<path id="Vector_67" d="M262.58 500.1C262.47 503.36 260.85 505.45 257.58 505.4C253.92 505.35 252.51 502.89 252.68 499.49C252.85 496.09 254.57 494.3 257.96 494.49C261.35 494.68 262.66 496.86 262.58 500.1Z" fill="white"/>
<path id="Vector_68" d="M170.55 499.93C170.55 503.18 168.98 505.3 165.65 505.41C162.32 505.52 160.65 503.33 160.56 500.15C160.46 496.72 162.07 494.41 165.71 494.45C169.11 494.49 170.52 496.7 170.55 499.93Z" fill="white"/>
<path id="Vector_69" d="M525.15 499.75C525.01 503.14 523.43 505.42 519.86 505.4C516.78 505.4 515.27 503.4 515.17 500.35C515.05 496.91 516.41 494.52 520.03 494.44C523.37 494.36 524.92 496.56 525.15 499.75Z" fill="white"/>
</g>
<g id="group_8">
<path id="Vector_70" d="M508.47 0C518.47 2.43 528.27 5.09 536.92 11C556.92 24.71 567.72 43.78 567.78 67.86C568.06 173.62 568.087 279.383 567.86 385.15C567.86 424.07 537.12 453.52 496.86 453.56C424.033 453.627 351.207 453.627 278.38 453.56C209.47 453.56 140.57 453.3 71.66 453.67C33.66 453.87 5.66001 428.04 0.820009 396.14C0.760009 395.74 0.28001 395.39 0.0100098 395.02V57.69C1.01001 57.12 0.84001 56.06 1.01001 55.14C6.76001 29.98 21.47 12.57 45.92 3.65C49.82 2.22 53.86 1.21 57.84 0H508.47ZM284.1 22.49C212.913 22.49 141.723 22.49 70.53 22.49C41.94 22.49 22.53 41.82 22.53 70.29C22.53 174.59 22.53 278.887 22.53 383.18C22.4508 386.109 22.618 389.039 23.03 391.94C27.03 415.63 45.56 430.94 70.21 430.94C172.877 430.94 275.58 430.94 378.32 430.94C418.32 430.94 458.32 431.01 498.32 430.94C525.26 430.86 544.92 411.04 544.92 384.21V68.86C545.044 65.4419 544.786 62.0207 544.15 58.66C539.15 36.43 521.31 22.49 497.67 22.48C426.503 22.4667 355.313 22.47 284.1 22.49Z" fill="#FCC230"/>
<path id="Vector_71" d="M284.1 22.49C355.293 22.49 426.483 22.49 497.67 22.49C521.31 22.49 539.11 36.4899 544.15 58.6699C544.785 62.0274 545.043 65.4452 544.92 68.86V384.21C544.92 411.04 525.26 430.85 498.35 430.9C458.35 430.99 418.35 430.9 378.35 430.9C275.637 430.9 172.933 430.9 70.24 430.9C45.59 430.9 27.11 415.62 23.06 391.9C22.648 388.999 22.4808 386.069 22.56 383.14C22.56 278.84 22.56 174.543 22.56 70.25C22.56 41.78 41.97 22.46 70.56 22.45C141.733 22.4566 212.913 22.47 284.1 22.49ZM459.47 341.97C459.57 337.33 457.86 334.5 455.58 331.8C433.22 305.28 410.91 278.717 388.65 252.11C386.31 249.29 385.31 249.89 383.34 252.26C370.41 267.77 357.34 283.18 344.34 298.63C334.8 309.963 325.267 321.297 315.74 332.63C311.96 337.16 311.48 342.15 314.15 346.63C315.408 348.647 317.253 350.232 319.437 351.17C321.622 352.109 324.041 352.356 326.37 351.88C330.37 351.05 332.73 348.12 335.15 345.24C351.15 326.16 367.24 307.11 383.15 287.94C385.52 285.08 386.78 285.4 388.95 288.05C397.73 298.74 406.69 309.3 415.59 319.9C423.45 329.25 431.29 338.62 439.24 347.9C442.64 351.9 446.99 353.17 452.01 351.35C454.052 350.717 455.856 349.483 457.186 347.81C458.517 346.137 459.313 344.102 459.47 341.97ZM459.47 112.51C459.489 110.213 458.81 107.965 457.523 106.063C456.235 104.161 454.4 102.695 452.26 101.86C447.53 100.05 442.46 101.5 438.73 105.86C422.13 125.52 405.47 145.13 389.07 164.96C386.26 168.36 385.2 167.61 382.81 164.74C366.56 145.21 350.13 125.84 333.81 106.39C331.99 104.23 330.08 102.31 327.23 101.59C324.869 100.885 322.344 100.959 320.028 101.8C317.712 102.641 315.729 104.205 314.37 106.26C311.37 110.69 311.93 115.95 316.18 121.02C338.567 147.727 360.973 174.42 383.4 201.1C385.28 203.35 386.4 203.87 388.55 201.28C410.99 174.407 433.503 147.59 456.09 120.83C458.09 118.46 459.59 115.86 459.48 112.51H459.47ZM181.57 204.04C182.33 203.21 182.88 202.64 183.38 202.04C199.873 182.487 216.363 162.93 232.85 143.37C239.36 135.64 245.9 127.94 252.29 120.11C253.927 118.164 254.896 115.744 255.056 113.206C255.216 110.669 254.559 108.146 253.18 106.01C250.58 102.14 245.71 100.44 240.64 101.6C237.39 102.34 235.34 104.67 233.34 107.04C217.29 126.12 201.16 145.13 185.34 164.37C182.34 167.95 180.99 167.97 178.05 164.37C162.05 145.02 145.88 125.86 129.72 106.66C124.54 100.5 117.35 99.38 112.2 103.78C107.05 108.18 106.92 115.15 111.92 121.19C125.187 137.07 138.497 152.92 151.85 168.74L181.57 204.04ZM108.34 342.04C108.34 345.97 110.89 349.67 115.72 351.47C120.55 353.27 125.26 351.85 129.17 347.21C145.75 327.53 162.293 307.82 178.8 288.08C181.11 285.29 182.32 285.24 184.53 288.08C188.83 293.6 193.53 298.84 198 304.2C210.26 318.78 222.53 333.36 234.81 347.94C236.407 349.929 238.625 351.324 241.109 351.903C243.593 352.481 246.199 352.209 248.51 351.13C253.22 348.91 255.45 344.54 254.91 339.13C254.58 335.8 252.58 333.45 250.61 331.13C228.51 304.81 206.41 278.493 184.31 252.18C182.16 249.61 181.14 249.68 179.03 252.18C156.67 278.92 134.247 305.607 111.76 332.24C110.559 333.553 109.638 335.095 109.052 336.775C108.466 338.454 108.227 340.235 108.35 342.01L108.34 342.04ZM378.18 226.74C378.281 223.932 377.292 221.195 375.42 219.1C358.26 198.64 341.07 178.2 323.85 157.78C320.09 153.34 312.85 152.84 308.29 156.26C305.987 157.996 304.436 160.547 303.954 163.39C303.473 166.233 304.097 169.153 305.7 171.55C306.715 173.026 307.824 174.436 309.02 175.77C322.21 191.48 335.27 207.32 348.72 222.77C351.64 226.13 350.92 227.77 348.45 230.68C334.59 246.9 320.9 263.26 307.21 279.68C302.34 285.5 302.66 292.35 307.78 296.68C312.9 301.01 319.78 300.24 324.63 294.55C341.57 274.55 358.45 254.487 375.27 234.36C377.113 232.245 378.144 229.545 378.18 226.74ZM456.59 154.2C454.91 154.098 453.23 154.409 451.697 155.106C450.165 155.803 448.827 156.866 447.8 158.2C430.82 178.4 413.84 198.593 396.86 218.78C392.61 223.86 392.6 229.22 396.86 234.34C413.76 254.6 430.723 274.807 447.75 294.96C448.695 296.196 449.891 297.217 451.26 297.957C452.628 298.696 454.138 299.137 455.69 299.25C460.49 299.54 464.31 297.82 466.69 293.52C469.33 288.79 468.78 284.44 464.69 279.6C450.843 262.993 436.92 246.413 422.92 229.86C420.92 227.48 420.48 226.08 422.8 223.49C429.63 215.83 436.07 207.84 442.67 199.98C450.21 190.98 457.8 182.06 465.29 173.03C468.44 169.22 469.38 164.93 467.07 160.31C464.92 156.16 461.54 154.04 456.59 154.2ZM111.29 154.2C106.2 154.04 102.61 156.01 100.71 160.31C98.62 165.01 99.34 169.44 102.71 173.48C116.71 190.02 130.56 206.67 144.63 223.14C146.85 225.75 146.96 227.32 144.63 230.02C130.61 246.5 116.707 263.08 102.92 279.76C98.13 285.54 98.61 292.48 103.67 296.76C108.73 301.04 115.54 300.12 120.49 294.4C124.86 289.35 129.12 284.2 133.42 279.09C145.693 264.51 157.953 249.92 170.2 235.32C174.73 229.9 175.2 224.18 171.2 219.32C154.2 198.92 137.127 178.587 119.98 158.32C117.58 155.5 114.65 153.95 111.29 154.21V154.2ZM189.81 226.86C189.43 230.64 191.5 233.33 193.74 235.99C209.9 255.177 226.04 274.38 242.16 293.6C247.39 299.85 254.16 301.15 259.66 296.9C264.39 293.22 265.1 284.9 260.07 279.07C245.96 262.85 232.4 246.16 218.46 229.79C216.26 227.21 216.53 225.79 218.6 223.33C232.55 206.97 246.35 190.48 260.17 174.02C265.08 168.17 264.88 160.92 259.78 156.64C254.85 152.5 247.68 153.34 242.9 158.99C226.067 178.877 209.29 198.817 192.57 218.81C191.568 219.881 190.805 221.152 190.329 222.54C189.853 223.927 189.676 225.399 189.81 226.86ZM181.67 385.26C184.681 385.338 187.677 384.814 190.483 383.719C193.288 382.625 195.848 380.981 198.01 378.885C200.173 376.789 201.896 374.283 203.078 371.513C204.26 368.742 204.877 365.764 204.894 362.753C204.91 359.741 204.326 356.756 203.175 353.973C202.023 351.19 200.328 348.665 198.189 346.545C196.049 344.425 193.509 342.753 190.715 341.628C187.921 340.502 184.931 339.946 181.92 339.99C178.909 339.912 175.913 340.436 173.107 341.531C170.302 342.625 167.742 344.269 165.58 346.365C163.417 348.461 161.694 350.967 160.512 353.737C159.33 356.508 158.713 359.486 158.696 362.497C158.68 365.509 159.264 368.494 160.415 371.277C161.567 374.06 163.262 376.585 165.401 378.705C167.541 380.825 170.081 382.496 172.875 383.622C175.669 384.748 178.659 385.304 181.67 385.26ZM181.92 68.15C169.09 68.08 159.08 77.75 158.92 90.36C158.875 93.378 159.431 96.3748 160.557 99.1752C161.683 101.976 163.356 104.524 165.478 106.671C167.599 108.817 170.128 110.52 172.915 111.679C175.702 112.838 178.692 113.43 181.71 113.42C187.726 113.387 193.489 110.998 197.764 106.766C202.039 102.534 204.486 96.7949 204.58 90.78C204.588 87.8034 204.007 84.8546 202.871 82.1035C201.734 79.3524 200.065 76.8532 197.959 74.7498C195.853 72.6464 193.351 70.9805 190.599 69.8478C187.846 68.7151 184.897 68.1381 181.92 68.15ZM408.66 90.86C408.72 77.86 399.23 68.26 386.32 68.16C373.41 68.06 363.48 77.4999 363.32 90.2599C363.281 93.2344 363.827 96.1875 364.929 98.9506C366.031 101.714 367.667 104.233 369.742 106.364C371.817 108.495 374.292 110.196 377.025 111.371C379.758 112.546 382.696 113.171 385.67 113.21C388.644 113.249 391.598 112.703 394.361 111.601C397.124 110.499 399.643 108.863 401.774 106.788C403.905 104.713 405.606 102.238 406.781 99.5049C407.956 96.7719 408.581 93.8344 408.62 90.86H408.66ZM408.66 362.86C408.72 349.99 399.15 340.15 386.4 339.97C373.65 339.79 363.49 349.47 363.4 362.08C363.27 375.13 373.05 385.2 385.91 385.24C388.883 385.299 391.837 384.763 394.599 383.663C397.362 382.564 399.876 380.924 401.996 378.839C404.115 376.754 405.797 374.266 406.941 371.522C408.086 368.778 408.67 365.833 408.66 362.86ZM90.92 204.07C77.92 204.02 68.34 213.5 68.24 226.41C68.15 239.48 77.93 249.41 90.93 249.34C96.9386 249.316 102.694 246.917 106.941 242.667C111.188 238.416 113.582 232.659 113.6 226.65C113.607 223.674 113.024 220.727 111.885 217.978C110.747 215.229 109.075 212.733 106.966 210.633C104.857 208.534 102.354 206.873 99.5995 205.746C96.8454 204.62 93.8955 204.05 90.92 204.07ZM283.83 204.07C270.97 204.07 261.28 213.68 261.25 226.51C261.22 239.34 270.89 249.22 283.56 249.34C286.571 249.419 289.566 248.896 292.372 247.802C295.178 246.709 297.738 245.066 299.901 242.971C302.065 240.876 303.788 238.371 304.971 235.601C306.154 232.832 306.773 229.854 306.791 226.843C306.809 223.831 306.226 220.846 305.076 218.063C303.926 215.28 302.232 212.754 300.094 210.633C297.956 208.512 295.416 206.84 292.623 205.713C289.831 204.586 286.841 204.027 283.83 204.07ZM454.26 226.57C454.26 239.44 463.85 249.23 476.61 249.34C479.622 249.412 482.618 248.883 485.422 247.783C488.227 246.683 490.784 245.034 492.943 242.933C495.102 240.832 496.821 238.321 497.997 235.548C499.174 232.775 499.785 229.794 499.795 226.782C499.805 223.769 499.213 220.785 498.055 218.003C496.897 215.222 495.196 212.7 493.05 210.585C490.905 208.47 488.359 206.804 485.562 205.685C482.765 204.567 479.772 204.017 476.76 204.07C463.84 204.08 454.32 213.6 454.3 226.57H454.26Z" fill="#701C75"/>
<path id="Vector_72" d="M459.47 341.97C459.319 344.107 458.525 346.149 457.194 347.828C455.863 349.507 454.056 350.745 452.01 351.38C447.01 353.2 442.64 351.91 439.24 347.93C431.29 338.66 423.45 329.29 415.59 319.93C406.69 309.33 397.73 298.77 388.95 288.08C386.78 285.43 385.52 285.08 383.15 287.97C367.25 307.14 351.15 326.19 335.15 345.27C332.73 348.15 330.34 351.08 326.37 351.91C324.041 352.386 321.622 352.139 319.437 351.2C317.253 350.262 315.408 348.677 314.15 346.66C311.48 342.18 311.96 337.19 315.74 332.66C325.24 321.28 334.773 309.947 344.34 298.66C357.34 283.21 370.4 267.8 383.34 252.29C385.34 249.92 386.34 249.29 388.65 252.14C410.857 278.807 433.167 305.37 455.58 331.83C457.86 334.5 459.57 337.33 459.47 341.97Z" fill="#FCC230"/>
<path id="Vector_73" d="M459.49 112.51C459.59 115.81 458.09 118.46 456.06 120.88C433.533 147.68 411.02 174.497 388.52 201.33C386.35 203.92 385.25 203.4 383.37 201.15C360.997 174.43 338.59 147.737 316.15 121.07C311.9 116 311.36 110.74 314.34 106.31C315.699 104.255 317.682 102.691 319.998 101.85C322.314 101.009 324.839 100.935 327.2 101.64C330.05 102.36 331.96 104.28 333.78 106.44C350.13 125.89 366.56 145.26 382.78 164.79C385.17 167.66 386.23 168.41 389.04 165.01C405.44 145.18 422.1 125.57 438.7 105.91C442.43 101.51 447.5 100.06 452.23 101.91C454.369 102.736 456.208 104.192 457.504 106.084C458.8 107.976 459.493 110.217 459.49 112.51Z" fill="#FCC230"/>
<path id="Vector_74" d="M181.58 204.04L151.92 168.74C138.587 152.9 125.253 137.05 111.92 121.19C106.87 115.19 107.05 108.19 112.16 103.82C117.27 99.45 124.5 100.54 129.68 106.7C145.84 125.9 162.04 145.06 178.01 164.41C180.95 167.97 182.34 167.95 185.3 164.41C201.15 145.17 217.3 126.16 233.3 107.08C235.3 104.71 237.35 102.38 240.6 101.64C245.67 100.48 250.54 102.18 253.14 106.05C254.519 108.187 255.177 110.709 255.016 113.247C254.856 115.784 253.887 118.204 252.25 120.15C245.86 127.98 239.32 135.68 232.81 143.41C216.33 162.97 199.84 182.527 183.34 202.08C182.92 202.64 182.34 203.21 181.58 204.04Z" fill="#FCC230"/>
<path id="Vector_75" d="M108.35 342.01C108.219 340.223 108.454 338.429 109.042 336.736C109.631 335.044 110.559 333.49 111.77 332.17C134.203 305.503 156.627 278.817 179.04 252.11C181.15 249.59 182.17 249.52 184.32 252.11C206.32 278.483 228.42 304.8 250.62 331.06C252.62 333.41 254.62 335.76 254.92 339.06C255.46 344.51 253.23 348.88 248.52 351.06C246.209 352.139 243.603 352.411 241.119 351.833C238.635 351.254 236.417 349.859 234.82 347.87C222.513 333.323 210.243 318.743 198.01 304.13C193.5 298.77 188.84 293.53 184.54 288.01C182.33 285.16 181.12 285.21 178.81 288.01C162.363 307.803 145.82 327.513 129.18 347.14C125.27 351.78 120.58 353.21 115.73 351.4C110.88 349.59 108.4 345.94 108.35 342.01Z" fill="#FCC230"/>
<path id="Vector_76" d="M378.18 226.74C378.132 229.527 377.102 232.208 375.27 234.31C358.37 254.37 341.49 274.433 324.63 294.5C319.8 300.19 312.85 300.9 307.78 296.63C302.71 292.36 302.34 285.48 307.21 279.63C320.9 263.26 334.59 246.9 348.45 230.63C350.92 227.75 351.64 226.08 348.72 222.72C335.27 207.24 322.21 191.4 309.02 175.72C307.824 174.386 306.715 172.976 305.7 171.5C304.097 169.103 303.473 166.183 303.954 163.34C304.436 160.497 305.987 157.946 308.29 156.21C312.86 152.79 320.09 153.29 323.85 157.73C341.11 178.11 358.3 198.55 375.42 219.05C377.304 221.157 378.294 223.916 378.18 226.74Z" fill="#FCC230"/>
<path id="Vector_77" d="M456.59 154.2C461.54 154.04 464.94 156.2 467.03 160.35C469.34 164.97 468.4 169.26 465.25 173.07C457.76 182.07 450.17 191.07 442.63 200.02C436.03 207.88 429.63 215.87 422.76 223.53C420.44 226.12 420.85 227.53 422.88 229.9C436.927 246.387 450.887 262.953 464.76 279.6C468.81 284.44 469.36 288.79 466.76 293.52C464.35 297.82 460.53 299.52 455.76 299.25C454.208 299.137 452.698 298.696 451.33 297.957C449.961 297.217 448.765 296.196 447.82 294.96C430.853 274.76 413.89 254.553 396.93 234.34C392.67 229.22 392.68 223.86 396.93 218.78C413.85 198.54 430.83 178.347 447.87 158.2C448.89 156.876 450.217 155.82 451.736 155.123C453.255 154.426 454.921 154.109 456.59 154.2Z" fill="#FCC230"/>
<path id="Vector_78" d="M111.29 154.21C114.65 153.95 117.58 155.5 119.92 158.28C137.007 178.593 154.08 198.927 171.14 219.28C175.19 224.14 174.68 229.86 170.14 235.28C157.913 249.9 145.653 264.49 133.36 279.05C129.06 284.16 124.8 289.31 120.43 294.36C115.43 300.08 108.7 300.98 103.61 296.72C98.52 292.46 98.07 285.55 102.86 279.72C116.7 263.053 130.643 246.477 144.69 229.99C146.99 227.29 146.88 225.72 144.69 223.11C130.62 206.64 116.75 189.99 102.77 173.45C99.36 169.45 98.64 164.98 100.77 160.28C102.61 156.02 106.2 154.05 111.29 154.21Z" fill="#FCC230"/>
<path id="Vector_79" d="M189.81 226.86C189.684 225.408 189.864 223.945 190.339 222.567C190.815 221.188 191.575 219.925 192.57 218.86C209.35 198.86 226.133 178.887 242.92 158.94C247.7 153.29 254.87 152.45 259.8 156.59C264.9 160.87 265.1 168.12 260.19 173.97C246.37 190.43 232.57 206.92 218.62 223.28C216.55 225.7 216.28 227.16 218.48 229.74C232.42 246.11 245.98 262.8 260.09 279.02C265.09 284.81 264.41 293.17 259.68 296.85C254.21 301.1 247.41 299.8 242.18 293.55C226.06 274.33 209.92 255.127 193.76 235.94C191.5 233.28 189.43 230.59 189.81 226.86Z" fill="#FCC230"/>
<path id="Vector_80" d="M181.67 385.26C177.199 385.211 172.843 383.838 169.15 381.316C165.458 378.794 162.596 375.236 160.923 371.089C159.251 366.942 158.844 362.393 159.754 358.015C160.664 353.637 162.849 349.627 166.035 346.49C169.221 343.352 173.265 341.229 177.656 340.387C182.047 339.544 186.59 340.021 190.71 341.757C194.831 343.493 198.345 346.411 200.81 350.141C203.275 353.872 204.579 358.249 204.56 362.72C204.486 368.736 202.04 374.479 197.753 378.7C193.466 382.921 187.686 385.279 181.67 385.26Z" fill="#FCC230"/>
<path id="Vector_81" d="M181.92 68.15C184.897 68.1368 187.848 68.7129 190.602 69.845C193.356 70.9771 195.858 72.6428 197.965 74.7463C200.073 76.8498 201.743 79.3495 202.88 82.1013C204.017 84.8531 204.598 87.8026 204.59 90.78C204.496 96.795 202.049 102.534 197.774 106.766C193.499 110.998 187.736 113.387 181.72 113.42C178.701 113.431 175.71 112.84 172.922 111.682C170.133 110.524 167.604 108.821 165.481 106.674C163.358 104.527 161.685 101.979 160.558 99.1777C159.432 96.3765 158.875 93.3789 158.92 90.36C159.05 77.75 169.06 68.08 181.92 68.15Z" fill="#FCC230"/>
<path id="Vector_82" d="M408.66 90.8601C408.58 96.8672 406.118 102.597 401.814 106.788C397.51 110.98 391.717 113.29 385.71 113.21C379.703 113.13 373.973 110.668 369.782 106.364C365.59 102.06 363.28 96.2672 363.36 90.2601C363.48 77.5001 373.28 68.0701 386.36 68.1601C399.44 68.2501 408.72 77.8601 408.66 90.8601Z" fill="#FCC230"/>
<path id="Vector_83" d="M408.66 362.86C408.673 365.834 408.09 368.78 406.948 371.526C405.805 374.272 404.125 376.761 402.007 378.848C399.888 380.935 397.373 382.577 394.611 383.679C391.848 384.78 388.893 385.317 385.92 385.26C373.06 385.26 363.28 375.15 363.41 362.1C363.54 349.49 373.63 339.81 386.41 339.99C399.19 340.17 408.72 350.01 408.66 362.86Z" fill="#FCC230"/>
<path id="Vector_84" d="M90.92 204.07C93.8955 204.05 96.8454 204.62 99.5995 205.746C102.354 206.873 104.857 208.534 106.966 210.633C109.075 212.733 110.747 215.229 111.885 217.978C113.024 220.727 113.607 223.674 113.6 226.65C113.582 232.659 111.188 238.416 106.941 242.667C102.694 246.917 96.9386 249.316 90.93 249.34C77.93 249.34 68.15 239.48 68.24 226.41C68.38 213.5 78 204.02 90.92 204.07Z" fill="#FCC230"/>
<path id="Vector_85" d="M283.92 204.07C286.931 204.027 289.921 204.586 292.713 205.713C295.506 206.84 298.046 208.512 300.184 210.633C302.322 212.754 304.016 215.28 305.166 218.063C306.316 220.847 306.899 223.831 306.881 226.843C306.863 229.854 306.244 232.832 305.061 235.601C303.878 238.371 302.155 240.876 299.991 242.971C297.828 245.066 295.268 246.709 292.462 247.802C289.656 248.896 286.661 249.419 283.65 249.34C270.98 249.22 261.31 239.34 261.34 226.51C261.37 213.68 271.01 204.05 283.92 204.07Z" fill="#FCC230"/>
<path id="Vector_86" d="M454.3 226.57C454.3 213.57 463.84 204.08 476.8 204.07C479.812 204.017 482.805 204.567 485.602 205.685C488.399 206.804 490.945 208.47 493.09 210.585C495.236 212.7 496.937 215.222 498.095 218.003C499.253 220.785 499.845 223.769 499.835 226.782C499.825 229.794 499.214 232.775 498.037 235.548C496.861 238.321 495.142 240.832 492.983 242.933C490.824 245.034 488.267 246.683 485.462 247.783C482.658 248.883 479.662 249.412 476.65 249.34C463.92 249.23 454.28 239.44 454.3 226.57Z" fill="#FCC230"/>
</g>
</g>
<defs>
<clipPath id="clip0_0_1">
<rect width="2133.85" height="566.72" fill="white"/>
</clipPath>
</defs>
</svg>
