<svg id="Letras_blancas" data-name="Letras blancas" xmlns="http://www.w3.org/2000/svg" viewBox="0 0 2133.85 566.72"><defs><style>.cls-1{fill:#fcc230;}.cls-2{fill:#fff;}.cls-3{fill:#701c75;}</style></defs><path class="cls-1" d="M530.55,6.14c10,2.43,19.8,5.09,28.45,11,20,13.71,30.8,32.78,30.86,56.86q.42,158.64.08,317.29c0,38.92-30.74,68.37-71,68.41q-109.24.1-218.48,0c-68.91,0-137.81-.26-206.72.11-38,.2-66-25.63-70.84-57.53-.06-.4-.54-.75-.81-1.12V63.83c1-.57.83-1.63,1-2.55C28.84,36.12,43.55,18.71,68,9.79c3.9-1.43,7.94-2.44,11.92-3.65ZM306.18,28.63q-106.78,0-213.57,0c-28.59,0-48,19.33-48,47.8q0,156.45,0,312.89a52.25,52.25,0,0,0,.5,8.76c4,23.69,22.53,39,47.18,39q154,0,308.11,0c40,0,80,.07,120,0C547.34,437,567,417.18,567,390.35V75a45.94,45.94,0,0,0-.77-10.2c-5-22.23-22.84-36.17-46.48-36.18Q413,28.6,306.18,28.63Z" transform="translate(-22.08 -6.14)"/><path class="cls-2" d="M2155.92,337.62c-1.3,5.63-2.44,11.32-3.94,16.9-11,41.19-45.06,70.55-87.59,76.08-27.37,3.56-53.65.07-78.87-11-8.28-3.65-8.21-3.88-6-12.47q3.78-14.88,7.68-29.75a6.67,6.67,0,0,1,.63-1.29c19.69,11.05,40.7,16.47,63.3,15.34,33.49-1.66,57.53-26,59.88-59.46,2.22-31.45-11.4-55.18-34.1-75.23-12.5-11-26.64-19.91-39.43-30.55-19.76-16.44-37-35-46.94-59.12-21.21-51.41,3.57-131,84.49-139.54,22.38-2.37,43.86.5,64.23,10.57,4.21,2.09,5.58,4.18,4.05,9-3.43,10.84-6.15,21.91-9.2,33-.49,0-1,0-1.34-.16-13.16-8.28-27.65-11.71-43.07-12.81-33.26-2.38-60.28,21.71-61.1,55-.56,22.66,7.38,41.55,24.33,56.86,13.24,12,28.1,21.73,42.26,32.46,18.88,14.31,35.5,30.7,47,51.69A111.8,111.8,0,0,1,2155,301.34c.11.77,0,1.66.93,2.05Z" transform="translate(-22.08 -6.14)"/><path class="cls-2" d="M982.69,101.73c-1.69,1-1.28,2.11-1.27,3,.27,60.27-3.37,120.41-5.95,180.58-2,46.18-4.13,92.35-6.11,138.53-.15,3.58-1.14,5-5.08,4.84-10.76-.31-21.55-.23-32.32,0-3.26.06-4.06-.88-3.86-4.08,1.64-26.15,3.08-52.31,4.63-78.47q2.65-44.83,5.39-89.67,3.32-55.08,6.63-110.15,2.82-47.52,5.53-95c.34-5.85.78-11.7,1-17.55.09-2.56,1.11-3.3,3.58-3.28,14.54.09,29.07.17,43.6-.05,3.68-.06,3.72,2.31,4.29,4.56,7.41,29.16,14.88,58.3,22.15,87.49,14.51,58.21,30.26,116.12,43.88,174.55,3.8,16.31,6.92,32.77,10.36,49.16.22,1-.12,2.38,1.89,3,1.53-8.3,3-16.53,4.58-24.75,9.16-48,21-95.3,32.71-142.66q18.2-73.4,36.19-146.83c.87-3.57,2.26-4.58,5.83-4.52q20.81.32,41.63,0c3.62-.05,5.06.72,5.27,4.68,1.61,31,3.44,62.08,5.25,93.11q3.16,54.59,6.4,109.18,2.63,45.07,5.22,90.17c1.85,32,3.63,64,5.66,96,.26,4-.46,5.28-4.71,5.16-11.42-.31-22.86-.21-34.29,0-3,0-3.75-.7-3.89-3.74q-2.8-61.69-5.91-123.38c-1.86-37.71-3.87-75.42-5.6-113.14q-1.86-40.76-1-81.56c0-1.67.35-3.44-.82-5.58-2.21,2.68-2.1,5.48-2.61,8-11,55.05-24.76,109.44-39,163.71q-19.59,74.55-38.8,149.19c-.83,3.22-2.08,4.16-5.24,4.07-7.18-.2-14.37-.22-21.54,0-3.21.1-4.41-.94-5.22-4.1q-22.15-86.47-44.61-172.87c-12.4-47.36-23.94-94.91-32.7-143.09C983.55,104.76,983.11,103.38,982.69,101.73Z" transform="translate(-22.08 -6.14)"/><path class="cls-2" d="M1446.06,176.45c0-46.94.07-93.87-.1-140.8,0-4.36,1.12-5.45,5.41-5.34,11.75.32,23.51.34,35.26,0,4.42-.13,5.31,1.15,5.3,5.38q-.2,123.2-.08,246.39c0,15.64,0,31.26-2.13,46.81-3,22.77-8.56,44.73-21.2,64.32-12.9,20-31,32.63-54.39,37.55-18.69,3.93-37.29,3.6-55.62-1.87-29.85-8.9-46.9-30.41-56.8-58.58-7.41-21.11-10.27-43.08-10.35-65.29-.32-89.78-.25-179.57-.49-269.35,0-4.35,1.09-5.46,5.39-5.35q17.87.48,35.75,0c4.28-.12,5,1.29,5,5.18q-.17,130-.06,260.08c0,18.91,1.24,37.74,6.81,56,3.07,10.06,7.37,19.51,14.6,27.32,20.21,21.86,56.79,17.82,72.82-8,8.46-13.61,11.58-28.86,13.51-44.45,1.4-11.34,1.44-22.74,1.43-34.14Q1446,234.38,1446.06,176.45Z" transform="translate(-22.08 -6.14)"/><path class="cls-2" d="M892,428.55c-14.44,0-28.63,0-42.81,0-3,0-2.74-2.13-3.14-4-8.1-37-16.27-74-24.21-111.07-.73-3.43-1.89-4.39-5.36-4.37q-39.91.22-79.84,0c-3.55,0-4.59,1.13-5.3,4.42-8,37-16.19,74-24.16,111.07-.64,3-1.53,4-4.66,4-12.24-.19-24.49-.14-36.74,0-3,0-4.22-.18-3.36-3.91q29.52-128.1,58.75-256.27c10.21-44.55,20.49-89.08,30.56-133.66.77-3.42,1.91-4.47,5.39-4.42q21.06.3,42.12,0c3.21,0,4.36.89,5.07,4.11q21.12,95.25,42.5,190.44,22.43,100.48,44.74,201C891.67,426.65,891.76,427.42,892,428.55ZM777.43,80.28c-2,1.75-1.76,3.13-2,4.38-2.43,14.43-4.52,28.92-7.37,43.27q-14,70.06-28.43,140c-.75,3.64,0,4.39,3.58,4.36q33.28-.19,66.58,0c3.68,0,4.34-1,3.59-4.43-3.09-14.3-5.92-28.65-8.87-43-8-38.84-16.39-77.61-22.48-116.82C780.65,99,779,89.89,777.43,80.28Z" transform="translate(-22.08 -6.14)"/><path class="cls-2" d="M1774,375.76a109.88,109.88,0,0,0,45.83,15.14c23.57,2.52,45.44-1.37,62.06-20.08,13-14.63,16.39-32.51,15.54-51.48-1-22-11.16-39.75-26.24-55.11-11.6-11.81-25.12-21.24-38.32-31.09-20.69-15.46-38.66-33.38-51.33-56.27-28.31-51.11-5.91-135.4,72.52-148.37,23.59-3.9,46.47-1.77,68.43,8,8.82,3.93,8.77,4.07,6.3,13.2-2.75,10.17-5.51,20.34-8.39,31a82.62,82.62,0,0,0-32.95-12.42c-16.88-2.45-33.44-1.76-48,8.23-19.75,13.56-26,33.22-24,56.28,1.84,22.23,13.59,38.64,30.47,51.91,15,11.78,30.72,22.66,45.45,34.74,22.36,18.32,39.92,40.33,47.33,68.92s5.95,57-6.82,83.88c-17.53,36.9-48.4,55.12-88.19,59.19-23.95,2.45-47.16-1.45-69.37-10.76-10.81-4.53-10.76-4.67-7.86-15.81C1768.88,395.23,1771.38,385.65,1774,375.76Z" transform="translate(-22.08 -6.14)"/><path class="cls-2" d="M1593.67,232.94c.48,30.9,2.89,63.92,14.56,95.56,6,16.38,14.39,31.37,27.47,43.27,22,20,48,23.14,75.91,17.11a114.66,114.66,0,0,0,14-4.24c2.63-.94,3.79-1.16,4.4,2.31,1.84,10.4,4.1,20.73,6.38,31.05.62,2.83-.36,4-2.89,5.09-10.62,4.51-21.76,6.74-33.14,7.91-25.7,2.63-50.85,1-74.46-10.76-28.88-14.38-47.29-38.17-59.82-67.08-11.92-27.5-17.12-56.57-19.37-86.24-2.27-30.11-1.72-60.2,2.79-90.11,5.7-37.83,16.9-73.57,41.68-103.74,36.56-44.51,90.15-54.75,136.21-40.54,9.41,2.9,9.29,3.19,6.74,12.8-2.21,8.33-4.55,16.63-6.4,25-.92,4.24-2.19,4.84-6.34,3.22-23.26-9-46.4-9.78-68.76,2.81-16.6,9.34-28,23.62-36.66,40.26-11,21.07-16.38,43.78-19.45,67.13C1594.48,199.3,1593.74,214.9,1593.67,232.94Z" transform="translate(-22.08 -6.14)"/><path class="cls-2" d="M407.24,516.81c-1.5,9.56-.91,18.16-1.51,26.68s-1.11,16.89-1.24,25.35c-.07,4.07-2.57,3.1-4.87,3.33-3,.31-3-1.4-2.86-3.59,1.33-21.6,2.59-43.21,4-64.81.12-1.93-1-5.15,2.9-4.77,2.95.29,6.54-1.83,7.81,3.76,3.93,17.27,8.56,34.38,12.93,51.56,1.69-.65,1.16-2.36,1.47-3.68,3.9-16.13,7.91-32.22,11.59-48.39,1.28-5.61,5.34-2.74,8.21-3.21,3.3-.54,2.4,2.3,2.51,4,1.31,21.44,2.61,42.88,3.77,64.33.09,1.79,1.74,4.75-2.52,4.84-3.59.08-5.58-.25-5.71-4.76-.5-16.74-1.47-33.47-2.85-50.33-2.1,8.3-4.16,16.61-6.3,24.91-2.22,8.66-4.57,17.29-6.73,26-.51,2.07-.9,3.47-3.6,3.58-3,.13-3.45-1.56-4-3.7C416,551.21,411.75,534.55,407.24,516.81Z" transform="translate(-22.08 -6.14)"/><path class="cls-2" d="M858.92,526.83c0-8.15.24-16.3-.1-24.43-.18-4.18,2.3-3.37,4.67-3.46s4.24-.27,4.19,3.36c-.23,15.63-.07,31.27-.13,46.91a35.23,35.23,0,0,1-1.87,11c-3.08,9.29-7.92,12.28-19.57,12-6.85-.13-11.77-4.57-14.05-12.69a41.34,41.34,0,0,1-1.53-11.1c-.06-15.15.1-30.3-.11-45.45-.06-3.64,1.28-4.16,4.48-4.21,3.35-.06,4.41.75,4.36,4.26-.21,14.82-.07,29.65-.1,44.48A29.78,29.78,0,0,0,841.35,560a8.15,8.15,0,0,0,7.61,5.25c3.58,0,6.15-1.8,7.77-5,1.82-3.6,2.16-7.47,2.18-11.4C858.94,541.49,858.92,534.16,858.92,526.83Z" transform="translate(-22.08 -6.14)"/><path class="cls-2" d="M753.93,523.31c0-8.11.22-15.6-.09-23.08-.16-3.79,2-3.18,4.29-3.25,2.42-.07,4.3-.23,4.26,3.36-.18,17.42-.11,34.83-.07,52.25,0,5.2.23,10.4.33,15.6,0,1.82.89,4.14-2.47,4-2.55-.12-5.58.69-5.17-3.6a13.54,13.54,0,0,0-.29-2.17c-3.16,3.85-6.4,6.36-11.51,6.06a11.85,11.85,0,0,1-9.8-5.31c-6.95-9.89-6.89-32.51.15-42.44C738.75,517.36,745.94,516.72,753.93,523.31Zm0,22.28c-.16-4.36.54-8.81-1.06-13-1.18-3.1-2.66-6.11-6.58-6.33-4.19-.24-6.24,2.69-7.3,6a42.45,42.45,0,0,0,.36,28.14c1,2.8,2.89,5.18,6.4,5.16s5.08-2.34,6.45-5.11C754.56,555.68,753.78,550.59,754,545.59Z" transform="translate(-22.08 -6.14)"/><path class="cls-2" d="M1343.73,523.29c0-8.1.22-15.59-.09-23.07-.16-3.8,2.06-3.16,4.3-3.24,2.43-.09,4.28-.2,4.25,3.38-.18,18.07-.11,36.14-.07,54.21,0,4.55.2,9.1.3,13.66,0,1.83.89,4.14-2.48,3.93-2.52-.15-5.6.72-5.15-3.6a13.53,13.53,0,0,0-.29-2.24c-3.15,3.91-6.39,6.46-11.51,6.13-4.16-.28-7.15-1.73-9.53-4.91-7.36-9.88-7.26-33.31.2-43.25C1328.9,517.31,1335.72,516.84,1343.73,523.29Zm0,22.55c-.15-4.84.57-9.8-1.52-14.41-1.24-2.73-2.89-5.15-6.39-5.23s-5.51,2.11-6.57,4.93a41.21,41.21,0,0,0,0,29.48c1,2.78,3,5.15,6.52,4.93s5-2.53,6.33-5.32C1344.27,555.59,1343.6,550.68,1343.75,545.84Z" transform="translate(-22.08 -6.14)"/><path class="cls-2" d="M1139.41,523c0-7.61.1-14.4-.05-21.19-.07-3.13.05-5,4.25-5,3.9.05,4.44,1.36,4.41,4.78-.16,18.89-.09,37.78-.06,56.68,0,2.92.47,5.86.27,8.76-.13,1.92,1.93,5.11-2.68,5.2-3.41.06-5.37-.55-4.82-4.41,0-.22-.23-.49-.58-1.18-2.91,3.21-5.72,5.93-10.62,5.81-5.23-.13-9-2.06-11.09-6.47-6.34-13.08-6.42-26.5-.17-39.5C1122.53,517.62,1130.53,516.36,1139.41,523Zm.19,22.86c-.21-4,0-8.1-.75-12.06-.66-3.75-2.47-7.28-7-7.55s-6.3,3.09-7.38,6.57a43.39,43.39,0,0,0-.19,25.43c1.06,3.65,2.61,7.43,7.29,7.25s6.56-4.06,7.32-7.93S1139.38,549.82,1139.6,545.85Z" transform="translate(-22.08 -6.14)"/><path class="cls-2" d="M1491.82,523.33c0-8,.27-15.34-.1-22.63-.22-4.33,2.33-3.5,4.89-3.77,3.39-.35,4,1.09,3.94,4.11-.06,22.29.07,44.58,0,66.87,0,1.61,1.29,4.24-2.22,4.24-2.58,0-5.44.58-5.3-3.51,0-.42-.34-.86-.59-1.44-2.48,1.93-4.33,4.59-7.64,5.09-6.88,1-11.72-.95-14.5-7.18-5.71-12.83-5.89-26,.34-38.63C1475.16,517.4,1483.58,516.2,1491.82,523.33Zm.06,22.1c-.38-4.19.64-8.47-.78-12.58-1.16-3.33-2.79-6.41-6.88-6.62s-6.09,2.81-7.18,6.15a42.68,42.68,0,0,0,.09,27.26c1.06,3.16,2.91,6,6.87,5.9s5.47-3,6.77-6.13C1492.67,554.87,1491.43,550.09,1491.88,545.43Z" transform="translate(-22.08 -6.14)"/><path class="cls-2" d="M48.53,499.14c3.77-1,5,.6,5.77,3.94,4.65,21.61,9.52,43.17,14.27,64.76.33,1.49,1.88,4-1,4.11-2.45.13-6.17,2.09-7.15-2.54C59.26,564.17,58,559,57.07,553.67c-.51-3-1.94-3.78-4.89-3.78-12,0-12-.1-14.46,11.85-.53,2.54-1.28,5-1.68,7.61-.3,1.9-1,2.73-3.07,2.85-5.67.34-6,0-4.76-5.61,4.81-20.91,9.67-41.8,14.37-62.73C43.39,500.25,44.23,497.4,48.53,499.14Zm-.28,10.5c-2.15,10.64-4.14,20.47-6.08,30.31-.21,1.07-1.38,2.86.79,3,3.38.27,6.81.12,10.22.06,1.85,0,1.41-1.45,1.21-2.48C52.4,530.42,50.37,520.29,48.25,509.64Z" transform="translate(-22.08 -6.14)"/><path class="cls-2" d="M2043.81,499.12c3.54-1,4.62.73,5.28,3.77,4.71,21.58,9.6,43.12,14.29,64.7.32,1.44,2.33,4.3-1.27,4.41-2.47.08-6.11,1.91-7-2.82-.93-5.11-2.19-10.17-3.15-15.27-.51-2.73-1.45-4.06-4.71-4-12.14,0-12.14-.13-14.71,11.64-.59,2.7-1.32,5.37-1.75,8.09-.32,2-1.35,2.52-3.29,2.6-5.53.23-5.76,0-4.51-5.38,4.8-20.9,9.65-41.78,14.32-62.7C2038.2,500.3,2039.31,497.57,2043.81,499.12Zm-7.29,43.5c2.63,1,5.28.13,7.81.52,5.12.8,5.44-1.46,4.45-5.72-1.84-7.9-3.12-15.93-4.68-23.9-.19-1,0-2.21-1.27-2.53C2040.73,521.55,2038.63,532,2036.52,542.62Z" transform="translate(-22.08 -6.14)"/><path class="cls-2" d="M343.81,525a63.34,63.34,0,0,1,5.66-4.53c8.31-5,17.9-.42,19.21,9.69,1.7,13.09.57,26.32.71,39.48.05,4-3.23,2.05-5.1,2.42-2.4.48-3.45-.46-3.45-3.14,0-11.05-.17-22.11-.33-33.17a17.28,17.28,0,0,0-.48-3.86c-.76-3-2.19-5.5-5.7-5.82-3.36-.3-5.59,1.46-7.05,4.25a19.79,19.79,0,0,0-1.9,9.45c0,9.28-.09,18.55.06,27.82.05,3-.19,4.76-4,4.64-3.4-.1-4.84-.58-4.78-4.5.21-14.47-.05-28.95,0-43.43,0-1.76-1.8-4.89,2.47-4.89C342.37,519.45,345.48,519.19,343.81,525Z" transform="translate(-22.08 -6.14)"/><path class="cls-2" d="M992.84,523.7c1.28-.08,1.75-1.28,2.61-1.94,8.44-6.5,18.73-2.76,21,7.65a54.91,54.91,0,0,1,.86,12.14c0,9-.2,17.91.08,26.85.11,3.7-1.69,3.8-4.44,3.8s-4.52,0-4.41-3.74c.27-9.92.06-19.85.11-29.78a23.25,23.25,0,0,0-1.16-8.17c-.89-2.42-2.48-4.18-5.3-4.4a6.59,6.59,0,0,0-6.28,3c-2,3-2.42,6.32-2.42,9.78,0,9.6-.11,19.21.07,28.8.06,3.21-.53,4.66-4.21,4.56-3.23-.08-4.49-.65-4.49-4.26,0-15.12.64-30.25-.54-45.36-.13-1.74-.08-3.61,2.35-3.07,1.82.4,4.89-2,5.31,2C992.09,522.37,991.82,523.28,992.84,523.7Z" transform="translate(-22.08 -6.14)"/><path class="cls-2" d="M637.81,524.76c3.59-3.41,6.8-6,11.38-6.12,6.58-.14,11,3.37,12.69,10.45,1.54,6.42.82,13,.92,19.45s-.21,13,.11,19.52c.17,3.68-1.32,4.14-4.5,4.2-3.48.06-4.39-1-4.34-4.43.17-10.57,0-21.15-.11-31.73a20.9,20.9,0,0,0-.88-5.24c-.7-2.51-2.22-4.31-5-4.7a6.62,6.62,0,0,0-6.69,3.11c-2.28,3.24-2.47,7-2.49,10.74-.07,9.44-.18,18.88.05,28.32.09,3.52-1.45,3.9-4.35,3.89s-4.37-.3-4.35-3.86c.08-15.12-.14-30.25-.32-45.37,0-2.24.16-3.64,3.07-3.58C637.19,519.49,637.2,519.27,637.81,524.76Z" transform="translate(-22.08 -6.14)"/><path class="cls-2" d="M887.47,524.19a42.38,42.38,0,0,1,4.64-3.66c7.58-4.5,16-1.12,18.69,7.31,1.06,3.33,1,6.73,1,10.15,0,10.1-.15,20.21.08,30.3.08,3.48-1.34,4-4.29,3.93-2.8-.05-4.5-.23-4.41-3.85.24-9.76.13-19.54,0-29.32a35.25,35.25,0,0,0-.75-7.75c-.62-2.6-2.08-4.76-5.18-5.15a6.7,6.7,0,0,0-7,3.51,17.05,17.05,0,0,0-2.22,9.37c0,9.61-.14,19.23.09,28.84.08,3.38-.81,4.49-4.31,4.39-3.18-.09-4.57-.6-4.53-4.25.16-14.82,0-29.65,0-44.47,0-1.65-1.31-4.24,2.26-4.06,2.44.12,5.56-1,5.39,3.35A4.83,4.83,0,0,0,887.47,524.19Z" transform="translate(-22.08 -6.14)"/><path class="cls-2" d="M1598.13,572.28a24.55,24.55,0,0,1-8.21-.95c-3.17-.85-4-2.44-3.12-5.64.81-3,1.86-3.23,4.65-2.14,7.44,2.87,14,1.27,17.13-3.68,3.54-5.62,2.21-13.12-3.56-18.49-3.09-2.88-6.62-5.27-9.79-8.07-4.11-3.64-7.31-8-7.88-13.62-.73-7.07,1.1-13.35,7.08-17.67s12.89-4.86,20-2.34c4,1.41,1.44,3.91,1.19,6-.36,2.94-2.06,1.85-3.83,1.25-6.71-2.26-12-.79-14.67,3.9-2.91,5-1.56,11.29,3.52,15.76,4.15,3.66,9.06,6.38,12.75,10.6,10.34,11.81,6.13,29.92-8,34.46C1603,572.41,1600.55,572.18,1598.13,572.28Z" transform="translate(-22.08 -6.14)"/><path class="cls-2" d="M1823.53,572.29a24.91,24.91,0,0,1-7.72-.88c-3.3-.87-4.54-2.27-3.37-5.88.86-2.69,1.72-3.35,4.24-2a13.45,13.45,0,0,0,4.22,1.13c5.31.79,10.18.14,13.31-4.87,2.9-4.63,2.24-11.37-1.4-16-2.75-3.51-6.55-5.81-10-8.58-6-4.9-10.38-10.62-10-19,.56-13.57,14.94-22.19,27.31-16.42,3.88,1.81,1.17,4.1,1,6.11-.23,2.35-1.68,1.85-3.52,1.21-7-2.42-12.37-.9-15,3.93-2.91,5.25-1.42,11.2,4.12,16,3.93,3.42,8.55,6,12,9.92,10.63,12,6.45,30.25-7.91,34.75C1828.35,572.41,1826,572.16,1823.53,572.29Z" transform="translate(-22.08 -6.14)"/><path class="cls-2" d="M941,546c0-6.59.76-13,4.09-18.87,3-5.32,7.52-8.52,13.88-8.41s10.93,3.62,13.25,9.23c4.87,11.76,5.08,23.8-.12,35.53-2.93,6.61-8.31,9.51-15.8,8.94-6.53-.5-9.86-4.53-12.27-9.73S941,551.72,941,546Zm8.68-1.19c0,6.32.21,11.82,2.84,16.9,1.28,2.48,3.13,4.17,6.07,4.17s4.91-2,5.82-4.47a44.76,44.76,0,0,0,.09-30.93c-.95-2.69-2.91-4.86-6.1-4.86-3.39,0-5.27,2.31-6.42,5.16A35.33,35.33,0,0,0,949.72,544.77Z" transform="translate(-22.08 -6.14)"/><path class="cls-2" d="M1761.48,545.91c-.22,6.6-.75,13.08-4.23,18.88s-8.41,8.13-15.18,7.59c-5.81-.47-9.36-3.65-11.54-8.48a42.59,42.59,0,0,1-.26-35.51c2.7-6.31,7.76-10.06,15-9.69s11.08,4.91,13.62,11C1761.06,534.89,1761.32,540.44,1761.48,545.91Zm-26-.43c0,5.38.22,10.73,2.58,15.71,1.25,2.65,3.08,4.65,6.27,4.64s5.1-2.15,6-4.86a44.74,44.74,0,0,0,0-30.47c-1-2.68-2.88-4.87-6-4.92-3.41-.05-5.3,2.26-6.47,5.09C1735.84,535.4,1735.4,540.41,1735.47,545.48Z" transform="translate(-22.08 -6.14)"/><path class="cls-2" d="M1886.63,545.61c0,6.55-.66,13-4,18.82s-8.41,8.5-15.39,8c-6-.47-9.65-3.87-11.77-8.83a43.5,43.5,0,0,1-.13-35c2.64-6.31,7.64-10.1,14.85-9.85s11.12,4.61,13.7,10.72C1886.08,534.6,1886.66,540.06,1886.63,545.61Zm-26.08.23c.28,5.18.29,10.41,2.58,15.25,1.25,2.63,3,4.66,6.22,4.75s5.2-2,6.14-4.71a45.55,45.55,0,0,0,.07-30.52c-.92-2.69-2.82-4.91-6-5-3.39-.12-5.28,2.17-6.55,5C1860.83,535.42,1860.81,540.65,1860.55,545.84Z" transform="translate(-22.08 -6.14)"/><path class="cls-2" d="M141.57,545.45a35.32,35.32,0,0,1-3.2,17.59c-3.13,6.38-8,9.83-15.58,9.37-6.76-.41-10.52-4.25-12.7-9.78a44.14,44.14,0,0,1,0-33.31c2.59-6.55,7.41-10.67,14.89-10.64,6.45,0,11.52,4.09,14.29,11.44A37,37,0,0,1,141.57,545.45Zm-25.91-.22c.1,5.64.22,11,2.56,16,1.25,2.65,3.14,4.58,6.32,4.61s4.87-1.9,5.81-4.43a44.82,44.82,0,0,0,.16-31c-.91-2.66-2.84-4.87-6.07-4.89-3.44,0-5.14,2.35-6.41,5.15C115.88,535.43,115.85,540.48,115.66,545.23Z" transform="translate(-22.08 -6.14)"/><path class="cls-2" d="M327.74,546a37.54,37.54,0,0,1-2.13,14.52c-2.89,8.25-8,11.84-16.39,11.76-6.72-.06-11.52-3.92-14-12.09-3.1-10.4-3.25-20.89,1-31.07,2.62-6.34,7.31-10.42,14.53-10.42S322.39,523,325,529.4A39.93,39.93,0,0,1,327.74,546Zm-8.65.14c0-7.82-.93-13.22-2.9-16.6-3.09-5.31-9-5.62-11.36-.07-4.49,10.56-4.27,21.49-.19,32.23a6.07,6.07,0,0,0,6.06,4.13c3-.05,4.72-2,5.84-4.44C318.74,556.55,319.18,551.39,319.09,546.15Z" transform="translate(-22.08 -6.14)"/><path class="cls-2" d="M1442.72,545.92c-.21,6.61-1.15,13.24-4.65,19.44-5.35,9.49-21.25,9.89-26.1-.7-5.66-12.37-5.72-24.94,0-37.26a14.32,14.32,0,0,1,14.14-8.72c6.46.18,10.5,3.92,13.19,9.38S1442.58,539.58,1442.72,545.92Zm-8.72.19c0-5.4-.36-10.74-2.56-15.75-1.15-2.62-3-4.82-6.17-4.78s-5.16,2-6.14,4.79a44,44,0,0,0-.08,30.48c1.06,2.94,3.1,5,6.5,5s5.12-2.58,6.21-5.38A38,38,0,0,0,1434,546.11Z" transform="translate(-22.08 -6.14)"/><path class="cls-2" d="M223.84,567.14c-3.39,2.8-5.77,5.32-9.83,5.24-8-.14-12.71-4-13.57-12.08-1.18-11,5.1-19,16.32-21.19,2.37-.45,6.49,1.4,6-3.94-.64-6.14-3-9.27-7.7-9.64a16.79,16.79,0,0,0-6.67,1.25c-1.07.37-2.55,2.38-3.22-.44-.41-1.73-2.1-3.42.28-5.18,9.67-7.15,24-1.18,25.39,10.76,1.12,9.4.27,18.86.51,28.28a48.6,48.6,0,0,1,.09,6.82c-.21,1.79,2.25,4.89-2,5.12C226.21,572.31,222.88,572.83,223.84,567.14Zm-.92-15.23a17.78,17.78,0,0,1,0-2.92c.71-4.23-1.47-4.53-4.76-3.73-7.36,1.8-10.82,7.61-9,15.25.7,3,2.39,5.15,5.46,5.47,2.78.3,5-1.15,6.39-3.65C222.87,559.07,223,555.51,222.92,551.91Z" transform="translate(-22.08 -6.14)"/><path class="cls-2" d="M1950.84,527.77c-2.66-6-2.41-6.58,3.87-8.26,12.82-3.43,20.87,2.24,21.4,15.6.46,11.39.26,22.8.48,34.2,0,2.09-.49,2.85-2.68,2.89-3.12,0-6,.16-5.12-5.28-3.42,3.42-6.16,5.62-10.38,5.46-6.94-.26-10.46-2.64-12.4-9.33-3.31-11.45,3.6-21.83,15.83-24,2.3-.4,6.06,1.25,5.84-3.63-.24-5.5-2.69-9.18-7-9.87C1958.54,525.24,1956.35,525.72,1950.84,527.77Zm17,24.36a19,19,0,0,1,0-2.92c.68-4.37-1.39-4.87-5-3.87-7.09,1.95-10.43,7.52-8.74,15,.66,2.9,2.14,5.28,5.29,5.65s5.28-1.21,6.75-3.87C1967.86,559,1967.89,555.56,1967.82,552.13Z" transform="translate(-22.08 -6.14)"/><path class="cls-2" d="M610.79,567.42c-5.46,5.2-12.17,6.46-16.8,3.56-5.42-3.4-7.75-12.31-5.11-19.84,2.55-7.28,8.37-10.37,15.4-12,2.26-.53,6,1.29,5.83-3.62-.17-5.54-2.43-9.24-6.77-9.9a12.64,12.64,0,0,0-7.59,1.31c-1.47.73-2.87,1.31-3.28-.88-.31-1.65-2.09-3.34.62-5,10.87-6.73,24.4-1,25.31,11.59s.5,25,.72,37.57c0,1.55-.72,2.17-2,1.92-1.9-.34-4.4,1.35-5.61-1.43A18.24,18.24,0,0,1,610.79,567.42Zm-.35-15.3c0-7.8-1.51-8.75-7.86-5.84-5,2.31-7.49,8.15-6,14,.8,3.1,2.44,5.62,5.78,5.74,3.17.12,5.43-1.86,6.7-4.81C610.47,558,610.36,554.58,610.44,552.12Z" transform="translate(-22.08 -6.14)"/><path class="cls-2" d="M694.14,567.49c-5.79,5.28-12.41,6.45-17.13,3.31-5.19-3.45-7.42-12.14-4.92-19.5s8.24-10.6,15.31-12.08c3-.62,6.79.48,5.93-5s-3.15-8.48-8-8.69a12.66,12.66,0,0,0-6.14,1.34c-1.71.84-3.06,1.32-3.56-1.13-.34-1.73-1.76-3.36,1-4.86,12.52-6.84,24.9-.2,25.32,14,.34,11.55.19,23.11.33,34.66,0,1.42.22,2.87-1.74,2.57s-4.72,1.51-5.84-1.7A21.55,21.55,0,0,1,694.14,567.49Zm-.42-15.39c0-7.79-1.45-8.73-7.82-5.84-5,2.26-7.61,8.2-6.09,14,.73,2.82,2.15,5.28,5.31,5.7s5.54-1.43,7-4.24C693.79,558.42,693.59,554.8,693.72,552.1Z" transform="translate(-22.08 -6.14)"/><path class="cls-2" d="M480.69,546.72h-5.87c-6.71,0-6.9.23-5.66,6.72,2,10.58,6.78,13.63,17.8,11.31,1.54-.33,3.05-.83,3.26,1.42.17,1.69,2,3.94-1.12,4.82-9.89,2.81-21.74,2.82-26.44-10.08a42.32,42.32,0,0,1,.88-31.89c3-7.14,9-10.84,15.63-10.35,6,.45,10.47,4.81,12.67,12.46.05.16.11.31.16.46C495.61,545.24,494.5,546.72,480.69,546.72Zm-4-6.54c9,0,9.61-.69,7-8.38-1.09-3.24-2.71-6.2-6.46-6.31-3.56-.11-5.22,2.76-6.49,5.69C467.19,539.34,467.73,540.18,476.66,540.18Z" transform="translate(-22.08 -6.14)"/><path class="cls-2" d="M2100.09,536.57c.23,5.36.68,11.19,2.74,16.77,3.43,9.27,9.35,12.83,19,11,2.3-.43,3.54-.78,3.9,2.19.31,2.57,1,4.46-2.58,5.39-11.44,3-22.89-1.43-27.41-12.34-6.78-16.35-6.88-33.07,1.32-49.09a22.85,22.85,0,0,1,26.55-11.61c2.74.83,2.66,2.31,1.95,4.35-.63,1.84-.34,4.16-3.86,3.35-8.33-1.93-14,1.13-17.76,9C2101.49,520.6,2100,528.57,2100.09,536.57Z" transform="translate(-22.08 -6.14)"/><path class="cls-2" d="M1530,546.72h-5.87c-6.75,0-7,.33-5.55,7.21,2.14,10.14,7.15,13.37,17.25,11,2-.46,3.39-1,3.88,1.78.39,2.26.81,4-2.24,4.66-13.27,3-23,.49-26.7-14.13-2.47-9.87-2-19.73,2.53-29.05,3-6.2,8-9.86,15.17-9.45,6,.33,10.24,4.52,12.49,12,.09.31.23.61.32.92C1544.88,545.31,1543.83,546.72,1530,546.72Zm-4.07-6.54c8.89,0,9.82-1.18,6.93-8.8-1.14-3-2.77-5.82-6.3-5.9s-5.26,2.75-6.52,5.68C1516.53,539.29,1517.11,540.18,1525.94,540.18Z" transform="translate(-22.08 -6.14)"/><path class="cls-2" d="M1177.69,546.72h-5.38c-7.45,0-7.45,0-6,7.58,1.74,9.35,7.35,13.09,16.57,10.78,2.26-.56,3.67-1.34,4.56,1.93s-.73,4-3.18,4.48c-13.38,2.82-22.5-.24-25.93-14.64-2.27-9.55-1.93-19.1,2.3-28.16,3.32-7.13,9.19-10.7,15.81-10,6,.62,10.43,5.23,12.43,12.79,1.1,4.14,1.09,8.36,1.13,12.59,0,2.28-1,2.74-3,2.67C1183.89,546.64,1180.79,546.71,1177.69,546.72Zm-3.53-6.54c2.24-.46,6.41,1.35,7.24-.94,1.13-3.09,0-7-2.08-10.15a12.8,12.8,0,0,0-2.65-2.8,4.14,4.14,0,0,0-4.15-.62c-3.3,1.13-8.17,9.83-6.63,13.16,1.42,3.08,4.92.64,7.39,1.34A5.13,5.13,0,0,0,1174.16,540.18Z" transform="translate(-22.08 -6.14)"/><path class="cls-2" d="M1222.35,535.88c.16,6.57.7,13,3.38,19.12,3.5,8,9.11,11.11,17.61,9.44,3-.58,4-.45,4.78,2.91.85,3.77-1.1,4.4-3.62,4.7-14,1.64-24.87-1.27-29.58-21a61.22,61.22,0,0,1,1.63-35.14c4.64-13,16-19.82,28.1-17.17,2.51.55,4.34,1,3.18,4.35-.86,2.49-1,4.34-4.73,3.3-6.77-1.89-12.49,1.17-16.18,7.81S1222.49,528.38,1222.35,535.88Z" transform="translate(-22.08 -6.14)"/><path class="cls-2" d="M1647,546.71a65.63,65.63,0,0,1-8.3-.06c-3.92-.48-4.34,1.49-3.76,4.51.22,1.11.42,2.23.65,3.35,1.89,9.37,7.33,12.91,16.66,10.52,2.42-.62,3.63-1.06,4.43,2.11s-.47,3.73-2.81,4.26c-13.54,3.06-22.88-.17-26.36-14.59a46.62,46.62,0,0,1,.67-24.08,23.7,23.7,0,0,1,4.2-8.19c7.06-9,19.38-7.54,24.17,2.81,2.47,5.32,2.75,10.95,2.7,16.68,0,2.23-1,2.77-3,2.71C1653.2,546.64,1650.1,546.71,1647,546.71Zm-4.28-6.53c9.33,0,9.75-.47,7.19-8.17-1.06-3.21-2.63-6.32-6.39-6.51s-5.51,2.92-6.8,6C1633.43,539.43,1634,540.18,1642.72,540.18Z" transform="translate(-22.08 -6.14)"/><path class="cls-2" d="M1047,546.71h-5.87c-6.77,0-6.92.17-5.89,6.72,1.57,10,7.4,13.95,17.37,11.45,2.07-.52,3.36-.79,3.92,1.74.51,2.35.46,4.07-2.44,4.73-12.87,2.9-22.54.63-26.32-13.42-2.73-10.13-2.4-20.35,2.42-30,3.27-6.54,9-9.93,15.3-9.24,7,.77,10.25,5.62,12.19,11.72,1.4,4.4,1.55,8.94,1.54,13.52,0,2.11-.82,2.88-2.91,2.79C1053.19,546.63,1050.09,546.71,1047,546.71Zm-4.33-6.53c9.21,0,9.73-.58,7.17-8.22-1.07-3.17-2.58-6.3-6.35-6.47s-5.51,2.89-6.78,6C1033.43,539.31,1034,540.18,1042.65,540.18Z" transform="translate(-22.08 -6.14)"/><path class="cls-2" d="M792,546.71h-5.38c-7.35,0-7.35,0-6.2,7.16,1.54,9.68,7.4,13.5,17.18,11.06,1.83-.46,3.34-1.25,3.93,1.51.48,2.24.93,4.13-2.11,4.85-12.9,3-23,.76-26.75-14a42.86,42.86,0,0,1,1.78-27.72c2-4.8,5.19-8.61,10.41-10.25,6.15-1.93,11.79,0,15.28,5.42,3.79,5.87,4.26,12.49,4.12,19.22,0,1.9-.8,2.91-3,2.78C798.23,546.58,795.12,546.71,792,546.71Zm-4-6.53c8.9,0,9.74-1.12,6.68-9-1.1-2.83-2.65-5.51-6-5.69s-5.11,2.38-6.45,5.13C778.31,538.6,779.27,540.18,788,540.18Z" transform="translate(-22.08 -6.14)"/><path class="cls-2" d="M1299.05,546.71a8.62,8.62,0,0,0-2.44,0c-3.12,1-8.53-2.69-9.24,2.38-1.22,8.67,4,15.87,10.37,16.37a19.75,19.75,0,0,0,6.78-.49c2.37-.68,3.74-1.11,4.5,2,.69,2.86-.28,3.82-2.79,4.39-13.38,3-23.09-.12-26.35-14.67-2.25-10-2-20.06,3-29.44,2.51-4.72,6.37-7.83,11.77-8.6,5.73-.82,10.82,2,13.68,7.44,2.94,5.66,3.41,11.81,3.17,18.06-.07,1.81-.79,2.59-2.69,2.53C1305.58,546.63,1302.32,546.71,1299.05,546.71Zm-3.88-6.53c9.17,0,10-1.19,6.71-9.22-1.16-2.8-2.72-5.41-6.09-5.49s-5,2.47-6.36,5.18C1285.58,538.6,1286.54,540.18,1295.17,540.18Z" transform="translate(-22.08 -6.14)"/><path class="cls-2" d="M513.47,551.67c-2.1,5.19-3.9,9.71-5.75,14.22-2.8,6.84-2.81,6.83-11.18,5.81,3.57-7.59,7-15.09,10.65-22.48a7.27,7.27,0,0,0,0-7.26c-3.59-7.22-6.83-14.62-10.27-22.09,8.9-.94,8.9-.94,12.12,6.75l5.27,12.56c1.95-4.79,3.68-9.11,5.45-13.42,2.81-6.81,2.82-6.8,11.29-5.85-3.43,7.15-6.55,14.24-10.21,21.05-1.77,3.28-1.5,5.9.06,9,3,6.1,5.74,12.38,8.74,18.51,1.23,2.52,1.36,3.52-2.08,3.77-4.25.32-6.49-1-7.84-5.1C518.1,562.1,515.77,557.25,513.47,551.67Z" transform="translate(-22.08 -6.14)"/><path class="cls-2" d="M1385.32,544.07c0-4.88-.08-9.76,0-14.63.05-2.32-.41-3.91-3.17-3.53s-3.2-.91-3.28-3.37c-.08-2.81,1.16-3.38,3.48-3,3,.44,2.87-1.47,3-3.57s-1.28-4.82,1.66-6c2-.83,4.28-2.85,6.22-1.83,1.6.83.81,3.65.55,5.47-.68,4.88,1,6.81,6,6,2.28-.37,4.41-.47,4.34,3.23s-2.46,3.37-4.59,3.06c-4.93-.71-6,1.44-5.77,6,.36,8.44,0,16.91.14,25.37.08,4.46.78,8.62,7,8.29,3-.17,1.66,2.58,2,4,.45,1.62-.45,2.56-2.34,2.87-9.46,1.54-14.33-2-15.07-11.69-.42-5.49-.08-11-.08-16.57Z" transform="translate(-22.08 -6.14)"/><path class="cls-2" d="M1551.24,534.16c0-11.08.12-22.17-.08-33.24-.06-3.26.92-4.11,4.08-4,3,.09,4.7.15,4.66,4q-.29,33.48,0,67c0,3.49-1.07,4.33-4.42,4.37s-4.38-1-4.31-4.39C1551.37,556.64,1551.24,545.4,1551.24,534.16Z" transform="translate(-22.08 -6.14)"/><path class="cls-2" d="M1715.73,572.26c-7.65,0-11.23-3.54-11.4-12-.2-9.93-.13-19.88,0-29.82,0-2.89.08-5.2-3.92-4.65-2.81.39-2.43-1.8-2.56-3.59-.15-2.14.73-3.12,2.82-2.74,3.85.7,3.64-1.69,3.69-4.31,0-1.9-1-4.07,1.75-5.48,6.25-3.18,7.28-2.91,6.7,4-.44,5.35,1.69,6.45,6.26,5.81,2.21-.32,4-.3,4,3.06,0,3.08-1.39,3.7-3.84,3.29-5.11-.85-6.63,1.15-6.36,6.26.45,8.45.12,16.94.13,25.42,0,4.52,1,8.27,6.75,7.88,2.84-.2,1.91,2,2.11,3.4.25,1.67.32,3.4-2.16,3.43Z" transform="translate(-22.08 -6.14)"/><path class="cls-2" d="M1076.22,572.31c-3.58,0-5.64-.09-7.75-.68-3.46-1-4.33-2.67-2.88-6,.84-1.93,1.65-2.62,3.53-1.35a5.49,5.49,0,0,0,1.81.72c4,1,7.88,1.42,10.57-2.55,2.19-3.23,1.28-8.47-2.13-11.54-2.9-2.6-6.3-4.66-9.12-7.34-5.62-5.34-6.37-13.1-2.17-19,3.93-5.55,11.82-7.45,18.46-4.72,2.68,1.11,2.64,2.51,1.89,4.94-.83,2.7-1.85,2.7-4.18,1.67-3.71-1.66-7.55-1.69-9.82,2.38s-.27,7.49,3.06,10.18c3,2.45,6.52,4.33,9.15,7.3,7.78,8.75,4.57,22.38-6.08,25.46A19.89,19.89,0,0,1,1076.22,572.31Z" transform="translate(-22.08 -6.14)"/><path class="cls-2" d="M84.79,572.29a24,24,0,0,1-6.29-.64c-3.58-1-4.25-2.81-2.75-6.11.77-1.68,1.14-2.1,3.12-1.42,7.38,2.55,10.87,1.81,13-2.24,2.35-4.53.39-9.21-5.58-13.53a52.22,52.22,0,0,1-6.13-4.82c-5.35-5.27-6.17-12.85-2.21-18.69s12-7.77,18.8-5c2.78,1.13,2.57,2.63,1.77,4.89s-1.7,2.91-4.19,1.72c-3.66-1.74-7.53-1.8-9.78,2.34s-.44,7.52,3,10.21c2.81,2.22,6,4,8.47,6.6,5,5.26,6.37,12,3.56,18.44C97.05,569.72,92.43,572.3,84.79,572.29Z" transform="translate(-22.08 -6.14)"/><path class="cls-2" d="M1996.23,534.62c0,11.22-.14,22.44.08,33.66.07,3.42-1.22,4-4.22,4s-4.64-.35-4.61-4.12q.27-33.66,0-67.33c0-4.15,2.09-3.67,4.81-3.86,3.22-.22,4.09.85,4,4C1996.11,512.17,1996.23,523.4,1996.23,534.62Z" transform="translate(-22.08 -6.14)"/><path class="cls-2" d="M148.42,545.91c.07-6.74,1.36-13.68,5.82-19.69a18.58,18.58,0,0,1,19.44-7.07c2.85.7,3.26,1.86,2.39,4.42-.69,2-.38,3.83-3.87,3-6.29-1.55-10.35.84-12.76,6.85a32.7,32.7,0,0,0-.5,23.8c2.39,6.72,6.83,9.16,13.67,7.75,2-.41,3.11-.54,3.29,1.85.15,2,1.41,4.36-1.9,5-8.68,1.57-16.3,1.06-21.56-7.91C149.3,558.49,148.49,552.54,148.42,545.91Z" transform="translate(-22.08 -6.14)"/><path class="cls-2" d="M1901.85,546a33.42,33.42,0,0,0,2.28,11.94c2.51,5.89,7,8.37,13.25,7.15,1.61-.31,3.21-1.32,3.43,1.5.16,2.1,1.75,4.64-2,5.25-9.72,1.59-17.38.87-22.1-9.44a36.81,36.81,0,0,1,1-33.82c4.28-8,13.73-11.73,21.57-9.2,2.5.81,2.63,2,1.71,3.94-.63,1.3.58,3.75-2.6,3.49-9.92-.83-13.38,1.79-15.49,11.5C1902.37,540.78,1902.19,543.39,1901.85,546Z" transform="translate(-22.08 -6.14)"/><path class="cls-2" d="M575.37,572.29c-8.74,0-14.39-3.63-17.27-11.5a39.85,39.85,0,0,1,.34-29.54c3.85-9.41,13.14-14.32,21.95-12.18,2.59.62,3.66,1.62,2.91,4.32-.63,2.27-.9,3.89-4.29,3.07-5.84-1.42-9.8.81-12.17,6.35a32.34,32.34,0,0,0-.49,25.17c2.34,6,7,8.37,13.28,7,2-.45,3-.49,3.37,1.77.29,2,1.47,4.08-1.79,5C579.08,572.34,577,572.12,575.37,572.29Z" transform="translate(-22.08 -6.14)"/><path class="cls-2" d="M240.55,547.86c-.11-8.51,1.27-15,5.06-20.72a18.53,18.53,0,0,1,20-8c2.74.65,3.44,1.7,2.53,4.36-.68,2-.47,3.82-3.88,3-6.38-1.47-10.37.81-12.76,6.88a32.75,32.75,0,0,0-.12,24.74c2.3,5.81,6.85,8.09,12.9,6.92,1.55-.29,3.31-1.43,3.6,1.33.22,2.1,1.53,4.75-2.05,5.38-9.27,1.62-17.33.74-22.36-9.93A33.62,33.62,0,0,1,240.55,547.86Z" transform="translate(-22.08 -6.14)"/><path class="cls-2" d="M1665.93,546.5a31.27,31.27,0,0,1,4.47-18.67,18.76,18.76,0,0,1,20.1-8.81c3.09.67,3.53,2.12,2.87,4.8-.57,2.3-1,3.45-4.1,2.67-5.72-1.48-9.86.73-12.22,6.19a32.77,32.77,0,0,0-.58,25.18c2.29,6.1,7,8.58,13.17,7.11,2.38-.56,3.27-.2,3.65,2.1s.65,4.29-2.38,4.77c-9.11,1.42-16.46.73-21.64-8.82A30.91,30.91,0,0,1,1665.93,546.5Z" transform="translate(-22.08 -6.14)"/><path class="cls-2" d="M1778.74,524.94c2.61-2.34,4.66-5.31,8.22-6,1.57-.29,4.28-1.39,4.13,1.36-.13,2.33,2.74,6.27-2.08,7.1-6.23,1.07-8.77,5.24-9.51,10.78-1.29,9.71-.43,19.5-.5,29.25,0,3.24-.28,4.9-4.37,4.84s-4.35-1.72-4.34-5c0-14.47-.18-28.94-.15-43.42,0-1.61-1.66-4.6,2.31-4.47,2.8.1,6.24-.88,5.59,4C1778,523.86,1778.42,524.3,1778.74,524.94Z" transform="translate(-22.08 -6.14)"/><path class="cls-2" d="M1263.53,526.35c2.61-3.84,5-6.68,9-7.47,1.4-.27,3.81-1.1,3.64,1.52-.15,2.36,2,5.75-1.74,7-7,2.37-9.8,5.46-10,13-.27,9.28-.35,18.57-.07,27.85.12,4-2,3.81-4.79,4-3.29.18-4.07-1-4-4.12.11-14.66-.08-29.32,0-44,0-1.8-1.62-4.66,2.63-4.76,3.67-.08,5.53.82,5.16,4.71A15.23,15.23,0,0,0,1263.53,526.35Z" transform="translate(-22.08 -6.14)"/><path class="cls-2" d="M183.53,545.87c0-7.66.21-15.32-.09-23-.14-3.53,1.6-3.56,4.11-3.44s4.73-.62,4.66,3.5c-.26,15.15-.22,30.3,0,45.45.05,3.68-1.7,3.75-4.44,3.8s-4.44-.3-4.3-3.86C183.74,560.87,183.53,553.36,183.53,545.87Z" transform="translate(-22.08 -6.14)"/><path class="cls-2" d="M275.63,545.91c0-7.66.2-15.32-.09-23-.13-3.46,1.48-3.65,4.07-3.48,2.36.15,4.75-.69,4.69,3.46-.25,15.31-.2,30.63,0,45.94,0,3.65-2,3.33-4.39,3.29s-4.47.48-4.33-3.27C275.82,561.23,275.63,553.57,275.63,545.91Z" transform="translate(-22.08 -6.14)"/><path class="cls-2" d="M546.43,545.74c0,7.5-.17,15,.07,22.49.11,3.32-1.08,4-4.16,4s-4.63-.49-4.57-4.19q.32-22.23,0-44.48c0-3.68,1.35-4.12,4.52-4.2,3.5-.09,4.35,1,4.23,4.38C546.25,531.07,546.43,538.41,546.43,545.74Z" transform="translate(-22.08 -6.14)"/><path class="cls-2" d="M1928.43,545.92c0-7.66.2-15.32-.09-23-.13-3.45,1.46-3.67,4.06-3.49,2.36.16,4.77-.71,4.7,3.45-.24,15.31-.19,30.63,0,45.94,0,3.65-2,3.35-4.38,3.3s-4.48.5-4.34-3.26C1928.63,561.24,1928.43,553.58,1928.43,545.92Z" transform="translate(-22.08 -6.14)"/><path class="cls-2" d="M1363.48,545.38c0-7.47.25-15-.1-22.42-.2-4.11,2.21-3.45,4.62-3.48s4.29-.43,4.24,3.29q-.35,22.9,0,45.82c.06,3.94-2,3.47-4.53,3.6-3,.16-4.44-.4-4.31-3.9C1363.66,560.67,1363.48,553,1363.48,545.38Z" transform="translate(-22.08 -6.14)"/><path class="cls-2" d="M932.09,546.2c0,7.48-.22,15,.09,22.42.17,4-2.19,3.46-4.64,3.55s-4.24.12-4.2-3.42q.3-22.9,0-45.83c0-3.44,1.51-3.65,4.08-3.45,2.27.18,4.92-.85,4.76,3.33C931.89,530.59,932.09,538.4,932.09,546.2Z" transform="translate(-22.08 -6.14)"/><path class="cls-2" d="M2077.6,572.28c-4.28.46-5.35-2.43-5.64-5.71-.31-3.53,2.57-6.67,5.79-6.48,4.08.25,5.61,2.92,5.49,6.63C2083.12,570.22,2081.77,572.75,2077.6,572.28Z" transform="translate(-22.08 -6.14)"/><path class="cls-2" d="M2144.68,566.79c-.34,3.21-1.32,5.64-5.58,5.59-4.46,0-5.69-2.56-5.66-6.2s1.82-5.9,5.58-6.1C2142.36,559.91,2144.76,562.8,2144.68,566.79Z" transform="translate(-22.08 -6.14)"/><path class="cls-2" d="M1308.93,498.5c-5.59,4.54-6.28,14.21-16.8,14.56,3-5.24,5.09-9.88,8-13.92C1302.27,496.29,1305.84,498.74,1308.93,498.5Z" transform="translate(-22.08 -6.14)"/><path class="cls-2" d="M322.78,498.63c-5.45,4.5-6.23,14-16.71,14.36,2.94-5.16,5.07-9.69,7.95-13.69C316.1,496.41,319.63,498.53,322.78,498.63Z" transform="translate(-22.08 -6.14)"/><path class="cls-2" d="M1372.9,506c-.3,3.07-1.61,5.44-5,5.58-3.75.15-5.26-2.46-5.24-5.68s1.76-5.39,5.13-5.36S1372.57,502.89,1372.9,506Z" transform="translate(-22.08 -6.14)"/><path class="cls-2" d="M922.43,506.44c.25-3.38,1.52-5.72,4.93-5.86s5.11,1.88,5.22,5.12-1.34,5.79-5,5.86C924.1,511.64,922.93,509.15,922.43,506.44Z" transform="translate(-22.08 -6.14)"/><path class="cls-2" d="M1937.59,505.51c0,3.74-1.48,5.91-4.82,6s-5-1.82-5.12-5.15,1.41-5.77,5-5.77C1936.06,500.59,1937.52,502.79,1937.59,505.51Z" transform="translate(-22.08 -6.14)"/><path class="cls-2" d="M284.66,506.24c-.11,3.26-1.73,5.35-5,5.3-3.66-.05-5.07-2.51-4.9-5.91s1.89-5.19,5.28-5S284.74,503,284.66,506.24Z" transform="translate(-22.08 -6.14)"/><path class="cls-2" d="M192.63,506.07c0,3.25-1.57,5.37-4.9,5.48s-5-2.08-5.09-5.26c-.1-3.43,1.51-5.74,5.15-5.7C191.19,500.63,192.6,502.84,192.63,506.07Z" transform="translate(-22.08 -6.14)"/><path class="cls-2" d="M547.23,505.89c-.14,3.39-1.72,5.67-5.29,5.65-3.08,0-4.59-2-4.69-5.05-.12-3.44,1.24-5.83,4.86-5.91C545.45,500.5,547,502.7,547.23,505.89Z" transform="translate(-22.08 -6.14)"/><path class="cls-3" d="M306.18,28.63q106.79,0,213.57,0c23.64,0,41.44,14,46.48,36.18A45.94,45.94,0,0,1,567,75V390.35c0,26.83-19.66,46.64-46.57,46.69-40,.09-80,0-120,0q-154.07,0-308.11,0c-24.65,0-43.13-15.28-47.18-39a52.25,52.25,0,0,1-.5-8.76q0-156.45,0-312.89c0-28.47,19.41-47.79,48-47.8Q199.4,28.6,306.18,28.63ZM481.55,348.11c.1-4.64-1.61-7.47-3.89-10.17q-33.54-39.78-66.93-79.69c-2.34-2.82-3.34-2.22-5.31.15-12.93,15.51-26,30.92-39,46.37q-14.31,17-28.6,34c-3.78,4.53-4.26,9.52-1.59,14a11.65,11.65,0,0,0,12.22,5.25c4-.83,6.36-3.76,8.78-6.64,16-19.08,32.09-38.13,48-57.3,2.37-2.86,3.63-2.54,5.8.11,8.78,10.69,17.74,21.25,26.64,31.85,7.86,9.35,15.7,18.72,23.65,28,3.4,4,7.75,5.27,12.77,3.45A10.64,10.64,0,0,0,481.55,348.11Zm0-229.46A11.33,11.33,0,0,0,474.34,108c-4.73-1.81-9.8-.36-13.53,4-16.6,19.66-33.26,39.27-49.66,59.1-2.81,3.4-3.87,2.65-6.26-.22-16.25-19.53-32.68-38.9-49-58.35-1.82-2.16-3.73-4.08-6.58-4.8a11.48,11.48,0,0,0-12.86,4.67c-3,4.43-2.44,9.69,1.81,14.76q33.58,40.06,67.22,80.08c1.88,2.25,3,2.77,5.15.18q33.66-40.31,67.54-80.45C480.17,124.6,481.67,122,481.56,118.65Zm-277.9,91.53c.76-.83,1.31-1.4,1.81-2q24.74-29.33,49.47-58.67c6.51-7.73,13.05-15.43,19.44-23.26a11.89,11.89,0,0,0,.89-14.1c-2.6-3.87-7.47-5.57-12.54-4.41-3.25.74-5.3,3.07-7.3,5.44-16.05,19.08-32.18,38.09-48,57.33-3,3.58-4.35,3.6-7.29,0-16-19.35-32.17-38.51-48.33-57.71-5.18-6.16-12.37-7.28-17.52-2.88S129,121.29,134,127.33q19.9,23.82,39.93,47.55Zm-73.23,138c0,3.93,2.55,7.63,7.38,9.43s9.54.38,13.45-4.26q24.87-29.52,49.63-59.13c2.31-2.79,3.52-2.84,5.73,0,4.3,5.52,9,10.76,13.47,16.12q18.39,21.87,36.81,43.74a11.39,11.39,0,0,0,13.7,3.19c4.71-2.22,6.94-6.59,6.4-12-.33-3.33-2.33-5.68-4.3-8q-33.15-39.48-66.3-78.95c-2.15-2.57-3.17-2.5-5.28,0q-33.54,40.11-67.27,80.06A13.13,13.13,0,0,0,130.43,348.15ZM400.26,232.88a10.88,10.88,0,0,0-2.76-7.64q-25.74-30.69-51.57-61.32c-3.76-4.44-11-4.94-15.56-1.52a11.29,11.29,0,0,0-2.59,15.29,41.88,41.88,0,0,0,3.32,4.22c13.19,15.71,26.25,31.55,39.7,47,2.92,3.36,2.2,5-.27,7.91-13.86,16.22-27.55,32.58-41.24,49-4.87,5.82-4.55,12.67.57,17s12,3.56,16.85-2.13q25.41-30,50.64-60.19A11.83,11.83,0,0,0,400.26,232.88Zm78.41-72.54a10.3,10.3,0,0,0-8.79,4q-25.47,30.3-50.94,60.58c-4.25,5.08-4.26,10.44,0,15.56q25.35,30.39,50.89,60.62a11,11,0,0,0,7.94,4.29c4.8.29,8.62-1.43,11-5.73,2.64-4.73,2.09-9.08-2-13.92Q466,260.83,445,236c-2-2.38-2.44-3.78-.12-6.37,6.83-7.66,13.27-15.65,19.87-23.51,7.54-9,15.13-17.92,22.62-26.95,3.15-3.81,4.09-8.1,1.78-12.72C487,162.3,483.62,160.18,478.67,160.34Zm-345.3,0c-5.09-.16-8.68,1.81-10.58,6.11-2.09,4.7-1.37,9.13,2,13.17,14,16.54,27.85,33.19,41.92,49.66,2.22,2.61,2.33,4.18,0,6.88Q145.68,260.88,125,285.9c-4.79,5.78-4.31,12.72.75,17s11.87,3.36,16.82-2.36c4.37-5.05,8.63-10.2,12.93-15.31q18.41-21.87,36.78-43.77c4.53-5.42,5-11.14,1-16q-25.5-30.6-51.22-61C139.66,161.64,136.73,160.09,133.37,160.35ZM211.89,233c-.38,3.78,1.69,6.47,3.93,9.13q24.24,28.78,48.42,57.61c5.23,6.25,12,7.55,17.5,3.3,4.73-3.68,5.44-12,.41-17.83-14.11-16.22-27.67-32.91-41.61-49.28-2.2-2.58-1.93-4,.14-6.46,13.95-16.36,27.75-32.85,41.57-49.31,4.91-5.85,4.71-13.1-.39-17.38-4.93-4.14-12.1-3.3-16.88,2.35q-25.25,29.83-50.33,59.82A10.4,10.4,0,0,0,211.89,233ZM203.75,391.4a22.64,22.64,0,1,0,.25-45.27,22.64,22.64,0,1,0-.25,45.27ZM204,74.29c-12.83-.07-22.84,9.6-23,22.21a22.72,22.72,0,0,0,22.79,23.06,23,23,0,0,0,22.87-22.64A22.57,22.57,0,0,0,204,74.29ZM430.74,97c.06-13-9.43-22.6-22.34-22.7s-22.84,9.34-23,22.1a22.65,22.65,0,1,0,45.3.6Zm0,272c.06-12.87-9.51-22.71-22.26-22.89s-22.91,9.5-23,22.11c-.13,13.05,9.65,23.12,22.51,23.16A22.31,22.31,0,0,0,430.74,369ZM113,210.21c-13-.05-22.58,9.43-22.68,22.34-.09,13.07,9.69,23,22.69,22.93a22.76,22.76,0,0,0,22.67-22.69A22.53,22.53,0,0,0,113,210.21Zm192.91,0c-12.86,0-22.55,9.61-22.58,22.44s9.64,22.71,22.31,22.83a22.64,22.64,0,1,0,.27-45.27Zm170.43,22.5c0,12.87,9.59,22.66,22.35,22.77a22.64,22.64,0,1,0,.15-45.27C485.92,210.22,476.4,219.74,476.38,232.71Z" transform="translate(-22.08 -6.14)"/><path class="cls-1" d="M481.55,348.11a10.64,10.64,0,0,1-7.46,9.41c-5,1.82-9.37.53-12.77-3.45-7.95-9.27-15.79-18.64-23.65-28-8.9-10.6-17.86-21.16-26.64-31.85-2.17-2.65-3.43-3-5.8-.11-15.9,19.17-32,38.22-48,57.3-2.42,2.88-4.81,5.81-8.78,6.64a11.65,11.65,0,0,1-12.22-5.25c-2.67-4.48-2.19-9.47,1.59-14q14.25-17.07,28.6-34c13-15.45,26.06-30.86,39-46.37,2-2.37,3-3,5.31-.15q33.31,40,66.93,79.69C479.94,340.64,481.65,343.47,481.55,348.11Z" transform="translate(-22.08 -6.14)"/><path class="cls-1" d="M481.57,118.65c.1,3.3-1.4,5.95-3.43,8.37q-33.79,40.2-67.54,80.45c-2.17,2.59-3.27,2.07-5.15-.18q-33.56-40.08-67.22-80.08c-4.25-5.07-4.79-10.33-1.81-14.76a11.48,11.48,0,0,1,12.86-4.67c2.85.72,4.76,2.64,6.58,4.8,16.35,19.45,32.78,38.82,49,58.35,2.39,2.87,3.45,3.62,6.26.22,16.4-19.83,33.06-39.44,49.66-59.1,3.73-4.4,8.8-5.85,13.53-4A11.35,11.35,0,0,1,481.57,118.65Z" transform="translate(-22.08 -6.14)"/><path class="cls-1" d="M203.66,210.18,174,174.88Q154,151.12,134,127.33c-5.05-6-4.87-13,.24-17.37s12.34-3.28,17.52,2.88c16.16,19.2,32.36,38.36,48.33,57.71,2.94,3.56,4.33,3.54,7.29,0,15.85-19.24,32-38.25,48-57.33,2-2.37,4.05-4.7,7.3-5.44,5.07-1.16,9.94.54,12.54,4.41a11.89,11.89,0,0,1-.89,14.1c-6.39,7.83-12.93,15.53-19.44,23.26q-24.72,29.34-49.47,58.67C205,208.78,204.42,209.35,203.66,210.18Z" transform="translate(-22.08 -6.14)"/><path class="cls-1" d="M130.43,348.15a13.13,13.13,0,0,1,3.42-9.84q33.65-40,67.27-80.06c2.11-2.52,3.13-2.59,5.28,0q33,39.56,66.3,78.95c2,2.35,4,4.7,4.3,8,.54,5.45-1.69,9.82-6.4,12a11.39,11.39,0,0,1-13.7-3.19q-18.46-21.82-36.81-43.74c-4.51-5.36-9.17-10.6-13.47-16.12-2.21-2.85-3.42-2.8-5.73,0q-24.67,29.69-49.63,59.13c-3.91,4.64-8.6,6.07-13.45,4.26S130.48,352.08,130.43,348.15Z" transform="translate(-22.08 -6.14)"/><path class="cls-1" d="M400.26,232.88a11.83,11.83,0,0,1-2.91,7.57Q372,270.54,346.71,300.64c-4.83,5.69-11.78,6.4-16.85,2.13s-5.44-11.15-.57-17c13.69-16.37,27.38-32.73,41.24-49,2.47-2.88,3.19-4.55.27-7.91-13.45-15.48-26.51-31.32-39.7-47a41.88,41.88,0,0,1-3.32-4.22,11.29,11.29,0,0,1,2.59-15.29c4.57-3.42,11.8-2.92,15.56,1.52q25.89,30.57,51.57,61.32A10.88,10.88,0,0,1,400.26,232.88Z" transform="translate(-22.08 -6.14)"/><path class="cls-1" d="M478.67,160.34c4.95-.16,8.35,2,10.44,6.15,2.31,4.62,1.37,8.91-1.78,12.72-7.49,9-15.08,18-22.62,26.95-6.6,7.86-13,15.85-19.87,23.51-2.32,2.59-1.91,4,.12,6.37q21.07,24.73,41.88,49.7c4.05,4.84,4.6,9.19,2,13.92-2.41,4.3-6.23,6-11,5.73a11,11,0,0,1-7.94-4.29q-25.45-30.3-50.89-60.62c-4.26-5.12-4.25-10.48,0-15.56q25.38-30.36,50.94-60.58A10.3,10.3,0,0,1,478.67,160.34Z" transform="translate(-22.08 -6.14)"/><path class="cls-1" d="M133.37,160.35c3.36-.26,6.29,1.29,8.63,4.07q25.63,30.47,51.22,61c4.05,4.86,3.54,10.58-1,16q-18.34,21.93-36.78,43.77c-4.3,5.11-8.56,10.26-12.93,15.31-5,5.72-11.73,6.62-16.82,2.36s-5.54-11.17-.75-17q20.76-25,41.83-49.73c2.3-2.7,2.19-4.27,0-6.88-14.07-16.47-27.94-33.12-41.92-49.66-3.41-4-4.13-8.47-2-13.17C124.69,162.16,128.28,160.19,133.37,160.35Z" transform="translate(-22.08 -6.14)"/><path class="cls-1" d="M211.89,233a10.4,10.4,0,0,1,2.76-8Q239.82,195,265,165.08c4.78-5.65,11.95-6.49,16.88-2.35,5.1,4.28,5.3,11.53.39,17.38-13.82,16.46-27.62,32.95-41.57,49.31-2.07,2.42-2.34,3.88-.14,6.46,13.94,16.37,27.5,33.06,41.61,49.28,5,5.79,4.32,14.15-.41,17.83-5.47,4.25-12.27,2.95-17.5-3.3q-24.18-28.83-48.42-57.61C213.58,239.42,211.51,236.73,211.89,233Z" transform="translate(-22.08 -6.14)"/><path class="cls-1" d="M203.75,391.4a22.64,22.64,0,1,1,22.89-22.54A22.82,22.82,0,0,1,203.75,391.4Z" transform="translate(-22.08 -6.14)"/><path class="cls-1" d="M204,74.29a22.57,22.57,0,0,1,22.67,22.63,23,23,0,0,1-22.87,22.64A22.72,22.72,0,0,1,181,96.5C181.13,83.89,191.14,74.22,204,74.29Z" transform="translate(-22.08 -6.14)"/><path class="cls-1" d="M430.74,97a22.65,22.65,0,1,1-45.3-.6c.12-12.76,9.92-22.19,23-22.1S430.8,84,430.74,97Z" transform="translate(-22.08 -6.14)"/><path class="cls-1" d="M430.74,369A22.31,22.31,0,0,1,408,391.4c-12.86,0-22.64-10.11-22.51-23.16.13-12.61,10.22-22.29,23-22.11S430.8,356.15,430.74,369Z" transform="translate(-22.08 -6.14)"/><path class="cls-1" d="M113,210.21a22.53,22.53,0,0,1,22.68,22.58,22.76,22.76,0,0,1-22.67,22.69c-13,0-22.78-9.86-22.69-22.93C90.46,219.64,100.08,210.16,113,210.21Z" transform="translate(-22.08 -6.14)"/><path class="cls-1" d="M306,210.21a22.64,22.64,0,1,1-.27,45.27c-12.67-.12-22.34-10-22.31-22.83S293.09,210.19,306,210.21Z" transform="translate(-22.08 -6.14)"/><path class="cls-1" d="M476.38,232.71c0-13,9.54-22.49,22.5-22.5a22.64,22.64,0,1,1-.15,45.27C486,255.37,476.36,245.58,476.38,232.71Z" transform="translate(-22.08 -6.14)"/></svg>