<svg id="Miniatura" xmlns="http://www.w3.org/2000/svg" viewBox="0 0 705.96 563.9"><defs><style>.cls-1{fill:#fcc230;}.cls-2{fill:#701c75;}</style></defs><path class="cls-1" d="M632,0c12.38,3,24.61,6.32,35.35,13.66,24.93,17,38.28,40.74,38.36,70.67q.53,197.19.1,394.38c-.05,48.37-38.21,85-88.26,85q-135.78.13-271.56,0c-85.64,0-171.29-.32-256.94.13C41.83,564.15,7,532,1,492.39c-.08-.5-.66-.92-1-1.38V71.71c1.3-.71,1-2,1.3-3.17C8.41,37.26,26.69,15.63,57,4.54,61.88,2.77,66.9,1.5,71.85,0ZM353.13,28Q220.4,28,87.67,28C52.13,28,28,52,28,87.37q0,194.45,0,388.9a64.88,64.88,0,0,0,.63,10.89c5,29.45,28,48.44,58.63,48.44q191.49,0,383,0,74.58,0,149.16,0c33.46-.07,57.89-24.69,57.89-58V85.61a56.85,56.85,0,0,0-1-12.68C670.09,45.3,648,28,618.59,28Q485.86,27.91,353.13,28Z"/><path class="cls-2" d="M353.13,28q132.74,0,265.46,0c29.38,0,51.5,17.33,57.76,45a56.85,56.85,0,0,1,1,12.68V477.55c0,33.35-24.43,58-57.89,58q-74.58.15-149.16,0-191.49,0-383,0c-30.63,0-53.59-19-58.63-48.44A64.88,64.88,0,0,1,28,476.27q0-194.46,0-388.9C28,52,52.13,28,87.67,28Q220.4,27.93,353.13,28Zm218,397.1c.13-5.76-2-9.28-4.84-12.64Q524.59,363,483.08,313.36c-2.91-3.5-4.16-2.76-6.61.18C460.4,332.83,444.18,352,428,371.18q-17.79,21.15-35.56,42.31c-4.69,5.63-5.29,11.84-2,17.4a14.48,14.48,0,0,0,15.19,6.53c4.93-1,7.9-4.67,10.91-8.25,19.91-23.73,39.88-47.39,59.65-71.23,2.95-3.56,4.52-3.15,7.21.14,10.91,13.29,22,26.42,33.11,39.59,9.78,11.62,19.52,23.26,29.39,34.79,4.23,5,9.64,6.55,15.88,4.29C567.81,434.57,570.7,430.05,571.1,425.05Zm0-285.21a14.1,14.1,0,0,0-9-13.22c-5.89-2.24-12.19-.45-16.81,5-20.64,24.43-41.35,48.8-61.73,73.45-3.49,4.22-4.82,3.29-7.78-.28-20.2-24.27-40.63-48.35-60.95-72.52-2.25-2.68-4.64-5.07-8.17-6-6.44-1.64-12.46.54-16,5.81-3.7,5.51-3,12.05,2.26,18.35q41.75,49.79,83.54,99.53c2.34,2.8,3.7,3.45,6.4.22q41.85-50.1,83.95-100C569.39,147.24,571.25,143.94,571.12,139.84ZM225.7,253.61c.94-1,1.62-1.74,2.25-2.48q30.75-36.47,61.49-72.93c8.09-9.61,16.22-19.18,24.16-28.9a14.78,14.78,0,0,0,1.11-17.53c-3.24-4.82-9.29-6.93-15.59-5.49-4,.92-6.58,3.82-9.07,6.77-19.95,23.71-40,47.34-59.71,71.25-3.67,4.46-5.4,4.48-9.05.06-19.85-24.05-40-47.88-60.07-71.74-6.45-7.66-15.37-9.05-21.78-3.57s-6.57,14.07-.29,21.59q24.73,29.61,49.62,59.09Zm-91,171.49c.06,4.89,3.17,9.49,9.17,11.72s11.86.47,16.72-5.29c20.6-24.47,41.24-48.91,61.68-73.5,2.87-3.46,4.38-3.52,7.13,0,5.35,6.86,11.14,13.37,16.74,20q22.88,27.18,45.75,54.37a14.18,14.18,0,0,0,17,4c5.84-2.76,8.61-8.19,7.94-15-.41-4.14-2.89-7.05-5.34-10q-41.2-49.06-82.41-98.12c-2.66-3.19-3.94-3.11-6.56,0q-41.68,49.86-83.61,99.51A16.29,16.29,0,0,0,134.68,425.1ZM470.07,281.82a13.58,13.58,0,0,0-3.44-9.48q-32-38.16-64.09-76.23c-4.68-5.52-13.67-6.14-19.35-1.88a14,14,0,0,0-3.22,19,51.56,51.56,0,0,0,4.12,5.24c16.4,19.54,32.63,39.21,49.36,58.46,3.63,4.18,2.73,6.25-.34,9.83-17.23,20.16-34.24,40.5-51.25,60.84-6.06,7.24-5.67,15.75.7,21.1s14.94,4.42,20.94-2.66q31.59-37.31,62.95-74.81A14.72,14.72,0,0,0,470.07,281.82Zm97.45-90.15a12.8,12.8,0,0,0-10.93,5q-31.65,37.67-63.31,75.31c-5.28,6.31-5.3,13,0,19.33q31.5,37.78,63.26,75.36A13.66,13.66,0,0,0,566.4,372c6,.36,10.71-1.77,13.71-7.12,3.29-5.87,2.6-11.29-2.44-17.3q-25.93-31-52-61.78c-2.52-3-3-4.69-.15-7.92,8.49-9.51,16.5-19.45,24.7-29.21,9.38-11.17,18.81-22.28,28.11-33.5,3.93-4.74,5.09-10.07,2.22-15.82C577.9,194.1,573.68,191.47,567.52,191.67Zm-429.18,0c-6.33-.2-10.79,2.26-13.16,7.6-2.59,5.85-1.7,11.35,2.54,16.36,17.38,20.57,34.61,41.26,52.1,61.74,2.77,3.24,2.9,5.19,0,8.54q-26.24,30.7-52,61.82c-6,7.18-5.36,15.81.93,21.07s14.75,4.17,20.91-2.94c5.43-6.27,10.72-12.67,16.07-19q22.86-27.18,45.71-54.4c5.64-6.74,6.27-13.85,1.23-19.89q-31.68-38-63.67-75.81C146.15,193.28,142.52,191.35,138.34,191.67Zm97.59,90.24c-.48,4.7,2.1,8,4.89,11.35q30.12,35.79,60.17,71.61c6.51,7.77,15,9.38,21.76,4.1,5.88-4.57,6.76-15,.51-22.16-17.54-20.16-34.39-40.91-51.72-61.25-2.74-3.21-2.4-5,.17-8,17.34-20.33,34.49-40.82,51.67-61.29,6.11-7.27,5.86-16.27-.49-21.6-6.12-5.14-15-4.09-21,2.92q-31.4,37.09-62.56,74.36C236.9,274.83,235.52,278.06,235.93,281.91ZM225.81,478.85a28.35,28.35,0,0,0,28.45-28c.24-15.43-12.42-28.14-28.14-28.25a28.13,28.13,0,1,0-.31,56.26Zm.27-394.14c-15.94-.09-28.39,11.93-28.57,27.6A28.24,28.24,0,0,0,225.84,141a28.58,28.58,0,0,0,28.42-28.14C254.48,97.44,241.83,84.81,226.08,84.71Zm281.86,28.22c.08-16.11-11.72-28.1-27.76-28.22-16.21-.12-28.39,11.61-28.54,27.46-.15,16.1,12.22,28.78,28.09,28.81A28,28,0,0,0,507.94,112.93Zm0,338.1c.08-16-11.81-28.21-27.66-28.44s-28.48,11.81-28.64,27.48c-.16,16.22,12,28.73,28,28.78S507.86,466.76,507.94,451ZM113.06,253.65C97,253.59,85,265.37,84.88,281.42c-.12,16.24,12,28.53,28.2,28.5a28.29,28.29,0,0,0,28.17-28.21A28,28,0,0,0,113.06,253.65Zm239.78,0c-16,0-28,11.94-28.06,27.89s12,28.23,27.72,28.38a28.27,28.27,0,0,0,28.65-28.34A28,28,0,0,0,352.84,253.65Zm211.83,28c0,16,11.92,28.17,27.78,28.31a28.14,28.14,0,1,0,.19-56.27C576.54,253.66,564.7,265.49,564.67,281.61Z"/><path class="cls-1" d="M571.1,425.05c-.4,5-3.29,9.52-9.27,11.7-6.24,2.26-11.65.66-15.88-4.29-9.87-11.53-19.61-23.17-29.39-34.79-11.07-13.17-22.2-26.3-33.11-39.59-2.69-3.29-4.26-3.7-7.21-.14-19.77,23.84-39.74,47.5-59.65,71.23-3,3.58-6,7.21-10.91,8.25a14.48,14.48,0,0,1-15.19-6.53c-3.32-5.56-2.72-11.77,2-17.4q17.71-21.21,35.56-42.31c16.16-19.2,32.38-38.35,48.45-57.64,2.45-2.94,3.7-3.68,6.61-.18q41.4,49.68,83.18,99.05C569.09,415.77,571.23,419.29,571.1,425.05Z"/><path class="cls-1" d="M571.12,139.84c.13,4.1-1.73,7.4-4.26,10.41q-42,50-83.95,100c-2.7,3.23-4.06,2.58-6.4-.22q-41.7-49.82-83.54-99.53c-5.29-6.3-6-12.84-2.26-18.35,3.53-5.27,9.55-7.45,16-5.81,3.53.9,5.92,3.29,8.17,6,20.32,24.17,40.75,48.25,60.95,72.52,3,3.57,4.29,4.5,7.78.28,20.38-24.65,41.09-49,61.73-73.45,4.62-5.48,10.92-7.27,16.81-5A14.1,14.1,0,0,1,571.12,139.84Z"/><path class="cls-1" d="M225.7,253.61l-36.93-43.88q-24.83-29.53-49.62-59.09c-6.28-7.52-6.06-16.17.29-21.59s15.33-4.09,21.78,3.57c20.09,23.86,40.22,47.69,60.07,71.74,3.65,4.42,5.38,4.4,9.05-.06,19.71-23.91,39.76-47.54,59.71-71.25,2.49-3,5-5.85,9.07-6.77,6.3-1.44,12.35.67,15.59,5.49a14.78,14.78,0,0,1-1.11,17.53c-7.94,9.72-16.07,19.29-24.16,28.9Q258.72,214.68,228,251.13C227.32,251.87,226.64,252.58,225.7,253.61Z"/><path class="cls-1" d="M134.68,425.1a16.29,16.29,0,0,1,4.25-12.23q41.82-49.74,83.61-99.51c2.62-3.13,3.9-3.21,6.56,0q41.09,49.16,82.41,98.12c2.45,2.93,4.93,5.84,5.34,10,.67,6.78-2.1,12.21-7.94,15a14.18,14.18,0,0,1-17-4q-23-27.13-45.75-54.37c-5.6-6.67-11.39-13.18-16.74-20-2.75-3.53-4.26-3.47-7.13,0-20.44,24.59-41.08,49-61.68,73.5-4.86,5.76-10.69,7.54-16.72,5.29S134.74,430,134.68,425.1Z"/><path class="cls-1" d="M470.07,281.82a14.72,14.72,0,0,1-3.62,9.41Q435,328.64,403.5,366c-6,7.08-14.63,8-20.94,2.66s-6.76-13.86-.7-21.1c17-20.34,34-40.68,51.25-60.84,3.07-3.58,4-5.65.34-9.83-16.73-19.25-33-38.92-49.36-58.46a51.56,51.56,0,0,1-4.12-5.24,14,14,0,0,1,3.22-19c5.68-4.26,14.67-3.64,19.35,1.88q32.18,38,64.09,76.23A13.58,13.58,0,0,1,470.07,281.82Z"/><path class="cls-1" d="M567.52,191.67c6.16-.2,10.38,2.43,13,7.63,2.87,5.75,1.71,11.08-2.22,15.82-9.3,11.22-18.73,22.33-28.11,33.5-8.2,9.76-16.21,19.7-24.7,29.21-2.88,3.23-2.37,5,.15,7.92q26.19,30.75,52,61.78c5,6,5.73,11.43,2.44,17.3-3,5.35-7.74,7.48-13.71,7.12a13.66,13.66,0,0,1-9.86-5.32Q524.88,329,493.28,291.27c-5.3-6.36-5.28-13,0-19.33q31.54-37.75,63.31-75.31A12.8,12.8,0,0,1,567.52,191.67Z"/><path class="cls-1" d="M138.34,191.67c4.18-.32,7.81,1.61,10.71,5.06q31.88,37.88,63.67,75.81c5,6,4.41,13.15-1.23,19.89q-22.78,27.26-45.71,54.4c-5.35,6.36-10.64,12.76-16.07,19-6.16,7.11-14.59,8.23-20.91,2.94s-6.89-13.89-.93-21.07q25.8-31.08,52-61.82c2.86-3.35,2.73-5.3,0-8.54-17.49-20.48-34.72-41.17-52.1-61.74-4.24-5-5.13-10.51-2.54-16.36C127.55,193.93,132,191.47,138.34,191.67Z"/><path class="cls-1" d="M235.93,281.91c-.41-3.85,1-7.08,3.43-10q31.27-37.19,62.56-74.36c5.93-7,14.85-8.06,21-2.92,6.35,5.33,6.6,14.33.49,21.6-17.18,20.47-34.33,41-51.67,61.29-2.57,3-2.91,4.83-.17,8,17.33,20.34,34.18,41.09,51.72,61.25,6.25,7.19,5.37,17.59-.51,22.16-6.79,5.28-15.25,3.67-21.76-4.1Q271,329,240.82,293.26C238,290,235.45,286.61,235.93,281.91Z"/><path class="cls-1" d="M225.81,478.85a28.13,28.13,0,1,1,.31-56.26c15.72.11,28.38,12.82,28.14,28.25A28.35,28.35,0,0,1,225.81,478.85Z"/><path class="cls-1" d="M226.08,84.71c15.75.1,28.4,12.73,28.18,28.13A28.58,28.58,0,0,1,225.84,141a28.24,28.24,0,0,1-28.33-28.67C197.69,96.64,210.14,84.62,226.08,84.71Z"/><path class="cls-1" d="M507.94,112.93a28,28,0,0,1-28.21,28c-15.87,0-28.24-12.71-28.09-28.81.15-15.85,12.33-27.58,28.54-27.46C496.22,84.83,508,96.82,507.94,112.93Z"/><path class="cls-1" d="M507.94,451c-.08,15.73-12.44,27.87-28.32,27.82s-28.14-12.56-28-28.78c.16-15.67,12.71-27.71,28.64-27.48S508,435.05,507.94,451Z"/><path class="cls-1" d="M113.06,253.65a28,28,0,0,1,28.19,28.06,28.29,28.29,0,0,1-28.17,28.21c-16.16,0-28.32-12.26-28.2-28.5C85,265.37,97,253.59,113.06,253.65Z"/><path class="cls-1" d="M352.84,253.65a28,28,0,0,1,28.31,27.93,28.27,28.27,0,0,1-28.65,28.34c-15.75-.15-27.76-12.44-27.72-28.38S336.85,253.63,352.84,253.65Z"/><path class="cls-1" d="M564.67,281.61c0-16.12,11.87-28,28-28a28.14,28.14,0,1,1-.19,56.27C576.59,309.78,564.65,297.62,564.67,281.61Z"/></svg>