<svg xmlns="http://www.w3.org/2000/svg" viewBox="0 0 254.68 67.74"><defs><style>.cls-1{fill:#ffc629;}.cls-2{fill:#701c74;}.cls-3{fill:#6e2474;}</style></defs><g id="Capa_2" data-name="Capa 2"><g id="Capa_1-2" data-name="Capa 1"><g id="Simbolo"><polygon id="Contorno_Exterior" data-name="Contorno Exterior" class="cls-1" points="8.13 54.19 7.62 54.17 7.11 54.13 6.61 54.05 6.11 53.94 5.62 53.8 5.14 53.62 4.66 53.42 4.21 53.19 3.77 52.92 3.36 52.64 2.95 52.33 2.56 51.99 2.2 51.63 1.87 51.24 1.55 50.84 1.27 50.42 1.01 49.98 0.78 49.52 0.57 49.06 0.4 48.58 0.25 48.08 0.15 47.59 0.07 47.08 0.02 46.58 0 46.06 0 8.13 0.02 7.62 0.07 7.11 0.15 6.61 0.25 6.11 0.4 5.62 0.57 5.14 0.78 4.67 1.01 4.22 1.27 3.77 1.55 3.35 1.87 2.95 2.2 2.57 2.56 2.2 2.95 1.86 3.36 1.55 3.77 1.26 4.21 1 4.66 0.77 5.14 0.58 5.62 0.4 6.11 0.25 6.61 0.14 7.11 0.07 7.62 0.01 8.13 0 59.61 0 60.12 0.01 60.63 0.07 61.14 0.14 61.63 0.25 62.12 0.4 62.6 0.58 63.07 0.77 63.53 1 63.97 1.26 64.39 1.55 64.79 1.86 65.17 2.2 65.53 2.57 65.88 2.95 66.18 3.35 66.47 3.77 66.73 4.22 66.97 4.67 67.17 5.14 67.34 5.62 67.48 6.11 67.6 6.61 67.67 7.11 67.72 7.62 67.74 8.13 67.74 46.06 67.72 46.58 67.67 47.08 67.6 47.59 67.48 48.08 67.34 48.58 67.17 49.06 66.97 49.52 66.73 49.98 66.47 50.42 66.18 50.84 65.88 51.24 65.53 51.63 65.17 51.99 64.79 52.33 64.39 52.64 63.97 52.92 63.53 53.19 63.07 53.42 62.6 53.62 62.12 53.8 61.63 53.94 61.14 54.05 60.63 54.13 60.12 54.17 59.61 54.19 8.13 54.19"/><polygon id="Contorno_Interior" data-name="Contorno Interior" class="cls-2" points="2.71 8.13 2.73 7.7 2.78 7.28 2.86 6.87 2.98 6.46 3.12 6.05 3.3 5.67 3.51 5.3 3.74 4.94 4.01 4.61 4.29 4.3 4.61 4.01 4.95 3.74 5.29 3.51 5.67 3.3 6.06 3.12 6.45 2.98 6.87 2.86 7.28 2.78 7.71 2.73 8.13 2.71 59.61 2.71 60.04 2.73 60.46 2.78 60.88 2.86 61.28 2.98 61.69 3.12 62.07 3.3 62.44 3.51 62.79 3.74 63.13 4.01 63.44 4.3 63.73 4.61 63.99 4.94 64.23 5.3 64.44 5.67 64.62 6.05 64.76 6.46 64.88 6.87 64.96 7.28 65.02 7.7 65.03 8.13 65.03 46.06 65.02 46.49 64.96 46.91 64.88 47.33 64.76 47.74 64.62 48.13 64.44 48.52 64.23 48.89 63.99 49.25 63.73 49.59 63.44 49.9 63.13 50.19 62.79 50.45 62.44 50.69 62.07 50.9 61.69 51.07 61.28 51.22 60.88 51.33 60.46 51.41 60.04 51.47 59.61 51.48 8.13 51.48 7.71 51.47 7.28 51.41 6.87 51.33 6.45 51.22 6.06 51.07 5.67 50.9 5.29 50.69 4.95 50.45 4.61 50.19 4.29 49.9 4.01 49.59 3.74 49.25 3.51 48.89 3.3 48.52 3.12 48.13 2.98 47.74 2.86 47.33 2.78 46.91 2.73 46.49 2.71 46.06 2.71 8.13"/><g id="Círculos"><polygon id="Der" class="cls-1" points="59.61 27.1 59.6 27.38 59.55 27.66 59.48 27.94 59.38 28.2 59.25 28.45 59.1 28.69 58.92 28.9 58.72 29.11 58.49 29.29 58.26 29.45 58.01 29.57 57.74 29.67 57.47 29.75 57.19 29.79 56.9 29.81 56.62 29.79 56.35 29.75 56.07 29.67 55.8 29.57 55.55 29.45 55.31 29.29 55.09 29.11 54.89 28.9 54.72 28.69 54.56 28.45 54.42 28.2 54.32 27.94 54.25 27.66 54.21 27.38 54.2 27.1 54.21 26.82 54.25 26.53 54.32 26.26 54.42 26 54.56 25.74 54.72 25.5 54.89 25.28 55.09 25.08 55.31 24.9 55.55 24.75 55.8 24.62 56.07 24.53 56.35 24.44 56.62 24.4 56.9 24.39 57.19 24.4 57.47 24.44 57.74 24.53 58.01 24.62 58.26 24.75 58.49 24.9 58.72 25.08 58.92 25.28 59.1 25.5 59.25 25.74 59.38 26 59.48 26.26 59.55 26.53 59.6 26.82 59.61 27.1 59.61 27.1"/><polygon id="Sup_Der" data-name="Sup Der" class="cls-1" points="48.78 10.84 48.76 10.56 48.72 10.28 48.65 10 48.55 9.74 48.41 9.48 48.26 9.24 48.08 9.03 47.88 8.82 47.66 8.64 47.42 8.49 47.17 8.36 46.9 8.27 46.63 8.19 46.35 8.14 46.06 8.13 45.78 8.14 45.5 8.19 45.23 8.27 44.96 8.36 44.72 8.49 44.47 8.64 44.25 8.82 44.06 9.03 43.88 9.24 43.72 9.48 43.6 9.74 43.49 10 43.42 10.28 43.37 10.56 43.36 10.84 43.37 11.12 43.42 11.4 43.49 11.68 43.6 11.94 43.72 12.19 43.88 12.43 44.06 12.65 44.25 12.85 44.47 13.03 44.72 13.19 44.96 13.31 45.23 13.42 45.5 13.49 45.78 13.53 46.06 13.55 46.35 13.53 46.63 13.49 46.9 13.42 47.17 13.31 47.42 13.19 47.66 13.03 47.88 12.85 48.08 12.65 48.26 12.43 48.41 12.19 48.55 11.94 48.65 11.68 48.72 11.4 48.76 11.12 48.78 10.84 48.78 10.84"/><polygon id="Inf_Der" data-name="Inf Der" class="cls-1" points="48.78 43.35 48.76 43.08 48.72 42.79 48.65 42.51 48.55 42.25 48.41 42 48.26 41.77 48.08 41.54 47.88 41.34 47.66 41.16 47.42 41.01 47.17 40.87 46.9 40.77 46.63 40.71 46.35 40.66 46.06 40.65 45.78 40.66 45.5 40.71 45.23 40.77 44.96 40.87 44.72 41.01 44.47 41.16 44.25 41.34 44.06 41.54 43.88 41.77 43.72 42 43.6 42.25 43.49 42.51 43.42 42.79 43.37 43.08 43.36 43.35 43.37 43.64 43.42 43.92 43.49 44.19 43.6 44.46 43.72 44.71 43.88 44.94 44.06 45.16 44.25 45.37 44.47 45.54 44.72 45.7 44.96 45.83 45.23 45.93 45.5 46 45.78 46.04 46.06 46.06 46.35 46.04 46.63 46 46.9 45.93 47.17 45.83 47.42 45.7 47.66 45.54 47.88 45.37 48.08 45.16 48.26 44.94 48.41 44.71 48.55 44.46 48.65 44.19 48.72 43.92 48.76 43.64 48.78 43.35 48.78 43.35"/><polygon id="Izq" class="cls-1" points="13.55 27.1 13.53 26.82 13.49 26.53 13.42 26.26 13.31 26 13.19 25.74 13.03 25.5 12.86 25.28 12.65 25.08 12.44 24.9 12.19 24.75 11.94 24.62 11.68 24.53 11.4 24.44 11.13 24.4 10.84 24.39 10.56 24.4 10.28 24.44 10 24.53 9.74 24.62 9.48 24.75 9.25 24.9 9.03 25.08 8.83 25.28 8.65 25.5 8.49 25.74 8.36 26 8.26 26.26 8.19 26.53 8.15 26.82 8.13 27.1 8.15 27.38 8.19 27.66 8.26 27.94 8.36 28.2 8.49 28.45 8.65 28.69 8.83 28.9 9.03 29.11 9.25 29.29 9.48 29.45 9.74 29.57 10 29.67 10.28 29.75 10.56 29.79 10.84 29.81 11.13 29.79 11.4 29.75 11.68 29.67 11.94 29.57 12.19 29.45 12.44 29.29 12.65 29.11 12.86 28.9 13.03 28.69 13.19 28.45 13.31 28.2 13.42 27.94 13.49 27.66 13.53 27.38 13.55 27.1 13.55 27.1"/><polygon id="Sup_Izq" data-name="Sup Izq" class="cls-1" points="24.39 10.84 24.38 10.56 24.33 10.28 24.25 10 24.15 9.74 24.03 9.48 23.88 9.24 23.7 9.03 23.49 8.82 23.27 8.64 23.03 8.49 22.78 8.36 22.52 8.27 22.24 8.19 21.96 8.14 21.68 8.13 21.4 8.14 21.11 8.19 20.84 8.27 20.58 8.36 20.33 8.49 20.08 8.64 19.86 8.82 19.66 9.03 19.48 9.24 19.33 9.48 19.21 9.74 19.11 10 19.03 10.28 18.99 10.56 18.97 10.84 18.99 11.12 19.03 11.4 19.11 11.68 19.21 11.94 19.33 12.19 19.48 12.43 19.66 12.65 19.86 12.85 20.08 13.03 20.33 13.19 20.58 13.31 20.84 13.42 21.11 13.49 21.4 13.53 21.68 13.55 21.96 13.53 22.24 13.49 22.52 13.42 22.78 13.31 23.03 13.19 23.27 13.03 23.49 12.85 23.7 12.65 23.88 12.43 24.03 12.19 24.15 11.94 24.25 11.68 24.33 11.4 24.38 11.12 24.39 10.84 24.39 10.84"/><polygon id="Inf_Izq" data-name="Inf Izq" class="cls-1" points="24.39 43.35 24.38 43.08 24.33 42.79 24.25 42.51 24.15 42.25 24.03 42 23.88 41.77 23.7 41.54 23.49 41.34 23.27 41.16 23.03 41.01 22.78 40.87 22.52 40.77 22.24 40.71 21.96 40.66 21.68 40.65 21.4 40.66 21.11 40.71 20.84 40.77 20.58 40.87 20.33 41.01 20.08 41.16 19.86 41.34 19.66 41.54 19.48 41.77 19.33 42 19.21 42.25 19.11 42.51 19.03 42.79 18.99 43.08 18.97 43.35 18.99 43.64 19.03 43.92 19.11 44.19 19.21 44.46 19.33 44.71 19.48 44.94 19.66 45.16 19.86 45.37 20.08 45.54 20.33 45.7 20.58 45.83 20.84 45.93 21.11 46 21.4 46.04 21.68 46.06 21.96 46.04 22.24 46 22.52 45.93 22.78 45.83 23.03 45.7 23.27 45.54 23.49 45.37 23.7 45.16 23.88 44.94 24.03 44.71 24.15 44.46 24.25 44.19 24.33 43.92 24.38 43.64 24.39 43.35 24.39 43.35"/><polygon id="Centro" class="cls-1" points="36.58 27.1 36.57 26.82 36.53 26.53 36.45 26.26 36.35 26 36.22 25.74 36.06 25.5 35.89 25.28 35.69 25.08 35.47 24.9 35.23 24.75 34.98 24.62 34.71 24.53 34.43 24.44 34.16 24.4 33.87 24.39 33.59 24.4 33.31 24.44 33.04 24.53 32.77 24.62 32.52 24.75 32.28 24.9 32.06 25.08 31.86 25.28 31.68 25.5 31.53 25.74 31.4 26 31.3 26.26 31.23 26.53 31.18 26.82 31.17 27.1 31.18 27.38 31.23 27.66 31.3 27.94 31.4 28.2 31.53 28.45 31.68 28.69 31.86 28.9 32.06 29.11 32.28 29.29 32.52 29.45 32.77 29.57 33.04 29.67 33.31 29.75 33.59 29.79 33.87 29.81 34.16 29.79 34.43 29.75 34.71 29.67 34.98 29.57 35.23 29.45 35.47 29.29 35.69 29.11 35.89 28.9 36.06 28.69 36.22 28.45 36.35 28.2 36.45 27.94 36.53 27.66 36.57 27.38 36.58 27.1 36.58 27.1"/></g><g id="Lineas"><g id="Lineas_Der" data-name="Lineas Der"><polyline id="Izq-2" data-name="Izq" class="cls-1" points="36.58 20.64 42 27.1 36.58 33.55 36.46 33.73 36.37 33.91 36.3 34.12 36.27 34.33 36.27 34.54 36.31 34.75 36.38 34.95 36.47 35.14 36.6 35.31 36.75 35.46 36.92 35.59 37.11 35.68 37.31 35.75 37.53 35.77 37.74 35.77 37.95 35.75 38.15 35.67 38.34 35.57 38.51 35.45 38.66 35.29 44.81 27.97 44.93 27.8 45.02 27.61 45.09 27.41 45.13 27.2 45.13 26.99 45.09 26.79 45.02 26.58 44.93 26.4 44.81 26.22 38.66 18.9 38.51 18.74 38.34 18.61 38.15 18.52 37.95 18.45 37.74 18.42 37.53 18.42 37.31 18.45 37.11 18.51 36.92 18.61 36.75 18.73 36.6 18.88 36.47 19.05 36.38 19.23 36.31 19.44 36.27 19.64 36.27 19.86 36.3 20.07 36.37 20.28 36.46 20.46 36.58 20.64"/><polyline id="Inf" class="cls-1" points="37.62 39.88 37.5 40.04 37.4 40.23 37.34 40.44 37.3 40.65 37.31 40.86 37.34 41.07 37.41 41.27 37.51 41.46 37.63 41.63 37.79 41.78 37.96 41.9 38.15 42 38.36 42.06 38.56 42.09 38.78 42.09 38.99 42.06 39.19 41.98 39.38 41.89 39.55 41.77 39.7 41.61 46.06 34.02 52.44 41.61 52.59 41.77 52.76 41.89 52.95 41.98 53.15 42.06 53.36 42.09 53.57 42.09 53.78 42.06 53.98 42 54.17 41.9 54.35 41.78 54.5 41.63 54.63 41.46 54.73 41.27 54.79 41.07 54.83 40.86 54.83 40.65 54.79 40.44 54.73 40.23 54.64 40.04 54.52 39.88 46.06 29.81 37.62 39.88"/><polyline id="Der-2" data-name="Der" class="cls-1" points="55.55 20.64 50.13 27.1 55.55 33.55 55.67 33.73 55.77 33.91 55.83 34.12 55.86 34.33 55.86 34.54 55.83 34.75 55.76 34.95 55.66 35.14 55.54 35.31 55.39 35.46 55.21 35.59 55.02 35.68 54.83 35.75 54.61 35.77 54.39 35.77 54.19 35.75 53.98 35.67 53.8 35.57 53.62 35.45 53.47 35.29 47.32 27.97 47.2 27.8 47.11 27.61 47.05 27.41 47.01 27.2 47.01 26.99 47.05 26.79 47.11 26.58 47.2 26.4 47.32 26.22 53.47 18.9 53.62 18.74 53.8 18.61 53.98 18.52 54.19 18.45 54.39 18.42 54.61 18.42 54.83 18.45 55.02 18.51 55.21 18.61 55.39 18.73 55.54 18.88 55.66 19.05 55.76 19.23 55.83 19.44 55.86 19.64 55.86 19.86 55.83 20.07 55.77 20.28 55.67 20.46 55.55 20.64"/><polyline id="Sup" class="cls-1" points="37.62 14.32 37.5 14.14 37.4 13.96 37.34 13.76 37.3 13.54 37.31 13.34 37.34 13.12 37.41 12.92 37.51 12.73 37.63 12.56 37.79 12.41 37.96 12.29 38.15 12.19 38.36 12.13 38.56 12.1 38.78 12.1 38.99 12.14 39.19 12.21 39.38 12.3 39.55 12.44 39.7 12.58 46.06 20.17 52.44 12.58 52.59 12.44 52.76 12.3 52.95 12.21 53.15 12.14 53.36 12.1 53.57 12.1 53.78 12.13 53.98 12.19 54.17 12.29 54.35 12.41 54.5 12.56 54.63 12.73 54.73 12.92 54.79 13.12 54.83 13.34 54.83 13.54 54.79 13.76 54.73 13.96 54.64 14.14 54.52 14.32 46.06 24.39 37.62 14.32"/></g><g id="Lineas_Izq" data-name="Lineas Izq"><polyline id="Izq-3" data-name="Izq" class="cls-1" points="12.2 20.64 17.62 27.1 12.2 33.55 12.07 33.73 11.98 33.91 11.91 34.12 11.88 34.33 11.88 34.54 11.92 34.75 11.99 34.95 12.08 35.14 12.21 35.31 12.36 35.46 12.53 35.59 12.73 35.68 12.93 35.75 13.14 35.77 13.35 35.77 13.56 35.74 13.76 35.67 13.96 35.57 14.12 35.45 14.27 35.29 20.42 27.96 20.54 27.8 20.64 27.61 20.7 27.41 20.73 27.2 20.73 26.99 20.7 26.79 20.64 26.58 20.54 26.4 20.42 26.22 14.27 18.9 14.12 18.74 13.96 18.61 13.76 18.52 13.56 18.45 13.35 18.42 13.14 18.42 12.93 18.45 12.73 18.51 12.53 18.61 12.36 18.73 12.21 18.88 12.08 19.05 11.99 19.23 11.92 19.44 11.88 19.64 11.88 19.86 11.91 20.07 11.98 20.27 12.07 20.46 12.2 20.64"/><polyline id="Inf-2" data-name="Inf" class="cls-1" points="13.24 39.88 13.12 40.04 13.02 40.23 12.95 40.44 12.92 40.65 12.92 40.86 12.95 41.07 13.03 41.27 13.12 41.46 13.25 41.63 13.4 41.78 13.57 41.9 13.76 42 13.97 42.06 14.18 42.09 14.39 42.09 14.6 42.06 14.8 41.98 14.99 41.89 15.16 41.77 15.31 41.61 21.68 34.02 28.05 41.61 28.2 41.77 28.37 41.89 28.56 41.98 28.76 42.06 28.97 42.09 29.18 42.09 29.39 42.06 29.6 42 29.79 41.9 29.96 41.78 30.11 41.63 30.24 41.46 30.34 41.27 30.4 41.07 30.44 40.86 30.44 40.65 30.41 40.44 30.35 40.23 30.25 40.04 30.13 39.88 21.68 29.81 13.24 39.88"/><polyline id="Der-3" data-name="Der" class="cls-1" points="31.17 20.64 25.75 27.1 31.17 33.55 31.29 33.73 31.38 33.91 31.45 34.12 31.48 34.33 31.48 34.54 31.44 34.75 31.38 34.95 31.28 35.14 31.15 35.31 31 35.46 30.83 35.59 30.64 35.68 30.43 35.75 30.22 35.77 30.01 35.77 29.8 35.74 29.6 35.67 29.41 35.57 29.23 35.45 29.09 35.29 22.94 27.96 22.82 27.8 22.72 27.61 22.66 27.41 22.63 27.2 22.63 26.99 22.66 26.79 22.72 26.58 22.82 26.4 22.94 26.22 29.09 18.9 29.23 18.74 29.41 18.61 29.6 18.52 29.8 18.45 30.01 18.42 30.22 18.42 30.43 18.45 30.64 18.51 30.83 18.61 31 18.73 31.15 18.88 31.28 19.05 31.38 19.23 31.44 19.44 31.48 19.64 31.48 19.86 31.45 20.07 31.38 20.27 31.29 20.46 31.17 20.64"/><polyline id="Sup-2" data-name="Sup" class="cls-1" points="13.24 14.32 13.12 14.14 13.02 13.96 12.95 13.76 12.92 13.54 12.92 13.34 12.95 13.12 13.03 12.92 13.12 12.73 13.25 12.56 13.4 12.41 13.57 12.29 13.76 12.19 13.97 12.13 14.18 12.1 14.39 12.1 14.6 12.14 14.8 12.21 14.99 12.3 15.16 12.43 15.31 12.58 21.68 20.17 28.05 12.58 28.2 12.43 28.37 12.3 28.56 12.21 28.76 12.14 28.97 12.1 29.18 12.1 29.39 12.13 29.6 12.19 29.79 12.29 29.96 12.41 30.11 12.56 30.24 12.73 30.34 12.92 30.4 13.12 30.44 13.34 30.44 13.54 30.41 13.76 30.35 13.96 30.25 14.14 30.13 14.32 21.68 24.39 13.24 14.32"/></g></g></g><path class="cls-3" d="M84.73,36.22l-3.1,14.26h-5.3L87.21,2.89h6L103.8,50.48H98.43l-3.1-14.26Zm9.82-4.38L92.08,19.77c-.71-3.39-1.34-7.35-1.91-10.88H90c-.56,3.61-1.27,7.7-2,10.88L85.51,31.84Z"/><path class="cls-3" d="M138.05,30c-.36-6.29-.72-13.28-.5-18.64h-.28c-1.06,5.3-2.33,10.94-3.81,16.52L127.67,50.2h-3.54l-5.5-21.39c-1.63-6.08-3-11.94-4-17.44h-.21c.07,5.58-.28,12.21-.57,19L113,50.48H108.1l2.83-47.59h5.93l5.51,21.75c1.62,6.28,2.83,11,3.81,16.38h.22c.91-5.43,2-10,3.52-16.38l5.37-21.75h6.07l2.75,47.59H139Z"/><path class="cls-3" d="M156.89,2.89V34.81c0,8.54,2.9,11.44,6.43,11.44,4,0,6.64-3.11,6.64-11.44V2.89h5.43V34c0,12.36-5.08,17.09-12.14,17.09s-11.79-4.66-11.79-16.45V2.89Z"/><path class="cls-3" d="M204.62,49.64a15.45,15.45,0,0,1-6.84,1.27c-9.26,0-16-7.48-16-23.65,0-18.79,9.32-24.79,16.87-24.79,2.83,0,4.95.57,5.86,1.21l-1.2,4.58a10.11,10.11,0,0,0-4.73-1c-5.08,0-11.09,5-11.09,19.49S192.9,46.1,198.77,46.1a12.8,12.8,0,0,0,4.94-1Z"/><path class="cls-3" d="M209.07,44.2a13.62,13.62,0,0,0,6.78,1.9c5,0,8-3.24,8-8.05,0-4.37-2.55-7-6.28-9.88-3.82-2.61-9-7.06-9-13.2,0-7.2,5-12.5,12.56-12.5a12.06,12.06,0,0,1,6.64,1.77l-1.27,4.65a10,10,0,0,0-5.65-1.62,6.58,6.58,0,0,0-6.92,6.78c0,4.73,2.47,6.57,7,9.81,5.72,4,8.26,8.41,8.26,13.7,0,8.19-5.72,13.35-13.34,13.35-3.25,0-6.64-1.06-8-2Z"/><path class="cls-3" d="M234.56,44.2a13.62,13.62,0,0,0,6.78,1.9c5,0,8-3.24,8-8.05,0-4.37-2.55-7-6.29-9.88-3.81-2.61-9-7.06-9-13.2,0-7.2,5-12.5,12.58-12.5a12,12,0,0,1,6.62,1.77L252,8.89a10,10,0,0,0-5.66-1.62,6.58,6.58,0,0,0-6.91,6.78c0,4.73,2.47,6.57,7,9.81,5.72,4,8.26,8.41,8.26,13.7,0,8.19-5.72,13.35-13.34,13.35-3.25,0-6.64-1.06-8-2Z"/><path class="cls-3" d="M2.15,65l-.57,2.61h-1l2-8.71H3.7l1.94,8.71h-1L4.09,65ZM4,64.22,3.5,62c-.13-.62-.25-1.34-.36-2h0c-.1.66-.23,1.41-.36,2l-.45,2.2Z"/><path class="cls-3" d="M6.52,66.6a1.92,1.92,0,0,0,1,.33A.85.85,0,0,0,8.44,66c0-.48-.16-.79-.8-1.23A2.14,2.14,0,0,1,6.39,63,1.67,1.67,0,0,1,8.11,61.3a2.16,2.16,0,0,1,1.11.31L9,62.37a1.42,1.42,0,0,0-.84-.29.77.77,0,0,0-.8.8c0,.42.16.65.77,1.08a2.27,2.27,0,0,1,1.3,1.9A1.75,1.75,0,0,1,7.5,67.71a2.06,2.06,0,0,1-1.23-.36Z"/><path class="cls-3" d="M14.26,64.51c0,2.42-1.11,3.23-2.08,3.23-1.13,0-2-1-2-3.21s1-3.23,2.09-3.23S14.26,62.34,14.26,64.51Zm-3.11,0c0,1,.18,2.45,1.08,2.45s1-1.46,1-2.45-.19-2.43-1.07-2.43S11.15,63.56,11.15,64.51Z"/><path class="cls-3" d="M18.42,67.48a2.12,2.12,0,0,1-1,.23c-1.37,0-2.29-1.1-2.29-3.16,0-1.8.9-3.25,2.47-3.25a2,2,0,0,1,.88.19l-.2.81a1.54,1.54,0,0,0-.71-.16c-1,0-1.44,1.18-1.44,2.41,0,1.46.55,2.34,1.47,2.34a1.43,1.43,0,0,0,.71-.17Z"/><path class="cls-3" d="M20.35,59.77a.59.59,0,1,1-.6-.64A.59.59,0,0,1,20.35,59.77Zm-1.08,7.87V61.38h1v6.26Z"/><path class="cls-3" d="M25,66.21A12.8,12.8,0,0,0,25,67.64h-.89L24.05,67h0a1.42,1.42,0,0,1-1.25.76A1.58,1.58,0,0,1,21.29,66c0-1.57,1.25-2.26,2.66-2.27v-.2c0-.84-.22-1.41-1-1.41a1.79,1.79,0,0,0-1,.33l-.21-.7a2.69,2.69,0,0,1,1.45-.41c1.25,0,1.79.81,1.79,2.21ZM24,64.4c-.52,0-1.72.1-1.72,1.46,0,.82.41,1.1.76,1.1s.8-.32.91-.94a1.49,1.49,0,0,0,.05-.36Z"/><path class="cls-3" d="M29.4,67.48a2.09,2.09,0,0,1-1,.23c-1.37,0-2.28-1.1-2.28-3.16,0-1.8.9-3.25,2.46-3.25a1.92,1.92,0,0,1,.88.19l-.19.81a1.61,1.61,0,0,0-.71-.16c-1,0-1.45,1.18-1.45,2.41,0,1.46.56,2.34,1.47,2.34a1.43,1.43,0,0,0,.71-.17Z"/><path class="cls-3" d="M31.33,59.77a.59.59,0,1,1-1.18,0,.6.6,0,0,1,.58-.64A.58.58,0,0,1,31.33,59.77Zm-1.07,7.87V61.38h1v6.26Z"/><path class="cls-3" d="M36.47,64.51c0,2.42-1.11,3.23-2.08,3.23s-2-1-2-3.21,1-3.23,2.1-3.23S36.47,62.34,36.47,64.51Zm-3.11,0c0,1,.18,2.45,1.08,2.45s1-1.46,1-2.45-.19-2.43-1.06-2.43S33.36,63.56,33.36,64.51Zm2.58-5.68-1.36,1.75h-.66l1-1.75Z"/><path class="cls-3" d="M37.58,63c0-.74,0-1.11,0-1.62h.87l.05.77h0a1.56,1.56,0,0,1,1.43-.85c.87,0,1.51.63,1.51,2.14v4.2h-1v-4c0-.75-.13-1.48-.86-1.48-.42,0-.81.34-.93,1a2.42,2.42,0,0,0-.05.57v3.93h-1Z"/><path class="cls-3" d="M50.19,63.89c-.06-1.15-.13-2.43-.09-3.41h-.05c-.19,1-.42,2-.7,3L48.3,67.59h-.65l-1-3.92c-.29-1.11-.54-2.18-.72-3.19h0c0,1-.05,2.23-.1,3.48l-.17,3.68h-.89l.51-8.71h1.09l1,4c.3,1.15.53,2,.71,3h0c.17-1,.36-1.81.65-3l1-4H50.8l.51,8.71h-.93Z"/><path class="cls-3" d="M53.28,64.61c0,1.92.76,2.32,1.48,2.32a2.2,2.2,0,0,0,1-.24l.17.73a3.28,3.28,0,0,1-1.39.29c-1.5,0-2.27-1.22-2.27-3.13s.87-3.28,2.12-3.28S56.2,62.64,56.2,64a4.51,4.51,0,0,1,0,.58Zm2-.74c0-1.24-.46-1.8-.94-1.8-.65,0-1,.94-1,1.8Z"/><path class="cls-3" d="M57.74,61.38l.57,1.35c.15.36.28.72.42,1.08h0c.13-.38.28-.74.41-1.08l.56-1.35h1l-1.49,3.09,1.47,3.17H59.66l-.59-1.43a11.08,11.08,0,0,1-.41-1.07h0c-.12.39-.26.73-.4,1.09l-.58,1.41h-1l1.49-3.14-1.46-3.12Z"/><path class="cls-3" d="M62.65,59.77a.59.59,0,1,1-.6-.64A.59.59,0,0,1,62.65,59.77Zm-1.07,7.87V61.38h1v6.26Z"/><path class="cls-3" d="M67,67.48a2.06,2.06,0,0,1-1,.23c-1.37,0-2.28-1.1-2.28-3.16,0-1.8.9-3.25,2.46-3.25a1.92,1.92,0,0,1,.88.19l-.19.81a1.58,1.58,0,0,0-.71-.16c-1,0-1.45,1.18-1.45,2.41,0,1.46.56,2.34,1.47,2.34a1.45,1.45,0,0,0,.72-.17Z"/><path class="cls-3" d="M71.18,66.21a12.68,12.68,0,0,0,.07,1.43h-.89L70.29,67h0a1.41,1.41,0,0,1-1.25.76A1.58,1.58,0,0,1,67.53,66c0-1.57,1.25-2.26,2.66-2.27v-.2c0-.84-.22-1.41-1-1.41a1.78,1.78,0,0,0-1,.33l-.22-.7a2.76,2.76,0,0,1,1.46-.41c1.26,0,1.78.81,1.78,2.21Zm-1-1.81c-.52,0-1.72.1-1.72,1.46,0,.82.41,1.1.76,1.1s.8-.32.92-.94a2.2,2.2,0,0,0,0-.36Z"/><path class="cls-3" d="M72.59,63c0-.74,0-1.11,0-1.62h.86l0,.77h0a1.56,1.56,0,0,1,1.43-.85c.87,0,1.51.63,1.51,2.14v4.2h-1v-4c0-.75-.14-1.48-.87-1.48-.41,0-.81.34-.93,1a2.42,2.42,0,0,0,0,.57v3.93h-1Z"/><path class="cls-3" d="M81.12,66.21a10.7,10.7,0,0,0,.07,1.43h-.9L80.23,67h0a1.42,1.42,0,0,1-1.26.76A1.58,1.58,0,0,1,77.47,66c0-1.57,1.25-2.26,2.66-2.27v-.2c0-.84-.22-1.41-1-1.41a1.76,1.76,0,0,0-1,.33l-.22-.7a2.76,2.76,0,0,1,1.46-.41c1.25,0,1.78.81,1.78,2.21Zm-1-1.81c-.52,0-1.72.1-1.72,1.46,0,.82.4,1.1.76,1.1s.8-.32.91-.94a1.49,1.49,0,0,0,0-.36Z"/><path class="cls-3" d="M88.32,58.7v7.43c0,.43,0,1.14.05,1.51h-.86l-.06-.78h0a1.47,1.47,0,0,1-1.33.88c-1,0-1.8-1.14-1.8-3.21s.91-3.23,1.87-3.23a1.2,1.2,0,0,1,1.15.73h0V58.7Zm-1,5.07c0-.12,0-.28,0-.41-.06-.66-.45-1.21-.92-1.21-.84,0-1.12,1.15-1.12,2.38s.34,2.38,1.06,2.38c.32,0,.74-.16,1-1.07a2.46,2.46,0,0,0,0-.41Z"/><path class="cls-3" d="M90.41,64.61c0,1.92.76,2.32,1.48,2.32a2.23,2.23,0,0,0,1-.24l.17.73a3.24,3.24,0,0,1-1.39.29c-1.49,0-2.27-1.22-2.27-3.13s.86-3.28,2.12-3.28,1.78,1.34,1.78,2.73c0,.25,0,.42,0,.58Zm2-.74c0-1.24-.46-1.8-.93-1.8-.67,0-1,.94-1,1.8Z"/><path class="cls-3" d="M97.49,58.93v5.84c0,1.56.53,2.09,1.18,2.09s1.22-.57,1.22-2.09V58.93h1v5.68c0,2.26-.93,3.13-2.23,3.13s-2.15-.85-2.15-3v-5.8Z"/><path class="cls-3" d="M102.34,63c0-.74,0-1.11-.06-1.62h.87l0,.77h0a1.58,1.58,0,0,1,1.43-.85c.87,0,1.51.63,1.51,2.14v4.2h-1v-4c0-.75-.14-1.48-.87-1.48-.41,0-.81.34-.92,1a2.42,2.42,0,0,0,0,.57v3.93h-1Z"/><path class="cls-3" d="M108.64,59.77a.59.59,0,1,1-1.17,0,.6.6,0,0,1,.58-.64A.58.58,0,0,1,108.64,59.77Zm-1.06,7.87V61.38h1v6.26Z"/><path class="cls-3" d="M113.79,64.51c0,2.42-1.12,3.23-2.08,3.23-1.12,0-2-1-2-3.21s1-3.23,2.09-3.23S113.79,62.34,113.79,64.51Zm-3.12,0c0,1,.19,2.45,1.09,2.45s1-1.46,1-2.45-.18-2.43-1.06-2.43S110.67,63.56,110.67,64.51Z"/><path class="cls-3" d="M114.9,63c0-.74,0-1.11-.06-1.62h.87l.05.77h0a1.58,1.58,0,0,1,1.43-.85c.87,0,1.52.63,1.52,2.14v4.2h-1v-4c0-.75-.14-1.48-.87-1.48-.41,0-.81.34-.93,1a3.1,3.1,0,0,0,0,.57v3.93h-1Z"/><path class="cls-3" d="M120.83,64.61c0,1.92.76,2.32,1.47,2.32a2.17,2.17,0,0,0,1-.24l.17.73a3.23,3.23,0,0,1-1.38.29c-1.5,0-2.27-1.22-2.27-3.13s.86-3.28,2.11-3.28,1.78,1.34,1.78,2.73a4.8,4.8,0,0,1,0,.58Zm2-.74c0-1.24-.45-1.8-.93-1.8-.66,0-1,.94-1,1.8Z"/><path class="cls-3" d="M124.65,66.6a1.92,1.92,0,0,0,1,.33.85.85,0,0,0,.92-.91c0-.48-.17-.79-.8-1.23A2.13,2.13,0,0,1,124.52,63a1.67,1.67,0,0,1,1.72-1.73,2.16,2.16,0,0,1,1.11.31l-.26.76a1.39,1.39,0,0,0-.83-.29.77.77,0,0,0-.81.8c0,.42.16.65.77,1.08a2.27,2.27,0,0,1,1.3,1.9,1.75,1.75,0,0,1-1.89,1.85,2.05,2.05,0,0,1-1.22-.36Z"/><path class="cls-3" d="M134.35,58.7v7.43c0,.43,0,1.14,0,1.51h-.85l-.06-.78h0a1.46,1.46,0,0,1-1.32.88c-1,0-1.81-1.14-1.81-3.21s.92-3.23,1.88-3.23a1.19,1.19,0,0,1,1.14.73h0V58.7Zm-1,5.07v-.41c-.08-.66-.47-1.21-1-1.21-.82,0-1.1,1.15-1.1,2.38s.34,2.38,1.06,2.38c.3,0,.73-.16.95-1.07a1.3,1.3,0,0,0,0-.41Z"/><path class="cls-3" d="M136.44,64.61c0,1.92.76,2.32,1.47,2.32a2.2,2.2,0,0,0,1-.24l.17.73a3.23,3.23,0,0,1-1.38.29c-1.5,0-2.28-1.22-2.28-3.13s.87-3.28,2.13-3.28,1.78,1.34,1.78,2.73a4.51,4.51,0,0,1,0,.58Zm2-.74c0-1.24-.45-1.8-.93-1.8-.66,0-1,.94-1,1.8Z"/><path class="cls-3" d="M146.35,67.48a2.74,2.74,0,0,1-1.26.23c-1.69,0-2.91-1.36-2.91-4.32,0-3.44,1.7-4.53,3.08-4.53a2.23,2.23,0,0,1,1.08.21l-.23.84a1.81,1.81,0,0,0-.86-.18c-.93,0-2,.91-2,3.57s1,3.54,2.05,3.54a2.26,2.26,0,0,0,.9-.18Z"/><path class="cls-3" d="M147.21,63c0-.53,0-1.15-.05-1.62h.9l0,1h0a1.53,1.53,0,0,1,1.32-1.08h.21v1h-.21a1.36,1.36,0,0,0-1.21,1.29,4.73,4.73,0,0,0,0,.56v3.47h-1Z"/><path class="cls-3" d="M151,64.61c0,1.92.76,2.32,1.48,2.32a2.16,2.16,0,0,0,1-.24l.18.73a3.28,3.28,0,0,1-1.39.29c-1.5,0-2.27-1.22-2.27-3.13s.86-3.28,2.12-3.28,1.78,1.34,1.78,2.73a4.51,4.51,0,0,1,0,.58Zm2-.74c0-1.24-.45-1.8-.93-1.8-.66,0-1,.94-1,1.8Zm.7-5-1.36,1.75h-.66l1-1.75Z"/><path class="cls-3" d="M158.7,58.7v7.43c0,.43,0,1.14.05,1.51h-.86l-.06-.78h0a1.44,1.44,0,0,1-1.31.88c-1,0-1.81-1.14-1.81-3.21s.92-3.23,1.87-3.23a1.22,1.22,0,0,1,1.16.73h0V58.7Zm-1,5.07v-.41c-.07-.66-.45-1.21-.93-1.21-.83,0-1.11,1.15-1.11,2.38s.33,2.38,1.05,2.38c.31,0,.74-.16,1-1.07a1.71,1.71,0,0,0,0-.41Z"/><path class="cls-3" d="M161.17,59.77a.59.59,0,1,1-.6-.64A.59.59,0,0,1,161.17,59.77Zm-1.07,7.87V61.38h1v6.26Z"/><path class="cls-3" d="M163.69,59.92v1.46h1.2v.76h-1.2v3.72c0,.81.28,1,.65,1a2,2,0,0,0,.39,0l.06.76a2.09,2.09,0,0,1-.74.1,1.26,1.26,0,0,1-1-.37,2.27,2.27,0,0,1-.37-1.58V62.14h-.76v-.76h.76V60.33Z"/><path class="cls-3" d="M169.5,64.51c0,2.42-1.11,3.23-2.08,3.23s-2-1-2-3.21,1-3.23,2.09-3.23S169.5,62.34,169.5,64.51Zm-3.11,0c0,1,.18,2.45,1.08,2.45s1-1.46,1-2.45-.18-2.43-1.06-2.43S166.39,63.56,166.39,64.51Z"/><path class="cls-3" d="M176.4,58.7v7.43c0,.43,0,1.14,0,1.51h-.84l-.08-.78h0a1.46,1.46,0,0,1-1.31.88c-1.05,0-1.82-1.14-1.82-3.21s.92-3.23,1.87-3.23a1.19,1.19,0,0,1,1.15.73h0V58.7Zm-1,5.07c0-.12,0-.28,0-.41-.06-.66-.46-1.21-.94-1.21-.82,0-1.11,1.15-1.11,2.38s.34,2.38,1.07,2.38c.31,0,.73-.16.95-1.07a1.68,1.68,0,0,0,0-.41Z"/><path class="cls-3" d="M178.5,64.61c0,1.92.76,2.32,1.47,2.32a2.28,2.28,0,0,0,1-.24l.16.73a3.23,3.23,0,0,1-1.38.29c-1.5,0-2.28-1.22-2.28-3.13s.87-3.28,2.12-3.28,1.79,1.34,1.79,2.73a4.51,4.51,0,0,1,0,.58Zm2-.74c0-1.24-.45-1.8-.93-1.8-.66,0-1,.94-1,1.8Z"/><path class="cls-3" d="M182.49,58.7h1v8.94h-1Z"/><path class="cls-3" d="M186.87,66.49a2.54,2.54,0,0,0,1.24.35,1.37,1.37,0,0,0,1.46-1.48,2.2,2.2,0,0,0-1.15-1.8,3.23,3.23,0,0,1-1.64-2.42,2.18,2.18,0,0,1,2.3-2.28,2.24,2.24,0,0,1,1.22.32l-.24.85a1.78,1.78,0,0,0-1-.3A1.21,1.21,0,0,0,187.76,61c0,.87.45,1.2,1.28,1.8a3,3,0,0,1,1.51,2.51,2.32,2.32,0,0,1-2.44,2.43,2.89,2.89,0,0,1-1.46-.37Z"/><path class="cls-3" d="M192.44,64.61c0,1.92.76,2.32,1.46,2.32a2.18,2.18,0,0,0,1-.24l.17.73a3.23,3.23,0,0,1-1.38.29c-1.5,0-2.28-1.22-2.28-3.13s.87-3.28,2.13-3.28,1.78,1.34,1.78,2.73c0,.25,0,.42,0,.58Zm2-.74c0-1.24-.45-1.8-.93-1.8-.66,0-1,.94-1,1.8Z"/><path class="cls-3" d="M199.48,67.48a2.12,2.12,0,0,1-1,.23c-1.38,0-2.29-1.1-2.29-3.16,0-1.8.9-3.25,2.47-3.25a2,2,0,0,1,.88.19l-.2.81a1.58,1.58,0,0,0-.71-.16c-1,0-1.45,1.18-1.45,2.41,0,1.46.56,2.34,1.48,2.34a1.37,1.37,0,0,0,.7-.17Z"/><path class="cls-3" d="M201.74,59.92v1.46h1.2v.76h-1.2v3.72c0,.81.28,1,.65,1a2.06,2.06,0,0,0,.4,0l.05.76a2.05,2.05,0,0,1-.74.1,1.24,1.24,0,0,1-1-.37,2.22,2.22,0,0,1-.37-1.58V62.14H200v-.76h.77V60.33Z"/><path class="cls-3" d="M207.55,64.51c0,2.42-1.11,3.23-2.08,3.23-1.12,0-2-1-2-3.21s1-3.23,2.09-3.23S207.55,62.34,207.55,64.51Zm-3.11,0c0,1,.18,2.45,1.08,2.45s1-1.46,1-2.45-.18-2.43-1.06-2.43S204.44,63.56,204.44,64.51Z"/><path class="cls-3" d="M208.66,63c0-.53,0-1.15-.06-1.62h.9l.05,1h0a1.52,1.52,0,0,1,1.32-1.08h.21v1h-.21a1.35,1.35,0,0,0-1.2,1.29,3.2,3.2,0,0,0,0,.56v3.47h-1Z"/><path class="cls-3" d="M213.78,66.49a2.58,2.58,0,0,0,1.25.35,1.37,1.37,0,0,0,1.45-1.48,2.2,2.2,0,0,0-1.15-1.8,3.21,3.21,0,0,1-1.63-2.42A2.18,2.18,0,0,1,216,58.86a2.12,2.12,0,0,1,1.21.32L217,60a1.81,1.81,0,0,0-1-.3A1.2,1.2,0,0,0,214.68,61c0,.87.45,1.2,1.27,1.8a3,3,0,0,1,1.52,2.51A2.32,2.32,0,0,1,215,67.71a2.93,2.93,0,0,1-1.47-.37Z"/><path class="cls-3" d="M222.49,64.51c0,2.42-1.11,3.23-2.08,3.23-1.12,0-2-1-2-3.21s1-3.23,2.09-3.23S222.49,62.34,222.49,64.51Zm-3.11,0c0,1,.18,2.45,1.08,2.45s1-1.46,1-2.45-.19-2.43-1.06-2.43S219.38,63.56,219.38,64.51Z"/><path class="cls-3" d="M226.65,67.48a2.09,2.09,0,0,1-1,.23c-1.37,0-2.29-1.1-2.29-3.16,0-1.8.9-3.25,2.46-3.25a2,2,0,0,1,.89.19l-.19.81a1.63,1.63,0,0,0-.72-.16c-1,0-1.44,1.18-1.44,2.41,0,1.46.55,2.34,1.46,2.34a1.45,1.45,0,0,0,.72-.17Z"/><path class="cls-3" d="M228.58,59.77a.59.59,0,1,1-.6-.64A.59.59,0,0,1,228.58,59.77Zm-1.08,7.87V61.38h1v6.26Z"/><path class="cls-3" d="M233.17,66.21a12.68,12.68,0,0,0,.07,1.43h-.89l-.06-.66h0a1.45,1.45,0,0,1-1.26.76A1.58,1.58,0,0,1,229.52,66c0-1.57,1.26-2.26,2.66-2.27v-.2c0-.84-.21-1.41-1-1.41a1.78,1.78,0,0,0-1,.33l-.21-.7a2.75,2.75,0,0,1,1.45-.41c1.26,0,1.78.81,1.78,2.21Zm-1-1.81c-.52,0-1.7.1-1.7,1.46,0,.82.4,1.1.76,1.1s.79-.32.91-.94a1.46,1.46,0,0,0,0-.36Z"/><path class="cls-3" d="M234.58,58.7h1v8.94h-1Z"/><path class="cls-3" d="M240.2,65l-.56,2.61h-1l2-8.71h1.11l1.93,8.71h-1L242.14,65Zm1.8-.81-.45-2.2c-.13-.62-.24-1.34-.35-2h0c-.1.66-.23,1.41-.36,2l-.46,2.2Z"/><path class="cls-3" d="M244.64,67a.7.7,0,0,1,.66-.75A.67.67,0,0,1,246,67a.66.66,0,0,1-.68.75A.67.67,0,0,1,244.64,67Z"/><path class="cls-3" d="M251.09,67.48a2.7,2.7,0,0,1-1.25.23c-1.69,0-2.92-1.36-2.92-4.32,0-3.44,1.71-4.53,3.09-4.53a2.23,2.23,0,0,1,1.08.21l-.22.84a1.89,1.89,0,0,0-.87-.18c-.93,0-2,.91-2,3.57s1,3.54,2.06,3.54a2.3,2.3,0,0,0,.9-.18Z"/><path class="cls-3" d="M252,67a.69.69,0,0,1,.65-.75.67.67,0,0,1,.66.75.66.66,0,0,1-.67.75A.67.67,0,0,1,252,67Z"/></g></g></svg>